<?xml version="1.0" encoding="UTF-8"?>
<svg width="1016px" height="716px" viewBox="0 0 1016 716" version="1.1" xmlns="http://www.w3.org/2000/svg" xmlns:xlink="http://www.w3.org/1999/xlink">
    <!-- Generator: Sketch 50.2 (55047) - http://www.bohemiancoding.com/sketch -->
    <title>illustration_landing@2x</title>
    <desc>Created with Sketch.</desc>
    <defs>
        <linearGradient x1="100%" y1="28.687181%" x2="-40.5593525%" y2="113.815303%" id="linearGradient-1">
            <stop stop-color="#FDFFDE" offset="0%"></stop>
            <stop stop-color="#B8E994" offset="100%"></stop>
        </linearGradient>
        <path d="M0.404588056,0 C139.043429,62.9872887 230.514658,139.4694 274.818276,229.446335 C341.273703,364.411737 292.112576,452.946215 274.818276,552.01946 C257.523976,651.092705 351.013241,792.302621 520.697472,734.552825 C690.381702,676.803029 928.367573,680.074315 1079.57721,680.074315 C1079.57721,629.92195 1079.57721,573.141151 1079.57721,509.73192 L1079.57721,0 L0.404588056,0 Z" id="path-2"></path>
        <filter x="-3.3%" y="-4.8%" width="106.7%" height="109.6%" filterUnits="objectBoundingBox" id="filter-4">
            <feGaussianBlur stdDeviation="36" in="SourceAlpha" result="shadowBlurInner1"></feGaussianBlur>
            <feOffset dx="0" dy="0" in="shadowBlurInner1" result="shadowOffsetInner1"></feOffset>
            <feComposite in="shadowOffsetInner1" in2="SourceAlpha" operator="arithmetic" k2="-1" k3="1" result="shadowInnerInner1"></feComposite>
            <feColorMatrix values="0 0 0 0 0.733333333   0 0 0 0 0.847058824   0 0 0 0 0.725490196  0 0 0 0.71 0" type="matrix" in="shadowInnerInner1"></feColorMatrix>
        </filter>
        <linearGradient x1="53.5451346%" y1="42.4900777%" x2="46.9990092%" y2="10.6159472%" id="linearGradient-5">
            <stop stop-color="#FFFFFF" offset="0%"></stop>
            <stop stop-color="#ECECEC" offset="100%"></stop>
        </linearGradient>
        <path d="M48.4469066,0.563165771 L2.32432376,18.494981 C1.11980899,18.9632795 0.522987779,20.3193626 0.991286279,21.5238774 C1.26230903,22.2209775 1.85023563,22.7465209 2.57324668,22.9379807 L13.2992597,25.778325 L17.3421447,39.1519572 C17.5291275,39.7704855 18.1821232,40.1203223 18.8006515,39.9333395 C19.2671834,39.7923057 19.5974199,39.3768373 19.629545,38.8905138 L20.2637137,29.290216 L39.4264205,43.213429 C40.4719328,43.9730759 41.9353035,43.7413362 42.6949503,42.6958239 C42.8843507,42.4351495 43.0178741,42.1381681 43.0871543,41.8234875 L51.5801074,3.24725866 C51.8579762,1.98513813 51.0600825,0.736730111 49.797962,0.458861307 C49.3471796,0.359616932 48.8771143,0.395907009 48.4469066,0.563165771 Z" id="path-6"></path>
        <linearGradient x1="16.8779436%" y1="100%" x2="-78.7373829%" y2="16.9024826%" id="linearGradient-8">
            <stop stop-color="#FFFFFF" offset="0%"></stop>
            <stop stop-color="#B9B9B9" offset="100%"></stop>
        </linearGradient>
        <linearGradient x1="75.353674%" y1="100%" x2="60.6920397%" y2="15.2231482%" id="linearGradient-9">
            <stop stop-color="#FF7566" offset="0%"></stop>
            <stop stop-color="#EB6F62" offset="100%"></stop>
        </linearGradient>
        <path d="M0,0 L139.354839,0 L123.525224,90.7614618 C123.149467,92.9159223 121.279126,94.4882925 119.092143,94.4882925 L20.6054273,94.4882925 C18.4246653,94.4882925 16.5577604,92.9246364 16.1752073,90.7776906 L0,0 Z" id="path-10"></path>
        <linearGradient x1="50%" y1="0%" x2="50%" y2="100%" id="linearGradient-12">
            <stop stop-color="#FFAD9F" offset="0%"></stop>
            <stop stop-color="#FF7566" offset="100%"></stop>
        </linearGradient>
        <path d="M7.39825499,0 C4.42365339,6.82284032 2.8021899,11.0713268 2.53386453,12.7454595 C2.13137647,15.2566585 1.52946834,18.8305699 0.850224134,19.4952847 C0.17097993,20.1599994 -0.327813432,23.8793707 0.261205351,24.4382298 C0.850224134,24.9970889 1.96576053,21.0496269 2.53386453,20.7198364 C3.10196852,20.390046 3.07837859,21.4935849 3.65122489,21.4935849 C4.22407119,21.4935849 4.04945704,20.4098481 4.04945704,19.4952847 C4.04945704,18.5807212 3.25299275,16.9303022 3.65122489,15.9722231 C4.04945704,15.0141439 6.11442751,9.6157506 7.39825499,7.15173437 C8.25413998,5.50905688 9.24053972,3.65197894 10.3574542,1.58050054 L7.39825499,0 Z" id="path-13"></path>
        <path d="M0,0 L4.2745409,28.8444522 C2.6077616,30.3390974 1.47864329,31.0864201 0.887185973,31.0864201 C0.295728658,31.0864201 2.19703575,31.0864201 6.59110724,31.0864201 L6.59110724,1.40171565 L0,0 Z" id="path-15"></path>
        <polygon id="path-17" points="6.70911645 0 14.4972319 29.5248776 20.7149085 32.9704455 11.5342976 32.9704455 11.5342976 29.5248776 0 0"></polygon>
        <path d="M10.2502024,0.841704659 C11.0395283,1.82709131 11.9207112,2.31978464 12.8937512,2.31978464 C13.8667911,2.31978464 14.8341907,1.61949672 15.79595,0.218920877 C18.0804506,0.811123694 19.7659466,1.76139887 20.8524381,3.0697464 C21.8578641,4.28047539 22.8215669,5.84772396 23.7435463,7.77149212 L23.7435804,7.77147579 C23.8825766,8.06150011 23.8562562,8.40365218 23.6745371,8.66900517 L21.6085665,11.685812 L19.0878161,9.36505651 C18.4757581,11.2455432 18.1697292,12.4278453 18.1697292,12.9119631 C18.1697292,13.6381396 18.1455563,18.7757418 19.0878161,20.5552627 C19.5988122,21.5203132 21.7997189,24.1590244 23.2121969,28.2990426 C24.4042813,31.7930799 24.7798986,36.4718064 25.6860519,40.9479123 C26.4334781,44.6399571 29.0557548,51.9415266 29.0557548,52.8939052 C29.0557548,53.8462838 23.852206,60.438049 11.7924336,57.7349205 C7.42003877,56.7548734 6.63248556,56.630236 2.2310832,56.630236 C-2.17031916,56.630236 2.42201122,49.8549198 0.692857046,43.9972381 C-1.03629713,38.1395564 8.16553113,27.8638902 8.16553113,24.4601333 C8.16553113,22.190962 8.16553113,17.7003425 8.16553113,10.9882747 L7.24361339,13.1743257 C7.05046474,13.6323197 6.5226093,13.8470193 6.06461528,13.6538706 C6.05349902,13.6491826 6.04247814,13.6442715 6.03155934,13.6391404 L3.82936973,12.60423 C3.44210083,12.4222383 3.23651913,11.9927316 3.33767062,11.5769594 C4.47851217,6.88765381 5.41208576,4.05191616 6.1383914,3.0697464 C6.90091309,2.03860236 8.27151675,1.29592177 10.2502024,0.841704659 Z" id="path-19"></path>
        <linearGradient x1="56.6223502%" y1="118.12538%" x2="50%" y2="66.3128118%" id="linearGradient-21">
            <stop stop-color="#D8E1D4" offset="0%"></stop>
            <stop stop-color="#FFFFFF" offset="100%"></stop>
        </linearGradient>
        <path d="M529.011334,220.057724 L410.722554,220.057724 C388.264072,216.071298 374.486068,204.295404 369.388543,184.730042 C361.742256,155.382 387.092583,127 410.722554,127 C434.352525,127 459.854333,142.004768 459.854333,173.528862 C467.026,162.890933 488.732754,153.836324 502.884337,173.528862 C508.52702,181.380898 508.883764,194.710232 512.962641,201.876477 C516.191134,207.548667 521.540698,213.609083 529.011334,220.057724 Z" id="path-22"></path>
        <filter x="-25.2%" y="-43.5%" width="150.3%" height="187.0%" filterUnits="objectBoundingBox" id="filter-23">
            <feOffset dx="0" dy="0" in="SourceAlpha" result="shadowOffsetOuter1"></feOffset>
            <feGaussianBlur stdDeviation="13.5" in="shadowOffsetOuter1" result="shadowBlurOuter1"></feGaussianBlur>
            <feColorMatrix values="0 0 0 0 0.780392157   0 0 0 0 0.811764706   0 0 0 0 0.670588235  0 0 0 0.3 0" type="matrix" in="shadowBlurOuter1"></feColorMatrix>
        </filter>
        <path d="M790.964856,250.087278 L714.58591,250.087278 C700.084491,247.513247 691.188048,239.909564 687.896581,227.27623 C682.959381,208.326229 699.328061,190 714.58591,190 C729.843758,190 746.31025,199.688564 746.31025,220.043639 C750.940988,213.174739 763.254399,203.156316 774.09468,220.043639 C777.398729,225.190787 777.968504,233.720429 780.602231,238.347666 C782.686866,242.010193 786.141074,245.923397 790.964856,250.087278 Z" id="path-24"></path>
        <filter x="-39.0%" y="-67.4%" width="177.9%" height="234.8%" filterUnits="objectBoundingBox" id="filter-25">
            <feOffset dx="0" dy="0" in="SourceAlpha" result="shadowOffsetOuter1"></feOffset>
            <feGaussianBlur stdDeviation="13.5" in="shadowOffsetOuter1" result="shadowBlurOuter1"></feGaussianBlur>
            <feColorMatrix values="0 0 0 0 0.780392157   0 0 0 0 0.811764706   0 0 0 0 0.670588235  0 0 0 0.3 0" type="matrix" in="shadowBlurOuter1"></feColorMatrix>
        </filter>
        <path d="M932.996768,207.189036 L879.368875,207.189036 C869.187004,205.381734 862.940551,200.042966 860.629516,191.172732 C857.162963,177.867381 868.655893,165 879.368875,165 C890.081856,165 901.643462,171.802624 901.643462,186.094518 C904.894839,181.271663 913.540445,174.237435 921.151724,186.094518 C923.471593,189.708481 923.871649,195.697392 925.720866,198.946311 C927.184548,201.517879 929.609849,204.265454 932.996768,207.189036 Z" id="path-26"></path>
        <filter x="-55.5%" y="-96.0%" width="211.0%" height="292.0%" filterUnits="objectBoundingBox" id="filter-27">
            <feOffset dx="0" dy="0" in="SourceAlpha" result="shadowOffsetOuter1"></feOffset>
            <feGaussianBlur stdDeviation="13.5" in="shadowOffsetOuter1" result="shadowBlurOuter1"></feGaussianBlur>
            <feColorMatrix values="0 0 0 0 0.780392157   0 0 0 0 0.811764706   0 0 0 0 0.670588235  0 0 0 0.3 0" type="matrix" in="shadowBlurOuter1"></feColorMatrix>
        </filter>
        <path d="M49.0216199,0.546870978 L2.3433902,18.5350556 C1.13748771,18.9997689 0.536635197,20.3540706 1.00134855,21.5599731 C1.27182528,22.2618436 1.8632117,22.7909036 2.59075042,22.9818674 L13.4446017,25.8307781 L17.5529914,39.3015332 C17.7414931,39.9196003 18.3953463,40.2678319 19.0134134,40.0793302 C19.4783528,39.9375302 19.8071889,39.5230274 19.8395114,39.038021 L20.4851672,29.3498151 L39.8992005,43.3315384 C40.9478913,44.0867912 42.4102766,43.8489128 43.1655295,42.800222 C43.3510433,42.5426307 43.4822062,42.2499869 43.551037,41.9400982 L52.147388,3.23773311 C52.4276076,1.97613243 51.6320411,0.726240112 50.3704404,0.446020485 C49.9207087,0.346128613 49.4514965,0.381211325 49.0216199,0.546870978 Z" id="path-28"></path>
        <path d="M0.457910156,0.397318742 L11.5207031,94.7499718 L20.3537109,94.7499718 C20.3537109,61.3634771 20.3537109,41.3478129 20.3537109,34.7029793 C20.3537109,28.0581456 21.8762695,17.8101935 24.9213867,3.95912304 L0.457910156,0.397318742 Z" id="path-30"></path>
        <path d="M8.47353516,0.871112553 C3.21650391,14.8716171 0.587988281,22.7183692 0.587988281,24.411369 C0.587988281,26.1043688 0.587988281,52.1293324 0.587988281,102.48626 C3.58916016,103.53933 5.65371094,104.065866 6.78164062,104.065866 C7.90957031,104.065866 9.87626953,103.53933 12.6817383,102.48626 C13.9227539,60.9301184 14.9229492,38.6354386 15.6823242,35.6022206 C16.8213867,31.0523936 34.6130859,10.503455 36.1546875,8.60212658 C37.1824219,7.33457431 27.9553711,4.75756963 8.47353516,0.871112553 Z" id="path-32"></path>
        <polygon id="path-34" points="22.8990234 20.119096 4.07548828 0.105482852 0.158862305 3.29974534 20.9768555 32.2610513"></polygon>
        <path d="M25.9200612,0.45526598 C31.3932952,5.26537471 35.2712436,8.24147895 37.5539062,9.38357871 C40.1946089,10.704819 44.1077925,11.2764774 49.293457,11.0985541 L58.6054687,48.5062895 L60.8787598,58.7662549 L56.9847656,58.7662549 L56.9847656,102.993023 C28.9505859,95.4155412 10.1730469,91.0610021 0.652148437,89.9294055 C3.01582031,82.3633549 6.42246094,70.680543 10.8720703,54.8809698 L7.08837891,54.8809698 L7.08840479,38.0130015 C7.08840479,37.4719224 7.33180962,36.9595475 7.75123707,36.6177183 C12.7094195,32.5768494 16.320498,27.8467475 18.5844727,22.4274124 C20.6739152,17.4258592 22.1255513,10.4975799 22.939381,1.64257453 L22.9394009,1.64257636 C23.0303815,0.652646936 23.9066323,-0.0760950523 24.8965617,0.0148855719 C25.2757186,0.0497324296 25.6340592,0.203915394 25.9200612,0.45526598 Z" id="path-36"></path>
        <path d="M0,9.72217767 C4.44023437,3.45473822 8.10234375,0.321018487 10.9863281,0.321018487 C15.3123047,0.321018487 22.5430664,2.09400942 27.9641602,7.14136389 C33.3852539,12.1887184 34.8833992,28.2030776 33.3852539,30.1621173 C31.5729492,32.5319654 32.0009766,38.4502576 33.3852539,41.8925147 C34.7695312,45.3347717 37.3702148,56.2529511 30.2704102,55.1191853 C23.1706055,53.9854194 20.5716797,61.367461 18.8402344,58.2926359 C17.1087891,55.2178108 21.6369141,51.6180336 21.6369141,46.3878422 C21.6369141,41.1576508 14.7691406,39.6095151 14.7691406,34.8858162 C14.7691406,30.1621173 6.64101562,25.2149716 8.81367187,25.2149716 C10.9863281,25.2149716 9.34541016,16.9292935 7.29492187,19.3228752 C5.92792969,20.9185964 3.49628906,18.5405441 0,12.1887184 L0,9.72217767 Z" id="path-38"></path>
        <path d="M16.8525879,6.53993682 C16.8024902,8.48773012 18.0496977,9.46162677 20.5942104,9.46162677 C24.4109795,9.46162677 36.0082878,9.46162677 42.2336175,7.83507109 C48.4589472,6.20851542 58.0631535,1.60724238 60.1816183,0.37778675 C62.3000832,-0.851668883 63.8917389,3.89751568 62.3646477,5.08693157 C60.8375564,6.27634746 45.3584255,14.8910159 40.4859202,17.0343198 C35.6134149,19.1776237 30.131045,21.4471705 28.6956541,25.3946181 C27.7387268,28.0262498 26.3413884,36.3636234 24.5036389,50.4067389 C8.39815307,47.4409127 0.345410156,45.9579996 0.345410156,45.9579996 C0.345410156,45.9579996 3.51253379,27.046779 6.22705078,20.0487741 C8.03672878,15.3834374 11.5785745,10.8804917 16.8525879,6.53993682 Z" id="path-40"></path>
        <linearGradient x1="-12.5052691%" y1="208.690991%" x2="50%" y2="100%" id="linearGradient-42">
            <stop stop-color="#000000" offset="0%"></stop>
            <stop stop-color="#FFFFFF" offset="100%"></stop>
        </linearGradient>
        <path d="M0.432421875,0.780573105 C1.53316406,21.0745381 2.08353516,32.6101973 2.08353516,35.3875507 C2.08353516,38.1649041 1.82566406,46.1066487 1.30992188,59.2127845 L6.85668164,59.2127845 C8.93926758,46.8744259 9.98056055,39.9627066 9.98056055,38.4776267 C9.98056055,36.2500068 9.98056055,27.3014364 9.98056055,23.6268276 C9.98056055,19.9522189 12.2567871,17.6183204 13.5406055,19.9522189 C14.8244238,22.2861174 16.0740703,29.0912445 16.0740703,33.7844356 C16.0740703,36.9132297 16.0740703,45.389346 16.0740703,59.2127845 L21.1889355,59.2127845 C23.183877,48.9405899 24.1813477,42.0288707 24.1813477,38.4776267 C24.1813477,34.9263827 23.9535352,23.9730955 23.4979102,5.61776493 L0.432421875,0.780573105 Z" id="path-43"></path>
        <linearGradient x1="80.6644009%" y1="9.24973582%" x2="74.9387005%" y2="88.1366678%" id="linearGradient-45">
            <stop stop-color="#828282" offset="0%"></stop>
            <stop stop-color="#FFFFFF" offset="100%"></stop>
        </linearGradient>
        <path d="M0.117716734,6.28462037 C0.818271169,4.55534089 1.57908266,3.31016377 2.40015121,2.54908901 C3.63175403,1.40747687 3.90551915,1.8970132 3.90551915,2.22305111 C3.90551915,2.54908901 5.98041835,0.0750366652 6.45763609,0.0750366652 C6.93485383,0.0750366652 7.41706149,1.37894856 6.93734879,1.37894856 C6.45763609,1.37894856 6.93734879,1.9183495 6.93734879,2.54908901 C6.93734879,3.17982852 6.70655786,6.72884702 5.16660786,8.05337602 C4.13997453,8.93639534 3.062908,9.7819363 1.93540827,10.5899989 L0.117716734,6.28462037 Z" id="path-46"></path>
        <linearGradient x1="23.5636613%" y1="104.562714%" x2="64.5060936%" y2="65.8118603%" id="linearGradient-48">
            <stop stop-color="#8F8F8F" offset="0%"></stop>
            <stop stop-color="#FFFFFF" offset="100%"></stop>
        </linearGradient>
    </defs>
    <g id="UI" stroke="none" stroke-width="1" fill="none" fill-rule="evenodd">
        <g id="welcome" transform="translate(-424.000000, 0.000000)">
            <g id="Group-41" transform="translate(360.000000, -32.000000)">
                <g id="Group-14">
                    <g id="Path-45-+-Oval-2-+-Rectangle-2-+-Group-6-+-flower-+-Path-23-+-Combined-Shape-+-Group-7-+-Group-11-+-Oval-3-+-Oval-3-Copy-+-Path-40-+-Path-40-Copy-Mask">
                        <mask id="mask-3" fill="white">
                            <use xlink:href="#path-2"></use>
                        </mask>
                        <g id="Mask">
                            <use fill="url(#linearGradient-1)" fill-rule="evenodd" xlink:href="#path-2"></use>
                            <use fill="black" fill-opacity="1" filter="url(#filter-4)" xlink:href="#path-2"></use>
                        </g>
                        <g id="Group-30-Copy-2" mask="url(#mask-3)">
                            <g transform="translate(316.000000, 380.000000)">
                                <polygon id="Path-98" fill="#CDCDCD" points="19 41 27 33.88302 19 28"></polygon>
                                <g id="Group-29" stroke-width="1" fill="none">
                                    <g id="Path-99">
                                        <mask id="mask-7" fill="white">
                                            <use xlink:href="#path-6"></use>
                                        </mask>
                                        <use id="Mask" fill="url(#linearGradient-5)" xlink:href="#path-6"></use>
                                        <path d="M13.3268735,25.8267169 L39.8943893,9.49681352 C40.1766958,9.32329196 40.5462174,9.41147952 40.7197389,9.69378595 C40.8697012,9.93776314 40.8263376,10.2537112 40.6161877,10.4482634 L20.3188647,29.2390796 L19.5883623,41.1952275 C19.3852128,41.5671174 19.0244015,41.7220421 18.5059285,41.6600014 C17.420281,41.5300925 15.6939293,36.252331 13.3268735,25.8267169 Z" fill="url(#linearGradient-8)" mask="url(#mask-7)"></path>
                                    </g>
                                </g>
                            </g>
                        </g>
                        <path d="M224.881076,592.570164 C240.994714,592.570164 291.487304,551.088486 321.250272,504.878346 C351.013241,458.668206 373.122139,447.41189 391.266075,469.96132 C409.41001,492.510749 425.336067,537.712641 488.488584,524.248483 C551.641102,510.784324 637.549858,419.82122 784.507274,419.82122 C931.46469,419.82122 940.487004,554.930132 985.002724,569.200153 C1014.67987,578.7135 1049.06127,586.503504 1088.14693,592.570164 L1088.14693,604.125137 C941.827834,616.422685 791.741604,621.552039 637.888241,619.5132 C365.520307,615.903825 217.527813,592.570164 224.881076,592.570164 Z" id="Path-45" fill="#4A4A4A" opacity="0.0708705357" mask="url(#mask-3)"></path>
                        <ellipse id="Oval-2" fill="#7A9578" opacity="0.25859375" mask="url(#mask-3)" cx="549.415867" cy="642.923688" rx="24.9520488" ry="2.35503182"></ellipse>
                        <rect id="Rectangle-2" fill="#4A4A4A" opacity="0.25999999" mask="url(#mask-3)" x="518.814298" y="286.37187" width="414.298169" height="257.169475" rx="8.09999979"></rect>
                        <ellipse id="Oval-3" fill="#FFFFFF" opacity="0.400000006" mask="url(#mask-3)" cx="524.463819" cy="226.083055" rx="89.4507411" ry="89.4912093"></ellipse>
                        <ellipse id="Oval-3-Copy" fill="#4A4A4A" opacity="0.0563058036" mask="url(#mask-3)" cx="892.624237" cy="258.111488" rx="67.7942459" ry="67.8249166"></ellipse>
                        <g id="Group-6" mask="url(#mask-3)">
                            <g transform="translate(509.398431, 276.951743)">
                                <g id="Group">
                                    <rect id="Rectangle-2" fill="#FFFFFF" x="0" y="0" width="419.006103" height="261.879539" rx="8.81999962"></rect>
                                </g>
                                <g id="Group-4" transform="translate(50.069912, 85.661309)">
                                    <rect id="Rectangle-6" fill="#BABABA" opacity="0.359999985" x="7.53269398" y="7.90719776" width="318.86628" height="44.807454" rx="1.97999999"></rect>
                                    <rect id="Rectangle-6-Copy" fill="#BABABA" opacity="0.359999985" x="7.53269398" y="88.2970417" width="318.86628" height="44.807454" rx="1.97999999"></rect>
                                    <rect id="Rectangle-6" fill="#F8F8F8" x="0" y="0" width="318.86628" height="44.807454" rx="3.77999984"></rect>
                                    <rect id="Rectangle-6-Copy-2" fill="#F8F8F8" x="0" y="80.3898439" width="318.86628" height="44.807454" rx="3.77999984"></rect>
                                    <polyline id="Path-3" stroke="#78E08F" stroke-width="6.29999973" stroke-linecap="round" stroke-linejoin="round" points="278.940745 21.6397092 286.097444 28.5917299 299.365584 14.9059195"></polyline>
                                    <polyline id="Path-3-Copy" stroke="#78E08F" stroke-width="6.29999973" stroke-linecap="round" stroke-linejoin="round" points="278.855522 101.491521 286.071944 108.501557 299.450807 94.7015376"></polyline>
                                </g>
                            </g>
                        </g>
                        <g id="flower" mask="url(#mask-3)">
                            <g transform="translate(396.349608, 356.022825)">
                                <ellipse id="Oval" fill="#7A9578" opacity="0.25859375" cx="75.8561465" cy="282.661806" rx="74.8561465" ry="3.76805092"></ellipse>
                                <g id="Group-8" stroke-width="1" fill="none" transform="translate(1.900000, 1.000000)">
                                    <g id="Path-42" transform="translate(4.749520, 186.518521)">
                                        <mask id="mask-11" fill="white">
                                            <use xlink:href="#path-10"></use>
                                        </mask>
                                        <use id="Mask" fill="url(#linearGradient-9)" xlink:href="#path-10"></use>
                                        <path d="M137.34753,15.9148635 C136.117215,15.9148635 123.26051,32.3292513 118.123161,41.1762596 C112.985812,50.0232678 97.256532,89.4691309 99.7125654,94.3631814 C101.349921,97.6258818 109.971018,97.6258818 125.575857,94.3631814 C134.243849,42.0643028 138.167741,15.9148635 137.34753,15.9148635 Z" fill-opacity="0.100000001" fill="#4A4A4A" mask="url(#mask-11)"></path>
                                    </g>
                                    <g id="Group-5" transform="translate(102.129599, 108.664339) scale(-1, 1) translate(-102.129599, -108.664339) translate(62.979599, 34.854471)">
                                        <path d="M54.2985737,146.454421 C48.4258594,146.454421 37.4448502,151.822062 20.7951923,127.368171 C12.6250544,115.368425 20.7951923,105.598103 20.7951923,98.9932222 C20.7951923,92.3883416 20.9474415,83.8773888 9.49282615,73.3735694 C-1.96178921,62.86975 6.17926731,51.8196366 6.17926731,46.0537682 C6.17926731,40.2878997 2.67712027,27.9440048 0.487883609,16.8176836 C-1.70135305,5.6913625 3.86302639,1.83950161e-15 9.49282615,0 C15.1226259,0 24.9675051,3.69812048 32.0411065,19.2938757 C39.1147078,34.8896309 45.0678233,37.6636467 49.6831985,41.8587074 C54.2985737,46.0537682 58.9139488,52.667158 54.2985737,64.5886187 C49.6831985,76.5100793 61.310591,80.3261456 68.0369273,85.865668 C74.7632635,91.4051903 86.9650432,118.898046 68.0369273,139.442798 C64.2221435,143.583399 60.1712879,146.454421 54.2985737,146.454421 Z" id="Path-4" fill="#78E08F"></path>
                                        <path d="M36.3350128,32.6306941 C33.2574406,27.6115553 23.3573637,12.1049042 21.3930872,10.7502896 C19.4288107,9.39567501 11.6172242,3.57789715 14.933966,12.0212007 C18.2507077,20.4645042 28.0142265,38.4830285 30.4444979,48.8776221 C32.8747693,59.2722157 38.1997639,86.1087895 38.1997639,96.9272761 C38.1997639,107.745763 48.7780022,132.823795 57.4259107,132.823795 C66.0738192,132.823795 71.7938293,106.998575 68.9338242,100.452807 C66.0738192,93.9070385 51.0261961,79.8909242 48.4732539,76.5105311 C45.9203117,73.130138 49.8527222,60.7496979 49.8527222,57.1803959 C49.8527222,53.611094 48.5343132,48.0290682 45.2174617,45.5479119 C41.9006103,43.0667555 39.412585,37.649833 36.3350128,32.6306941 Z" id="Path-7" fill="#5AB572" opacity="0.404854911" transform="translate(41.900610, 70.179948) rotate(-3.000000) translate(-41.900610, -70.179948) "></path>
                                        <path d="M16.9485615,33.9124583 C24.523973,48.3433366 29.5702136,61.177041 32.0872833,72.4135716 C34.0473163,81.163417 34.0139536,94.649731 36.7167552,105.208551 C39.2203508,114.989148 43.7987393,126.376336 47.0793374,129.997757" id="Path-5" stroke="#FFFFFF" stroke-width="1.79999995" opacity="0.621316964" stroke-linecap="round"></path>
                                        <path d="M15.065388,66.8829038 C19.7223346,69.8315453 23.8025439,72.3435792 27.3060157,74.4190057" id="Path-6" stroke="#FFFFFF" stroke-width="1.79999995" opacity="0.621316964" stroke-linecap="round"></path>
                                        <path d="M25.4228422,110.215489 C27.4893367,116.563193 31.5695459,120.959253 37.6634699,123.403668" id="Path-6-Copy-2" stroke="#FFFFFF" stroke-width="1.79999995" opacity="0.621316964" stroke-linecap="round"></path>
                                        <path d="M38.6050567,59.346802 C42.0830786,61.6709225 45.2217011,65.1249692 48.0209241,69.708942" id="Path-6-Copy" stroke="#FFFFFF" stroke-width="1.79999995" opacity="0.621316964" stroke-linecap="round" transform="translate(43.312990, 64.527872) scale(-1, 1) translate(-43.312990, -64.527872) "></path>
                                        <path d="M47.3845987,115.867566 C46.301995,105.06875 48.098967,97.8408654 52.7755146,94.1839118 C57.4520622,90.5269583 59.201076,89.007362 58.022556,89.6251231" id="Path-8" stroke="#FFFFFF" stroke-width="1.79999995" opacity="0.621316964" stroke-linecap="round"></path>
                                        <path d="M16.9485615,52.7527129 C16.1429105,48.984662 14.8874615,47.1006365 13.1822145,47.1006365" id="Path-9" stroke="#FFFFFF" stroke-width="1.79999995" opacity="0.621316964" stroke-linecap="round" transform="translate(15.065388, 49.926675) rotate(-38.000000) translate(-15.065388, -49.926675) "></path>
                                    </g>
                                    <path d="M66.8832116,89.7791488 C77.0843478,95.4502371 84.5241704,100.466026 89.2026795,104.826514 C96.2204433,111.367247 112.8343,135.69859 104.192667,168.680074 C101.208702,180.068614 92.6147946,173.863116 86.6668558,174.494059 C82.9764268,174.885531 77.5331157,174.885531 70.3369224,174.494059 L66.8832116,89.7791488 Z" id="Path-10" fill-opacity="0.129999995" fill="#4A4A4A"></path>
                                    <g id="Group-5">
                                        <path d="M68.1580887,185.199182 C60.7877225,185.199182 47.0063506,191.973629 26.1107185,161.110614 C15.8570428,145.965853 26.1107185,133.634827 26.1107185,125.298872 C26.1107185,116.962917 26.3017941,106.221328 11.9260377,92.9645612 C-2.44971883,79.7077945 7.76745935,65.7615556 7.76745935,58.48451 C7.76745935,51.2074644 3.37219931,35.6283565 0.624666365,21.5859365 C-2.12286658,7.54351652 4.86053368,0.360504128 11.9260377,0.360504128 C18.9915416,0.360504128 31.3470492,5.02786545 40.2245511,24.711114 C49.1020531,44.3943626 56.5733244,47.8954206 62.3657065,53.1899653 C68.1580887,58.48451 73.9504709,66.831204 68.1580887,81.8771617 C62.3657065,96.9231194 76.9583017,101.739339 85.3999794,108.730715 C93.8416572,115.722092 109.155119,150.420553 85.3999794,176.349882 C80.6123545,181.575694 75.5284549,185.199182 68.1580887,185.199182 Z" id="Path-4" fill="#78E08F"></path>
                                        <path d="M45.870164,41.2769567 C42.0101582,34.9246251 29.5931126,15.2990694 27.1294438,13.5846396 C24.665775,11.8702099 14.8681918,4.50710336 19.0281731,15.1931324 C23.1881543,25.8791615 35.4339236,48.6837987 38.4820606,61.839423 C41.5301975,74.9950474 48.2090043,108.96 48.2090043,122.652113 C48.2090043,136.344225 61.4766253,168.08353 72.3231546,168.08353 C83.1696839,168.08353 90.3439339,135.398568 86.7568089,127.114101 C83.1696839,118.829634 64.2963939,101.090534 61.0943986,96.8122352 C57.8924033,92.533936 62.8245792,76.864981 62.8245792,72.3475946 C62.8245792,67.8302082 61.1709815,60.7654747 57.0108627,57.6252691 C52.8507439,54.4850636 49.7301698,47.6292883 45.870164,41.2769567 Z" id="Path-7" fill="#5AB572" opacity="0.404854911" transform="translate(52.850744, 88.800112) rotate(-3.000000) translate(-52.850744, -88.800112) "></path>
                                        <path d="M21.1757956,43.2387523 C30.7694366,61.4693971 37.1600888,77.6823193 40.3477523,91.8775189 C42.8299742,102.931269 42.7877231,119.968638 46.210601,133.30768 C49.3812006,145.663587 55.1793564,160.049114 59.3339663,164.624084" id="Path-5" stroke="#FFFFFF" stroke-width="1.79999995" opacity="0.58828125" stroke-linecap="round"></path>
                                        <path d="M18.8733217,83.839133 C24.7091979,87.6537939 29.8223327,90.9036152 34.2127261,93.5885968" id="Path-6" stroke="#FFFFFF" stroke-width="1.79999995" opacity="0.58828125" stroke-linecap="round"></path>
                                        <path d="M32.5557541,139.117985 C35.2199052,147.128773 40.4801629,152.676591 48.3365274,155.761437" id="Path-6-Copy-2" stroke="#FFFFFF" stroke-width="1.79999995" opacity="0.58828125" stroke-linecap="round"></path>
                                        <path d="M49.0040976,75.3610184 C53.5255261,78.3164815 57.6057354,82.7088127 61.2447254,88.5380122" id="Path-6-Copy" stroke="#FFFFFF" stroke-width="1.79999995" opacity="0.58828125" stroke-linecap="round" transform="translate(55.124412, 81.949515) scale(-1, 1) translate(-55.124412, -81.949515) "></path>
                                        <path d="M60.4625726,146.011973 C59.1463857,132.321698 61.3310734,123.158496 67.0166356,118.522367 C72.7021978,113.886238 74.8285798,111.959759 73.3957816,112.74293" id="Path-8" stroke="#FFFFFF" stroke-width="1.79999995" opacity="0.58828125" stroke-linecap="round"></path>
                                        <path d="M21.3964799,66.8589855 C20.3555852,62.1378827 18.7335549,59.7773312 16.5303891,59.7773312" id="Path-9" stroke="#FFFFFF" stroke-width="1.79999995" opacity="0.58828125" stroke-linecap="round" transform="translate(18.963435, 63.318158) rotate(-38.000000) translate(-18.963435, -63.318158) "></path>
                                    </g>
                                </g>
                                <rect id="Rectangle-8" fill="url(#linearGradient-12)" x="1" y="168.678266" width="149.712293" height="19.7822673" rx="4.49999988"></rect>
                            </g>
                        </g>
                        <path d="M764.984307,511.512912 L801.70619,511.512912 L801.70619,489.84662 L764.984307,489.84662 L764.984307,511.512912 Z M764.984307,514.338951 L764.984307,538.721519 L762.159547,538.721519 L762.159547,401.074172 C762.159547,400.677211 762.791891,400.35541 763.571927,400.35541 C764.351963,400.35541 764.984307,400.677211 764.984307,401.074172 L764.984307,413.543588 L801.70619,413.543588 L801.70619,401.074172 C801.70619,400.677211 802.338534,400.35541 803.11857,400.35541 C803.898606,400.35541 804.53095,400.677211 804.53095,401.074172 L804.53095,414.586739 C804.562824,414.704629 804.579829,414.828632 804.579829,414.956608 C804.579829,415.084583 804.562824,415.208586 804.53095,415.326476 L804.53095,439.07907 C804.562824,439.19696 804.579829,439.320963 804.579829,439.448939 C804.579829,439.576914 804.562824,439.700917 804.53095,439.818807 L804.53095,463.571401 C804.562824,463.689291 804.579829,463.813294 804.579829,463.94127 C804.579829,464.069245 804.562824,464.193248 804.53095,464.311138 L804.53095,488.063732 C804.562824,488.181622 804.579829,488.305625 804.579829,488.4336 C804.579829,488.561576 804.562824,488.685579 804.53095,488.803469 L804.53095,512.556063 C804.562824,512.673953 804.579829,512.797956 804.579829,512.925931 C804.579829,513.053907 804.562824,513.17791 804.53095,513.2958 L804.53095,538.721519 L801.70619,538.721519 L801.70619,514.338951 L764.984307,514.338951 Z M764.984307,487.020581 L801.70619,487.020581 L801.70619,465.354289 L764.984307,465.354289 L764.984307,487.020581 Z M764.984307,462.52825 L801.70619,462.52825 L801.70619,440.861958 L764.984307,440.861958 L764.984307,462.52825 Z M764.984307,438.035919 L801.70619,438.035919 L801.70619,416.369627 L764.984307,416.369627 L764.984307,438.035919 Z" id="Combined-Shape" fill="#4A4A4A" opacity="0.268861607" mask="url(#mask-3)"></path>
                        <g id="Group-7" mask="url(#mask-3)" stroke="#4A4A4A" stroke-width="2.69999993">
                            <g transform="translate(764.042720, 401.297423)">
                                <path d="M0.145283893,0.735947445 L33.4833397,237.350411" id="Path-11" stroke-linecap="round"></path>
                                <path d="M38.570115,0.724908234 L73.3554926,236.724855" id="Path-12" stroke-linecap="round"></path>
                                <path d="M2.55809993,19.9110581 L41.463409,19.9110581" id="Path-13"></path>
                                <path d="M5.95480057,44.0850918 L45.1307514,44.0850918" id="Path-14"></path>
                                <path d="M9.5023022,69.3740859 L48.7440879,69.3740859" id="Path-15"></path>
                                <path d="M17.1821191,118.027572 L56.4963962,118.027572" id="Path-17"></path>
                                <path d="M20.2808958,142.821641 L60.1053816,142.821641" id="Path-18"></path>
                                <path d="M23.8633391,167.269815 L63.6233231,167.269815" id="Path-19"></path>
                                <path d="M27.2453275,191.931414 L67.4993393,191.931414" id="Path-20"></path>
                                <path d="M30.8406441,215.538768 L70.2511544,215.538768" id="Path-21"></path>
                            </g>
                        </g>
                        <g id="Group-11" mask="url(#mask-3)">
                            <g transform="translate(505.632084, 532.237192)">
                                <path d="M37.2768015,29.261199 C38.5155385,28.4107972 37.896498,26.3136318 39.5277933,23.8258386 C41.1590886,21.3380453 37.9542676,16.8592 37.9542676,14.9548067 C37.9542676,13.0504134 34.0141747,10.7989918 32.4568701,11.4046474 C30.8995654,12.0103029 28.0166642,14.5412952 28.0166642,14.9548067 C28.0166642,15.230481 27.3277615,15.8037119 25.9499561,16.6744993 C25.7804582,21.491122 26.2821321,24.6893502 27.4549777,26.2691841 C29.2142461,28.6389349 26.8415711,33.5431649 28.8534083,34.1685462 C30.8652455,34.7939276 28.3641514,25.623629 30.9760431,26.8302334 C33.5879349,28.0368379 36.0380645,30.1116007 37.2768015,29.261199 Z" id="Path-37" stroke="none" fill="#FDECC3" fill-rule="evenodd"></path>
                                <path d="M29.9041147,24.506015 C30.3795054,24.1996396 31.7558365,22.047693 31.5722182,21.2931203 C31.3885999,20.5385476 32.2771318,21.2931203 32.7848644,21.2931203 C33.1233527,21.2931203 33.5908608,21.1035069 34.1873886,20.7242801 C34.708478,22.643063 35.2146586,23.7063537 35.7059304,23.9141523 C36.4428381,24.2258501 33.3052252,26.0966964 32.6210614,26.0966964 C31.9368976,26.0966964 29.428724,24.8123904 29.9041147,24.506015 Z" id="Path-33" stroke="none" fill="#EEB9AC" fill-rule="evenodd"></path>
                                <path d="M42.9156831,31.0864201 C42.9156831,31.0864201 47.3400767,38.1800858 45.8197103,39.2107961 C44.2993438,40.2415065 43.525855,38.7612868 43.3358092,38.0558117 C43.209112,37.5854949 42.5737812,36.2215991 41.4298169,33.9641242 C42.4203944,32.0456548 42.9156831,31.0864201 42.9156831,31.0864201 Z" id="Path-30" stroke="none" fill="#F8AD9A" fill-rule="evenodd"></path>
                                <g id="Path-2" stroke="none" stroke-width="1" fill="none" fill-rule="evenodd" transform="translate(16.006975, 34.854471)">
                                    <mask id="mask-14" fill="white">
                                        <use xlink:href="#path-13"></use>
                                    </mask>
                                    <use id="Mask" fill="#FFCCBD" xlink:href="#path-13"></use>
                                    <path d="M9.72045792,0.332326268 C7.08567041,4.89029411 5.30016521,9.10351658 4.36394232,12.9719937 C3.42771942,16.8404707 3.59154694,18.3984561 4.85542485,17.6459499 C7.96072828,10.9267087 10.0097521,5.80060474 11.0024963,2.26763807 C11.9952405,-1.26532861 11.5678944,-1.91043254 9.72045792,0.332326268 Z" fill="#F8AD9A" mask="url(#mask-14)"></path>
                                </g>
                                <g id="Group-12" stroke="none" stroke-width="1" fill="none" fill-rule="evenodd" transform="translate(27.306016, 79.129069)">
                                    <g id="Path-43">
                                        <mask id="mask-16" fill="white">
                                            <use xlink:href="#path-15"></use>
                                        </mask>
                                        <use id="Mask" fill="#FFCCBC" xlink:href="#path-15"></use>
                                        <polygon fill="#FFFFFF" opacity="0.300725446" mask="url(#mask-16)" points="3.57692622 -2.66711954 6.43386961 29.658912 8.86760469 -1.23386189"></polygon>
                                    </g>
                                </g>
                                <g id="Group-13" stroke="none" stroke-width="1" fill="none" fill-rule="evenodd" transform="translate(40.488230, 78.187057)">
                                    <g id="Path-44">
                                        <mask id="mask-18" fill="white">
                                            <use xlink:href="#path-17"></use>
                                        </mask>
                                        <use id="Mask" fill="#FFCCBC" xlink:href="#path-17"></use>
                                        <path d="M7.70832198,-0.0873937591 C7.37882792,-0.0873937591 5.6489841,0.125264388 2.51879053,0.550580683 L12.444301,32.3136125 L15.8426108,31.0705512 C10.7492457,10.2985879 8.03781604,-0.0873937591 7.70832198,-0.0873937591 Z" fill="#FFFFFF" opacity="0.319475446" mask="url(#mask-18)"></path>
                                    </g>
                                </g>
                                <g id="Group-10" stroke="none" stroke-width="1" fill="none" fill-rule="evenodd" transform="translate(19.773322, 23.550318)">
                                    <g id="Path-26-+-Path-27-+-Path-28-Mask">
                                        <mask id="mask-20" fill="white">
                                            <use xlink:href="#path-19"></use>
                                        </mask>
                                        <use id="Mask" fill="#4A69BD" xlink:href="#path-19"></use>
                                        <path d="M10.7058572,17.1877253 C11.4682549,17.273637 12.2305866,17.3165929 12.9928522,17.3165929 C14.7656822,17.3165929 16.5285144,17.0842422 18.2813488,16.619541 L19.3250565,20.1112588 C17.6492695,21.135529 15.3206277,21.6476641 12.3391311,21.6476641 C11.1815865,21.6476641 10.0763709,21.513781 9.02348432,21.2460146 C9.45423652,23.4305937 10.7586354,25.6261009 8.91005657,29.2095241 C6.82742344,33.2466558 14.4445818,38.5302657 8.91005657,41.6125713 C3.3755314,44.6948769 4.59754956,48.3366417 5.34739304,50.358781 C6.09723653,52.3809202 9.98885875,54.7534386 12.9155068,55.2127566 C16.560609,55.7848314 23.1380691,56.7532261 27.4977353,56.2643321 C30.4041794,55.9384028 27.0159077,58.2583238 17.3329201,63.2240951 L-19.6400769,48.4042841 L-20.6901478,30.8847594 C-20.7662119,28.9617028 -20.1472244,28.0001745 -18.8331853,28.0001745 C-16.8621267,28.0001745 -11.1089756,27.2096438 -9.697278,27.2096438 C-8.75614627,27.2096438 -3.06793966,23.3589139 7.36734184,15.6574541 C8.68557087,16.611347 9.71404736,17.0882935 10.4527713,17.0882935 C10.6661378,17.0882935 10.7340801,17.1195396 10.7058572,17.1877253 Z M8.09003702,10.9442285 C14.3264549,11.8738704 17.7158567,12.016054 18.2582426,11.3707795 C18.8006284,10.7255049 18.8006284,11.3842092 18.2582426,13.3468923 C16.426524,14.5732245 14.0029229,14.7670155 10.9874392,13.9282654 C9.6678865,13.5612347 8.09003702,12.4793513 8.09003702,11.9479918 C8.09003702,11.6425836 8.09003702,11.3079958 8.09003702,10.9442285 Z" id="Combined-Shape" fill="#6A89CC" opacity="0.479575893" mask="url(#mask-20)"></path>
                                    </g>
                                </g>
                                <g id="Group-9" stroke="none" stroke-width="1" fill="none" fill-rule="evenodd" transform="translate(29.189189, 18.840255)">
                                    <path d="" id="Path-29" stroke="#979797" stroke-width="0.899999976"></path>
                                    <path d="M1.78035843,10.0233472 L2.16521484,14.9210531 L5.91584643,14.9210531 L5.91584643,9.9528435 C5.91584643,9.45578724 5.51290271,9.05284353 5.01584645,9.05284353 L2.67759262,9.05284353 C2.18053636,9.05284353 1.77759264,9.45578724 1.77759264,9.9528435 C1.77759264,9.97637185 1.77851528,9.99989115 1.78035843,10.0233472 Z" id="Path-31" fill="#4A4A4A"></path>
                                    <path d="M6.04750473,11.2783513 C6.51788014,11.6370896 6.75306785,12.093727 6.75306785,12.6482634 C6.75306785,13.480068 6.90027437,14.8575992 7.35117271,14.8575992 C7.80207105,14.8575992 12.1674842,15.7171426 13.2235092,16.0059586 C14.2795342,16.2947747 17.7440284,17.6224239 16.7669984,19.9295001 C15.7899684,22.2365763 10.2031423,18.7047104 9.43463401,18.2632718 C8.66612569,17.8218332 6.78780056,16.0059586 6.04750473,16.0059586 C5.3072089,16.0059586 3.88254067,16.3634668 3.40531067,16.3634668 C2.92808066,16.3634668 2.07568719,14.5521161 2.07568719,14.5521161 C1.88688373,14.5521161 1.69808027,14.5521161 1.50927681,14.5521161 L1.50927681,14.5521161 C1.33859064,14.5521161 1.20022217,14.4137476 1.20022217,14.2430615 L1.20022217,14.2430615 C1.20022217,14.0723753 1.0618537,13.9340068 0.891167534,13.9340068 L0.627541108,13.9340068 C0.413920406,13.9340068 0.240746612,13.760833 0.240746612,13.5472123 L0.240746612,13.5472123 C0.240746612,13.3340638 0.413537667,13.1612727 0.626686235,13.1612727 C0.626747201,13.1612727 0.626808167,13.1612727 0.626869132,13.1612728 C4.2406262,13.1629451 6.04750473,12.9919553 6.04750473,12.6482634 C6.04750473,12.292541 6.04750473,11.8359036 6.04750473,11.2783513 Z" id="Path-32" fill="#FFCDBE"></path>
                                </g>
                                <path d="" id="Path-34" stroke="#979797" stroke-width="0.899999976" fill="none"></path>
                                <path d="M32.9555362,22.6083055 C32.2111561,22.6083055 30.4867068,21.0675734 30.1850001,20.4494695 C29.8832935,19.8313656 29.8377216,18.3829211 29.4897434,18.3829211 C29.1417652,18.3829211 27.9748882,16.6499231 28.30616,15.7868352 C28.5270079,15.2114433 28.7832591,15.1058004 29.0749136,15.4699066 C29.0749136,15.691033 29.0749136,15.2647402 29.0749136,14.1910282 C29.0749136,12.5804601 30.8562337,12.2461655 32.9555362,12.2461655 C34.9684205,12.2461655 36.6764123,12.5804601 36.6764123,14.1910282 C36.6764123,15.2647402 36.6764123,15.691033 36.6764123,15.4699066 C36.932553,14.9662112 37.2269987,15.0718541 37.5597495,15.7868352 C38.0588757,16.8593068 36.6123126,18.3829211 36.278659,18.3829211 C35.9450054,18.3829211 35.5987899,19.8313656 35.3095031,20.4494695 C35.0202162,21.0675734 33.6692737,22.6083055 32.9555362,22.6083055 Z" id="Combined-Shape" stroke="none" fill="#FFCEBD" fill-rule="evenodd"></path>
                                <path d="M29.5602812,19.6396637 C29.8261999,18.8717993 29.9591593,17.9673086 29.9591593,16.9261916 C29.9591593,15.364516 30.5730635,13.442828 33.0605905,13.442828 C34.7189418,13.442828 35.8005357,14.1420954 36.3053723,15.5406302 C36.9593922,20.8864544 37.3493342,23.1662216 37.4751985,22.3799318 C37.8581779,19.9874127 39.1340172,19.7353507 39.2222833,17.5778747 C39.288553,15.958054 38.9361053,13.9872242 38.36966,12.4676397 C37.7524281,10.8118116 35.3083537,10.0325736 33.0605905,10.0325736 C30.8128273,10.0325736 29.8444657,10.7239452 28.2915094,12.4676397 C25.1935148,15.9461382 25.4173251,18.9202889 25.4173251,21.1842472 C25.4173251,23.4482055 30.718578,32.0567208 29.9591593,28.7585263 C29.1997406,25.4603319 27.5471243,24.029834 29.2241309,24.029834 C30.3421352,24.029834 30.4541853,22.5664439 29.5602812,19.6396637 Z" id="Path-36" stroke="none" fill="#FDECC3" fill-rule="evenodd"></path>
                                <path d="" id="Path-38" stroke="#979797" stroke-width="0.899999976" fill="none"></path>
                                <path d="M31.529823,107.83355 C26.144656,109.034965 24.3251784,109.76452 26.0713903,110.022217 C27.8176022,110.279914 30.5474795,110.349934 34.2610223,110.232278 L33.9287314,107.33046 C33.841963,108.167907 33.5022393,108.586631 32.9095603,108.586631 C32.3168812,108.586631 31.8569688,108.335604 31.529823,107.83355 Z" id="Path-41" stroke="none" fill="#4A69BD" fill-rule="evenodd"></path>
                                <path d="M58.6452505,108.223988 C52.4782859,109.872735 50.470504,110.848285 52.6219048,111.150637 C54.7733056,111.45299 58.34096,111.45299 63.3248681,111.150637 L63.0044159,107.718788 C62.8586931,108.714226 62.4207299,109.211945 61.6905263,109.211945 C60.9603228,109.211945 59.9452308,108.882626 58.6452505,108.223988 Z" id="Path-41-Copy" stroke="none" fill="#4A69BD" fill-rule="evenodd" transform="translate(57.556070, 109.548095) scale(-1, 1) translate(-57.556070, -109.548095) "></path>
                                <path d="" id="Path-39" stroke="#979797" stroke-width="0.899999976" fill="none"></path>
                            </g>
                        </g>
                        <g id="Path-40" mask="url(#mask-3)">
                            <use fill="black" fill-opacity="1" filter="url(#filter-23)" xlink:href="#path-22"></use>
                            <use fill="url(#linearGradient-21)" fill-rule="evenodd" xlink:href="#path-22"></use>
                        </g>
                        <g id="Path-40-Copy" mask="url(#mask-3)">
                            <use fill="black" fill-opacity="1" filter="url(#filter-25)" xlink:href="#path-24"></use>
                            <use fill="url(#linearGradient-21)" fill-rule="evenodd" xlink:href="#path-24"></use>
                        </g>
                        <g id="Path-40-Copy-2" mask="url(#mask-3)">
                            <use fill="black" fill-opacity="1" filter="url(#filter-27)" xlink:href="#path-26"></use>
                            <use fill="url(#linearGradient-21)" fill-rule="evenodd" xlink:href="#path-26"></use>
                        </g>
                        <g id="Group-30-Copy-3" mask="url(#mask-3)">
                            <g transform="translate(630.893084, 171.150090) rotate(15.000000) translate(-630.893084, -171.150090) translate(604.393084, 149.150090)">
                                <polygon id="Path-98" fill="#CDCDCD" points="19.4103788 40.7624182 27.3682766 33.822043 19.4103788 28.0850076"></polygon>
                                <g id="Group-29" stroke-width="1" fill="none">
                                    <g id="Path-99">
                                        <mask id="mask-29" fill="white">
                                            <use xlink:href="#path-28"></use>
                                        </mask>
                                        <use id="Mask" fill="url(#linearGradient-5)" xlink:href="#path-28"></use>
                                        <path d="M13.4725173,25.8792686 L40.3620987,9.49681179 C40.6450856,9.32440223 41.0142574,9.41404289 41.186667,9.6970298 C41.3357233,9.94168554 41.2910235,10.257588 41.0799408,10.4512845 L20.540921,29.2985747 L19.8024352,41.2790506 C19.5970656,41.6516973 19.2323112,41.8069372 18.708172,41.7447703 C17.6106599,41.614597 15.8654417,36.3260964 13.4725173,25.8792686 Z" fill="url(#linearGradient-8)" mask="url(#mask-29)"></path>
                                    </g>
                                </g>
                            </g>
                        </g>
                    </g>
                </g>
                <g id="Group-17" opacity="0.413337054" transform="translate(972.900000, 490.565584)">
                    <g id="Group-16">
                        <path d="M16.916911,63.9489092 C13.3819809,63.9489092 2.13716077,48.9163453 0.618441612,42.8039633 C-0.900277549,36.6915814 2.13716077,37.5479834 5.30125411,37.5479834 C8.46534745,37.5479834 0.618441612,30.0086489 0.618441612,25.3370509 C0.618441612,20.6654529 4.04611431,18.3982352 7.21020765,12.6155046 C10.374301,6.83277399 11.824558,0.263951627 16.3122533,0.263951627 C20.7999486,0.263951627 24.3348787,8.48909926 26.4823088,12.6155046 C28.6297389,16.7419099 31.8839741,15.5881301 31.8839741,20.4625905 C31.8839741,25.3370509 25.4553762,35.7245271 28.6696752,37.5479834 C31.8839741,39.3714396 34.5277549,42.4293595 31.8839741,46.4301285 C29.2401933,50.4308975 20.4518411,63.9489092 16.916911,63.9489092 Z" id="Path-22" fill="#9FA788"></path>
                        <rect id="Rectangle-10" fill="#888F72" x="15.7736842" y="42.4904488" width="2.92105263" height="46.6214646"></rect>
                        <path d="M17.8070107,71.7752478 C18.7469138,71.1030485 19.686817,70.4308492 20.6267201,69.7586499 L20.6267201,69.7586499 C21.0310205,69.4695027 21.5931709,69.5628527 21.8823181,69.9671531 C22.0763735,70.2384911 22.1044282,70.5949081 21.9552155,70.8932658 L17.8070107,79.1877932 C17.8070107,74.2460963 17.8070107,71.7752478 17.8070107,71.7752478 Z" id="Path-46" fill="#888F72"></path>
                        <path d="M11.6842105,23.3554403 L13.8527498,28.1353852" id="Path-47" stroke="#FFFFFF" stroke-width="1.34999996" stroke-linecap="round"></path>
                        <path d="M21.6157895,20.4047147 L23.7843287,25.1846596" id="Path-47-Copy" stroke="#FFFFFF" stroke-width="1.34999996" stroke-linecap="round" transform="translate(22.700059, 22.794687) scale(-1, 1) translate(-22.700059, -22.794687) "></path>
                        <path d="M16.3578947,11.5525378 L17.7100226,19.0889907" id="Path-48" stroke="#FFFFFF" stroke-width="1.34999996" stroke-linecap="round"></path>
                    </g>
                </g>
                <g id="Group-17-Copy-2" opacity="0.328348214" transform="translate(1017.900000, 547.273165) scale(-1, 1) translate(-1017.900000, -547.273165) translate(1006.200000, 514.868833)">
                    <g id="Group-16">
                        <path d="M11.8875591,46.0432146 C9.40355412,46.0432146 1.50178865,35.2197686 0.434580592,30.8188536 C-0.632627467,26.4179386 1.50178865,27.034548 3.72520559,27.034548 C5.94862253,27.034548 0.434580592,21.6062272 0.434580592,18.2426767 C0.434580592,14.8791261 2.84321546,13.2467294 5.0666324,9.08316331 C7.29004934,4.91959727 8.30914885,0.190045171 11.4626645,0.190045171 C14.6161801,0.190045171 17.100185,6.11215147 18.60919,9.08316331 C20.1181949,12.0541752 22.4049548,11.2234537 22.4049548,14.7330652 C22.4049548,18.2426767 17.8875617,25.7216595 20.1462582,27.034548 C22.4049548,28.3474365 24.2627467,30.5491388 22.4049548,33.4296925 C20.5471628,36.3102462 14.371564,46.0432146 11.8875591,46.0432146 Z" id="Path-22" fill="#9FA788"></path>
                        <rect id="Rectangle-10" fill="#888F72" x="11.0842105" y="30.5931231" width="2.05263158" height="33.5674545"></rect>
                        <path d="M8.91303454,55.2786598 C9.5595301,54.8049183 10.2060257,54.3311769 10.8525212,53.8574355 L10.8525212,53.8574355 C11.1411935,53.6459011 11.5466911,53.7084338 11.7582254,53.9971061 C11.9004528,54.191198 11.9234195,54.4481186 11.8178725,54.6643596 L8.91303454,60.6156925 C8.91303454,57.0576707 8.91303454,55.2786598 8.91303454,55.2786598 Z" id="Path-46" fill="#888F72" transform="translate(10.403868, 57.160736) scale(-1, 1) translate(-10.403868, -57.160736) "></path>
                        <path d="M8.21052632,21.3165187 L9.73436472,24.758079" id="Path-47" stroke="#FFFFFF" stroke-width="1.34999996" stroke-linecap="round"></path>
                        <path d="M15.3,17.1022864 L16.8238384,20.5438468" id="Path-47-Copy" stroke="#FFFFFF" stroke-width="1.34999996" stroke-linecap="round" transform="translate(16.061919, 18.823067) scale(-1, 1) translate(-16.061919, -18.823067) "></path>
                        <path d="M9.97937911,9.93368948 L10.929523,15.3599356" id="Path-48" stroke="#FFFFFF" stroke-width="1.34999996" stroke-linecap="round"></path>
                    </g>
                </g>
                <ellipse id="Oval-5" fill-opacity="0.0500000007" fill="#000000" cx="935.1" cy="725.046931" rx="57.6" ry="4.95066185"></ellipse>
                <g id="Group-19" transform="translate(894.500000, 489.565584)">
                    <g id="Path-63" transform="translate(50.500000, 126.116727)">
                        <mask id="mask-31" fill="white">
                            <use xlink:href="#path-30"></use>
                        </mask>
                        <use id="Mask" fill="#BDDEE8" xlink:href="#path-30"></use>
                        <path d="M9.56425781,-1.73782999 L13.6415039,95.7503008 C19.6584961,96.9604236 22.6669922,96.9604236 22.6669922,95.7503008 C22.6669922,94.5401781 24.0123047,63.6237402 26.7029297,3.00098714 L9.56425781,-1.73782999 Z" fill="#A3BEC5" opacity="0.303571429" mask="url(#mask-31)"></path>
                    </g>
                    <path d="M60.4,154.920578 C64.853125,154.920578 67.9512695,154.920578 69.6944336,154.920578" id="Path-62" stroke="#000000" stroke-width="0.899999976" opacity="0.109999999"></path>
                    <path d="M61.3,157.620939 C64.4607376,157.620939 66.6597375,157.620939 67.8969999,157.620939" id="Path-62-Copy" stroke="#000000" stroke-width="0.899999976" opacity="0.109999999"></path>
                    <g id="Path-61" transform="translate(23.500000, 121.616125)">
                        <mask id="mask-33" fill="white">
                            <use xlink:href="#path-32"></use>
                        </mask>
                        <use id="Mask" fill="#BDDEE8" xlink:href="#path-32"></use>
                        <path d="M18.5677734,0.647840516 C8.83710937,17.863228 3.97177734,28.4367119 3.97177734,32.3682922 C3.97177734,36.2998725 3.97177734,60.4856254 3.97177734,104.925551 L16.3230469,104.925551 L20.8792969,38.2612675 L41.4017578,-0.934402264 L18.5677734,0.647840516 Z" fill="#A3BEC5" mask="url(#mask-33)"></path>
                    </g>
                    <path d="M29.8,150.419976 C32.7537109,152.120008 35.6209961,152.686685 38.4018555,152.120008" id="Path-60" stroke="#000000" stroke-width="0.899999976" opacity="0.109999999" stroke-linecap="round"></path>
                    <path d="M28,154.020457 C30.9537109,155.720489 33.8209961,156.287167 36.6018555,155.720489" id="Path-60-Copy" stroke="#000000" stroke-width="0.899999976" opacity="0.109999999" stroke-linecap="round"></path>
                    <g id="Group-18" transform="translate(11.800000, 54.107100)">
                        <g id="Path-53">
                            <mask id="mask-35" fill="white">
                                <use xlink:href="#path-34"></use>
                            </mask>
                            <use id="Mask" fill="#FFFFFF" xlink:href="#path-34"></use>
                            <path d="M0.705981445,2.87858308 L20.7274658,24.5254224 L19.9656738,32.4610292 C4.17568359,13.4562423 -3.71931152,3.9538489 -3.71931152,3.9538489 C-3.71931152,3.9538489 -2.24421387,3.59542696 0.705981445,2.87858308 Z" fill="#F0F0F0" mask="url(#mask-35)"></path>
                        </g>
                    </g>
                    <path d="M52.4896622,33.4043321 C53.5733536,35.5555963 53.5733536,36.9394727 52.4896622,37.5559614 C51.4059708,38.17245 54.9662736,38.9476025 63.1705704,39.8814188 L63.1705704,33.4043321 L52.4896622,33.4043321 Z" id="Path-50" fill="#EDC0B0"></path>
                    <g id="Path-59" transform="translate(24.400000, 32.504212)">
                        <mask id="mask-37" fill="white">
                            <use xlink:href="#path-36"></use>
                        </mask>
                        <use id="Mask" fill="#079992" xlink:href="#path-36"></use>
                        <path d="M22.959668,93.8041422 C24.6164062,93.8041422 43.1841797,91.6804208 46.3746094,70.5504475 C48.5015625,56.4637986 49.5650391,35.8562585 49.5650391,8.72782698 C63.0978516,46.19475 67.2164062,76.8386905 61.9207031,100.659649 C56.625,124.480607 43.6379883,122.882834 22.959668,95.866332" fill="#3D6C47" opacity="0.226506696" mask="url(#mask-37)"></path>
                        <polygon id="Path-64" fill="#000000" opacity="0.379743304" mask="url(#mask-37)" points="53.7714844 29.3708211 59.4026367 52.1428108 61.2162598 58.7482349 56.4802734 58.7482349"></polygon>
                    </g>
                    <path d="M46.0782227,14.5018051 C44.8260742,16.8411803 44.2,18.7747396 44.2,20.3024829 C44.2,22.5940978 46.0782227,22.858684 46.0782227,24.3205005 C46.0782227,25.7823171 50.1985352,33.9097708 54.7890625,33.9097708 C57.8494141,33.9097708 59.5225586,29.3740082 59.8084961,20.3024829 L46.0782227,14.5018051 Z" id="Path-55" fill="#FFCEBD"></path>
                    <g id="Group-2" transform="translate(41.500000, 1.000000)">
                        <g id="Path-65">
                            <mask id="mask-39" fill="white">
                                <use xlink:href="#path-38"></use>
                            </mask>
                            <use id="Mask" fill="#000000" xlink:href="#path-38"></use>
                            <path d="M3.72480469,-6.71837865 C-0.010546875,-1.85474015 14.0519531,-1.85474015 23.7689264,6.70870939 C33.4858997,15.2721589 29.8234863,30.1913898 32.0374512,31.882192 C34.251416,33.5729942 36.5312988,22.5100406 36.5312988,21.9237318 C36.5312988,21.3374229 33.4546875,1.83100651 32.0374512,0.834193554 C30.6202148,-0.162619397 7.46015625,-11.5820171 3.72480469,-6.71837865 Z" id="Path-54" fill-opacity="0.280000001" fill="#FFFFFF" opacity="0.724720982" mask="url(#mask-39)"></path>
                        </g>
                    </g>
                    <path d="M12.0108962,56.9960115 C10.0116774,56.2289167 8.62505634,55.4553758 7.85103291,54.6753887 C6.68999775,53.5054081 2.88521259,51.041065 3.85728291,49.7502186 C4.82935322,48.4593722 6.34502705,47.8062575 7.85103291,47.8062575 C8.85503681,47.8062575 11.4880935,49.7626714 15.7502028,53.6754992 L12.0108962,56.9960115 Z" id="Path-51" fill="#FFCEBD"></path>
                    <path d="M14.0190591,55.0094178 C14.8303589,55.0094178 18.4978555,51.6908833 18.3315918,51.2702704 C18.1653281,50.8496576 6.62528904,45.0313992 5.66633301,44.7972493 C4.70737698,44.5630993 -0.320186501,47.0750196 1.39144287,48.0638115 C3.10307224,49.0526033 13.2077593,55.0094178 14.0190591,55.0094178 Z" id="Path-56" stroke="#303030" stroke-width="0.899999976" fill="#33373B"></path>
                    <path d="M4.01362467,50.7876302 C4.52201866,49.0420891 5.06435042,48.1693186 5.64061995,48.1693186 C6.50502424,48.1693186 6.89105478,50.3868678 6.52279306,51.1472234" id="Path-57" fill="#FFCEBD" transform="translate(5.337786, 49.658271) rotate(22.000000) translate(-5.337786, -49.658271) "></path>
                    <path d="M8.30499833,45.3379219 C9.03778642,44.3400834 9.65089677,44.0906238 10.1443294,44.589543 C10.8844783,45.3379219 10.3448299,46.4638415 10.3448299,46.4638415 C10.3448299,46.4638415 10.6703548,44.9663146 11.5817806,45.5722916 C12.4932063,46.1782686 12.3266536,47.1362946 12.0294734,47.4892227" id="Path-58" fill="#FFCEBD" transform="translate(10.285092, 45.914653) rotate(-4.000000) translate(-10.285092, -45.914653) "></path>
                    <path d="M31.6157512,86.9561097 C32.0251018,86.9561097 39.4733044,81.3910102 44.1166354,75.161149 C48.7599663,68.9312878 50.3048137,64.0916027 51.549345,58.0309536 C52.0291688,55.6942954 52.9530083,53.7336755 53.947271,54.1676934 C56.9908479,55.4962831 60.3604302,64.5329219 46.1863091,81.3631505 C40.4233721,88.2060119 38.5654827,86.9561097 37.1333049,86.9561097 C33.9725942,86.9561097 31.3728351,86.9561097 31.6157512,86.9561097 Z" id="Path-49" fill="#025F5B"></path>
                    <path d="M23.9895508,223.812917 C23.1862305,225.203239 22.3458496,226.452918 21.4684082,227.561953 C20.5909668,228.670988 16.876416,231.013586 10.3247559,234.589748 C7.49174805,236.119835 7.49174805,236.884879 10.3247559,236.884879 C14.5742676,236.884879 23.9157227,238.516787 26.0202637,236.884879 C28.1248047,235.252972 28.4847168,230.711544 29.701123,230.711544 C30.5120605,230.711544 30.9211914,232.769322 30.9285156,236.884879 L33.5909707,236.884879 L34.46875,230.115517 C35.7100586,227.552284 36.3307129,225.65872 36.3307129,224.434826 C36.3307129,223.210932 32.2169922,223.003629 23.9895508,223.812917 Z" id="Path-52" fill="#4A4A4A"></path>
                    <path d="M61.8286621,219.903963 L58.1992187,225.049973 L49.0247559,230.513105 C46.191748,232.523996 46.191748,233.529441 49.0247559,233.529441 C53.2742676,233.529441 59.7241211,234.141951 61.8286621,232.510043 C63.9332031,230.878136 63.5847168,227.356106 64.801123,227.356106 C65.6120605,227.356106 66.0211914,229.413884 66.0285156,233.529441 L68.6909707,233.529441 L69.56875,226.760079 C70.8100586,224.196846 71.4307129,222.303282 71.4307129,221.079388 C71.4307129,219.855494 68.2300293,219.463686 61.8286621,219.903963 Z" id="Path-52-Copy" fill="#4A4A4A"></path>
                    <ellipse id="Oval-6" fill="#FFFFFF" transform="translate(37.354574, 92.059960) rotate(12.000000) translate(-37.354574, -92.059960) " cx="37.3545739" cy="92.05996" rx="1" ry="1.80024067"></ellipse>
                    <ellipse id="Oval-6-Copy" fill="#FFFFFF" transform="translate(34.654574, 100.161043) rotate(12.000000) translate(-34.654574, -100.161043) " cx="34.6545739" cy="100.161043" rx="1" ry="1.80024067"></ellipse>
                    <ellipse id="Oval-6-Copy-2" fill="#FFFFFF" transform="translate(31.954574, 109.162246) rotate(12.000000) translate(-31.954574, -109.162246) " cx="31.9545739" cy="109.162246" rx="1" ry="1.80024067"></ellipse>
                </g>
                <path d="M945.9,569.776173 C949.5,568.499317 951.3,566.399036 951.3,563.475331" id="Path-66" stroke-opacity="0.21" stroke="#4A4A4A" stroke-width="0.899999976" stroke-linecap="round"></path>
                <path d="M948.6,570.676294 C951,569.764253 952.2,568.264053 952.2,566.175692" id="Path-66-Copy" stroke-opacity="0.21" stroke="#4A4A4A" stroke-width="0.899999976" stroke-linecap="round"></path>
                <g id="Group-22-Copy" transform="translate(768.600000, 377.150421)">
                    <path d="" id="Path-67" stroke="#979797" stroke-width="0.899999976"></path>
                    <path d="M27.8024414,19.1332708 C24.4679118,18.9876962 21.9806071,19.9496412 20.3405273,22.0191058 C18.7004476,24.0885705 17.3854574,28.3155028 16.3955566,34.6999027 L24.8005894,23.2684894 L27.8024414,19.1332708 Z" id="Path-69" fill="#C7732D"></path>
                    <g id="Group-20" transform="translate(10.800000, 12.601685)">
                        <g id="Path-74">
                            <mask id="mask-41" fill="white">
                                <use xlink:href="#path-40"></use>
                            </mask>
                            <use id="Mask" fill="#FF943A" xlink:href="#path-40"></use>
                            <path d="M32.2270526,18.4286449 C37.0707952,18.4286449 46.8715022,13.1424568 47.5943441,13.1424568 C48.0762387,13.1424568 50.179888,12.0857216 53.905292,9.97225125 C41.028881,17.2343615 33.8028012,21.5606949 32.2270526,22.9512517 C29.8634298,25.0370867 27.9938659,34.8100814 26.6464324,41.1396581 C25.2989989,47.4692349 25.2143165,51.0732828 25.2143165,51.0732828 C25.2143165,51.0732828 24.1571115,51.0732828 22.0427014,51.0732828 C23.528933,38.3400165 24.586138,30.8469319 25.2143165,28.5940291 C26.1565842,25.2146748 27.3833101,18.4286449 32.2270526,18.4286449 Z" fill="#000000" opacity="0.220256696" mask="url(#mask-41)"></path>
                        </g>
                    </g>
                    <path d="M37.8623889,0.93979835 C39.1300307,1.14694345 42.4320986,1.62075812 42.8985561,3.4357778 C43.3650135,5.25079749 43.2303479,8.0847568 42.8985561,8.9369089 C42.5667643,9.789061 42.2817876,13.9856541 41.5464987,14.7770913 C40.8112098,15.5685284 39.5180604,18.841183 38.4224196,18.841183 C37.6919924,18.841183 37.151686,18.5757436 36.8015005,18.0448648 L35.5710766,22.3368161 C32.4518895,22.5584058 30.6200294,22.5584058 30.0754964,22.3368161 C29.2586969,22.0044316 27.7248937,22.0115745 27.9163843,20.2841748 C28.1078749,18.5567751 29.2724335,19.0003514 29.488697,18.6152282 C29.7049604,18.2301049 30.4737405,16.0694863 30.4737405,15.2815015 C30.4737405,14.4935168 29.725624,11.1613378 30.8935874,8.71631127 C32.0615508,6.27128475 32.3725616,4.25638194 33.5978196,2.79541371 C34.8230776,1.33444549 36.594747,0.732653246 37.8623889,0.93979835 Z" id="Path-70" fill="#FFCEBD"></path>
                    <path d="M27.1764706,19.4560377 L28.8279053,17.8681359 C29.6310399,18.5643205 30.3359959,19.0936211 30.9427734,19.4560377 C31.5495509,19.8184542 33.362881,20.0544171 36.3827637,20.1639262 L36,22.8689103 C33.1453005,23.4031288 31.0624201,23.5366834 29.7513587,23.2695741 C27.7847666,22.8689103 27.5294118,22.3560698 27.1764706,21.7881906 C26.9411765,21.4096044 26.9411765,20.6322201 27.1764706,19.4560377 Z" id="Path-68" fill="url(#linearGradient-42)"></path>
                    <path d="" id="Path-72" stroke="#979797" stroke-width="0.899999976"></path>
                    <g id="Group-21" transform="translate(10.800000, 56.707581)">
                        <g id="Path-78">
                            <mask id="mask-44" fill="white">
                                <use xlink:href="#path-43"></use>
                            </mask>
                            <use id="Mask" fill="#4A4A4A" xlink:href="#path-43"></use>
                            <polygon fill="#000000" opacity="0.153627232" mask="url(#mask-44)" points="9.2544082 3.30784963 4.1412041 26.7568757 1.41338672 58.9484986 0.126720703 24.7625047 -0.972 3.30784963"></polygon>
                        </g>
                    </g>
                    <path d="M11.1757491,57.6077016 C11.1757491,57.6077016 11.0504994,58.8527782 10.8,61.3429315 L18.9660415,61.3429315 C25.3977525,63.0533398 28.613608,63.9085439 28.613608,63.9085439 C28.613608,63.9085439 30.5071448,62.8214877 31.258643,62.8214877 C31.7596418,62.8214877 33.3400941,62.5649265 36,62.051804 C19.4504994,59.089069 11.1757491,57.6077016 11.1757491,57.6077016 Z" id="Path-71" fill="url(#linearGradient-45)"></path>
                    <g id="Path-77" transform="translate(72.000000, 6.300842)">
                        <mask id="mask-47" fill="white">
                            <use xlink:href="#path-46"></use>
                        </mask>
                        <use id="Mask" fill="#FFCEBD" xlink:href="#path-46"></use>
                        <path d="M6.91013105,2.20794788 C6.72066532,3.92955588 6.36774194,4.79035988 5.85136089,4.79035988 C5.07678931,4.79035988 4.09490927,8.71839745 3.6108871,9.1640625 C3.12686492,9.60972755 7.64432964,8.51102775 7.64432964,8.11163132 C7.64432964,7.71223488 7.20204133,6.68620287 7.64432964,5.73828138 C7.93918851,5.10633371 7.69445565,3.92955588 6.91013105,2.20794788 Z" fill-opacity="0.47" fill="#000000" opacity="0.426283482" mask="url(#mask-47)"></path>
                    </g>
                    <path d="M71.1,12.9714022 C71.1,12.9714022 71.4096771,12.5481229 72.0290313,11.7015644 L75.6,16.3533617 L73.5776063,18.0024067 C71.9258688,14.6484037 71.1,12.9714022 71.1,12.9714022 Z" id="Path-76" fill="url(#linearGradient-48)"></path>
                    <path d="M33.8015757,0.865909714 C33.8015757,-1.06906312 30.0151402,7.62662437 30.0151402,10.1068312 C30.0151402,12.587038 28.5585607,14.4167985 31.908358,15.5311146 C34.1415561,16.2739921 35.8054368,16.797716 36.9,17.1022864 C38.4041778,14.6482658 39.1562666,12.8688514 39.1562666,11.7640433 C39.1562666,10.1068312 38.6362309,9.85572429 39.8670621,9.17464939 C41.0978933,8.4935745 44.043165,7.26562895 44.043165,6.60115423 C44.043165,5.93667951 44.9106901,0.865909714 39.8670621,0.110250917 C34.823434,-0.645407879 33.8015757,2.80088255 33.8015757,0.865909714 Z" id="Path-75" fill="#4A4A4A"></path>
                    <path d="M11.7700279,115.215403 C11.7700279,115.215403 8.84810933,115.836069 10.3090686,117.092421 C11.7700279,118.348773 14.2531764,120.189452 15.6336142,122.629479 C17.0140519,125.069505 18.137978,126.916968 18.137978,126.916968 C18.137978,126.916968 18.6919853,126.916968 19.8,126.916968 C19.8,124.73535 19.8,123.07475 19.8,121.935166 C19.8,120.795583 18.9576581,118.555662 17.2729744,115.215403 C13.6043434,115.215403 11.7700279,115.215403 11.7700279,115.215403 Z" id="Path-73" fill="#000000"></path>
                    <path d="M26.1700279,115.215403 C26.1700279,115.215403 23.2481093,115.836069 24.7090686,117.092421 C26.1700279,118.348773 28.6531764,120.189452 30.0336142,122.629479 C31.4140519,125.069505 32.537978,126.916968 32.537978,126.916968 C32.537978,126.916968 33.0919853,126.916968 34.2,126.916968 C34.2,124.73535 34.2,123.07475 34.2,121.935166 C34.2,120.795583 33.3576581,118.555662 31.6729744,115.215403 C28.0043434,115.215403 26.1700279,115.215403 26.1700279,115.215403 Z" id="Path-73-Copy" fill="#000000"></path>
                </g>
                <path d="M777.6,495.966306 L817.2,495.966306" id="Path-16" stroke="#4A4A4A" stroke-width="2.69999993"></path>
                <path d="M582.383,384.281 C583.631,384.45 584.255,385.503 584.255,386.426 C584.255,387.986 582.968,389 581.018,389 L577.651,389 C577.248,389 577.014,388.779 577.014,388.376 L577.014,380.524 C577.014,380.121 577.248,379.9 577.651,379.9 L580.641,379.9 C582.487,379.9 583.839,380.836 583.839,382.396 C583.839,383.15 583.436,383.93 582.383,384.281 Z M580.485,381.538 L579.081,381.538 L579.081,383.748 L580.173,383.748 C581.343,383.748 581.824,383.189 581.824,382.604 C581.824,381.928 581.252,381.538 580.485,381.538 Z M580.94,387.336 C581.759,387.336 582.227,386.868 582.227,386.27 C582.227,385.672 581.72,385.087 580.511,385.087 L579.081,385.087 L579.081,387.336 L580.94,387.336 Z M589.377,389.143 C587.336,389.143 585.607,387.895 585.607,385.555 L585.607,380.524 C585.607,380.121 585.841,379.9 586.244,379.9 L587.05,379.9 C587.453,379.9 587.674,380.121 587.674,380.524 L587.674,385.555 C587.674,386.738 588.454,387.349 589.377,387.349 C590.3,387.349 591.093,386.738 591.093,385.555 L591.093,380.524 C591.093,380.121 591.327,379.9 591.73,379.9 L592.536,379.9 C592.939,379.9 593.16,380.121 593.16,380.524 L593.16,385.555 C593.16,387.895 591.431,389.143 589.377,389.143 Z M595.708,389 C595.305,389 595.071,388.779 595.071,388.376 L595.071,380.524 C595.071,380.121 595.305,379.9 595.708,379.9 L596.514,379.9 C596.917,379.9 597.138,380.121 597.138,380.524 L597.138,387.258 L600.622,387.258 C601.025,387.258 601.259,387.479 601.259,387.882 L601.259,388.376 C601.259,388.779 601.025,389 600.622,389 L595.708,389 Z M603.118,389 C602.715,389 602.481,388.779 602.481,388.376 L602.481,380.524 C602.481,380.121 602.715,379.9 603.118,379.9 L603.924,379.9 C604.327,379.9 604.548,380.121 604.548,380.524 L604.548,387.258 L608.032,387.258 C608.435,387.258 608.669,387.479 608.669,387.882 L608.669,388.376 C608.669,388.779 608.435,389 608.032,389 L603.118,389 Z M615.429,381.642 L611.958,381.642 L611.958,383.696 L614.896,383.696 C615.299,383.696 615.52,383.917 615.52,384.32 L615.52,384.671 C615.52,385.074 615.299,385.308 614.896,385.308 L611.958,385.308 L611.958,387.258 L615.429,387.258 C615.832,387.258 616.053,387.479 616.053,387.882 L616.053,388.376 C616.053,388.779 615.832,389 615.429,389 L610.528,389 C610.125,389 609.891,388.779 609.891,388.376 L609.891,380.524 C609.891,380.121 610.125,379.9 610.528,379.9 L615.429,379.9 C615.832,379.9 616.053,380.121 616.053,380.524 L616.053,381.018 C616.053,381.421 615.832,381.642 615.429,381.642 Z M623.788,379.9 C624.191,379.9 624.425,380.121 624.425,380.524 L624.425,381.018 C624.425,381.421 624.191,381.642 623.788,381.642 L621.682,381.642 L621.682,388.376 C621.682,388.779 621.461,389 621.058,389 L620.278,389 C619.875,389 619.654,388.779 619.654,388.376 L619.654,381.642 L617.574,381.642 C617.171,381.642 616.95,381.421 616.95,381.018 L616.95,380.524 C616.95,380.121 617.171,379.9 617.574,379.9 L623.788,379.9 Z M626.323,389 C625.92,389 625.686,388.779 625.686,388.376 L625.686,380.524 C625.686,380.121 625.92,379.9 626.323,379.9 L627.129,379.9 C627.532,379.9 627.753,380.121 627.753,380.524 L627.753,388.376 C627.753,388.779 627.532,389 627.129,389 L626.323,389 Z M630.418,389 C630.015,389 629.781,388.779 629.781,388.376 L629.781,380.524 C629.781,380.121 630.015,379.9 630.418,379.9 L630.886,379.9 C631.224,379.9 631.458,380.017 631.653,380.29 L635.306,385.308 L635.306,380.524 C635.306,380.121 635.54,379.9 635.943,379.9 L636.749,379.9 C637.152,379.9 637.373,380.121 637.373,380.524 L637.373,388.376 C637.373,388.779 637.152,389 636.749,389 L636.281,389 C635.956,389 635.709,388.883 635.527,388.61 L631.848,383.54 L631.848,388.376 C631.848,388.779 631.627,389 631.224,389 L630.418,389 Z M643.197,389 C642.794,389 642.56,388.779 642.56,388.376 L642.56,380.524 C642.56,380.121 642.794,379.9 643.197,379.9 L646.2,379.9 C648.969,379.9 650.854,381.941 650.854,384.45 C650.854,386.972 648.969,389 646.2,389 L643.197,389 Z M644.627,387.258 L645.992,387.258 C647.721,387.258 648.774,386.062 648.774,384.45 C648.774,382.825 647.721,381.642 645.992,381.642 L644.627,381.642 L644.627,387.258 Z M657.861,381.642 L654.39,381.642 L654.39,383.696 L657.328,383.696 C657.731,383.696 657.952,383.917 657.952,384.32 L657.952,384.671 C657.952,385.074 657.731,385.308 657.328,385.308 L654.39,385.308 L654.39,387.258 L657.861,387.258 C658.264,387.258 658.485,387.479 658.485,387.882 L658.485,388.376 C658.485,388.779 658.264,389 657.861,389 L652.96,389 C652.557,389 652.323,388.779 652.323,388.376 L652.323,380.524 C652.323,380.121 652.557,379.9 652.96,379.9 L657.861,379.9 C658.264,379.9 658.485,380.121 658.485,380.524 L658.485,381.018 C658.485,381.421 658.264,381.642 657.861,381.642 Z M666.207,389.143 C664.504,389.143 663.269,388.389 662.788,387.18 C662.619,386.79 662.827,386.517 663.23,386.413 L663.789,386.283 C664.153,386.192 664.348,386.348 664.556,386.686 C664.855,387.167 665.427,387.492 666.194,387.492 C667.078,387.492 667.663,387.102 667.663,386.504 C667.663,386.049 667.312,385.685 666.623,385.451 L665.44,385.022 C664.361,384.671 663.035,383.865 663.022,382.461 C663.022,380.797 664.465,379.757 666.246,379.757 C667.663,379.757 668.664,380.381 669.158,381.421 C669.353,381.798 669.171,382.097 668.781,382.214 L668.261,382.357 C667.897,382.461 667.676,382.318 667.455,382.006 C667.221,381.616 666.818,381.408 666.272,381.408 C665.622,381.408 665.063,381.733 665.063,382.331 C665.063,382.656 665.206,383.007 666.012,383.306 L667.195,383.735 C668.976,384.333 669.639,385.269 669.665,386.413 C669.665,388.194 668.144,389.143 666.207,389.143 Z M670.939,389 C670.471,389 670.289,388.714 670.445,388.285 L673.487,380.394 C673.604,380.069 673.851,379.9 674.215,379.9 L675.138,379.9 C675.502,379.9 675.736,380.069 675.866,380.394 L678.947,388.285 C679.103,388.714 678.921,389 678.453,389 L677.608,389 C677.257,389 677.01,388.844 676.88,388.506 L676.425,387.31 L672.915,387.31 L672.473,388.493 C672.343,388.831 672.109,389 671.758,389 L670.939,389 Z M673.318,385.685 L676.009,385.685 L674.683,382.019 L673.318,385.685 Z M680.91,389 C680.507,389 680.273,388.779 680.273,388.376 L680.273,380.524 C680.273,380.121 680.507,379.9 680.91,379.9 L681.716,379.9 C682.119,379.9 682.34,380.121 682.34,380.524 L682.34,387.258 L685.824,387.258 C686.227,387.258 686.461,387.479 686.461,387.882 L686.461,388.376 C686.461,388.779 686.227,389 685.824,389 L680.91,389 Z M687.488,389 C687.02,389 686.838,388.714 686.994,388.285 L690.036,380.394 C690.153,380.069 690.4,379.9 690.764,379.9 L691.687,379.9 C692.051,379.9 692.285,380.069 692.415,380.394 L695.496,388.285 C695.652,388.714 695.47,389 695.002,389 L694.157,389 C693.806,389 693.559,388.844 693.429,388.506 L692.974,387.31 L689.464,387.31 L689.022,388.493 C688.892,388.831 688.658,389 688.307,389 L687.488,389 Z M689.867,385.685 L692.558,385.685 L691.232,382.019 L689.867,385.685 Z M697.459,389 C697.056,389 696.822,388.779 696.822,388.376 L696.822,380.524 C696.822,380.121 697.056,379.9 697.459,379.9 L698.265,379.9 C698.668,379.9 698.889,380.121 698.889,380.524 L698.889,388.376 C698.889,388.779 698.668,389 698.265,389 L697.459,389 Z M707.079,389.143 C704.83,389.143 704.284,386.777 704.18,385.75 L702.971,385.75 L702.971,388.376 C702.971,388.779 702.75,389 702.347,389 L701.541,389 C701.138,389 700.904,388.779 700.904,388.376 L700.904,380.524 C700.904,380.121 701.138,379.9 701.541,379.9 L705.038,379.9 C706.975,379.9 708.054,381.278 708.054,382.929 C708.054,384.268 707.313,385.321 706.039,385.646 C706.143,386.569 706.663,387.492 707.417,387.492 C707.69,387.492 707.846,387.466 708.015,387.388 C708.392,387.258 708.548,387.336 708.717,387.687 L708.834,387.947 C709.003,388.298 708.964,388.597 708.639,388.779 C708.184,389.013 707.651,389.143 707.079,389.143 Z M702.971,384.268 L704.752,384.268 C705.493,384.268 705.961,383.696 705.961,382.968 C705.961,382.214 705.48,381.642 704.752,381.642 L702.971,381.642 L702.971,384.268 Z M715.581,381.642 L712.11,381.642 L712.11,383.696 L715.048,383.696 C715.451,383.696 715.672,383.917 715.672,384.32 L715.672,384.671 C715.672,385.074 715.451,385.308 715.048,385.308 L712.11,385.308 L712.11,387.258 L715.581,387.258 C715.984,387.258 716.205,387.479 716.205,387.882 L716.205,388.376 C716.205,388.779 715.984,389 715.581,389 L710.68,389 C710.277,389 710.043,388.779 710.043,388.376 L710.043,380.524 C710.043,380.121 710.277,379.9 710.68,379.9 L715.581,379.9 C715.984,379.9 716.205,380.121 716.205,380.524 L716.205,381.018 C716.205,381.421 715.984,381.642 715.581,381.642 Z" id="BULLETIN-DE-SALAIRE" fill="#1D1D1D" opacity="0.646540179"></path>
                <path d="M576.819,469 C576.351,469 576.169,468.714 576.325,468.285 L579.367,460.394 C579.484,460.069 579.731,459.9 580.095,459.9 L581.018,459.9 C581.382,459.9 581.616,460.069 581.746,460.394 L584.827,468.285 C584.983,468.714 584.801,469 584.333,469 L583.488,469 C583.137,469 582.89,468.844 582.76,468.506 L582.305,467.31 L578.795,467.31 L578.353,468.493 C578.223,468.831 577.989,469 577.638,469 L576.819,469 Z M579.198,465.685 L581.889,465.685 L580.563,462.019 L579.198,465.685 Z M592.224,459.9 C592.627,459.9 592.861,460.121 592.861,460.524 L592.861,461.018 C592.861,461.421 592.627,461.642 592.224,461.642 L590.118,461.642 L590.118,468.376 C590.118,468.779 589.897,469 589.494,469 L588.714,469 C588.311,469 588.09,468.779 588.09,468.376 L588.09,461.642 L586.01,461.642 C585.607,461.642 585.386,461.421 585.386,461.018 L585.386,460.524 C585.386,460.121 585.607,459.9 586.01,459.9 L592.224,459.9 Z M600.193,459.9 C600.596,459.9 600.83,460.121 600.83,460.524 L600.83,461.018 C600.83,461.421 600.596,461.642 600.193,461.642 L598.087,461.642 L598.087,468.376 C598.087,468.779 597.866,469 597.463,469 L596.683,469 C596.28,469 596.059,468.779 596.059,468.376 L596.059,461.642 L593.979,461.642 C593.576,461.642 593.355,461.421 593.355,461.018 L593.355,460.524 C593.355,460.121 593.576,459.9 593.979,459.9 L600.193,459.9 Z M607.629,461.642 L604.158,461.642 L604.158,463.696 L607.096,463.696 C607.499,463.696 607.72,463.917 607.72,464.32 L607.72,464.671 C607.72,465.074 607.499,465.308 607.096,465.308 L604.158,465.308 L604.158,467.258 L607.629,467.258 C608.032,467.258 608.253,467.479 608.253,467.882 L608.253,468.376 C608.253,468.779 608.032,469 607.629,469 L602.728,469 C602.325,469 602.091,468.779 602.091,468.376 L602.091,460.524 C602.091,460.121 602.325,459.9 602.728,459.9 L607.629,459.9 C608.032,459.9 608.253,460.121 608.253,460.524 L608.253,461.018 C608.253,461.421 608.032,461.642 607.629,461.642 Z M612.829,469.143 C611.126,469.143 609.891,468.389 609.41,467.18 C609.241,466.79 609.449,466.517 609.852,466.413 L610.411,466.283 C610.775,466.192 610.97,466.348 611.178,466.686 C611.477,467.167 612.049,467.492 612.816,467.492 C613.7,467.492 614.285,467.102 614.285,466.504 C614.285,466.049 613.934,465.685 613.245,465.451 L612.062,465.022 C610.983,464.671 609.657,463.865 609.644,462.461 C609.644,460.797 611.087,459.757 612.868,459.757 C614.285,459.757 615.286,460.381 615.78,461.421 C615.975,461.798 615.793,462.097 615.403,462.214 L614.883,462.357 C614.519,462.461 614.298,462.318 614.077,462.006 C613.843,461.616 613.44,461.408 612.894,461.408 C612.244,461.408 611.685,461.733 611.685,462.331 C611.685,462.656 611.828,463.007 612.634,463.306 L613.817,463.735 C615.598,464.333 616.261,465.269 616.287,466.413 C616.287,468.194 614.766,469.143 612.829,469.143 Z M623.827,459.9 C624.23,459.9 624.464,460.121 624.464,460.524 L624.464,461.018 C624.464,461.421 624.23,461.642 623.827,461.642 L621.721,461.642 L621.721,468.376 C621.721,468.779 621.5,469 621.097,469 L620.317,469 C619.914,469 619.693,468.779 619.693,468.376 L619.693,461.642 L617.613,461.642 C617.21,461.642 616.989,461.421 616.989,461.018 L616.989,460.524 C616.989,460.121 617.21,459.9 617.613,459.9 L623.827,459.9 Z M625.53,469 C625.062,469 624.88,468.714 625.036,468.285 L628.078,460.394 C628.195,460.069 628.442,459.9 628.806,459.9 L629.729,459.9 C630.093,459.9 630.327,460.069 630.457,460.394 L633.538,468.285 C633.694,468.714 633.512,469 633.044,469 L632.199,469 C631.848,469 631.601,468.844 631.471,468.506 L631.016,467.31 L627.506,467.31 L627.064,468.493 C626.934,468.831 626.7,469 626.349,469 L625.53,469 Z M627.909,465.685 L630.6,465.685 L629.274,462.019 L627.909,465.685 Z M640.935,459.9 C641.338,459.9 641.572,460.121 641.572,460.524 L641.572,461.018 C641.572,461.421 641.338,461.642 640.935,461.642 L638.829,461.642 L638.829,468.376 C638.829,468.779 638.608,469 638.205,469 L637.425,469 C637.022,469 636.801,468.779 636.801,468.376 L636.801,461.642 L634.721,461.642 C634.318,461.642 634.097,461.421 634.097,461.018 L634.097,460.524 C634.097,460.121 634.318,459.9 634.721,459.9 L640.935,459.9 Z M643.47,469 C643.067,469 642.833,468.779 642.833,468.376 L642.833,460.524 C642.833,460.121 643.067,459.9 643.47,459.9 L644.276,459.9 C644.679,459.9 644.9,460.121 644.9,460.524 L644.9,468.376 C644.9,468.779 644.679,469 644.276,469 L643.47,469 Z M651.192,469.143 C648.345,469.143 646.369,467.011 646.369,464.45 C646.369,461.889 648.345,459.757 651.192,459.757 C654.039,459.757 656.015,461.889 656.015,464.45 C656.015,467.011 654.039,469.143 651.192,469.143 Z M651.192,467.349 C652.804,467.349 653.948,466.062 653.948,464.45 C653.948,462.838 652.804,461.551 651.192,461.551 C649.58,461.551 648.449,462.838 648.449,464.45 C648.449,466.062 649.58,467.349 651.192,467.349 Z M658.134,469 C657.731,469 657.497,468.779 657.497,468.376 L657.497,460.524 C657.497,460.121 657.731,459.9 658.134,459.9 L658.602,459.9 C658.94,459.9 659.174,460.017 659.369,460.29 L663.022,465.308 L663.022,460.524 C663.022,460.121 663.256,459.9 663.659,459.9 L664.465,459.9 C664.868,459.9 665.089,460.121 665.089,460.524 L665.089,468.376 C665.089,468.779 664.868,469 664.465,469 L663.997,469 C663.672,469 663.425,468.883 663.243,468.61 L659.564,463.54 L659.564,468.376 C659.564,468.779 659.343,469 658.94,469 L658.134,469 Z M675.814,461.642 L672.343,461.642 L672.343,463.696 L675.281,463.696 C675.684,463.696 675.905,463.917 675.905,464.32 L675.905,464.671 C675.905,465.074 675.684,465.308 675.281,465.308 L672.343,465.308 L672.343,467.258 L675.814,467.258 C676.217,467.258 676.438,467.479 676.438,467.882 L676.438,468.376 C676.438,468.779 676.217,469 675.814,469 L670.913,469 C670.51,469 670.276,468.779 670.276,468.376 L670.276,460.524 C670.276,460.121 670.51,459.9 670.913,459.9 L675.814,459.9 C676.217,459.9 676.438,460.121 676.438,460.524 L676.438,461.018 C676.438,461.421 676.217,461.642 675.814,461.642 Z M678.388,469 C677.972,469 677.738,468.766 677.79,468.337 L678.518,460.498 C678.544,460.108 678.778,459.9 679.168,459.9 L680.104,459.9 C680.468,459.9 680.689,460.056 680.832,460.394 L683.146,466.049 L685.473,460.394 C685.603,460.056 685.837,459.9 686.188,459.9 L687.137,459.9 C687.527,459.9 687.748,460.108 687.787,460.498 L688.515,468.337 C688.554,468.766 688.333,469 687.917,469 L687.124,469 C686.721,469 686.5,468.792 686.461,468.402 L686.045,463.436 L684.043,468.402 C683.913,468.74 683.679,468.896 683.328,468.896 L682.977,468.896 C682.626,468.896 682.392,468.74 682.262,468.402 L680.26,463.436 L679.831,468.402 C679.805,468.792 679.571,469 679.181,469 L678.388,469 Z M694.287,459.9 C696.237,459.9 697.303,461.317 697.303,462.955 C697.303,464.606 696.224,465.906 694.287,465.906 L692.298,465.906 L692.298,468.376 C692.298,468.779 692.077,469 691.674,469 L690.868,469 C690.465,469 690.231,468.779 690.231,468.376 L690.231,460.524 C690.231,460.121 690.465,459.9 690.868,459.9 L694.287,459.9 Z M694.014,464.268 C694.742,464.268 695.223,463.696 695.223,462.968 C695.223,462.214 694.742,461.642 694.014,461.642 L692.298,461.642 L692.298,464.268 L694.014,464.268 Z M699.292,469 C698.889,469 698.655,468.779 698.655,468.376 L698.655,460.524 C698.655,460.121 698.889,459.9 699.292,459.9 L700.098,459.9 C700.501,459.9 700.722,460.121 700.722,460.524 L700.722,467.258 L704.206,467.258 C704.609,467.258 704.843,467.479 704.843,467.882 L704.843,468.376 C704.843,468.779 704.609,469 704.206,469 L699.292,469 Z M710.329,469.143 C707.482,469.143 705.506,467.011 705.506,464.45 C705.506,461.889 707.482,459.757 710.329,459.757 C713.176,459.757 715.152,461.889 715.152,464.45 C715.152,467.011 713.176,469.143 710.329,469.143 Z M710.329,467.349 C711.941,467.349 713.085,466.062 713.085,464.45 C713.085,462.838 711.941,461.551 710.329,461.551 C708.717,461.551 707.586,462.838 707.586,464.45 C707.586,466.062 708.717,467.349 710.329,467.349 Z M719.949,469 C719.546,469 719.325,468.779 719.325,468.376 L719.325,465.295 L716.166,460.654 C715.867,460.238 716.062,459.9 716.569,459.9 L717.596,459.9 C717.934,459.9 718.168,460.017 718.35,460.316 L720.352,463.553 L722.354,460.316 C722.536,460.03 722.77,459.9 723.108,459.9 L724.135,459.9 C724.642,459.9 724.837,460.238 724.538,460.654 L721.379,465.269 L721.379,468.376 C721.379,468.779 721.158,469 720.755,469 L719.949,469 Z M731.623,461.642 L728.152,461.642 L728.152,463.696 L731.09,463.696 C731.493,463.696 731.714,463.917 731.714,464.32 L731.714,464.671 C731.714,465.074 731.493,465.308 731.09,465.308 L728.152,465.308 L728.152,467.258 L731.623,467.258 C732.026,467.258 732.247,467.479 732.247,467.882 L732.247,468.376 C732.247,468.779 732.026,469 731.623,469 L726.722,469 C726.319,469 726.085,468.779 726.085,468.376 L726.085,460.524 C726.085,460.121 726.319,459.9 726.722,459.9 L731.623,459.9 C732.026,459.9 732.247,460.121 732.247,460.524 L732.247,461.018 C732.247,461.421 732.026,461.642 731.623,461.642 Z M737.564,469.143 C735.523,469.143 733.794,467.895 733.794,465.555 L733.794,460.524 C733.794,460.121 734.028,459.9 734.431,459.9 L735.237,459.9 C735.64,459.9 735.861,460.121 735.861,460.524 L735.861,465.555 C735.861,466.738 736.641,467.349 737.564,467.349 C738.487,467.349 739.28,466.738 739.28,465.555 L739.28,460.524 C739.28,460.121 739.514,459.9 739.917,459.9 L740.723,459.9 C741.126,459.9 741.347,460.121 741.347,460.524 L741.347,465.555 C741.347,467.895 739.618,469.143 737.564,469.143 Z M749.42,469.143 C747.171,469.143 746.625,466.777 746.521,465.75 L745.312,465.75 L745.312,468.376 C745.312,468.779 745.091,469 744.688,469 L743.882,469 C743.479,469 743.245,468.779 743.245,468.376 L743.245,460.524 C743.245,460.121 743.479,459.9 743.882,459.9 L747.379,459.9 C749.316,459.9 750.395,461.278 750.395,462.929 C750.395,464.268 749.654,465.321 748.38,465.646 C748.484,466.569 749.004,467.492 749.758,467.492 C750.031,467.492 750.187,467.466 750.356,467.388 C750.733,467.258 750.889,467.336 751.058,467.687 L751.175,467.947 C751.344,468.298 751.305,468.597 750.98,468.779 C750.525,469.013 749.992,469.143 749.42,469.143 Z M745.312,464.268 L747.093,464.268 C747.834,464.268 748.302,463.696 748.302,462.968 C748.302,462.214 747.821,461.642 747.093,461.642 L745.312,461.642 L745.312,464.268 Z" id="ATTESTATION-EMPLOYEU" fill="#1D1D1D" opacity="0.646540179"></path>
                <circle id="Oval-13" fill="#78E08F" cx="593" cy="337" r="8"></circle>
                <circle id="Oval-13-Copy" fill="#78E08F" cx="717" cy="337" r="8"></circle>
                <circle id="Oval-13-Copy-2" fill="#E6E6E6" cx="841" cy="337" r="8"></circle>
                <rect id="Rectangle-3" fill="#D8D8D8" x="611" y="336" width="88" height="2" rx="1"></rect>
                <rect id="Rectangle-4" fill="#D8D8D8" opacity="0.683482143" x="642" y="293" width="151" height="6" rx="3"></rect>
                <rect id="Rectangle-4-Copy" fill="#D8D8D8" opacity="0.683482143" x="678" y="305" width="80" height="6" rx="3"></rect>
                <rect id="Rectangle-3-Copy" fill="#D8D8D8" x="735" y="336" width="88" height="2" rx="1"></rect>
            </g>
        </g>
    </g>
</svg>