<?xml version="1.0" encoding="UTF-8"?>
<svg width="344px" height="270px" viewBox="0 0 344 270" version="1.1" xmlns="http://www.w3.org/2000/svg" xmlns:xlink="http://www.w3.org/1999/xlink">
    <!-- Generator: sketchtool 50.2 (55047) - http://www.bohemiancoding.com/sketch -->
    <title>78A75E42-484D-4E97-AA0D-0A0F73381236@1x</title>
    <desc>Created with sketchtool.</desc>
    <defs>
        <linearGradient x1="157.195846%" y1="125.986551%" x2="-15.71773%" y2="55.9021317%" id="linearGradient-1">
            <stop stop-color="#C4FFDC" offset="0%"></stop>
            <stop stop-color="#FFF8C4" offset="100%"></stop>
        </linearGradient>
        <linearGradient x1="53.5451346%" y1="42.4900777%" x2="46.9990092%" y2="10.6159472%" id="linearGradient-2">
            <stop stop-color="#FFFFFF" offset="0%"></stop>
            <stop stop-color="#ECECEC" offset="100%"></stop>
        </linearGradient>
        <path d="M194.486433,1.21852619 L5.33765197,73.7833388 C1.31565134,75.3263343 -0.693979367,79.837655 0.849016151,83.8596557 C1.74965201,86.2072697 3.72677534,87.976742 6.15953855,88.6124305 L52.685529,100.769816 L69.8767927,156.884651 C70.5077178,158.944084 72.688684,160.102118 74.7481171,159.471193 C76.2952015,158.997231 77.3889404,157.617201 77.4970169,156.002756 L80.2754811,114.498117 L158.057919,170.264959 C161.558904,172.775024 166.431823,171.971723 168.941887,168.470737 C169.553723,167.617362 169.986953,166.649236 170.215611,165.624391 L204.893093,10.19953 C205.831163,5.99508619 203.183245,1.82625445 198.978801,0.888183661 C197.481444,0.554102177 195.918816,0.66900878 194.486433,1.21852619 Z" id="path-3"></path>
        <linearGradient x1="16.8779436%" y1="100%" x2="-78.7373829%" y2="16.9024826%" id="linearGradient-5">
            <stop stop-color="#FFFFFF" offset="0%"></stop>
            <stop stop-color="#B9B9B9" offset="100%"></stop>
        </linearGradient>
        <linearGradient x1="53.5451346%" y1="42.4900777%" x2="19.6354201%" y2="15.9694662%" id="linearGradient-6">
            <stop stop-color="#FFFFFF" offset="0%"></stop>
            <stop stop-color="#ECECEC" offset="100%"></stop>
        </linearGradient>
        <path d="M84.0266437,0.523886059 L2.35130678,31.7267137 C0.612871528,32.3908566 -0.258014488,34.338531 0.406128414,36.0769662 C0.79481172,37.0943689 1.65127395,37.8611696 2.70529494,38.1354371 L22.7621946,43.3544556 L30.190398,67.4998423 C30.4640032,68.3891965 31.4067681,68.8883597 32.2961223,68.6147544 C32.9633651,68.4094806 33.4348984,67.8139737 33.4817225,67.117441 L34.6821253,49.2608179 L68.2945833,73.2588297 C69.8091562,74.3401769 71.9135653,73.9889781 72.9949125,72.4744052 C73.2565988,72.1078783 73.4421561,71.6926126 73.5406179,71.2531504 L88.5172631,4.40829911 C88.9241299,2.59234144 87.7818361,0.790386131 85.9658784,0.383519287 C85.3197167,0.238746204 84.6452211,0.287567919 84.0266437,0.523886059 Z" id="path-7"></path>
        <path d="M58.5475866,0.363445524 L1.55028994,22.3282437 C0.344387449,22.792957 -0.256465066,24.1472587 0.208248285,25.3531612 C0.478725014,26.0550316 1.07011144,26.5840917 1.79765015,26.7750555 L15.8568097,30.4652931 L21.0364094,47.4483754 C21.2249111,48.0664425 21.8787643,48.4146741 22.4968314,48.2261724 C22.9617709,48.0843724 23.2906069,47.6698696 23.3229294,47.1848632 L24.1605817,34.6157099 L47.5748952,51.4783806 C48.623586,52.2336334 50.0859713,51.995755 50.8412241,50.9470642 C51.0267379,50.6894729 51.1579008,50.3968291 51.2267316,50.0869404 L61.6733547,3.05430765 C61.9535743,1.79270697 61.1580078,0.542814657 59.8964071,0.26259503 C59.4466754,0.162703159 58.9774632,0.197785871 58.5475866,0.363445524 Z" id="path-9"></path>
    </defs>
    <g id="UI" stroke="none" stroke-width="1" fill="none" fill-rule="evenodd">
        <g id="welcome" transform="translate(-749.000000, -1269.000000)">
            <g id="Group-41" transform="translate(360.000000, -32.000000)"></g>
            <g id="Group-40" transform="translate(749.000000, 1269.000000)">
                <path d="M313.930661,112.93326 C278.382102,73.9641038 288.211885,16.4436577 210.649353,2.08266338 C133.08682,-12.278331 140.308675,54.0724245 86.2618454,67.1672151 C32.2150156,80.2620057 7,110.516719 7,160.732115 C7,210.947512 29.2424211,269.427706 90.3213123,269.41108 C151.400204,269.394454 153.522897,244.603323 182.032183,242.793279 C210.541469,240.983234 217.352499,246.721256 243.938152,256.557041 C270.523804,266.392826 318.939444,253.950355 334.294805,216.867148 C349.650166,179.78394 349.47922,151.902417 313.930661,112.93326 Z" id="Path-79-Copy" fill="url(#linearGradient-1)" transform="translate(175.500000, 134.735332) rotate(-360.000000) translate(-175.500000, -134.735332) "></path>
                <path d="M228.842016,128.893093 L142.177428,174.367224 C138.362844,176.36879 136.893102,181.083712 138.894668,184.898297 C139.949744,186.909061 141.828693,188.360218 144.040842,188.872811 L173.37076,195.66906 L202.047286,215.904605 C205.567026,218.388303 210.433774,217.548426 212.917472,214.028687 C213.332521,213.440506 213.664147,212.7977 213.902908,212.118571 L239.82466,138.387028 C241.253431,134.323047 239.117172,129.870293 235.053191,128.441521 C233.0099,127.723163 230.759916,127.886743 228.842016,128.893093 Z" id="Mask" fill="#4A4A4A" opacity="0.0813058036"></path>
                <path d="M60.8612009,172.422506 L34.3529668,181.042167 C30.3179107,182.354243 28.1104992,186.68895 29.4225752,190.724006 C30.3281189,193.508845 32.7380498,195.536711 35.6366844,195.952946 L52.2744622,203.228572 C56.6667707,205.149309 61.8002923,203.440939 64.1657981,199.271288 L71.7969083,185.820016 C74.324609,181.364466 72.7617786,175.703423 68.3062289,173.175722 C66.0404364,171.890304 63.338538,171.616952 60.8612009,172.422506 Z" id="Mask-Copy" fill="#4A4A4A" opacity="0.0813058036"></path>
                <path d="M118.494581,247.095505 L92.4997355,252.425842 C90.3203041,252.872742 88.9158101,255.001804 89.3627104,257.181236 C89.7197236,258.922309 91.1755725,260.223671 92.9456299,260.383955 L108.589557,264.697941 C111.437964,265.483421 114.485681,264.591988 116.461845,262.39536 L123.058575,255.062687 C124.84384,253.078255 124.682383,250.022312 122.697951,248.237047 C121.557412,247.210978 119.99747,246.787333 118.494581,247.095505 Z" id="Mask-Copy-2" fill="#4A4A4A" opacity="0.0813058036"></path>
                <g id="Group-30" transform="translate(98.000000, 11.000000)">
                    <polygon id="Path-98" fill="#CDCDCD" points="76.0636943 159.020427 107.248408 131.944962 76.0636943 109.56391"></polygon>
                    <g id="Group-29">
                        <g id="Path-99">
                            <mask id="mask-4" fill="white">
                                <use xlink:href="#path-3"></use>
                            </mask>
                            <use id="Mask" fill="url(#linearGradient-2)" xlink:href="#path-3"></use>
                            <path d="M52.7949219,100.958984 L161.186571,35.2173669 C162.131004,34.6445499 163.360979,34.9458046 163.933796,35.890238 C164.429118,36.7069024 164.277858,37.7598314 163.572671,38.4040344 L80.493964,114.29822 L77.6000505,161.035889 C76.795266,162.489641 75.3658983,163.095255 73.3119475,162.852733 C69.0111132,162.344907 62.1721047,141.713657 52.7949219,100.958984 Z" fill="url(#linearGradient-5)" mask="url(#mask-4)"></path>
                        </g>
                    </g>
                </g>
                <g id="Group-30-Copy" transform="translate(0.000000, 109.000000)">
                    <polygon id="Path-98" fill="#CDCDCD" points="32.8624699 68.4157651 46.3354771 56.7670186 32.8624699 47.1379612"></polygon>
                    <g id="Group-29">
                        <g id="Path-99">
                            <mask id="mask-8" fill="white">
                                <use xlink:href="#path-7"></use>
                            </mask>
                            <use id="Mask" fill="url(#linearGradient-6)" xlink:href="#path-7"></use>
                            <path d="M22.8094565,43.4358421 L69.6220679,15.161799 C70.0305218,14.9150996 70.5616284,15.0462275 70.8083277,15.4546813 C71.0216907,15.8079409 70.9554356,16.2627739 70.6501599,16.5404838 L34.7765184,49.1748157 L33.5262354,69.2828825 C33.1785372,69.9083339 32.5609949,70.168889 31.6736084,70.0645479 C29.815481,69.8460646 26.8607637,60.9698294 22.8094565,43.4358421 Z" fill="url(#linearGradient-5)" mask="url(#mask-8)"></path>
                        </g>
                    </g>
                </g>
                <g id="Group-30-Copy-2" transform="translate(73.000000, 205.000000)">
                    <polygon id="Path-98" fill="#CDCDCD" points="22.8929565 48.0759431 32.278647 39.8903374 22.8929565 33.1239727"></polygon>
                    <g id="Group-29">
                        <g id="Path-99">
                            <mask id="mask-10" fill="white">
                                <use xlink:href="#path-9"></use>
                            </mask>
                            <use id="Mask" fill="url(#linearGradient-2)" xlink:href="#path-9"></use>
                            <path d="M15.8897338,30.5224836 L48.5423543,10.6288997 C48.8253412,10.4564902 49.194513,10.5461308 49.3669225,10.8291178 C49.5159789,11.0737735 49.471279,11.389676 49.2601964,11.5833724 L24.2263387,34.5552759 L23.355355,48.6852688 C23.1131383,49.1247752 22.6829403,49.3078679 22.0647609,49.2345471 C20.770335,49.0810184 18.7119927,42.8436639 15.8897338,30.5224836 Z" fill="url(#linearGradient-5)" mask="url(#mask-10)"></path>
                        </g>
                    </g>
                </g>
            </g>
        </g>
    </g>
</svg>