<svg width="648" height="327" xmlns="http://www.w3.org/2000/svg" xmlns:xlink="http://www.w3.org/1999/xlink"><defs><path d="M104.8 4c-7.6 2.8-35 3.3-37.7 3.3l-36.3.2H12.6C9.8 7.5 2.3 8.6.8 7c-3.1-3.3 15.8-4 18.4-4.3A733.8 733.8 0 0198.3 1c1.9 0 6-.4 7.4.5" id="a"/><path d="M104.7 3.7c-7.5 2.7-35 3.2-37.6 3.2l-36.4.2H12.6C9.8 7.2 2.3 8.3.7 6.7c-3-3.4 15.8-4.1 18.4-4.3A734.2 734.2 0 0198.3.5c1.8 0 6-.4 7.3.5" id="d"/><path d="M83.1 3c-6 2-27.7 2.5-29.8 2.5l-28.9.1H10c-2.2.1-8.1 1-9.4-.4C-1.8 2.6 13.2 2 15.2 1.8A582.4 582.4 0 0178 .4c1.5 0 4.7-.3 5.8.4" id="g"/><path d="M104.6 4c-7.5 2.6-35 3.2-37.6 3.2l-36.4.1H12.5C9.7 7.5 2.2 8.6.6 6.9c-3-3.3 15.8-4.1 18.4-4.3A733.4 733.4 0 0198.2.8c1.8 0 6-.5 7.3.4" id="j"/><path id="m" d="M.2.2h2.6V7H.2z"/><path d="M104.7 3.8C97 6.5 69.7 7 67 7l-36.3.2H12.5C9.7 7.2 2.2 8.3.6 6.6c-3-3.3 15.8-4 18.4-4.3A733.8 733.8 0 0198.2.6c1.9 0 6-.4 7.4.5" id="o"/><path d="M83 3C77 5 55.2 5.5 53 5.5l-28.7.2H9.9c-2.2 0-8.2.9-9.4-.5C-2 2.6 13 2 15 1.8A582 582 0 0177.8.5c1.5 0 4.7-.4 5.9.3" id="r"/><linearGradient x1="0%" y1="50.1%" x2="100%" y2="49.9%" id="b"><stop offset="0%"/><stop offset="100%"/></linearGradient><linearGradient x1="0%" y1="50.1%" x2="100%" y2="49.9%" id="e"><stop offset="0%"/><stop offset="100%"/></linearGradient><linearGradient x1="0%" y1="50.1%" x2="100%" y2="49.9%" id="h"><stop offset="0%"/><stop offset="100%"/></linearGradient><linearGradient x1="0%" y1="50.1%" x2="100%" y2="49.9%" id="k"><stop offset="0%"/><stop offset="100%"/></linearGradient><linearGradient x1="0%" y1="50.1%" x2="100%" y2="49.9%" id="p"><stop offset="0%"/><stop offset="100%"/></linearGradient><linearGradient x1="0%" y1="50.1%" x2="100%" y2="49.9%" id="s"><stop offset="0%"/><stop offset="100%"/></linearGradient></defs><g fill="none" fill-rule="evenodd"><g transform="translate(330.6 317)"><mask id="c" fill="#fff"><use xlink:href="#a"/></mask><path d="M104.8 4c2-.7 2.6-1.6.9-2.6-1.4-1-5.5-.5-7.4-.5a733.8 733.8 0 00-79.2 1.7C16.7 2.8-2.2 3.6.9 7c1.5 1.7 9 .6 11.8.6h18.2L67 7.3c2.7 0 30.1-.5 37.7-3.2" fill="url(#b)" mask="url(#c)"/></g><g transform="translate(189.6 317)"><mask id="f" fill="#fff"><use xlink:href="#d"/></mask><path d="M104.7 3.7c2-.7 2.7-1.6 1-2.7-1.5-.9-5.6-.4-7.4-.5A734.2 734.2 0 0019 2.2c-2.6.3-21.5 1-18.4 4.4 1.6 1.6 9 .6 11.9.6L30.7 7l36.4-.2c2.7 0 30-.5 37.6-3.2" fill="url(#e)" mask="url(#f)"/></g><g transform="translate(101.5 320)"><mask id="i" fill="#fff"><use xlink:href="#g"/></mask><path d="M83.1 3c1.6-.6 2.1-1.3.7-2.2-1-.7-4.3-.3-5.8-.4C71 .3 64 .1 57.2.2c-14 0-28 .6-42 1.6-2 .2-17 .8-14.6 3.4 1.3 1.3 7.2.5 9.4.5h14.4l28.9-.2c2 0 23.8-.4 29.8-2.6" fill="url(#h)" mask="url(#i)"/></g><path d="M155.3 248.3c-1-19.7 1.2-39.9 1-59.7a39.3 39.3 0 00-4.1-21.5c-1.2-1-3.1-.5-4.6 0A58.6 58.6 0 01103 164a22.9 22.9 0 00-4 11c-1 6.3-2.1 12.4-2.4 18.7v4c.1 7.8 2 15.5 3.4 23.1 1 5 1.8 10 1.8 15.1.1 4.1-.6 8 .5 12 2.8 10 2.8 20.9 4 31a1573.5 1573.5 0 013.6 34.2c.7.1 11 2 11-.1l2.5-63.8c.3-8.9-.5-39 2.3-47.6l3.4.3c6.3 28 13.7 77.3 20 105.4.5 2.5 1.2 5.2 3.2 6.8 2 1.6 5.7 1.1 6.3-1.4-1.9-21.4-2.1-42.9-3.3-64.4" fill="#1F375A"/><path d="M136.6 56.3c0-7.4-6.3-13.3-14-13.3-7.8 0-14 6-14 13.3 0 1.2.1 2.4.5 3.5v1c0 2.6 0 5.2.6 7.8 1 5.1 3.5 9.8 8.4 12.7 1.6 1 3.5 1.7 5.4 1.7 2.6 0 5-1.4 6.9-3 6-5.7 6.5-14.1 6-22.1l.2-1.6" fill="#E8DBCE"/><path d="M155.3 179.9l-.1-40.9c0-11.4-2.7-23.6-4.3-35-1-6.1-2-8.3-4.9-13.9-.4-.8-.4-1.3-4.1-2.5-.9-.3-2.8-1.4-3.8-1.2-4.8.8-9.7-1-14.6-.2-5.1.9-13.7-1.7-17.7 1.8-5.4 4.8-5.8 16.1-6.6 23.6-1.2 10-4 20.2-4.4 30.2-.5 8.9-.7 17.7-.8 26.6-.1 4.6-1.8 20.7 2.3 23.8 2.4 1.8 8.9 2.5 15.5 2.7H112.7a162.9 162.9 0 0016.1-.3c7.8-.8 15.4-2.3 23-4.1 1.3-.3 2.8-.7 3.5-2 .5-.9 0-7.6 0-8.6" fill="#B7BCC2"/><path d="M114.4 322.5c-1 .8.4 1.4 1 1.4 1.2.1 2.3 0 3.5-.2.3 0 .6-.1.8-.3l.4-.6c.4-.5 1.3-1.3 1.4-2 .1-.5-.2-1-.4-1.4-.5-1-1.4-2-1.4-3.2-2.5.2-4.8-.6-6.9 0-.2.9-.8 1.6-.5 2.2-.2-.4-6.2 1-6.9 1.2a34 34 0 01-3.4.5c-1 0-2.7-.3-3.2.6-.2.3-.2.6-.2 1v.8c.2.4.6.8 1 1 5 1.7 9.9-1.1 14.8-1M155.7 321.2c1 1-.4 1.7-1 1.7-1.1.2-2.3.1-3.4-.2a2 2 0 01-.9-.4l-.4-.6c-.4-.6-1.3-1.6-1.4-2.4-.1-.6.2-1.1.4-1.7.5-1.1 1.4-3.2 1.4-4.6 2.5.3 6 .3 8 1-.5 1.1-.3 1.7-.6 2.5.2-.5 6.2 1.2 6.9 1.4l3.4.5c1 .1 2.7-.4 3.2.7l.2 1.2v.9c-.2.5-.6.9-1 1-5 2.1-9.9-1-14.8-1" fill="#1A1A1A"/><path d="M143 47.3l-1.1-1.8a12 12 0 00-3-6.4c-1-1-2-1.2-3-1-1.2-.5-2.5-.8-4-.9-1.3-.9-2.8-1.5-4.3-1.8a21 21 0 00-21.4 8.6c-.7-2.9-6.1-3.3-6.6 0-.4 3.5.7 6.5 4 7.9 3 1.2 4.8.2 6.5-1.5h.2c2.8-1.8 6-3.8 9.3-4.7 2.5 1 5 3 7 4.9 1 1 2.4 2 3.8 2.6l.8 1.4c0 1.7 1 3.7 3.3 3.9.9 0 1.7 0 2.6-.2l-.2.6c-.2 1-.5 4.3-1.5 4.8-2.3 1.1-2 4.7 0 5.9 2 1.2 5.3-.3 5-3 0-.6.5-2 .7-2.6.4-.9.8-1.7 1-2.6l.6-3c0-.4-.2-2.5 0-2.8.5-.7.5-1.6.2-2.4l.2-.5c.6-1.8.6-3.6 0-5.4" fill="#564A47"/><g transform="translate(425.6 317)"><mask id="l" fill="#fff"><use xlink:href="#j"/></mask><path d="M104.6 4c2.1-.8 2.7-1.7 1-2.8-1.5-.9-5.6-.4-7.4-.4C89.4.6 80.7.4 71.9.4 54.3.4 36.6 1.2 19 2.5c-2.6.2-21.5 1-18.4 4.3 1.6 1.7 9 .6 11.9.6h18.1L67 7.1c2.7 0 30-.6 37.6-3.3" fill="url(#k)" mask="url(#l)"/></g><path d="M431.6 14c.3-1.2.3-2.3.1-3.5-.1-1-.7-2.4-2-2.5-1.2-.1-2.1 1-2.6 2a35.4 35.4 0 00-3 14.8c-1.2-.2-.6.5 4.5 0-.2-2 1.6-3.8 2.6-5.7 1-2 2.6-4 2.3-6.3h-1l-.9 1.2" fill="#564A47"/><path d="M489.3 249.3c-1-19.7 1.2-39.9 1-59.7a39.3 39.3 0 00-4.1-21.5c-1.2-1-3.1-.5-4.6 0A58.6 58.6 0 01437 165a22.9 22.9 0 00-4 11c-1 6.3-2.1 12.4-2.4 18.7v4c.1 7.8 2 15.5 3.4 23.1 1 5 1.8 10 1.8 15.1.1 4.1-.6 8 .5 12 2.8 10 2.8 20.9 4 31a1573.5 1573.5 0 013.6 34.2c.7.1 11 2 11-.1l2.5-63.8c.3-8.9-.5-39 2.3-47.6l3.4.3c6.3 28 13.7 77.3 20 105.4.5 2.5 1.2 5.2 3.2 6.8 2 1.6 5.7 1.1 6.3-1.4-1.9-21.4-2.1-42.9-3.3-64.4" fill="#1E2C59"/><path d="M471.6 57.3c0-7.4-6.5-13.3-14.6-13.3-8 0-14.4 6-14.4 13.3 0 1.2.1 2.4.5 3.5v.9c0 2.7 0 5.3.6 8 1 5 3.7 9.7 8.7 12.6 1.7 1 3.7 1.7 5.7 1.7a11 11 0 007-3c6.2-5.7 6.8-14.1 6.3-22.1l.2-1.6" fill="#564A47"/><path d="M450 81.7c.7.9 1.3 1.8 2.3 2.4 1.2.7 2.7.9 4 .9 1.8 0 3.6-.2 5-1.1a21 21 0 004.1-3.6c2-3.2 3.4-5.4 4.5-9 .4-1 .7-2.1.6-3.2-.4-.2-.9 0-1 .4-.3.4-.3.8-.3 1.2 0 2.2-1.1 4.3-2.3 6.2-1 1.7-3.5 3.2-5 4.6a8.3 8.3 0 01-5.8 2.1c-.3 0-.6 0-.9-.2-.5-.2-.7-.8-.9-1.3-.1-.5-.3-1.1-.8-1.4-.5-.3-1.4 0-1.3.5 0 .4.4.6.4 1s-.6.6-1 .5c-.4-.1-.7-.4-1-.8l-2-2.2c-.3-.3-.6-.6-1-.4.5 1.2 1.6 2.3 2.4 3.4" fill="#333"/><path d="M453 314.1c-4-.2-8 0-12 .5a47 47 0 01-9.9 4.7c-1 .4-2 .7-2.8 1.4-.8.7-1 1.9-.4 2.6.7.6 1.7.7 2.7.7a134.3 134.3 0 0023.1-2c.3-.2.4-.5.5-.8.7-2.4.3-5-1.3-7M487.9 312c-3.7.4-7.3 1.2-10.7 2.3-2.4 2.3-5 4.4-8 6-.8.6-1.7 1-2.3 1.9-.5.7-.5 1.9.3 2.4.6.5 1.6.4 2.5.3a117 117 0 0020.6-5.6c.2-.3.2-.6.2-.9a8 8 0 00-2.6-6.4" fill="#3D322B"/><path d="M427.4 25.3c.3-2 .3-4.6-1.2-5.2-1.6-.6-3 1.6-4 3.5l-5.9 12.2c-3.8 8-7.7 16.1-9.3 25-.7 3.5-.8 7.6 1.3 10 1.3 1.4 3.1 1.8 5 2 9 1.4 8-8.9 9.3-17l4.8-30.5" fill="#FFF"/><path d="M432.4 195.9a11.5 11.5 0 009-2.4 15 15 0 003.1-4 31 31 0 003-7.5h-.6l-1.2 3.7c-1 3-3 6.6-6 8.5-2.6 1.5-5.8 1.2-8.8 1-.4 0-.5.7 0 .8l.1-.3c.3-.2 1.1.1 1.4.2" fill="#333"/><path d="M444.4 190.2a46 46 0 003.2-8.2h-.2c-.7 2.5-1.6 5-2.9 7.3-.8 1.5-1.7 3-3 4a10.2 10.2 0 01-8.5 2.4c-.3 0-1-.4-1.3-.1l-.1.2c5 .8 10.5-1 12.8-5.6" fill="#333"/><path d="M490.3 180.9l-.1-40.9c0-11.4-2.7-23.6-4.3-35-1-6.1-2-8.3-4.9-13.9-.4-.8-.4-1.3-4.1-2.5-.9-.3-2.8-1.4-3.8-1.2-4.8.8-9.7-1-14.6-.2-5.1.9-13.7-1.7-17.7 1.8-5.4 4.8-5.8 16.1-6.6 23.6-1.2 10-4 20.2-4.4 30.2a892 892 0 00-.8 26.6c-.1 4.6-1.8 20.7 2.3 23.8 2.4 1.8 8.9 2.5 15.5 2.7H447.7a162.9 162.9 0 0016.1-.3c7.8-.8 15.4-2.3 23-4.1 1.3-.3 2.8-.7 3.5-2 .5-.9 0-7.6 0-8.6" fill="#FFF"/><path d="M431.2 111c2 2.2 4.3 4.2 6.8 4.8 2.5.7 5.4-.5 6.3-3.2.8-2.5-.3-5.5-1.4-8-2.8-6.6-6.3-12.7-9.8-18.8l-11.2-19.2c-1.1-2-2.3-4-4-5-3.2-1.8-10 .8-10.3 5-.4 3.8 4.9 12.8 6.4 16.4a97.4 97.4 0 0017.2 28" fill="#FFF"/><path d="M456.1 89.3c.3-.3.6-.7.4-1-.1-.3-.5-.5-.8-.6l-4.2-1.5c-.5-.2-1-.3-1.5 0-.2 0-.3.2-.5.4a15678 15678 0 00-3 4c0 .3.3.5.5.7l2.7 2.9c.6.7 1.3 2.4 2.5 1.6 1-.5 1.2-2.3 1.7-3.1.6-1.2 1.4-2.3 2.2-3.4M460.4 93.6c.1.7.2 1.4.5 2.1 0 .1 0 .2.2.2.2.2.6 0 .8-.3 1.5-2.1 3.3-4 5.4-5.8.4-.3.8-.7 1-1.1.3-.5.3-1 0-1.4l-1-.4-2.4-.7-1.4-.2c-.5 0-.9.3-1.3.5-1 .5-3.5 1.6-3.6 2.7-.1.6.7 1.5 1 2l.8 2.4" fill="#E8E8E8"/><path d="M492.9 51.3c-4.4 16.9-9.1 33.7-14.3 50.4-.6 2-1.2 4-1 6 .2 2 1.4 4 3.5 4.9 2.5 1 5.6 0 7.5-1.7 1.9-1.7 2.9-4 3.7-6.3 7.8-20.8 11-43 9.3-64.8-.2-2.2-.4-4.5.4-6.7.4-1.1 1-2.5 0-3.4-1-1-3.7-1-4.6 0-1.1 1.4-.9 5.6-1.2 7.3-.9 4.8-2 9.5-3.3 14.3" fill="#FFF"/><path d="M495.3 18c0-1.3 0-2.5.3-3.6s1-2.4 2.2-2.4c1.2 0 1.9 1.2 2.2 2.3a40 40 0 011 15.6c1.2-.1.5.5-4.2-.4.5-2.2-1-4.2-1.7-6.3-.7-2.2-2-4.4-1.4-6.7l1 .1.6 1.3" fill="#564A47"/><path d="M462.7 65.6c-.2 1-.5 1.7-1.2 2-1.4.2-2.7.3-4 .2-1.1-.1-1.5-.1-1.6-1.3a11.6 11.6 0 010-1.1v-1.5h6.5c.2.1.3.3.3.4v1.3m-13.2 1c0 .2-.1.2-.2.3-1.4.2-3 .4-4.5.3-.7 0-1.3-.2-1.7-.5v-3h6.4l.1 1.7-.1 1.3m19.5-4.4l-4.5 1.5c-.2-.5-.5-1-1-1.3-.9-.3-2-.2-2.8-.2h-5.2c-.3 0-.4.1-.5.3h-.7c-.3 0-.5.3-.5.5v2.1h-3V64v-1c0-.2-.3-.4-.5-.4h-.1-.1l-4.7-.4c-1.1 0-2.6-.4-3.6 0-1.5.6-1.3 2.6-1.1 4.2-.2.7-.2 1.4.1 1.9.3.3.6.3 1 .4 1.2.2 2.5 0 3.7 0 1.2 0 3.7.6 4.6-.3.5-.4.7-1.2.7-2.1 0 .2.2.3.4.4l2.7.2c.2.8.7 1.5 1.6 1.8 1.3.5 3 .2 4.2.2.8 0 1.5 0 2.1-.2l1.6-.3.3-.2c.1 0 .3-.2.3-.4.3-.8.6-2 .6-3 1.5-.6 3-1 4.6-1.5.6-.2.3-1.2-.2-1" fill="#333"/><path d="M347.8 323.5c-1 .8.3 1.4.9 1.4 1 .1 2.2 0 3.3-.2.3 0 .5-.1.8-.3l.4-.6c.4-.5 1.2-1.3 1.3-2 .1-.5-.2-1-.4-1.4-.5-1-1.4-2-1.3-3.2-2.4.2-4.7-.6-6.6 0-.2.9-.8 1.6-.5 2.2-.2-.4-6 1-6.6 1.2l-3.3.5c-.8 0-2.5-.3-3 .6-.2.3-.2.6-.2 1v.8c.2.4.6.8 1 1 4.7 1.7 9.4-1.1 14.2-1" fill="#1A1A1A"/><path d="M349.8 215.7l-16.2-.4c-.3-.7 1 0 1 .7-.3 24.2 1.9 48.4 6.5 72.1 2 10.2 4.5 20.5 4.6 30.9h6.6l2.2-97.8c0-1.7 0-3.6-1.3-4.6-1-.8-2.2-.8-3.4-.9M394.5 313c2.9 0 5.8-1 8-3l-15.3-27.5a42.7 42.7 0 01-6.8-21c-2.2-44.9-2.2-44.9 1.1-54.6.4-1.2 8.5-5.9 0 0-3 2.2-14.9.4-18.6 1-.8 0-1.7.2-2.3.9-.6.7.4 3.2-.5 2.7-6.6-4-2.2 1.5-1.2 14 .4 4.3 5 32.3 6.2 36.6a69.6 69.6 0 0010.1 21.3c7.2 9.5 12 18.2 19.3 29.6" fill="#4D4D4D"/><path d="M389.5 150.8c-1.3-17.3-4.4-35-14.1-49.7-7-10.5-16.6-22.8-30.1-11.8-1.2 1-9.6-2.7-10.4-1.5-2-.5-4.4 0-5.7 2.4-4.6 8-6.3 16.8-7 25.9-.8 10.4-1 20.8-1.4 31.3-.2 4.8-.3 9.6-.3 14.5-2 12.9-2.9 25.9-.7 38.8 0 .7.3 1.3.6 1.7l.2 9.8c0 2.1 1.6 4.8 4 5.2 20.5 2.8 41 2 61.3-2.5 2.4-.5 3.8-2.9 4-5.1 1-19.7 1-39.4-.4-59" fill="#0065DB"/><path d="M285.7 32.6c.4-2.3 1.4-4.7.4-6.8l-1 .2-.5 1.4c0-1.2-.4-2.3-1-3.4-.4-1-1.4-2.2-2.7-2-1.2.2-1.8 1.5-2 2.6-1 5.1.3 10.3 1.6 15.4 2 0 4-.4 6-1-.9-2.1-1.1-4.3-.8-6.4" fill="#E8DBCE"/><path d="M328.1 116.7c8.6 3.2 17.2-21.3 6.4-25-9.8-3.4-25.5-2.3-34.5-8.2a18.6 18.6 0 01-8.3-12.6c-2-11-3.7-22-5.1-32.9l-7 .4v41.4c.1 2.7.1 5.4 1.1 8 1 2.4 2.7 4.3 4.5 6 11.8 11.5 29.3 17.8 43 23" fill="#0065DB"/><path d="M291.1 68c-3.7 0-7.5.8-11.2 1.8-.6.2-.4 1.4.3 1.2 3.6-1.1 7.2-1.6 11-2 .5 0 .5-1 0-1M306.8 106.2c-1.4-4.7-1.9-13 2.6-16.6.4-.3-.2-.8-.6-.5-5.3 3.5-4.6 12.5-3.5 17.4.2.9 1.7.5 1.5-.3M291.2 71.1c-1.5-.3-3 0-4.6.3-2.2.3-4.3.8-6.5 1.3-1 .2-.6 1.5.4 1.3l4.9-1c1.8-.4 3.8-1 5.7-1 .5 0 .7-.8.1-.9M312.6 107c-1.3-5.7-2.2-10.9.9-16 .3-.7-.5-1.3-1-.8-4.3 4.7-3 11.5-1.7 17.2.3 1 2 .6 1.8-.5" fill="#CACACA"/><path d="M351.7 79.2c1.2-2 1.9-4.6 1.8-7.7 0-5.6-.7-11.3-3.3-16.3-3-5.6-9.9-10.8-16.5-8.7-7.7 2.5-6.4 13-5.4 20 .9 5.5 3.2 11 7.4 14.3 6.4 5.1 13 3.7 16-1.6" fill="#E8DBCE"/><path d="M399.7 318c-.6 1.1.9 1.2 1.5 1 1-.4 2.2-1 3-1.7l.7-.6.2-.7c.1-.7.6-1.9.4-2.5 0-.6-.6-1-1-1.3-.9-.7-2.5-2-3-3.2-2 1.3-5.4 2.8-7 4.3.9.6 1 1.2 1.5 1.7-.3-.4-5.2 3.5-5.8 4l-3 1.9c-.8.4-2.5.7-2.6 1.8l.1 1 .4.8c.4.4.9.5 1.4.5 5.2-.3 8.6-5 13.2-7" fill="#1A1A1A"/><path d="M367.6 104.4l-1-2.4a366.6 366.6 0 01-41.8 6.6l-.3 2.4c14.6-1 29-3.5 43-6.6M322.6 152.8v2.2c19.3-1.3 38.4-4.2 57-8.2l-.6-2.8c-18.6 4-37.3 7.2-56.4 8.8M326.6 195.4l.2 1.6 12.3-1.6c15.4-2.2 30.7-5.2 45.4-9V184c-11.8 3-23.6 5.7-35.8 7.8-7 1.3-14.5 2.6-22.1 3.6M323.6 160v1c19.6-1.3 39-4.2 58-7.7l-.3-1.3a724.2 724.2 0 01-57.8 8M324.6 114.8v1.2a470 470 0 0046-6.6l-.6-1.4a587.7 587.7 0 01-45.4 6.8M328.8 204c19.6-1.2 39-5 56.8-10.8V192a237 237 0 01-57 10.7l.2 1.3" fill="#CACACA"/><path d="M302.2 155.2c-.9.3-1.8.6-2.5 1.2-.7.5-1.2 1.4-1.1 2.2 0 .9.9 1.7 1.8 1.6l.1.7c1.9.5 3.7-.6 5.4-1.5 1.3-.7 2.7-1.3 4.1-1.7 1.2-.4 2.6-.7 3.2-1.8.5-.7.4-1.7.1-2.5-.3-.9-.7-1.6-1.2-2.4l-6.6 1.2c-.4 0-.8.1-1 .3-.4.3-.5.7-.3 1 .5 0 1 .3 1.2.6l-3.2 1.1" fill="#E8DBCE"/><path d="M370.6 106.4c-1.7-7.8-11.7-9.4-13.6.4-1.8 9-2.4 18-6.4 26.6-2 4.2-5.3 7.3-10 8.8-9.3 3.2-18.6 6-28 8.7l1.2 6.1 36-5.5c2.4-.3 4.8-.7 6.8-1.9 2-1.1 3.5-3 4.8-4.7 8.6-11.7 12-26 9.2-38.5" fill="#0065DB"/><path d="M338.6 143.4a46 46 0 002.2 9.3c.2.6 1 .2.7-.3-1-3-1.7-6-2.3-9.1-.1-.4-.7-.4-.6.1M368.7 124c-3.8 1.8-11 3.3-14.6.2-.4-.3-.7.2-.4.6 3.6 3.7 11.3 2 15.5.4.7-.2.2-1.5-.5-1.1M340.6 142.4c-.1 1.3.4 2.6.8 3.8a81 81 0 002 5.4c.2.8 1.4.3 1.1-.5l-1.5-4c-.6-1.6-1.4-3.1-1.7-4.7 0-.5-.7-.5-.7 0M369.5 119c-4.8 2-9.2 3.4-14.2 1.4-.6-.3-1 .6-.5 1 4.7 3.2 10.5 1 15.3-.9 1-.3.3-1.8-.6-1.4" fill="#CACACA"/><path d="M373.5 56.1a5.4 5.4 0 00-4.5-2.7V53c2.3-1.9 3.1-5.4.5-8.4a40 40 0 00-11.3-7c-.9-4.6-4.3-8.7-10-9.6-1.3-.2-2.7-.2-4 0-5.7-2.8-12 0-15.4 4.8l-.7.5a8.1 8.1 0 00-3.5 5.3h-.2a9 9 0 00-6.5 11.2c.8 2.4 3 4.4 5.6 4.3l3.8-.2c1.3 0 2.5-.6 3.5-1.4a9 9 0 003.5 1c.8 1.2 2 2.2 3.4 2.9a13 13 0 009.3.7 8 8 0 002.1 1.5c-.5.7-.9 1.6-1.2 2.4-1.2 3.1 1.3 6.3 4 7.2a7 7 0 001.7.4c-1.2 3 .3 7.3 3.8 8 4.4 1 8.7-.4 11.6-4 2-2.5 2.3-5 2.6-7.9 2.6-2 4-5.1 1.9-8.7" fill="#8A6239"/><path d="M318.4 2.6c-.8 1.8-1.7 3.7-2.7 5.4-.5.8.6 1.4 1 .7 1.3-1.6 2.6-3.2 3.7-5 .8-1.2-1.4-2.5-2-1.1M299.8 7.7c.5.5 1.2.8 1.9 1.2.7.4 1.4 1 2.2 1 .4.2.9-.3.6-.7-.5-.7-1.2-1.1-1.8-1.6-.6-.6-1.3-1.2-2-1.5-.8-.4-1.5 1-.9 1.6" fill="#666"/><g transform="translate(307.6)"><mask id="n" fill="#fff"><use xlink:href="#m"/></mask><path d="M.2 1.2c.1 1 .4 2 .7 3 .2 1 .4 1.8 1 2.6.2.3.8.1.9-.3.1-.7 0-1.5-.1-2.3C2.5 3 2.5 2 2 1c-.3-1-2-1-1.9.2" fill="#666" mask="url(#n)"/></g><path d="M205.3 243.5c.9-20.2-1-40.9-.9-61.3a48.4 48.4 0 013.5-22c1-1 2.6-.5 3.8 0a41 41 0 0037.4-3.2 27 27 0 013.3 11.3c.9 6.4 1.9 12.8 2 19.2.1 1.4.2 2.8.1 4.1-.1 8-1.6 15.9-2.8 23.7-.8 5.2-1.5 10.3-1.6 15.5 0 4.3.6 8.1-.4 12.3-2.3 10.3-2.3 21.4-3.3 31.9-1 11.2-2.1 22.4-3 33.7v1.3c-.7.2-9.3 2.1-9.3 0l-2-65.5c-.3-9.2-.6-18.5-3-27.2-1 0-1.9.2-2.8.3L210.5 304c-.4 2.6-1 5.3-2.7 7-1.6 1.6-4.8 1.1-5.3-1.4 1.6-22 1.8-44.1 2.8-66.2" fill="#0065DB"/><path d="M236 313.1c3.3-.2 6.7 0 10 .5 2.7 2 5.5 3.5 8.5 4.7.9.4 1.8.7 2.4 1.4.7.7 1 1.9.3 2.6-.5.6-1.4.7-2.3.7a97.8 97.8 0 01-19.7-2l-.4-.8a9 9 0 011.1-7M209 313c-3.4 0-6.6.3-9.8 1-2.4 2.1-5 4-7.9 5.3-.8.4-1.6.8-2.2 1.5-.6.8-.8 2-.2 2.6.6.6 1.5.6 2.3.6a91.6 91.6 0 0018.9-3.2l.3-.8c.5-2.4 0-5-1.5-7" fill="#736357"/><path d="M242.2 43c0-1-.1-2.2-.7-3-1-1.4-2.8-1.8-4.4-2-7 0-13.9.3-21 .7-.5 0-1.2 0-1.6.4-.5.4-.7 1.1-.8 1.7-.5 3 .4 6 .4 9.1 0 3.1 0 6.2.6 9.3 1 6 3.7 11.4 8.7 14.8 1.7 1.2 3.7 2 5.7 2 2.7 0 5.2-1.6 7-3.6 7-7.4 6.8-19 6.1-29.3" fill="#F0E5D4"/><path d="M235.4 72c-1.3 2.8-4.5 3.7-7.8 2.7-1.9-.5-4.2-2.1-6-2.3 1.4 2 3.4 4 5.7 4.4 2.4.5 5 0 6.8-1.8.8-.8 1.8-2 1.3-3M241.4 32a13.6 13.6 0 00-8-2.3c-3-.2-5.8-.9-8.9-.4-1.6.3-3.1.7-4.7.8-1.6.2-3.3 0-4.6-1-.5-.5-1-1-1.8-1.1-1 0-1.5 1-1.9 2a30.7 30.7 0 00-1.7 14.7c.6 4 3.5 8 5 11.8l.3.4c.2.2.7 0 .9-.3.2-.3.2-.6.2-1 0-2.8.3-5.8 1.1-8.5 1.1-3.4 2.1-2 5.1-2.2 4.5-.3 9.3-4 13.7-1.7 1.5.8 2.5 2.1 3.6 3.4 1.5 1.9 3 4 3 6.4 2-1 2.5-3.8 2.7-6.1.4-5.4.2-11.7-4-15" fill="#333"/><path d="M258 149.1l-1-9c-2.2-19-4.3-38.2-10.7-56-1.6-4.5-5.6-9.6-9.9-5-.5.5-1 1.1-1.9 1.7-4.2 3-10 2.6-14.6.9-4.1-1.6-6.6-7.4-11.6-5.2-4.8 2-6.9 10.4-7.5 15.1-1.2 8.7-1.7 17.6-2.6 26.4a751.8 751.8 0 00-4 46.9c-.2 6.5-.3 13-1.6 19.4 3.4.9 7 .6 10.6.6 8.3 0 16.6 1.3 25 1.9 6.6.4 13.4.3 19.9-1.3 1-.2 13.5-3 13.5-3.6l-3.7-32.8" fill="#1F375A"/><path d="M260.7 177.6c.2 0 .3-.2.2-.4-.7-1.2-1.9-3.6-3-6.3a367 367 0 00-4.7-40.7c-2.9-16.5-9.2-31.9-13-48.1-1.1-4.8-6.9-4.4-9-1h-.5c-1.8-1.6-4-2.9-6.7-3.9-3-1-6.2 1.8-6.2 4.7 0 3.2 0 6.4-.2 9.6a483.3 483.3 0 00-9.4 78.6 434.2 434.2 0 01-2.4 10.3l-.1.6c-.6 2.3.7 4.3 2.9 5a64.3 64.3 0 0050.8-2.8l.4-.2.7-.5c.6-.6 1-1.3 1-2.1.1-1-.1-2-.8-2.8" fill="#F0F0F0"/><path d="M278.7 33.7a11 11 0 011.6-3.2c.7-1 1.9-1.8 3-1.4 1 .4 1.3 1.8 1.2 3a39.4 39.4 0 01-4.7 14.9c-1.9-.5-3.6-1.2-5.3-2.2 1.2-1.9 2-4 2-6.2.2-2.3-.2-4.9 1.2-6.8l.8.4.2 1.5" fill="#E8DBCE"/><path d="M211.5 115.5c-6.6 4.4-4.3-21-4.7-24.2-.3-3.6-.9-9.7 2.2-12.4 5.5-5 20.3.9 26.8 1.6 7 .8 14.2.1 21-2 1.5-.4 3-1 4.3-2 3.4-2.6 13-32.7 13.7-32.5l6.8 1.9c-2.1 9.3-4 18.6-6.2 27.9-1.6 7.2-2 15.5-7.1 21.2-3.3 3.7-8 5.6-12.8 6.8-12.7 3-32.8 6.1-44 13.7" fill="#1F375A"/><path d="M193.6 17.2c.3 2 .7 4.1.8 6.2 0 .9 1 .7 1 0 .1-2.2.2-4.3.1-6.4 0-1.5-2.2-1.2-2 .2M182.3 31l2.4-.2c.8-.2 1.7-.2 2.5-.6.4-.2.6-.8 0-1-.7-.3-1.6-.2-2.4-.2-.9 0-1.8 0-2.6.2-1 .2-.8 1.7.1 1.8M184.8 22.5c.6.8 1.3 1.4 2 2 .7.6 1.3 1.2 2.1 1.5.4.1.8-.4.6-.8-.3-.7-.8-1.3-1.3-1.8-.7-.8-1.3-1.6-2.1-2.2-.8-.6-2 .4-1.3 1.3" fill="#666"/><g transform="translate(541.5 319)"><mask id="q" fill="#fff"><use xlink:href="#o"/></mask><path d="M104.7 3.8c2-.8 2.6-1.7.9-2.7-1.4-1-5.5-.5-7.4-.5C89.4.4 80.7.2 71.9.3 54.3.3 36.6 1 19 2.3c-2.6.2-21.4 1-18.4 4.3 1.6 1.7 9.1.6 11.9.6h18.2L67 7c2.7 0 30-.5 37.7-3.2" fill="url(#p)" mask="url(#q)"/></g><path d="M526 148c-.8-.7-1.9-1.5-2.8-.6-1 1-.7 2.6-.2 3.7l2.7 7.5c1.9 4.9 3.7 9.8 6.9 13.3 1.3 1.4 3 2.6 5 1.8a8.7 8.7 0 003.1-2.8c4.6-6-.4-8.1-3.4-11.2L526 148" fill="#4D4D4D"/><path d="M544.5 137c0-2-.3-4-1.2-5.8-.9-1.9-2.6-3.4-4.2-3.2-1.3.3-2 1.8-2.6 3.3-1.3 3.8-2.2 8-3 12l-2.6 13.1a9 9 0 00-.2 4.2c.7 2.6 5 6.2 6.8 5.2 1.7-.9 2.9-7 3.6-9a54 54 0 003.4-19.8" fill="#4D4D4D"/><path d="M598.1 280.6a62 62 0 01-4.6-9.5c-1.5-4.1-2-8.5-2.6-12.8l-6.6-50.2c-.2-1.4-.4-2.8-1.1-4-2.1-3.5-7.1-3.4-11-2.8l-1.6.4a556 556 0 01-24.4 2c-2.3.1-4.1 2-4.3 4.1-.3 0-.4 0-.3.3h.2c0 .9.3 1.8.9 2.5-.2 25 2 50.1 6.8 74.7 2 10.8 4.6 21.7 4.7 32.7h6.9l2.1-94.2a65 65 0 002 7c3.6 10.6 7.8 21.1 10 32.2a4 4 0 001.6 2.5 63.8 63.8 0 008.5 16c7.7 10 12.8 19.4 20.6 31.5a14 14 0 008.6-3.2l-16.4-29.2" fill="#8E9DAE"/><path d="M556.4 322.5c-1 .8.4 1.4 1 1.4 1.2.1 2.3 0 3.5-.2.3 0 .6-.1.8-.3l.4-.6c.4-.5 1.3-1.3 1.4-2 .1-.5-.2-1-.4-1.4-.5-1-1.4-2-1.4-3.2-2.5.2-4.8-.6-6.9 0-.2.9-.8 1.6-.5 2.2-.2-.4-6.2 1-6.9 1.2l-3.4.5c-1 0-2.7-.3-3.2.6-.2.3-.2.6-.2 1v.8c.2.4.6.8 1 1 5 1.7 9.9-1.1 14.8-1M611.1 317.5c-.6 1.2 1 1.3 1.7 1 1.2-.3 2.3-.9 3.4-1.6a2.5 2.5 0 00.9-1.5c0-.7.6-2 .4-2.7-.1-.5-.6-.9-1.1-1.3-1-.7-2.7-2.2-3.2-3.4-2.4 1.4-6 3-7.8 4.5 1 .7 1.1 1.3 1.7 1.9-.4-.4-5.7 3.7-6.4 4.2l-3.2 2c-1 .5-2.8.8-3 2l.3 1.1c0 .3.2.6.4.8.4.4 1 .5 1.5.5 5.7-.4 9.4-5.4 14.4-7.5" fill="#1A1A1A"/><path d="M552.8 99.2c1.1-2 1.8-4.6 1.7-7.7 0-5.6-.7-11.3-3.2-16.3-2.8-5.6-9.5-10.8-15.8-8.7-7.4 2.5-6.2 13-5.2 20 .8 5.5 3 11 7.1 14.3 6.1 5.1 12.4 3.7 15.4-1.6" fill="#E8DBCE"/><path d="M566.6 126.5c-3.7-9.6-13-22.2-19.6-17.5-.9 0-1.8 0-2.6.3l-3.7 1c-7.1 1.7-7.4 8.6-3.5 12l-1.8 10.8c.3.6.4 1.3.2 2.1a103.6 103.6 0 00-2.1 19.8c-.5 12.6.4 25.2-.2 37.8a257 257 0 01-.8 10.7c1.8 2.5 5 4.3 9.9 4.3l12 .1c4 .2 7.8 0 11.1 0h3.5c3.5 0 6.3-1 8.2-2.7l3 .2c6.2.5 11-4.9 11.3-9.7 1.4-28.2-14.9-42.8-25-69.2" fill="#4D4D4D"/><path d="M573.3 94.1c-.7-2.4-3.2-4-4.6-6.1a27 27 0 01-3.2-14.2c-.2-6-2.9-9.1-7.5-12.1a23 23 0 00-25.6.4l-1.8 3c-1 0-1.9.6-2.2 1.9l-1.2 5.3c-1.6.8-1.8 2.8-.9 4.1-2 10.2-2.8 20.6.3 30.7.4 1.2 1.4 2 2.6 2l2.4.8c.8.6 1.8.5 2.5 0 1 1.5 2 3 3.1 4.3 2 2.3 6.1-.8 4.3-3.3a55 55 0 01-5.7-9.9 53 53 0 01-2-20.8c6-.3 12-1.5 17.6-3.6 0 .7-.1 1.5-.3 2.1-.6 4-1.2 4.6 0 8.4 2.4 7.6-.5 15.2 6.6 20 5.2 3.4 11.3 2.4 14.3-4.1 1-2.2 2-6.4 1.3-8.9" fill="#8A6239"/><path d="M575.1 68.5a1115 1115 0 01-19 48.7c-.7 2-1.5 3.8-1.6 5.9 0 2 1 4.2 2.9 5.2 2.3 1.3 5.4.6 7.4-.9s3.2-3.8 4.3-6A155 155 0 00584.7 58c0-2.3.1-4.6 1-6.6.6-1.1 1.3-2.5.5-3.4-1-1.1-3.6-1.4-4.5-.4-1.3 1.2-1.4 5.4-1.9 7a241 241 0 01-4.7 13.9" fill="#4D4D4D"/><path d="M587 37.5a5.6 5.6 0 00-4.5-3.5c-2.2-.2-4 .9-4 3.2 0 1.1.3 2.3.7 3.3.5 1.1 1.2 2 1.8 2.9v1c-.1.8.8 1.6 1.6 1.6l2.3-.1c.5 0 1.1-.3 1.4-.8 1-2.4 1.8-5 .8-7.6M523 148.4c.4-.5.5-1.2.1-1.9l-.3-.6c.1-.4 0-.9-.3-1.3l-.7-.8.3-1c.8-1.1 2.3-1.4 3-2.7 1.1-2.1 0-5-2.2-5.9-2.5-.8-4.9 1-5.7 3.2v.1c-.3.5-.4 1-.5 1.5-.6 3.6 1 7.6 3.3 10.4 1 1.2 2.9.4 3-1" fill="#E8DBCE"/><path d="M526.6 37.2c.3 2 .7 4.1.8 6.2 0 .9 1 .7 1 0 .1-2.2.2-4.3.1-6.4 0-1.5-2.2-1.2-2 .2M515.3 51l2.4-.2c.8-.2 1.7-.2 2.5-.6.4-.2.6-.8 0-1-.7-.3-1.6-.2-2.4-.2-.9 0-1.8 0-2.6.2-1 .2-.8 1.7.1 1.8M517.8 42.5c.6.8 1.3 1.4 2 2 .7.6 1.3 1.2 2.1 1.5.4.1.8-.4.6-.8-.3-.7-.8-1.3-1.3-1.8-.7-.8-1.3-1.6-2.1-2.2-.8-.6-2 .4-1.3 1.3" fill="#666"/><g transform="translate(25.6 321)"><mask id="t" fill="#fff"><use xlink:href="#r"/></mask><path d="M83 3c1.6-.6 2-1.3.7-2.2-1.2-.7-4.4-.3-5.9-.3L57 .2c-14 0-28 .6-42 1.6C13 2-2 2.6.6 5.2c1.2 1.4 7.2.5 9.4.5h14.4L53 5.5c2.1 0 23.8-.4 29.9-2.5" fill="url(#s)" mask="url(#t)"/></g><path d="M81 322c-.6-.6-1.5-.9-2.2-1.2a34.6 34.6 0 01-7.7-4.3c-3-.5-6.2-.6-9.3-.4a8 8 0 00-1 6.4l.4.7a90.5 90.5 0 0018 1.8c.7 0 1.6 0 2-.6.6-.7.4-1.7-.2-2.4M49.9 321c-.6-.6-1.5-.8-2.3-1.1-2.7-1-5.4-2.1-7.8-3.7a40 40 0 00-9.2.1c-1.1 1.8-1.4 4-.7 6l.4.7a94.5 94.5 0 0018 .8c.7 0 1.5-.1 2-.7s.2-1.6-.4-2.1" fill="#333"/><path d="M79.5 192.7c-.2-6.5-1.1-12.9-1.9-19.3-.5-4-1-8-3-11.4a35.2 35.2 0 01-34.6 3.3c-1.1-.6-2.6-1.1-3.5-.1-.3.3-.4.7-.6 1.1-2.3 6.7-3.2 14-2.6 21-.2 20.6 1.6 41.3.8 61.7-1 22.2-1.1 44.3-2.6 66.5.5 2.5 5 3.3 6.5 1.6 1.5-1.6.5-4.7 1-7.2l14.5-87 2.6-.3c2.1 8.8 2.4 18.1 2.7 27.4l2 65.7c0 2.3 7.9.3 8.4.1v-1.3l2.8-33.9c1-10.5 1-21.7 3-32 1-4.2.4-8.1.5-12.4 0-5.2.7-10.4 1.4-15.6 1-7.9 2.5-15.8 2.6-23.8v-4.1" fill="#F0E5D4"/><path d="M57.5 78.6a36 36 0 00-4.4-13.4 25 25 0 00-6.6-9.2c-.6-.5-1.3-1-2-1a69.3 69.3 0 00-18.9 7.5c-.4.3-.8.6-1 1v1.2C27 76.5 32.2 92 44.1 95c5.8-2.8 4.7-.6 10.7-3-1.6-3 3-10 2.7-13.4" fill="#E8DBCE"/><path d="M69.8 88.3c-1.3-1.6-3.3-2.4-4.1-4.3-.9-2-1.4-4.9-1.9-7A99.7 99.7 0 0058 58.3a7 7 0 00-2.6-8.7c-.8-.6-2-1.1-3.6-1.5-1.2-.7-2.9-1-4.5-1l-.4.1c-12-1.3-30.7 1.5-29.8 11a3 3 0 00-.7 1.5c-.2 1.5.2 2.4 1 3-.5 1-.9 2.1-1 3.3-.6.7-1 1.5-1.4 2.6-1.4 4-.7 8.5.6 12.6 1.1 3.6 3.1 7 3.2 11 .1 4.3-2.9 5-6.6 5.9-7.4 1.8-11.5 6-11.6 14-.1 3.7.9 7.6 3.1 10.5a27 27 0 009.3 7.8c1.5.6 3 .6 4.3.1 6.3 1.1 12.8 0 17-5.4.5-.7 1-1.5 1.3-2.3 1.7-1.4 2.9-3.4 3.4-6a9.3 9.3 0 00-8.2-11.1 8 8 0 00-2.4-2.2c3.2-2.3 6-4.5 7.3-8.6 2.6-8.3-2.2-17.5-8.7-22.5-.7-.6-.5-1-1.2-1.2l-.2-.6c3.2-.7 2.4-5 .8-7.5.8-1 1.8-1.7 3-2.2 1.2 0 2.5.2 3.4.3 2.3.4 4.6.6 7 .8 3 .2 6.2 1 9.3 1.1l.2.3.5.5c1.6 3.4 2.7 6.9 3.7 10.5.7 2.6 1 5 1.4 7.6-1.3.6-2.3 1.9-2.4 3.9-.3 4.5.5 9.5 2.8 13.4.6 1 1.6 2 2 3 .2.2.3.3.5.3-.2 0-.4.3-.8.6-1.6 1.5-2.9 2.5-3.3 4.7-1.8 9.6 10.5 12 15.8 5.8 5.2-6 5.5-19.4.3-25.5" fill="#D7C68E"/><path d="M84.5 221.2c0-6-.8-11.9-1.3-17.8-.5-6-.9-12-1.5-17.8a764.8 764.8 0 00-4.6-35c-3-19.5-8.6-39-22.8-51.6-4.1 1-8.5 1.2-12.8 1.3l-.3.8c-6.7 30-9.4 60.8-14.4 91.3l-2.3 11.9c-1.5 4.2-3.6 8.8-4.1 13.4l-.8 2c-1.7 2.3-1.4 6.1 1.5 7.5.6.3 1.3.4 2 .4h.2a84.6 84.6 0 0032.7 6c.6 0 1.3-.1 1.8-.3l9.6.4c4 .1 9.5 1 13.2-1.1 2.1-1.3 2.8-4.1 2.5-6.6a8 8 0 001.5-4.8" fill="#8E9DAE"/><path d="M55.4 73.8c-1 3.7-9 1.7-8.3-1.9 1.2-1 2.5-1.8 4.2-1.9 2.1 0 4.8 1.3 4.1 3.8M37.2 81c-3 .3-6.8-1.3-5.2-4.8a7 7 0 013.2-3.3c0 .3.4.5.7.2 2.2-1.9 6-.6 6.3 2.5.2 2.9-2.2 5.1-5 5.4m16.1-11.7c-2.6-.8-6 .2-7.4 2.6v.1l-3.7 1a4.8 4.8 0 00-5.8-1.4 7.4 7.4 0 00-5.8 6c-.5 3.9 5 4.9 7.8 4.2 3.3-.8 5.9-4.6 4.3-8 1.1-.5 2.4-.8 3.6-1 1.1 3.8 8.6 5.9 10 1.5.8-2.3-.9-4.4-3-5" fill="#414141"/><path d="M54.6 131.6c-6.2 3.4-22.1 12.3-29.4 11.5 7.2-7.1 14-15.3 17.5-19.8 4-5.2 2.7-13.4 1.5-19.3-.7-3.8-5-3.7-7.1-1.3-1.3.1-2.4.8-3.1 2.4-7 15.7-20.2 29.4-23.4 46.6-.4 2.4.7 5.6 3.5 6 17.1 2.7 29-15 43-21.4 5.8-2.6-.3-6-2.5-4.7M80.3 134c-.9-1.4-1.5-3-2.5-4.3-1-1.3-2.3-2.4-3.6-3.4-1.2-1-2.5.5-2.3 1.7.2 1.4.5 2.7 1 4-1.5-.4-3.1-1-4.6-1.6h-.4a4 4 0 01-3-1.7c-1.6 0-3 .2-4 1.2-2.4 2.1 10 9.2 11.5 10.4.8.6 1.5 1.3 2.4 1.5 3.1 1 6.2-3.3 5.2-6 .5-.5.8-1.1.3-1.8" fill="#E8DBCE"/><path d="M60.7 122.4c-.3-1.4-1-2.6-2.5-3.3-.7-.4-1.8.2-1.9 1 0 2.2-.2 4.3-.3 6.3-.2 0-.3-.2-.5-.3-1.1-.7-2.2.8-1.9 1.8.6 1.7 1.8 2.7 2.8 4.2.6.7 1.2.8 1.7.5.6.5 1.5.6 2.1-.1.3-.4.4-.8.3-1.2 1-3 1.7-6.2.2-9" fill="#E8DBCE"/><path d="M65 122.7a4.4 4.4 0 00-1.8-3.5c-.7-.5-1.8 0-2 .8l-1.1 6c-.2 0-.3-.2-.5-.3-1-.8-2.2.4-2 1.5.3 1.8 1.3 3 2.1 4.5.4.8 1 1 1.6.7.5.6 1.3.9 2 .2.4-.3.5-.7.5-1 1.3-3 2.4-6 1.3-8.9" fill="#E8DBCE"/><path d="M76 33c-2 .8-3.9 1.4-6 1.9-.8.2-.4 1.2.4 1 2.1-.2 4.2-.5 6.3-1 1.5-.2.8-2.3-.6-1.8M61.5 23.5c-.5-.9-2-.5-2 .5.1.8.5 1.5.8 2.3.3.8.5 1.8 1.1 2.4.3.4 1 .4 1.1-.1.1-.8-.1-1.7-.3-2.5-.2-.9-.3-1.8-.7-2.6M69 24.3c-.7.8-1 1.7-1.5 2.7-.4.8-.9 1.5-1 2.4 0 .5.6.7.9.5.6-.4 1-1 1.5-1.7.5-.9 1.2-1.7 1.6-2.7.4-1-.8-2-1.5-1.2" fill="#666"/></g></svg>