<svg width="95" height="95" xmlns="http://www.w3.org/2000/svg"><path d="M47.678 0C73.652 0 95 21.348 95 47.678 95 73.652 73.652 95 47.678 95 21.348 95 0 73.652 0 47.678 0 21.348 21.348 0 47.678 0zm-4.981 21.704c0-4.625 7.116-4.625 7.116 0v25.262l16.367 4.626c4.27 1.423 2.49 8.183-2.135 7.116l-18.502-5.693c-1.779-.356-2.846-1.779-2.846-3.558V21.704zm4.98-14.588c-22.415 0-40.56 18.146-40.56 40.562 0 22.06 18.145 40.206 40.56 40.206 22.06 0 40.207-18.146 40.207-40.206 0-22.416-18.146-40.562-40.206-40.562z" fill="#0065DB" fill-rule="nonzero"/></svg>