<svg xmlns="http://www.w3.org/2000/svg" width="20" height="20"><path d="M17.057 13.024v4.033H2.943v-4.033h14.114zm1.008-2.016H1.935a1.01 1.01 0 0 0-1.008 1.008v6.05a1.01 1.01 0 0 0 1.008 1.008h16.13a1.01 1.01 0 0 0 1.008-1.008v-6.05a1.01 1.01 0 0 0-1.008-1.008zM4.96 16.553c-.827 0-1.512-.675-1.512-1.512s.686-1.512 1.512-1.512 1.512.675 1.512 1.512a1.51 1.51 0 0 1-1.512 1.512zm12.098-13.6v4.033H2.943V2.943h14.114zM18.065.927H1.935A1.01 1.01 0 0 0 .927 1.935v6.05a1.01 1.01 0 0 0 1.008 1.008h16.13a1.01 1.01 0 0 0 1.008-1.008v-6.05A1.01 1.01 0 0 0 18.065.927zM4.96 6.472c-.827 0-1.512-.675-1.512-1.512s.686-1.512 1.512-1.512 1.512.686 1.512 1.512-.675 1.512-1.512 1.512z" fill="#1e2c59" fill-rule="nonzero" opacity=".7"/></svg>