<svg xmlns="http://www.w3.org/2000/svg" xmlns:xlink="http://www.w3.org/1999/xlink" width="648" height="327"><style><![CDATA[.B{fill:#fff}.C{fill:#e8dbce}.D{fill:#1a1a1a}.E{fill:#564a47}.F{fill:#4d4d4d}.G{fill:#0065db}.H{fill:#1f375a}.I{fill:#cacaca}]]></style><defs><path d="M104.788 4.063c-7.573 2.7-34.968 3.23-37.662 3.242l-54.515.22C9.838 7.536 2.334 8.607.764 6.92c-3.1-3.32 15.79-4.085 18.398-4.282A733.817 733.817 0 0 1 72.05.555C80.822.525 89.572.69 98.315.9c1.867.045 5.958-.42 7.37.453" id="A"/><linearGradient x1="-.01%" y1="50.106%" x2="100.005%" y2="49.905%" id="B"><stop offset="0%"/><stop offset="100%"/></linearGradient><path d="M104.736 3.703c-7.574 2.7-34.968 3.23-37.663 3.242l-54.515.22c-2.77.01-10.276 1.08-11.846-.605-3.09-3.32 15.792-4.086 18.4-4.283A734.216 734.216 0 0 1 71.997.195C80.768.166 89.52.33 98.262.54c1.867.045 5.958-.42 7.37.454" id="C"/><path d="M83.118 2.95c-6.005 2.14-27.728 2.56-29.864 2.57l-43.226.175c-2.197.01-8.148.857-9.393-.48-2.45-2.63 12.522-3.237 14.588-3.393A582.388 582.388 0 0 1 57.158.169c6.955-.023 13.894.106 20.826.27 1.48.036 4.724-.332 5.844.36" id="D"/><linearGradient x1="-.01%" y1="50.106%" x2="100.004%" y2="49.905%" id="E"><stop offset="0%"/><stop offset="100%"/></linearGradient><path d="M104.64 3.93c-7.573 2.7-34.97 3.232-37.663 3.242l-54.515.222C9.7 7.405 2.186 8.476.616 6.79c-3.09-3.32 15.792-4.085 18.4-4.282A733.448 733.448 0 0 1 71.9.423c8.77-.03 17.522.134 26.264.344 1.868.046 5.96-.418 7.37.454" id="F"/><path id="G" d="M.228.237h2.6v6.728h-2.6z"/><path d="M104.667 3.76C97.094 6.46 69.7 6.993 67.005 7.003L12.5 7.225C9.717 7.236 2.212 8.306.642 6.62-2.445 3.3 16.435 2.534 19.04 2.337A733.85 733.85 0 0 1 71.928.253C80.7.225 89.45.387 98.192.598c1.868.045 5.96-.42 7.37.453" id="H"/><path d="M82.954 2.972c-6.006 2.14-27.727 2.56-29.863 2.57l-43.227.175c-2.197.01-8.148.857-9.393-.48C-1.978 2.606 12.993 2 15.06 1.843A581.988 581.988 0 0 1 56.994.192C63.95.17 70.887.298 77.82.465c1.48.035 4.725-.332 5.843.36" id="I"/></defs><g fill="none" fill-rule="evenodd"><g transform="translate(330.55 317)"><mask id="J" class="B"><use xlink:href="#A"/></mask><path d="M104.788 4.063c2.056-.733 2.65-1.626.896-2.71C104.272.48 100.18.944 98.314.9L72.05.555a733.817 733.817 0 0 0-52.886 2.083C16.556 2.835-2.324 3.6.765 6.92c1.57 1.687 9.074.617 11.845.606l54.516-.22c2.694-.01 30.09-.543 37.662-3.242" fill="url(#B)" mask="url(#J)"/></g><g transform="translate(189.55 317)"><mask id="K" class="B"><use xlink:href="#C"/></mask><path d="M104.736 3.703c2.056-.733 2.65-1.625.896-2.7-1.412-.873-5.503-.41-7.37-.454L71.997.195A734.216 734.216 0 0 0 19.11 2.278C16.503 2.475-2.378 3.24.71 6.56c1.57 1.686 9.076.616 11.846.605l54.515-.22c2.695-.01 30.1-.542 37.663-3.242" fill="url(#B)" mask="url(#K)"/></g><g transform="translate(101.55 320)"><mask id="L" class="B"><use xlink:href="#D"/></mask><path d="M83.118 2.95c1.63-.58 2.1-1.288.7-2.148-1.12-.692-4.363-.324-5.844-.36L57.158.17a582.388 582.388 0 0 0-41.935 1.65c-2.066.156-17.037.763-14.588 3.393 1.245 1.337 7.196.49 9.393.48l43.226-.175c2.136-.01 23.86-.43 29.864-2.57" fill="url(#E)" mask="url(#L)"/></g><path d="M155.315 248.312c-1.09-19.74 1.2-39.87 1-59.732.716-6.885-.446-13.897-3.398-20.37-.183-.4-.382-.812-.746-1.12-1.133-.955-3.07-.447-4.57.06-14.406 4.866-31.42 3.72-44.55-3.15-2.594 3.24-3.34 7.212-3.98 11.05-1.034 6.205-2.168 12.398-2.445 18.63l-.004.036h.002a60.167 60.167 0 0 0-.061 4.02c.18 7.77 2 15.425 3.44 23.082.933 4.995 1.754 10.024 1.832 15.085.064 4.142-.645 7.928.485 11.984 2.785 9.985 2.792 20.865 3.97 31.068l3.536 32.798.122 1.307c.672.147 10.942 2.085 10.942-.095l2.47-63.72c.347-8.938-.44-39.133 2.324-47.65l3.418.28c6.262 28.106 13.68 77.34 19.943 105.447.55 2.474 1.22 5.145 3.2 6.74s5.708 1.147 6.296-1.32c-1.838-21.476-2.05-42.945-3.235-64.433" class="H"/><path d="M136.55 56.282c0-7.335-6.268-13.282-14-13.282s-14 5.947-14 13.282c0 1.225.19 2.406.516 3.532a14.47 14.47 0 0 1 .013.891c-.04 2.646.078 5.3.586 7.92.987 5.08 3.563 9.805 8.44 12.694 1.624.963 3.488 1.695 5.43 1.68 2.61-.018 5.004-1.387 6.818-3.086 6-5.615 6.507-14.05 6.084-22.013a12.7 12.7 0 0 0 .114-1.618" class="C"/><path d="M155.314 179.857l-.144-40.816c-.04-11.464-2.63-23.627-4.315-34.95-.927-6.23-2.02-8.396-4.823-13.952-.4-.79-.466-1.325-4.177-2.53-.806-.262-2.72-1.36-3.71-1.2-4.845.824-9.777-1.027-14.622-.2-5.127.873-13.726-1.744-17.722 1.792-5.4 4.78-5.776 16.134-6.634 23.56-1.16 10.02-3.908 20.184-4.393 30.265-.426 8.847-.657 17.703-.82 26.56-.083 4.617-1.753 20.67 2.358 23.76 2.404 1.806 8.84 2.543 15.463 2.765l.715.023.2.004c2.698.072 5.393.063 7.835.01 3.606-.08 6.657-.254 8.31-.407 7.725-.71 15.356-2.3 22.924-4.054 1.344-.312 2.828-.73 3.564-1.97.528-.89.003-7.615-.001-8.67" fill="#b7bcc2"/><path d="M114.443 322.47c-.96.785.346 1.408.973 1.466 1.14.107 2.326.044 3.44-.217.296-.07.598-.158.835-.343.187-.145.323-.342.456-.535.37-.535 1.24-1.38 1.378-2.002.114-.512-.202-1-.45-1.477-.523-.992-1.42-2-1.374-3.2-2.475.265-4.848-.567-6.898.084-.172.84-.817 1.526-.517 2.183-.198-.434-6.174 1.03-6.882 1.166l-3.443.5c-.902.078-2.628-.327-3.135.55-.18.31-.24.674-.266 1.03-.02.272-.023.55.067.808.156.443.573.76 1.024.923 4.9 1.76 9.804-1.016 14.8-.946m41.22-1.244c.963.912-.34 1.643-.967 1.714a9.303 9.303 0 0 1-3.442-.243c-.295-.08-.597-.18-.836-.396-.186-.17-.323-.398-.457-.624-.37-.623-1.245-1.607-1.385-2.33-.116-.598.198-1.18.443-1.725.52-1.16 1.4-3.245 1.36-4.62 2.475.3 6.058.307 8.1 1.06-.54 1.07-.4 1.687-.687 2.455.196-.507 6.176 1.182 6.885 1.338 1.14.25 2.286.46 3.444.573.9.088 2.626-.4 3.136.63.182.363.242.786.27 1.202.022.316.025.64-.064.942-.154.517-.57.9-1.02 1.08-4.902 2.068-9.805-1.153-14.8-1.055" class="D"/><path d="M143.025 47.343c-.216-.565-.653-1.184-1.135-1.825-.43-2.554-1.504-4.954-3.05-6.46-.923-.9-2-1.162-2.987-.977a10.617 10.617 0 0 0-3.879-.86c-1.372-.872-2.882-1.504-4.4-1.813-8.046-1.632-16.827 1.715-21.41 8.593-.684-2.897-6.062-3.34-6.518.093-.453 3.41.7 6.405 4.027 7.8 2.892 1.2 4.764.212 6.422-1.474.07-.036.14-.06.2-.102 2.84-1.712 6.005-3.722 9.343-4.575 2.5.895 4.898 2.946 6.877 4.83 1.138 1.084 2.506 2.092 3.916 2.6a10.03 10.03 0 0 0 .733 1.392c-.04 1.782 1.065 3.697 3.306 3.9a8.2 8.2 0 0 0 2.576-.175l-.164.648c-.222.963-.45 4.266-1.494 4.77-2.327 1.126-2.032 4.67 0 5.877 2 1.187 5.345-.287 5.042-2.94-.077-.666.497-1.966.7-2.597.3-.923.727-1.727.988-2.695.28-1.04.478-1.906.56-2.988.03-.405-.218-2.5-.057-2.722.592-.78.608-1.662.285-2.435a7.76 7.76 0 0 0 .1-5.866" class="E"/><g transform="translate(425.55 317)"><mask id="M" class="B"><use xlink:href="#F"/></mask><path d="M104.64 3.93c2.055-.732 2.65-1.625.895-2.7-1.41-.872-5.502-.408-7.37-.454L71.9.423a733.448 733.448 0 0 0-52.886 2.084c-2.607.197-21.488.963-18.4 4.282 1.57 1.687 9.075.616 11.846.606l54.515-.222c2.694-.01 30.1-.542 37.663-3.242" fill="url(#B)" mask="url(#M)"/></g><path d="M431.65 13.96a9.77 9.77 0 0 0 .087-3.423c-.168-1.105-.78-2.395-2.02-2.527-1.223-.13-2.127.96-2.65 1.95-2.42 4.58-2.74 9.803-3.02 14.875-1.16-.257-.536.415 4.53.056-.165-2.106 1.647-3.86 2.597-5.784 1.013-2.05 2.663-4.058 2.332-6.3l-1-.013-.868 1.156" class="E"/><path d="M489.315 249.312c-1.09-19.74 1.2-39.87 1-59.732.716-6.884-.446-13.897-3.398-20.37-.183-.4-.382-.812-.746-1.12-1.133-.955-3.068-.447-4.57.06-14.406 4.866-31.42 3.72-44.55-3.15-2.594 3.24-3.34 7.212-3.98 11.05-1.034 6.205-2.168 12.4-2.445 18.63l-.003.036a59.706 59.706 0 0 0-.06 4.02c.18 7.77 2 15.424 3.44 23.082.933 4.995 1.754 10.024 1.832 15.085.064 4.142-.645 7.928.485 11.983 2.785 9.987 2.792 20.866 3.97 31.07l3.536 32.796.122 1.308c.672.147 10.942 2.084 10.942-.095l2.47-63.72c.347-8.937-.44-39.132 2.324-47.648l3.418.28c6.262 28.106 13.68 77.34 19.943 105.447.55 2.475 1.22 5.144 3.2 6.74s5.708 1.147 6.296-1.32c-1.838-21.476-2.05-42.945-3.235-64.433" fill="#1e2c59"/><path d="M471.55 57.282c0-7.336-6.492-13.282-14.5-13.282s-14.5 5.946-14.5 13.282c0 1.225.196 2.405.534 3.532.013.287.02.583.014.89-.042 2.646.08 5.3.606 7.92 1.023 5.08 3.69 9.803 8.74 12.693 1.682.963 3.614 1.695 5.624 1.68 2.704-.018 5.184-1.387 7.062-3.087 6.205-5.613 6.74-14.05 6.302-22.012a12.36 12.36 0 0 0 .118-1.618" class="E"/><path d="M450 81.68c.656.884 1.337 1.8 2.32 2.387 1.175.713 2.65.904 4.074.93 1.728.03 3.546-.2 4.937-1.1.996-.653 3.44-2.623 4.064-3.572 2.098-3.2 3.433-5.39 4.547-8.95.34-1.085.633-2.196.605-3.322-.415-.174-.923.102-1.123.47s-.184.793-.2 1.2c-.082 2.184-1.175 4.228-2.304 6.168-.995 1.7-3.514 3.213-5.056 4.563s-3.65 2.31-5.8 2.17c-.282-.02-.57-.058-.818-.18-.53-.264-.74-.834-.895-1.354s-.34-1.092-.846-1.388-1.4-.02-1.334.514c.04.346.45.602.452.95.003.4-.565.64-.998.53s-.74-.44-1.022-.752l-2.022-2.25c-.286-.32-.6-.58-1.022-.403.547 1.183 1.653 2.315 2.45 3.4" fill="#333"/><path d="M452.933 314.135a56.846 56.846 0 0 0-11.928.432 46.907 46.907 0 0 1-9.864 4.762c-1.018.354-2.1.697-2.842 1.384s-1.055 1.845-.354 2.57c.614.634 1.7.703 2.66.712 7.35.066 14.707-.47 21.938-1.603.433-.067.894-.15 1.207-.416.25-.213.368-.513.46-.806.738-2.36.263-4.98-1.276-7.035m34.97-2.135a49.693 49.693 0 0 0-10.724 2.319 40.18 40.18 0 0 1-7.95 6.072c-.85.497-1.75.992-2.287 1.76s-.572 1.9.216 2.48c.69.5 1.688.4 2.56.245a116.945 116.945 0 0 0 19.556-5.027c.38-.134.78-.285 1.008-.586.182-.24.225-.544.248-.834.176-2.344-.802-4.74-2.627-6.43" fill="#3d322b"/><path d="M427.374 25.26c.312-1.993.362-4.59-1.166-5.162-1.577-.59-3.082 1.606-3.98 3.464l-5.918 12.25c-3.846 7.96-7.754 16.11-9.344 24.896-.647 3.58-.76 7.706 1.3 10.028 1.287 1.443 3.165 1.88 4.97 2.147 8.997 1.334 8.08-8.988 9.345-17.074l4.782-30.55" class="B"/><g fill="#333"><path d="M432.438 195.866a11.54 11.54 0 0 0 3.22.04c2.104-.266 4.133-1.1 5.695-2.43 1.336-1.138 2.325-2.58 3.172-4.06a30.953 30.953 0 0 0 3.025-7.394l-.695-.02a56.771 56.771 0 0 1-1.176 3.746c-1.062 3-3 6.6-6.04 8.415-2.57 1.53-5.7 1.248-8.705 1.12-.432-.018-.545.643-.104.706.027.004.054.004.08.007.02-.123.056-.228.125-.283.287-.226 1.062.1 1.403.155"/><path d="M444.412 190.15c1.287-2.54 2.328-5.305 3.138-8.146l-.176-.004a31.43 31.43 0 0 1-2.877 7.322c-.806 1.47-1.746 2.895-3.016 4.023-1.486 1.318-3.415 2.144-5.416 2.408a10.516 10.516 0 0 1-3.062-.041c-.324-.053-1.06-.377-1.334-.153-.066.054-.1.158-.12.28 5.084.738 10.51-1.046 12.862-5.69"/></g><g class="B"><path d="M490.314 180.857l-.144-40.816c-.04-11.464-2.63-23.627-4.315-34.95-.927-6.23-2.02-8.396-4.823-13.952-.4-.79-.466-1.325-4.176-2.53-.807-.262-2.722-1.36-3.7-1.2-4.845.824-9.777-1.027-14.622-.2-5.127.873-13.726-1.744-17.722 1.792-5.4 4.78-5.776 16.134-6.634 23.56-1.16 10.02-3.908 20.184-4.393 30.264-.426 8.848-.657 17.704-.82 26.56-.083 4.618-1.753 20.67 2.358 23.76 2.404 1.806 8.84 2.543 15.463 2.765l.715.023.2.004c2.698.072 5.393.063 7.835.01 3.606-.08 6.657-.254 8.31-.407 7.725-.71 15.355-2.3 22.924-4.053 1.344-.313 2.828-.73 3.564-1.97.528-.892.003-7.616-.001-8.67"/><path d="M431.242 111.082c1.986 2.1 4.2 4.108 6.74 4.745s5.404-.487 6.282-3.25c.8-2.52-.216-5.49-1.323-8.043-2.83-6.53-6.365-12.63-9.886-18.71l-11.142-19.227c-1.125-1.942-2.34-3.978-4.1-5.016-3.078-1.816-9.877.83-10.248 5.018-.332 3.758 4.927 12.828 6.46 16.352 4.477 10.288 9.846 20.296 17.217 28.13"/></g><path d="M456.136 89.303c.253-.32.528-.706.365-1.066-.123-.274-.456-.423-.764-.545a59.551 59.551 0 0 0-4.255-1.513c-.47-.146-1.013-.283-1.444-.065-.225.114-.377.306-.523.493l-2.683 3.45c-.142.182-.288.378-.282.597.007.26.223.472.426.663.96.905 1.865 1.855 2.71 2.843.607.7 1.316 2.397 2.5 1.656.91-.565 1.24-2.298 1.707-3.152a23.575 23.575 0 0 1 2.232-3.36m4.218 4.344c.153.692.248 1.4.538 2.058.04.1.087.183.177.24.276.175.624-.1.807-.36a33.41 33.41 0 0 1 5.43-5.762c.407-.343.833-.688 1.074-1.132s.25-1.02-.132-1.38c-.253-.238-.626-.346-.982-.445l-2.34-.648c-.474-.132-.97-.265-1.463-.205-.448.054-.85.263-1.23.473-.95.524-3.582 1.618-3.68 2.698-.054.605.774 1.533 1.024 2.1.34.766.6 1.557.778 2.362" fill="#e8e8e8"/><path d="M492.896 51.267a1089.358 1089.358 0 0 1-14.288 50.43c-.602 1.948-1.216 3.943-1.02 5.953s1.366 4.07 3.474 4.933c2.502 1.023 5.613.05 7.52-1.685s2.87-4.07 3.727-6.347c7.828-20.8 11.007-42.897 9.3-64.72-.174-2.247-.393-4.556.368-6.7.4-1.137 1-2.524.057-3.38-1.12-1.01-3.764-.98-4.642.05-1.145 1.34-.86 5.54-1.188 7.253-.916 4.773-2.102 9.503-3.317 14.224" class="B"/><path d="M495.3 17.906a11.15 11.15 0 0 1 .328-3.53c.288-1.117 1.013-2.377 2.185-2.376 1.157 0 1.87 1.22 2.24 2.297 1.7 4.975 1.383 10.38 1.038 15.624 1.113-.137.45.485-4.234-.44.407-2.146-1.074-4.15-1.73-6.232-.7-2.22-2-4.464-1.424-6.722l.925.095.672 1.284" class="E"/><path d="M462.693 65.637c-.2.953-.465 1.64-1.235 2.032a17.537 17.537 0 0 1-3.964.09c-1.104-.106-1.48-.105-1.58-1.3l-.03-.6a.634.634 0 0 0-.007-.482l.054-1.51 6.468.025c.156.12.262.268.323.445l.01 1.1-.038.2m-13.236 1.03c-.03.1-.07.17-.112.25-1.5.19-3.05.408-4.532.325-.74-.04-1.32-.205-1.735-.57 0-.01.005-.016.005-.025l.026-3.026 2.95-.01 3.483.124.1 1.622-.184 1.3m19.5-4.372L464.5 63.82c-.146-.567-.457-1.035-1.027-1.293-.815-.368-1.877-.228-2.73-.225h-5.26a.433.433 0 0 0-.433.31l-.744.01a.524.524 0 0 0-.515.517l.017 2.065-.946-.058a51.78 51.78 0 0 0-2.06-.015 32.26 32.26 0 0 0-.07-1.117l.056-.942a.517.517 0 0 0-.498-.522h-.117c-.03-.006-.057-.02-.1-.022l-4.713-.288c-1.094-.07-2.562-.464-3.595-.062-1.488.58-1.27 2.6-1.083 4.25-.14.717-.168 1.4.142 1.825.246.34.612.38.97.453 1.158.23 2.537.03 3.717.033 1.154.004 3.674.6 4.638-.346.443-.432.605-1.235.648-2.105.023 0 .047.005.07.006a.41.41 0 0 0 .333.365c.895.19 1.797.248 2.704.198.207.812.713 1.512 1.64 1.886 1.23.494 2.894.112 4.2.18.74.04 1.44.017 2.058-.25l1.588-.262c.13-.026.235-.132.3-.258a.461.461 0 0 0 .352-.335c.227-.787.55-1.97.553-3.04l4.623-1.523c.586-.186.33-1.163-.252-.96" fill="#333"/><path d="M347.752 323.47c-.92.785.33 1.408.93 1.466a9.896 9.896 0 0 0 3.293-.218c.282-.07.57-.157.798-.342.18-.145.31-.342.436-.535.352-.535 1.186-1.382 1.318-2.002.11-.512-.193-1-.43-1.477-.5-.99-1.358-2.01-1.315-3.2-2.366.265-4.636-.566-6.598.084-.164.84-.782 1.526-.494 2.183-.2-.434-5.906 1.03-6.583 1.166l-3.294.502c-.862.077-2.513-.328-3 .548-.172.312-.228.675-.254 1.03-.02.272-.022.55.064.807.15.444.548.763.98.924 4.697 1.76 9.378-1.016 14.147-.946" class="D"/><path d="M349.754 215.728l-16.152-.423c-.336-.7 1.06-.096 1.048.672a348.745 348.745 0 0 0 6.488 72.135c2.007 10.23 4.485 20.466 4.526 30.888l6.628-.01 2.25-97.803c.04-1.65-.03-3.54-1.312-4.6-.94-.768-2.258-.836-3.476-.868M394.483 313a13.043 13.043 0 0 0 8.067-2.953l-15.35-27.52c-1.618-2.9-3.245-5.82-4.35-8.96-1.36-3.86-2.228-7.93-2.43-12.024-2.2-44.947-2.2-44.947 1.097-54.624.43-1.26 8.468-5.886 0 0-3.1 2.16-14.895.385-18.62.944-.818.122-1.706.283-2.252.913-.624.72.307 3.235-.507 2.748-6.647-3.973-2.21 1.432-1.215 13.93.35 4.393 4.906 32.394 6.206 36.6 2.298 7.434 5.402 15.12 10.07 21.3 7.186 9.518 11.992 18.285 19.285 29.646" class="F"/><path d="M389.462 150.76c-1.246-17.2-4.32-34.994-14.057-49.663-6.993-10.536-16.613-22.783-30.11-11.766-1.22.997-9.598-2.752-10.422-1.493-2.052-.55-4.352.02-5.718 2.405-4.575 7.983-6.218 16.793-6.95 25.852-.84 10.4-1.095 20.854-1.4 31.27l-.345 14.5c-1.878 12.914-2.8 25.9-.678 38.887a4.59 4.59 0 0 0 .626 1.695l.18 9.78c.048 2.085 1.618 4.827 3.943 5.144 20.558 2.792 41.104 2.05 61.367-2.463 2.377-.53 3.83-2.872 3.943-5.144.98-19.63 1.047-39.382-.37-58.993" class="G"/><path d="M285.746 32.553c.368-2.274 1.378-4.667.367-6.775l-.978.24-.5 1.357a10.177 10.177 0 0 0-.966-3.386c-.503-1.043-1.503-2.155-2.764-1.968-1.244.184-1.8 1.485-2.01 2.593-.977 5.118.3 10.33 1.6 15.386a21.084 21.084 0 0 0 5.973-1.082 12.005 12.005 0 0 1-.71-6.365" class="C"/><path d="M328.122 116.7c8.568 3.213 17.174-21.27 6.382-25.017-9.774-3.396-25.487-2.328-34.528-8.175-4.34-2.805-7.267-7.16-8.257-12.643A693.366 693.366 0 0 1 286.601 38l-7.05.398.144 41.407c.01 2.66.037 5.42 1.02 7.922.952 2.43 2.703 4.358 4.484 6.09 11.823 11.502 29.332 17.795 42.924 22.892" class="G"/><path d="M291.146 68c-3.758-.034-7.554.756-11.2 1.762-.688.2-.408 1.42.277 1.214 3.607-1.09 7.213-1.563 10.9-2.003.532-.063.572-.968.012-.973m15.63 38.163c-1.383-4.616-1.842-12.906 2.625-16.52.436-.353-.188-.852-.632-.552-5.227 3.54-4.53 12.483-3.488 17.42.18.85 1.75.5 1.495-.347m-15.57-35.062c-1.517-.273-3.07.063-4.576.297-2.19.34-4.36.782-6.513 1.26-.98.22-.586 1.532.395 1.317l4.86-1.027c1.84-.37 3.804-.985 5.697-1.026.528-.01.69-.722.137-.82m21.346 35.803c-1.3-5.58-2.132-10.77.914-15.96.354-.604-.495-1.288-.983-.753-4.32 4.74-2.945 11.545-1.654 17.167.255 1.112 1.98.655 1.723-.454" class="I"/><path d="M351.737 79.217c1.177-2.03 1.85-4.635 1.81-7.682-.07-5.623-.774-11.384-3.354-16.288-2.972-5.648-9.86-10.896-16.458-8.76-7.728 2.5-6.442 12.99-5.4 19.944.834 5.526 3.166 10.994 7.4 14.393 6.325 5.075 12.898 3.723 16-1.607" class="C"/><path d="M399.688 317.965c-.555 1.152.906 1.2 1.508 1.007a10.55 10.55 0 0 0 3.077-1.635c.243-.19.484-.397.625-.673.11-.218.155-.463.196-.704.115-.666.564-1.84.432-2.494-.1-.54-.608-.887-1.03-1.234-.897-.736-2.47-2.08-2.92-3.232-2.167 1.28-5.46 2.777-7.074 4.25.883.655.967 1.226 1.518 1.734-.363-.336-5.25 3.545-5.847 3.968a33.284 33.284 0 0 1-2.96 1.908c-.796.447-2.554.773-2.656 1.825-.035.373.062.746.186 1.1.095.27.21.538.4.748.328.36.845.494 1.328.462 5.255-.34 8.6-5.033 13.217-7.03" class="D"/><path d="M367.55 104.404L366.514 102c-13.846 2.848-27.675 5.358-41.704 6.592l-.26 2.408c14.518-1.046 28.962-3.516 43-6.596m-45 48.376l.075 2.22c19.232-1.328 38.35-4.212 56.925-8.165l-.526-2.835c-18.597 3.965-37.348 7.154-56.474 8.78m4 42.6l.255 1.63 12.263-1.63a396.24 396.24 0 0 0 45.482-9.03l-.108-2.34c-11.693 3.05-23.564 5.692-35.772 7.84-6.976 1.227-14.472 2.55-22.12 3.53m-3-35.41l.06 1.04c19.578-1.333 39.075-4.18 57.94-7.695l-.22-1.305c-14.915 2.583-29.8 5.135-45.062 6.803-4.226.462-8.468.838-12.718 1.158m1.1-45.157l-.1 1.196c15.502-1.366 30.924-3.702 46-6.555L370 108c-12.503 2.308-25.033 4.484-37.824 5.995l-7.537.81M328.786 204c19.634-1.226 39.06-4.92 56.764-10.778l-.04-1.222c-18.343 5.86-37.413 9.392-56.96 10.652l.236 1.348" class="I"/><path d="M302.16 155.234c-.855.293-1.728.595-2.44 1.14s-1.243 1.384-1.162 2.255.938 1.676 1.834 1.53a.827.827 0 0 0 .143.716c1.852.502 3.702-.613 5.395-1.5a24.47 24.47 0 0 1 4.1-1.672c1.196-.366 2.547-.73 3.178-1.774.46-.762.4-1.725.124-2.562s-.78-1.6-1.195-2.377l-6.677 1.193c-.363.065-.74.136-1.03.356s-.453.638-.26.94c.482.05.944.274 1.27.622l-3.278 1.123" class="C"/><path d="M370.598 106.44c-1.736-7.812-11.7-9.463-13.647.382-1.763 8.916-2.35 18.018-6.34 26.616-1.917 4.127-5.354 7.23-10.016 8.8a617.525 617.525 0 0 1-28.045 8.7l1.212 6.063 36.096-5.492c2.318-.354 4.72-.735 6.785-1.912 2-1.14 3.47-2.91 4.762-4.678 8.582-11.744 11.976-25.953 9.193-38.48" class="G"/><path d="M338.554 143.396c.36 3.197 1.238 6.337 2.235 9.324.188.564.926.192.727-.367-1.044-2.947-1.706-5.96-2.356-9.053-.093-.445-.66-.38-.606.096m30.175-19.343c-3.864 1.75-11.023 3.255-14.65.128-.354-.305-.72.27-.412.587 3.645 3.754 11.347 1.967 15.526.45.72-.26.246-1.486-.463-1.165m-28.17 18.298c-.08 1.336.417 2.614.812 3.867.573 1.82 1.24 3.6 1.938 5.38.32.807 1.504.28 1.2-.528l-1.53-4.002c-.56-1.52-1.365-3.108-1.624-4.718-.072-.45-.757-.484-.786.001m28.906-23.3c-4.745 1.9-9.203 3.327-14.15 1.293-.575-.236-1.07.612-.54.977 4.7 3.23 10.52 1.104 15.302-.792.946-.375.33-1.856-.614-1.478" class="I"/><path d="M373.493 56.133c-1.144-1.87-2.814-2.688-4.505-2.756l.048-.28c2.23-1.897 3.076-5.363.424-8.4-.75-.855-1.487-1.407-2.28-1.793-2.577-1.928-5.265-3.57-8.288-4.863a6.15 6.15 0 0 0-.733-.255c-.808-4.706-4.293-8.795-9.925-9.672-1.304-.203-2.712-.195-4.11-.002-5.577-2.79-12.016-.065-15.282 4.822a8.07 8.07 0 0 0-.764.432c-1.834 1.184-3.058 3.162-3.462 5.3-.077.018-.154.026-.23.046-4.855 1.258-7.973 6.34-6.44 11.174.756 2.384 2.996 4.404 5.604 4.3l3.71-.148c1.344-.053 2.548-.61 3.51-1.456.255.124.515.24.785.342.897.336 1.82.543 2.744.606.844 1.26 2.064 2.276 3.445 2.932 3.313 1.573 6.315 1.483 9.278.736a7.88 7.88 0 0 0 .776.678 7.68 7.68 0 0 0 1.332.812c-.495.743-.904 1.57-1.24 2.445-1.178 3.078 1.33 6.266 4.06 7.205a7.03 7.03 0 0 0 1.655.352c-1.16 3.062.335 7.27 3.8 8.006 4.436.943 8.737-.363 11.594-4.006 1.983-2.528 2.33-5.073 2.575-7.86 2.647-2.067 4.094-5.15 1.92-8.705" fill="#8a6239"/><path d="M318.438 2.56l-2.78 5.487c-.446.727.603 1.322 1.093.675l3.618-4.97c.81-1.266-1.33-2.506-1.93-1.192m-18.643 5.092c.547.538 1.233.88 1.883 1.248.684.386 1.428.96 2.193 1.092.38.066.884-.355.6-.816-.434-.68-1.114-1.126-1.713-1.618-.66-.543-1.313-1.156-2.078-1.498-.803-.36-1.512.966-.875 1.592" fill="#666"/><g transform="translate(307.55)"><mask id="N" class="B"><use xlink:href="#G"/></mask><path d="M.23 1.186C.297 2.23.6 3.228.862 4.23c.242.89.433 1.8.97 2.552.25.346.83.16.92-.238.18-.8.04-1.59-.067-2.388-.143-1.065-.222-2.19-.575-3.203C1.765-.035.154-.042.23 1.186" fill="#666" mask="url(#N)"/></g><path d="M205.263 243.546c.913-20.262-1.005-40.928-.838-61.315a48.37 48.37 0 0 1 2.85-20.909c.153-.413.32-.834.625-1.15.95-.98 2.574-.46 3.834.06 12.08 4.995 26.35 3.82 37.365-3.233 2.176 3.325 2.8 7.402 3.337 11.342.868 6.37 1.82 12.728 2.052 19.125l.002.037h-.001a74.65 74.65 0 0 1 .051 4.126c-.152 7.975-1.687 15.833-2.885 23.693-.783 5.128-1.47 10.3-1.536 15.485-.054 4.252.54 8.138-.408 12.3-2.335 10.25-2.34 21.42-3.33 31.893l-2.966 33.666-.102 1.34c-.564.152-9.178 2.14-9.178-.096l-2.072-65.407c-.3-9.175-.6-18.484-2.92-27.225l-2.866.288-15.756 86.554c-.463 2.54-1.024 5.28-2.693 6.918s-4.787 1.178-5.28-1.354c1.542-22.045 1.718-44.083 2.713-66.14" class="G"/><path d="M235.928 313.135a41.313 41.313 0 0 1 10.16.432 37.794 37.794 0 0 0 8.403 4.763c.867.353 1.78.696 2.42 1.383s.9 1.845.3 2.57c-.522.634-1.447.703-2.264.712a97.763 97.763 0 0 1-18.688-1.602c-.37-.068-.762-.15-1.03-.417-.213-.213-.312-.513-.4-.806-.63-2.36-.225-4.98 1.087-7.035m-26.998-.126a38.643 38.643 0 0 0-9.77 1.044 36.408 36.408 0 0 1-7.828 5.256c-.816.405-1.676.8-2.254 1.526s-.76 1.893-.143 2.58c.54.6 1.437.612 2.225.57a91.61 91.61 0 0 0 17.925-2.726c.352-.1.726-.196.968-.478.193-.225.272-.53.33-.827.47-2.4-.07-4.977-1.452-6.946" fill="#736357"/><path d="M242.23 43.086c-.073-1.1-.166-2.24-.77-3.14-.93-1.388-2.747-1.755-4.382-1.946-6.98 0-13.87.324-20.906.672-.59.03-1.224.074-1.7.447-.496.4-.68 1.076-.787 1.713-.494 2.955.445 6.046.405 9.07-.042 3.097.08 6.216.605 9.272 1.023 5.946 3.69 11.477 8.74 14.86 1.683 1.126 3.615 1.984 5.625 1.967 2.703-.022 5.183-1.625 7.06-3.615 6.995-7.41 6.787-19.02 6.1-29.3" fill="#f0e5d4"/><path d="M235.436 72c-1.304 2.844-4.537 3.68-7.882 2.74-1.812-.5-4.13-2.19-6.004-2.365 1.44 1.94 3.42 3.972 5.794 4.463s5.012-.127 6.743-1.817c.83-.8 1.798-1.953 1.35-3.02m5.93-40.072c-2.265-1.738-5.118-2.132-7.9-2.262-3.028-.142-5.87-.854-8.942-.368l-4.753.84c-1.605.13-3.32-.107-4.587-1.1-.546-.427-1.062-1.012-1.756-1.037-.97-.036-1.578 1.013-1.915 1.92-1.726 4.646-2.402 9.858-1.703 14.78.566 3.99 3.474 8.044 5.018 11.8.057.14.118.284.234.382.275.23.73.06.92-.244s.192-.684.194-1.043c.02-2.82.305-5.825 1.16-8.527 1.055-3.336 2.103-1.993 5.066-2.193 4.452-.3 9.268-3.9 13.693-1.64 1.465.75 2.534 2.075 3.555 3.363 1.492 1.88 3.062 3.984 2.963 6.38 2.103-1.057 2.583-3.8 2.77-6.13.425-5.368.252-11.648-4.026-14.93" fill="#333"/><path d="M257.935 149.148l-1.004-9.107c-2.1-18.947-4.226-38.1-10.625-56.002-1.585-4.432-5.62-9.523-9.898-4.967-.52.556-1.1 1.156-1.89 1.703-4.262 2.95-9.984 2.648-14.656.895-4.082-1.532-6.546-7.38-11.575-5.18-4.74 2.072-6.885 10.37-7.528 15.113-1.176 8.677-1.688 17.628-2.596 26.38-1.62 15.6-3.24 31.214-3.878 46.9-.265 6.5-.368 13.054-1.734 19.404 3.45.905 7.07.652 10.63.64 8.346-.03 16.636 1.295 24.966 1.848 6.652.442 13.438.385 19.95-1.248 1.06-.265 13.526-2.93 13.455-3.574l-3.615-32.794" class="H"/><path d="M260.74 177.568c.195-.037.263-.14.152-.334-.73-1.272-1.858-3.614-3.02-6.355-.874-13.62-2.25-27.27-4.633-40.678-2.94-16.537-9.278-31.88-13.06-48.143-1.112-4.785-6.837-4.356-8.968-1.013-.164.038-.33.07-.495.103-1.822-1.598-4.038-2.93-6.76-3.9-3.037-1.09-6.196 1.736-6.195 4.7l-.124 9.53a483.27 483.27 0 0 0-9.472 78.602c-.001.03.003.06.003.1a434.248 434.248 0 0 1-.902 4.065c-.665 2.046-1.376 4.377-1.458 6.183l-.126.533c-.57 2.314.74 4.32 2.906 5.108 16.572 6.046 34.3 5.07 50.174-2.5.22-.104.415-.22.597-.345l.417-.175.738-.57c.57-.57.898-1.302 1.004-2.092a3.828 3.828 0 0 0-.778-2.82" fill="#f0f0f0"/><path d="M278.712 33.686a11.01 11.01 0 0 1 1.613-3.165c.685-.935 1.837-1.842 2.946-1.4 1.096.424 1.32 1.822 1.273 2.96-.217 5.26-2.52 10.17-4.783 14.93a18.189 18.189 0 0 1-5.211-2.236 13.184 13.184 0 0 0 2.026-6.166c.157-2.324-.245-4.9 1.133-6.78l.84.428.163 1.44" class="C"/><path d="M211.466 115.5c-6.537 4.398-4.297-21.035-4.62-24.163-.374-3.62-.93-9.702 2.155-12.466 5.45-4.886 20.304.94 26.797 1.666a52.22 52.22 0 0 0 21.005-1.95c1.514-.462 3.036-1 4.282-1.986 3.375-2.642 13.017-32.776 13.694-32.6l6.77 1.864-6.15 27.927c-1.635 7.166-1.936 15.522-7.108 21.25-3.28 3.63-8.05 5.567-12.8 6.714-12.652 3.047-32.773 6.17-44.016 13.735" class="H"/><path d="M193.57 17.218l.813 6.196c.054.868 1.08.72 1.096-.108l.026-6.278c-.07-1.533-2.177-1.253-1.936.2M182.3 30.98c.783.077 1.575-.1 2.35-.214.815-.13 1.788-.153 2.53-.537.367-.2.563-.847.044-1.025-.766-.262-1.6-.18-2.413-.188-.883-.008-1.802-.076-2.662.142-.903.23-.76 1.733.15 1.823m2.45-8.47c.6.792 1.35 1.404 2.088 2.035.655.56 1.286 1.174 2.1 1.435.374.12.72-.385.58-.756-.28-.74-.81-1.3-1.3-1.86-.67-.76-1.324-1.606-2.128-2.195-.787-.575-2.026.4-1.32 1.34" fill="#666"/><g transform="translate(541.55 319)"><mask id="O" class="B"><use xlink:href="#H"/></mask><path d="M104.667 3.76c2.055-.732 2.65-1.625.895-2.7-1.4-.872-5.502-.408-7.37-.453L71.928.253a733.85 733.85 0 0 0-52.887 2.084C16.435 2.534-2.445 3.3.643 6.62c1.57 1.687 9.075.617 11.846.606l54.516-.222c2.694-.01 30.09-.542 37.662-3.242" fill="url(#B)" mask="url(#O)"/></g><g class="F"><path d="M525.962 148.017c-.74-.762-1.86-1.507-2.783-.6-.954.936-.648 2.584-.224 3.717l2.792 7.468c1.814 4.853 3.683 9.8 6.85 13.3 1.292 1.43 3.058 2.635 5 1.83 1.2-.5 2.216-1.688 3.128-2.872 4.54-5.896-.406-8.08-3.408-11.172l-11.345-11.68"/><path d="M544.527 137.018c-.063-1.933-.28-3.988-1.19-5.838s-2.684-3.402-4.2-3.154c-1.387.227-2.115 1.78-2.635 3.27-1.33 3.805-2.164 7.945-2.993 12.07l-2.624 13.048c-.265 1.32-.527 2.723-.136 4.188.684 2.56 4.88 6.235 6.74 5.227 1.67-.902 2.905-7.06 3.62-9.118 2.088-6.008 3.652-12.518 3.418-19.693"/></g><path d="M598.12 280.602c-1.73-3.08-3.472-6.18-4.655-9.512-1.454-4.1-2.03-8.45-2.6-12.767l-6.607-50.195c-.185-1.403-.385-2.85-1.108-4.064-2.077-3.484-7.052-3.327-11.04-2.733-.527.078-1.073.186-1.56.394a555.946 555.946 0 0 1-24.385 1.963c-2.243.132-4.078 2.08-4.3 4.155-.24-.08-.408-.02-.263.284l.238.006a3.637 3.637 0 0 0 .851 2.475 375.405 375.405 0 0 0 6.766 74.664c2.093 10.84 4.676 21.685 4.718 32.728l6.9-.012 2.133-94.224c.506 2.36 1.247 4.722 1.992 6.946 3.593 10.73 7.804 21.188 10.065 32.32.238 1.174.806 1.987 1.53 2.516 2.163 5.675 4.88 11.218 8.47 15.935 7.69 10.105 12.833 19.413 20.64 31.475a14.029 14.029 0 0 0 8.633-3.136l-16.43-29.218" fill="#8e9dae"/><path d="M556.443 322.47c-.96.785.346 1.408.973 1.466 1.14.107 2.326.044 3.44-.217.296-.07.598-.157.835-.343.187-.145.323-.342.456-.535.37-.535 1.24-1.38 1.378-2.002.114-.512-.202-1-.45-1.477-.523-.992-1.42-2-1.374-3.2-2.475.265-4.848-.567-6.898.084-.172.84-.817 1.526-.517 2.183-.198-.434-6.174 1.03-6.882 1.166l-3.443.5c-.902.078-2.628-.327-3.135.55-.18.3-.24.673-.266 1.03-.02.27-.023.55.067.807.156.443.573.76 1.024.923 4.9 1.76 9.804-1.016 14.8-.946m54.687-4.944c-.608 1.224.993 1.285 1.652 1.07a11.689 11.689 0 0 0 3.37-1.736c.266-.2.53-.423.684-.717.122-.23.17-.5.215-.747.126-.708.618-1.955.472-2.65-.12-.572-.665-.942-1.127-1.3-.982-.783-2.705-2.21-3.2-3.435-2.373 1.36-5.98 2.95-7.748 4.516.97.695 1.06 1.302 1.664 1.842-.398-.356-5.752 3.767-6.404 4.217-1.05.722-2.12 1.415-3.242 2.026-.872.475-2.798.822-2.91 1.94-.04.396.068.793.204 1.168.103.286.228.572.437.795.36.384.926.526 1.456.492 5.754-.363 9.417-5.35 14.475-7.47" class="D"/><path d="M552.806 99.217c1.132-2.03 1.78-4.634 1.743-7.68-.068-5.624-.746-11.385-3.227-16.29-2.857-5.648-9.48-10.896-15.823-8.76-7.43 2.502-6.195 12.992-5.185 19.945.804 5.525 3.047 10.993 7.118 14.39 6.08 5.076 12.4 3.723 15.374-1.606" class="C"/><path d="M566.576 126.467c-3.664-9.617-13.037-22.167-19.6-17.436a8.708 8.708 0 0 0-2.604.234l-3.722.95c-7.074 1.808-7.346 8.634-3.48 12.126l-1.737 10.727a3.63 3.63 0 0 1 .195 2.143c-.876 4.213-1.42 8.446-1.766 12.69a53.32 53.32 0 0 1-.403 7.085c-.43 12.574.447 25.225-.15 37.778-.17 3.583-.45 7.16-.77 10.734 1.78 2.505 5.013 4.304 9.806 4.348l12.123.07c3.87.14 7.716.063 11.058.04l3.42.01c3.587.015 6.317-1.103 8.21-2.81l3 .235c6.262.55 11.052-4.883 11.295-9.67 1.434-28.262-14.826-42.864-24.885-69.257" class="F"/><path d="M573.316 94.132c-.717-2.442-3.24-4.033-4.586-6.166-2.736-4.334-3.044-9.077-3.23-14.178-.215-5.933-2.884-9.138-7.46-12.09-7.46-4.807-17.632-5.058-25.032.01a25.36 25.36 0 0 0-.585.415 26.739 26.739 0 0 0-1.84 2.918c-.983.08-1.887.67-2.18 1.928a362.324 362.324 0 0 0-1.207 5.324c-1.564.765-1.84 2.846-.847 4.113-1.975 10.198-2.885 20.553.257 30.694.365 1.18 1.402 1.947 2.635 2l2.314.822c.86.574 1.816.498 2.6.062a34.764 34.764 0 0 0 3.083 4.209c1.986 2.32 6.118-.782 4.293-3.286a54.96 54.96 0 0 1-5.754-9.888c-2.3-6.517-2.49-13.717-2.053-20.802 6.1-.283 12.024-1.524 17.728-3.656-.063.752-.2 1.502-.3 2.193-.638 3.996-1.276 4.55-.072 8.312 2.44 7.62-.453 15.21 6.622 19.972 5.2 3.493 11.32 2.476 14.3-4.035.985-2.146 2.025-6.442 1.315-8.86" fill="#8a6239"/><path d="M575.13 68.5a1114.971 1114.971 0 0 1-18.98 48.746c-.783 1.878-1.58 3.8-1.6 5.82s.898 4.2 2.843 5.26c2.3 1.27 5.4.616 7.43-.918s3.188-3.762 4.25-5.94c9.696-19.908 15.04-41.58 15.652-63.47.063-2.254.1-4.574 1.046-6.64.504-1.09 1.234-2.4.403-3.36-.977-1.116-3.53-1.354-4.484-.418-1.242 1.218-1.4 5.426-1.893 7.1-1.375 4.657-3.007 9.245-4.666 13.82" class="F"/><path d="M587.068 37.458c-.746-1.843-2.53-3.188-4.53-3.42-2.21-.258-4.056.844-3.986 3.143a10.16 10.16 0 0 0 .679 3.348c.424 1.096 1.206 1.912 1.775 2.875l-.056.977c-.07.845.8 1.657 1.642 1.62l2.28-.106c.514-.023 1.157-.272 1.38-.78 1.052-2.407 1.85-5.1.816-7.654m-64.138 110.95c.42-.463.593-1.19.186-1.892l-.36-.622c.165-.408.13-.88-.256-1.295l-.688-.78c.044-.357.14-.7.336-1.006.736-1.148 2.272-1.388 2.95-2.7 1.126-2.16.064-5.1-2.244-5.9-2.438-.856-4.808.995-5.666 3.23-.01.022-.013.044-.02.066a4.82 4.82 0 0 0-.5 1.478c-.588 3.66 1.113 7.58 3.295 10.4.983 1.267 2.94.424 2.967-.97" class="C"/><path d="M526.57 37.218l.813 6.196c.054.868 1.08.72 1.096-.108l.026-6.278c-.07-1.533-2.177-1.253-1.936.2M515.3 50.98c.783.077 1.575-.1 2.35-.214.815-.13 1.788-.153 2.53-.537.367-.2.563-.847.044-1.025-.766-.262-1.6-.18-2.413-.188-.883-.008-1.802-.076-2.662.142-.903.23-.76 1.733.15 1.823m2.45-8.47c.6.792 1.35 1.404 2.088 2.035.655.56 1.286 1.174 2.1 1.435.374.12.72-.385.58-.756-.28-.74-.81-1.3-1.3-1.86-.67-.76-1.324-1.606-2.128-2.195-.787-.575-2.026.4-1.32 1.34" fill="#666"/><g transform="translate(25.55 321)"><mask id="P" class="B"><use xlink:href="#I"/></mask><path d="M82.954 2.972c1.63-.58 2.102-1.288.7-2.148C82.543.133 79.3.5 77.82.464L56.994.193A581.59 581.59 0 0 0 15.06 1.842C12.993 2-1.978 2.607.47 5.237c1.245 1.337 7.196.5 9.393.48L53.1 5.542c2.136-.01 23.857-.43 29.863-2.57" fill="url(#B)" mask="url(#P)"/></g><path d="M80.968 322.042c-.586-.62-1.42-.927-2.21-1.245a34.626 34.626 0 0 1-7.672-4.286 38.246 38.246 0 0 0-9.277-.39 7.973 7.973 0 0 0-.992 6.332c.07.264.162.534.357.726.243.24.6.313.938.374a90.529 90.529 0 0 0 17.063 1.442c.747-.008 1.59-.07 2.068-.64.546-.652.3-1.693-.274-2.313m-31.072-1.084c-.612-.555-1.456-.805-2.258-1.066a35.18 35.18 0 0 1-7.833-3.667 39.913 39.913 0 0 0-9.222.089c-1.1 1.804-1.334 4.047-.653 6.024.084.244.19.495.392.666.254.215.614.267.95.307a94.48 94.48 0 0 0 16.998.522c.74-.044 1.575-.143 2.02-.705.507-.643.218-1.614-.394-2.17" fill="#333"/><path d="M79.494 192.663l-.002-.036c-.215-6.432-1.092-12.822-1.893-19.225-.496-3.96-1.073-8.06-3.08-11.402-10.168 7.1-23.34 8.272-34.492 3.25-1.163-.524-2.662-1.048-3.54-.062-.28.318-.435.742-.577 1.157-2.286 6.678-3.185 13.914-2.63 21.018-.155 20.494 1.616 41.268.773 61.636l-2.504 66.487c.455 2.545 4.91 3.282 6.452 1.637s.48-4.677.908-7.23l14.543-87.007 2.646-.3c2.14 8.787 2.427 18.145 2.695 27.367l1.912 65.75c0 2.25 7.95.25 8.472.097l.094-1.348L72 280.618c.912-10.528.918-21.754 3.073-32.06.876-4.183.327-8.1.376-12.364.06-5.222.696-10.41 1.418-15.566 1.107-7.9 2.523-15.8 2.664-23.816a82.775 82.775 0 0 0-.047-4.15" fill="#f0e5d4"/><path d="M57.542 78.563c-.306-4.716-2.363-9.124-4.465-13.364-1.695-3.417-3.54-6.928-6.587-9.24-.607-.46-1.288-.88-2.048-.948-.65-.058-1.292.145-1.913.345-5.87 1.895-11.822 3.83-16.974 7.204-.376.246-.768.526-.926.945-.14.374-.067.8.012 1.183C27.023 76.493 32.16 92.083 44.083 95c5.784-2.77 4.75-.642 10.748-2.917-1.61-3.107 2.936-10.035 2.7-13.52" class="C"/><path d="M69.797 88.3c-1.327-1.558-3.3-2.412-4.104-4.323-.878-2.06-1.413-4.864-1.862-7.03-1.285-6.2-3.152-12.017-5.564-17.885a6.988 6.988 0 0 0-.305-.64c1.285-2.892.737-6.45-2.53-8.742-.842-.6-2.1-1.094-3.62-1.502-1.174-.718-2.876-1.07-4.47-.932-.16.014-.316.042-.475.058-11.992-1.306-30.642 1.454-29.743 11.07-.365.43-.626.893-.7 1.4-.25 1.5.17 2.44.967 2.995a9.35 9.35 0 0 0-.967 3.322 8.526 8.526 0 0 0-1.428 2.593c-1.4 4.08-.66 8.56.598 12.567 1.155 3.68 3.165 7.07 3.236 11.023.08 4.367-2.894 4.943-6.622 5.882-7.36 1.852-11.518 6.1-11.646 14.053-.058 3.656.932 7.612 3.195 10.534 2.202 2.846 5.945 6.333 9.257 7.74 1.45.616 2.975.6 4.337.165 6.253 1.058 12.777-.13 16.924-5.5a12.71 12.71 0 0 0 1.372-2.215c1.638-1.454 2.85-3.443 3.353-6.083 1.1-5.775-3-10.455-8.193-11.075a7.95 7.95 0 0 0-2.44-2.154c3.195-2.34 6.083-4.568 7.35-8.58 2.62-8.315-2.2-17.548-8.674-22.59-.706-.55-.497-1.054-1.25-1.178-.053-.2-.106-.398-.15-.6 3.153-.648 2.36-4.896.74-7.488.826-1.006 1.842-1.705 2.978-2.232 1.267.066 2.547.236 3.4.36 2.352.338 4.597.606 6.98.792 3.03.235 6.242 1.06 9.36 1.134.07.096.15.2.212.29.152.227.334.37.524.474 1.517 3.4 2.677 6.878 3.68 10.476.716 2.57.963 5.1 1.337 7.636-1.258.614-2.222 1.856-2.347 3.86-.284 4.54.464 9.495 2.812 13.437.6 1 1.587 1.896 2.044 2.952.115.268.276.32.4.308-.15.097-.4.292-.806.664-1.536 1.4-2.81 2.458-3.22 4.645-1.8 9.61 10.45 11.987 15.765 5.8 5.192-6.053 5.492-19.376.293-25.478" fill="#d7c68e"/><path d="M84.55 221.212c.02-5.94-.85-11.916-1.325-17.837l-1.52-17.815c-1.25-11.67-2.827-23.328-4.61-34.91-3.008-19.53-8.6-39.042-22.8-51.65-4.102 1.058-8.438 1.232-12.8 1.252-.1.26-.19.53-.256.833-6.715 30.096-9.42 60.848-14.45 91.282-.637 3.856-1.55 7.88-2.278 11.908-1.505 4.22-3.57 8.794-4.09 13.41a7.483 7.483 0 0 0-.78 1.997c-1.733 2.315-1.453 6.144 1.488 7.54.638.302 1.3.396 1.92.334.097.043.18.097.282.135 10.4 3.882 21.657 6.418 32.652 5.952a6.303 6.303 0 0 0 1.866-.36c3.2.213 6.378.332 9.62.414 4.042.103 9.495 1.07 13.13-1.106 2.17-1.298 2.87-4.09 2.526-6.626.893-1.246 1.438-2.83 1.445-4.754" fill="#8e9dae"/><path d="M55.44 73.81c-.974 3.675-9 1.67-8.373-1.875.002-.01-.002-.016 0-.026 1.222-1.043 2.507-1.837 4.215-1.904 2.128-.085 4.818 1.3 4.157 3.805M37.214 81c-3.043.312-6.86-1.275-5.23-4.845.646-1.413 1.8-2.556 3.192-3.25.095.27.45.443.745.192 2.212-1.878 6.014-.623 6.236 2.448.208 2.896-2.204 5.173-4.943 5.455m16.1-11.738c-2.586-.796-6.038.178-7.42 2.6a.425.425 0 0 0-.046.132l-3.688.944c-1.347-1.685-3.852-2.33-5.743-1.367-2.892.706-5.412 2.885-5.84 6.016-.53 3.87 4.92 4.907 7.8 4.193 3.31-.823 5.906-4.64 4.34-7.98-.018-.037-.045-.067-.063-.103 1.2-.4 2.452-.66 3.662-.98 1.097 3.853 8.557 5.97 10.05 1.58.77-2.26-.96-4.394-3.04-5.035" fill="#414141"/><g class="C"><path d="M54.586 131.6c-6.15 3.417-22.1 12.266-29.412 11.5 7.24-7.117 14.002-15.31 17.478-19.792 3.996-5.152 2.784-13.387 1.584-19.28-.784-3.844-5.106-3.7-7.14-1.354-1.26.138-2.416.86-3.1 2.407-6.957 15.768-20.197 29.392-23.353 46.677-.43 2.356.626 5.525 3.423 5.97 17.154 2.732 29.023-15.044 43.116-21.425 5.688-2.574-.374-5.926-2.596-4.692m25.73 2.36c-.895-1.405-1.47-2.912-2.508-4.254-1.026-1.328-2.26-2.424-3.613-3.42-1.218-.9-2.484.506-2.328 1.684.184 1.392.56 2.777 1.06 4.12-1.567-.525-3.13-1.062-4.653-1.694l-.378-.035c-1.42-.1-2.434-.754-3.072-1.657-1.55-.072-2.972.202-3.987 1.158-2.324 2.187 10.136 9.222 11.587 10.432.733.612 1.477 1.257 2.387 1.555 3.102 1.015 6.227-3.33 5.143-6.135.535-.377.83-1.024.362-1.755"/><path d="M60.653 122.352c-.29-1.353-.986-2.52-2.407-3.236-.743-.373-1.868.198-1.9 1.07l-.298 6.25-.57-.343c-1.098-.652-2.205.763-1.85 1.786.6 1.77 1.745 2.77 2.806 4.226.53.726 1.18.767 1.708.484.573.507 1.484.636 2.1-.136.3-.374.376-.772.307-1.134.947-3.045 1.647-6.243.114-8.966"/><path d="M65.093 122.716c-.097-1.372-.612-2.617-1.885-3.517-.666-.47-1.826-.064-1.983.787l-1.126 6.108-.504-.415c-.97-.795-2.227.445-2.023 1.5.35 1.826 1.3 2.968 2.137 4.548.412.787 1.034.918 1.58.712.484.58 1.344.832 2.04.157.338-.326.467-.707.448-1.074 1.323-2.864 2.425-5.914 1.314-8.806"/></g><path d="M76.07 33.07l-6.037 1.834c-.86.197-.47 1.204.367 1.085l6.317-1.004c1.524-.32.747-2.393-.647-1.915M61.5 23.466c-.44-.865-2.033-.427-1.936.508.085.804.434 1.57.733 2.324.315.796.546 1.773 1.118 2.445.284.332 1.034.402 1.115-.155.12-.822-.148-1.658-.31-2.467-.18-.892-.302-1.83-.72-2.655m7.468.88c-.62.8-1.042 1.704-1.484 2.608-.393.803-.84 1.6-.92 2.494-.038.42.505.695.824.476.635-.437 1.044-1.105 1.475-1.747.576-.857 1.236-1.712 1.625-2.68.38-.945-.79-2.08-1.52-1.15" fill="#666"/></g></svg>