<svg xmlns="http://www.w3.org/2000/svg" xmlns:xlink="http://www.w3.org/1999/xlink" width="614" height="480"><style><![CDATA[.B{fill:#dde3e9}.C{fill:#f2f2f2}.D{fill:#fff}.E{fill:#b28b67}]]></style><defs><filter x="-5.9%" y="-5.8%" width="111.8%" height="111.5%" id="A"><feOffset dy="2" in="SourceAlpha"/><feGaussianBlur stdDeviation="2"/><feColorMatrix values="0 0 0 0 0 0 0 0 0 0 0 0 0 0 0 0 0 0 0.1 0" result="C"/><feMerge><feMergeNode in="C"/><feMergeNode in="SourceGraphic"/></feMerge></filter><path id="B" d="M4 0h176a4 4 0 0 1 4 4v15.975a4 4 0 0 1-4 4H4a4 4 0 0 1-4-4V4a4 4 0 0 1 4-4z"/><path id="C" d="M1.79 5.964h80.997a1.79 1.79 0 0 1 1.789 1.789 1.79 1.79 0 0 1-1.789 1.789H1.79A1.79 1.79 0 0 1 0 7.753a1.79 1.79 0 0 1 1.789-1.789z"/></defs><g transform="matrix(-1 0 0 1 712 -142)" fill="none" fill-rule="evenodd" opacity=".78"><g opacity=".346" fill="#0065db"><path d="M383.033 498.896c4.032-43.72-209.06-242.953-259.458-225.763s-24.264 112.22 61.094 177.46S379 542.615 383.033 498.896z" fill-opacity=".5"/><path d="M383.144 383.007c-30.782-39.936 57.68-250.16 118.02-240.414s120.153 90.672 75.8 161.412-163.03 118.937-193.8 79.002z"/></g><g filter="url(#A)" transform="matrix(-1 0 0 1 430.030107 247.260106)"><path d="M8 0h188a8 8 0 0 1 8 8v192a8 8 0 0 1-8 8H8a8 8 0 0 1-8-8V8a8 8 0 0 1 8-8z" class="C"/><path d="M8 0h188a8 8 0 0 1 8 8v11H0V8a8 8 0 0 1 8-8z" fill="#c5cfd6"/><g transform="translate(9 5)" class="C"><circle cx="2.5" cy="2.5" r="2.5"/><circle cx="10" cy="2.5" r="2.5"/><circle cx="17.5" cy="2.5" r="2.5"/></g><g transform="translate(9 25)"><path d="M4 0h176a4 4 0 0 1 4 4v20.748a4 4 0 0 1-4 4H4a4 4 0 0 1-4-4V4a4 4 0 0 1 4-4z" class="D"/><g transform="translate(9 8.624)" class="B"><rect width="126" height="4.312" rx="2.156"/><path d="M2.156 7.187H82.42c1.19 0 2.156.965 2.156 2.156S83.6 11.5 82.42 11.5H2.156C.965 11.5 0 10.534 0 9.343s.965-2.156 2.156-2.156z"/></g><g transform="translate(157.336 7.374)"><circle cx="7" cy="7" r="7" class="B"/><circle cx="7" cy="7" r="3" class="C"/></g><g transform="translate(0 33.641)"><use xlink:href="#B" class="D"/><g transform="translate(9 7.156)" class="B"><rect width="126" height="3.578" rx="1.789"/><use xlink:href="#C"/></g><g transform="translate(157.336 4.927)"><circle cx="7" cy="7" r="7" class="B"/><circle cx="7" cy="7" r="3" class="C"/></g></g><g transform="translate(0 62.389)"><use xlink:href="#B" class="D"/><g transform="translate(9 7.156)" class="B"><rect width="126" height="3.578" rx="1.789"/><use xlink:href="#C"/></g><g transform="translate(157.336 4.927)"><circle cx="7" cy="7" r="7" class="B"/><circle fill="#afb9c5" cx="7" cy="7" r="3"/></g></g><g transform="translate(0 148.632)"><use xlink:href="#B" class="D"/><g transform="translate(9 7.156)" class="B"><rect width="126" height="3.578" rx="1.789"/><use xlink:href="#C"/></g><g transform="translate(157.336 4.927)"><circle cx="7" cy="7" r="7" class="B"/><circle cx="7" cy="7" r="3" class="C"/></g></g><g transform="translate(0 119.885)"><use xlink:href="#B" class="D"/><g transform="translate(9 7.156)" class="B"><rect width="126" height="3.578" rx="1.789"/><use xlink:href="#C"/></g><g transform="translate(157.336 4.927)"><circle cx="7" cy="7" r="7" class="B"/><circle cx="7" cy="7" r="3" class="C"/></g></g><g transform="translate(0 91.137)"><use xlink:href="#B" class="D"/><g transform="translate(9 7.156)" class="B"><rect width="126" height="3.578" rx="1.789"/><use xlink:href="#C"/></g><g transform="translate(157.336 4.927)"><circle cx="7" cy="7" r="7" class="B"/><circle cx="7" cy="7" r="3" class="C"/></g></g></g></g><g transform="matrix(-1 0 0 1 746.030107 186.260106)"><path d="M242.923 56.582c8.086 15.228 7.125 53.855-3.325 56.576-4.168 1.085-13.046-1.573-22.082-7.076l5.672 40.54h-33.5l11.53-54.293c-6.43-7.625-10.782-16.97-10.055-27.442 2.095-30.17 43.665-23.534 51.75-8.306z" class="E"/><path d="M224.767 41.76c9.397.814 17.787 3.71 20.165 5.428 0 8.988-1.724 11.655-16.447 11.42-3.617 1.93-6.398 5.254-9.295 9.61 1.28 18.042 4.672 27.064 10.173 27.064 8.25 0 15.25-5.292 18.87-5.292 2.64 0 2.05 3.337.3 5.81-1.443 2.04-8.472 4.008-8.472 7.173s5.553.716 5.553 2.593c0 3.104.976 8.94-4.357 8.94-5.397 0-20.87-1.987-23.522-10.08-1.71-5.222-2.818-16.044-3.32-32.465a7.87 7.87 0 0 0-.999-.062c-4.624 0-8.373 3.787-8.373 8.46 0 2.372.966 4.515 2.522 6.05-1.937 2.763-4.108 5.65-6.596 8.627-9.347-5.665-16.282-22.25-7.144-38.183 2.526-7.805 8.244-11.974 14.996-13.9 5.47-2.312 11.15-2.573 15.942-1.187z" fill="#191847"/><path fill="#997659" d="M187.075 260.61l68.522 173.26 45.958 146.478h18.148l-70.26-319.74z"/><path d="M173.277 260.61c-.73 60.885-11.37 142.857-13.07 146.652-1.133 2.53-40.26 34.706-117.38 96.527l12.5 13.363c90.994-53.004 138.597-83.04 142.808-90.1 6.316-10.604 26.88-108.185 43.39-166.432h-68.245z" class="E"/><path d="M41.942 498.956c-4.568 1.575-7.686 3.063-9.354 4.463-1.92 1.612-4.456 4.283-7.607 8.012l50.216 59.845c6.466-2.776 8.5-6.012 6.1-9.708l-5.892-9.286-10.987-38.598c-.158-.554-.735-.875-1.3-.718l-.03.01-6.2 1.973c-4.056-1.883-6.897-3.794-8.524-5.733-1.4-1.667-2.646-4.605-3.742-8.815a2.09 2.09 0 0 0-2.544-1.493c-.052.014-.104.03-.154.047zm252.422 73.8c-1.73 4.512-2.594 7.856-2.594 10.034 0 2.508.416 6.167 1.248 10.977h78.122c2.03-6.738.858-10.375-3.516-10.913l-10.9-1.455-36.63-16.394c-.526-.235-1.143 0-1.378.526-.004.01-.01.02-.013.03l-2.468 6c-4.05 1.897-7.34 2.845-9.87 2.845-2.176 0-5.228-.933-9.158-2.8a2.09 2.09 0 0 0-2.78.99 3.15 3.15 0 0 0-.064.148z" fill="#e4e4e4"/><path fill="#69a1ac" d="M233.145 565.26l86.284-9.355-63.947-295.297H178.2z"/><path d="M60.674 482.23l56.597 66.926c59.613-65.044 94.367-107.485 104.263-127.324s18.792-73.58 26.688-161.224h-87.005c-4.313 77.105-7.22 117.452-8.722 121.04s-32.11 37.115-91.82 100.58z" fill="#89c5cc"/><path d="M103.353 228.723l28.654 5.675-46.362 85.238c-4.705 7.237-.315 20.5 1.306 27.486-10.173 2.364-6.16-12.92-19.034-9.73-11.75 2.913-21.713 10.388-32.67.306-1.347-1.24-2.333-5.114 2.26-7.1 11.442-4.95 28.347-14.22 31.09-17.82 3.738-4.908 15.324-32.927 34.757-84.057zm283.415-42.916c-4.505 6.57-8.948 13.68-7.148 15.983s7.015-.24 9.075 3.505c1.373 2.496-7.417 5.48-26.37 8.957l-37.948 29.043-16.18-20.7 50.668-22.212c8.876-8.83 17.447-15.54 25.713-20.132 2.472-.786 6.694-1.023 2.19 5.546z" class="E"/><path d="M209.888 121.704l12.092-2.07c26.337 25.503 37.084 86.773 54.636 94.883 16.594 7.668 40.118.248 68.08-9.77l8.563 19.1c-25.406 27.437-79.53 50.618-101.468 37.384-35.075-21.157-43.173-96.724-41.9-139.524z" fill="#db2721"/><path d="M157.178 273.39h106.99c4.89 0 3.968-7.047 3.26-10.603-8.156-41.04-39.996-85.278-39.996-143.696l-30.86-4.83c-25.526 40.98-34.353 91.436-39.394 159.13z" class="B"/><path d="M200.15 114.26h6.65c27.705 94.273 35.342 157.088 22.913 188.443h-96.307c1.524-22.944 6.4-47.21 13.1-70.867-21.81 39.274-40.144 67.55-55 84.826l-22.426-4.385C83.528 222.847 125.36 156.84 194.58 114.26h5.57z" fill="#ff4133"/></g></g></svg>