<?xml version="1.0" encoding="UTF-8"?>
<svg width="285px" height="215px" viewBox="0 0 285 215" version="1.1" xmlns="http://www.w3.org/2000/svg" xmlns:xlink="http://www.w3.org/1999/xlink">
    <!-- Generator: Sketch 64 (93537) - https://sketch.com -->
    <title>Group 13</title>
    <desc>Created with Sketch.</desc>
    <g id="MAQUETTE-UI" stroke="none" stroke-width="1" fill="none" fill-rule="evenodd">
        <g id="D_PISTE_3_Dashboard_AMELIORATION_2" transform="translate(-1092.000000, -203.000000)">
            <g id="AIDE" transform="translate(1041.000000, 102.398610)">
                <g id="Group-13" transform="translate(0.356688, 0.000000)">
                    <g id="Background-Shape-2" opacity="0.345889137" transform="translate(171.494955, 169.500000) rotate(-42.000000) translate(-171.494955, -169.500000) translate(34.494955, 66.000000)" fill="#0065DB">
                        <path d="M-6.43162447,120.963125 C-0.656159123,98.9968742 138.184154,39.8480667 159.642441,57.1213785 C181.100728,74.3946903 151.582066,115.967731 98.5445269,132.579711 C45.506988,149.191691 -12.2070898,142.929375 -6.43162447,120.963125 Z" id="Background-Shape" fill-opacity="0.5" opacity="0.311035156" transform="translate(79.932623, 98.004250) scale(-1, 1) rotate(-62.000000) translate(-79.932623, -98.004250) "></path>
                        <path d="M149.355962,171.246777 C151.12055,148.186181 245.798198,103.676801 263.374774,125.519342 C280.951349,147.361883 276.502375,193.305137 239.668365,203.802334 C202.834355,214.29953 147.591375,194.307374 149.355962,171.246777 Z" id="Background-Shape" opacity="0.311035156"></path>
                    </g>
                    <g id="Web" transform="translate(110.000000, 136.601390)">
                        <path d="M8.6433121,0 L130.643312,0 C135.06159,-8.11624501e-16 138.643312,3.581722 138.643312,8 L138.643312,133 C138.643312,137.418278 135.06159,141 130.643312,141 L8.6433121,141 C4.2250341,141 0.643312102,137.418278 0.643312102,133 L0.643312102,8 C0.643312102,3.581722 4.2250341,-5.40562444e-15 8.6433121,0 Z" id="Container" fill="#F2F2F2"></path>
                        <path d="M8.6433121,0 L131.643312,0 C136.06159,-8.11624501e-16 139.643312,3.581722 139.643312,8 L139.643312,13 L139.643312,13 L0.643312102,13 L0.643312102,8 C0.643312102,3.581722 4.2250341,8.11624501e-16 8.6433121,0 Z" id="Header" fill-opacity="0.6" fill="#0065DB"></path>
                        <g id="Buttons" transform="translate(6.643312, 5.000000)" fill="#F2F2F2">
                            <circle id="buttons" cx="2.5" cy="2.5" r="2.5"></circle>
                            <circle id="buttons" cx="10" cy="2.5" r="2.5"></circle>
                            <circle id="buttons" cx="17.5" cy="2.5" r="2.5"></circle>
                        </g>
                        <g id="Content" transform="translate(9.643312, 20.000000)">
                            <g id="Rows" transform="translate(0.000000, 0.893701)">
                                <g id="Row">
                                    <path d="M4,0 L118,0 C120.209139,-4.05812251e-16 122,1.790861 122,4 L122,20.3229283 C122,22.5320673 120.209139,24.3229283 118,24.3229283 L4,24.3229283 C1.790861,24.3229283 2.23265109e-15,22.5320673 0,20.3229283 L0,4 C-2.705415e-16,1.790861 1.790861,4.05812251e-16 4,0 Z" id="Container" fill="#FFFFFF"></path>
                                    <g id="Text-Stuff" transform="translate(9.000000, 7.296419)" fill="#0065DB">
                                        <rect id="Label" opacity="0.099999994" x="0" y="0" width="64" height="3.64820963" rx="1.82410482"></rect>
                                        <path d="M1.82410482,6.08034939 L41.1347993,6.08034939 C42.1422246,6.08034939 42.9589041,6.89702893 42.9589041,7.90445421 C42.9589041,8.91187948 42.1422246,9.72855902 41.1347993,9.72855902 L1.82410482,9.72855902 C0.816679545,9.72855902 1.23374014e-16,8.91187948 0,7.90445421 C-1.23374014e-16,6.89702893 0.816679545,6.08034939 1.82410482,6.08034939 Z" id="Label" fill-opacity="0.1"></path>
                                    </g>
                                    <g id="Check" transform="translate(101.961832, 5.160699)">
                                        <circle id="Background" fill-opacity="0.2" fill="#0065DB" cx="7" cy="7" r="7"></circle>
                                        <circle id="Indicator" fill="#FFFFFF" cx="7" cy="7" r="3"></circle>
                                    </g>
                                </g>
                                <g id="Row" transform="translate(0.000000, 33.000000)">
                                    <path d="M4,2 L118,2 C120.209139,2 122,3.790861 122,6 L122,9.8762592 C122,12.0853982 120.209139,13.8762592 118,13.8762592 L4,13.8762592 C1.790861,13.8762592 2.705415e-16,12.0853982 0,9.8762592 L0,6 C-2.705415e-16,3.790861 1.790861,2 4,2 Z" id="Container" fill="#FFFFFF"></path>
                                    <g id="Text-Stuff" transform="translate(9.000000, 5.522836)" fill="#0065DB" fill-opacity="0.1">
                                        <rect id="Label" x="0" y="0" width="64" height="1.79495048" rx="0.897475241"></rect>
                                        <path d="M0.897475241,3.75969099 L42.0614289,3.75969099 C42.5570908,3.75969099 42.9589041,4.16150435 42.9589041,4.65716623 C42.9589041,5.15282812 42.5570908,5.55464148 42.0614289,5.55464148 L0.897475241,5.55464148 C0.401813352,5.55464148 -2.3306927e-13,5.15282812 -2.33129971e-13,4.65716623 C-2.33190672e-13,4.16150435 0.401813352,3.75969099 0.897475241,3.75969099 Z" id="Label"></path>
                                    </g>
                                    <g id="Check" transform="translate(101.961832, 0.916103)">
                                        <circle id="Background" fill="#CCE0F8" cx="7" cy="7" r="7"></circle>
                                        <circle id="Indicator" fill="#FFFFFF" cx="7" cy="7" r="3"></circle>
                                    </g>
                                </g>
                                <g id="Row" transform="translate(0.000000, 56.000000)">
                                    <path d="M4,2 L118,2 C120.209139,2 122,3.790861 122,6 L122,9.8762592 C122,12.0853982 120.209139,13.8762592 118,13.8762592 L4,13.8762592 C1.790861,13.8762592 2.705415e-16,12.0853982 0,9.8762592 L0,6 C-2.705415e-16,3.790861 1.790861,2 4,2 Z" id="Container" fill="#FFFFFF"></path>
                                    <g id="Text-Stuff" transform="translate(9.000000, 5.522836)" fill="#0065DB" fill-opacity="0.1">
                                        <rect id="Label" x="0" y="0" width="64" height="1.79495048" rx="0.897475241"></rect>
                                        <path d="M0.897475241,3.75969099 L42.0614289,3.75969099 C42.5570908,3.75969099 42.9589041,4.16150435 42.9589041,4.65716623 C42.9589041,5.15282812 42.5570908,5.55464148 42.0614289,5.55464148 L0.897475241,5.55464148 C0.401813352,5.55464148 -2.3306927e-13,5.15282812 -2.33129971e-13,4.65716623 C-2.33190672e-13,4.16150435 0.401813352,3.75969099 0.897475241,3.75969099 Z" id="Label"></path>
                                    </g>
                                    <g id="Check" transform="translate(101.961832, 0.916103)">
                                        <circle id="Background" fill="#CCE0F8" cx="7" cy="7" r="7"></circle>
                                        <circle id="Indicator" fill="#0065DB" cx="7" cy="7" r="3"></circle>
                                    </g>
                                </g>
                                <g id="Row" transform="translate(0.000000, 102.000000)">
                                    <path d="M4,2 L118,2 C120.209139,2 122,3.790861 122,6 L122,9.8762592 C122,12.0853982 120.209139,13.8762592 118,13.8762592 L4,13.8762592 C1.790861,13.8762592 2.705415e-16,12.0853982 0,9.8762592 L0,6 C-2.705415e-16,3.790861 1.790861,2 4,2 Z" id="Container" fill="#FFFFFF"></path>
                                    <g id="Text-Stuff" transform="translate(9.000000, 5.522836)" fill="#0065DB" fill-opacity="0.1">
                                        <rect id="Label" x="0" y="0" width="64" height="1.79495048" rx="0.897475241"></rect>
                                        <path d="M0.897475241,3.75969099 L42.0614289,3.75969099 C42.5570908,3.75969099 42.9589041,4.16150435 42.9589041,4.65716623 C42.9589041,5.15282812 42.5570908,5.55464148 42.0614289,5.55464148 L0.897475241,5.55464148 C0.401813352,5.55464148 -2.3306927e-13,5.15282812 -2.33129971e-13,4.65716623 C-2.33190672e-13,4.16150435 0.401813352,3.75969099 0.897475241,3.75969099 Z" id="Label"></path>
                                    </g>
                                    <g id="Check" transform="translate(101.961832, 0.916103)">
                                        <circle id="Background" fill="#CCE0F8" cx="7" cy="7" r="7"></circle>
                                        <circle id="Indicator" fill="#FFFFFF" cx="7" cy="7" r="3"></circle>
                                    </g>
                                </g>
                                <g id="Row" transform="translate(0.000000, 79.000000)">
                                    <path d="M4,2 L118,2 C120.209139,2 122,3.790861 122,6 L122,9.8762592 C122,12.0853982 120.209139,13.8762592 118,13.8762592 L4,13.8762592 C1.790861,13.8762592 2.705415e-16,12.0853982 0,9.8762592 L0,6 C-2.705415e-16,3.790861 1.790861,2 4,2 Z" id="Container" fill="#FFFFFF"></path>
                                    <g id="Text-Stuff" transform="translate(9.000000, 5.522836)" fill="#0065DB" fill-opacity="0.1">
                                        <rect id="Label" x="0" y="0" width="64" height="1.79495048" rx="0.897475241"></rect>
                                        <path d="M0.897475241,3.75969099 L42.0614289,3.75969099 C42.5570908,3.75969099 42.9589041,4.16150435 42.9589041,4.65716623 C42.9589041,5.15282812 42.5570908,5.55464148 42.0614289,5.55464148 L0.897475241,5.55464148 C0.401813352,5.55464148 -2.3306927e-13,5.15282812 -2.33129971e-13,4.65716623 C-2.33190672e-13,4.16150435 0.401813352,3.75969099 0.897475241,3.75969099 Z" id="Label"></path>
                                    </g>
                                    <g id="Check" transform="translate(101.961832, 0.916103)">
                                        <circle id="Background" fill="#CCE0F8" cx="7" cy="7" r="7"></circle>
                                        <circle id="Indicator" fill="#FFFFFF" cx="7" cy="7" r="3"></circle>
                                    </g>
                                </g>
                            </g>
                        </g>
                    </g>
                    <g id="humaaan-8-copy" opacity="0.703799293" transform="translate(286.471625, 237.101390) scale(-1, 1) translate(-286.471625, -237.101390) translate(230.471625, 158.601390)">
                        <g id="Head/Front/Short-Beard" transform="translate(30.828313, 0.000000)">
                            <g id="Head" stroke-width="1" transform="translate(19.852941, 11.625000)" fill="#B28B67">
                                <path d="M14.0232873,3.42522484 C16.1537324,7.47564551 15.9005801,17.7498734 13.1471696,18.4737966 C12.0491347,18.7624905 9.7100179,18.0553254 7.32931979,16.5917002 L8.82352941,27.375 L0,27.375 L3.03689251,12.9329496 C1.34319677,10.9048232 0.196951256,8.41944079 0.388520711,5.63454521 C0.940562581,-2.39063272 11.8928421,-0.625195822 14.0232873,3.42522484 Z"></path>
                            </g>
                            <path d="M29.0926685,11.1077142 C31.568368,11.3243114 33.779049,12.0943175 34.4055737,12.5516051 C34.4055737,14.9423142 33.9514228,15.6516306 30.072355,15.589107 C29.1395199,16.0916079 28.4178057,16.9491812 27.6720337,18.0721083 L27.6232147,18.1450052 C27.9609208,22.9445085 28.8543825,25.3442601 30.3035998,25.3442601 C32.4774257,25.3442601 34.3217625,23.9366416 35.2755851,23.9366416 C35.9708894,23.9366416 35.8156493,24.8241527 35.3547652,25.4821791 C34.9745211,26.025072 33.1227637,26.5483559 33.1227637,27.3900223 C33.1227637,28.2316887 34.5858056,27.5805378 34.5858056,28.0797137 C34.5858056,28.9054115 34.842933,30.457871 33.4379501,30.457871 C32.0160604,30.457871 27.9392509,29.9293439 27.2405962,27.776802 C26.7897732,26.3878251 26.4982596,23.5098309 26.3660554,19.1428194 C26.2804432,19.1304212 26.1923129,19.125 26.1029412,19.125 C24.884666,19.125 23.8970588,20.1323593 23.8970588,21.375 C23.8970588,22.0058318 24.1515779,22.5760287 24.5615864,22.9845802 C24.0511751,23.7194311 23.4791505,24.4870812 22.8236714,25.2791963 C20.3611784,23.7722528 18.5338686,19.3608642 20.9413552,15.1231044 C21.6067921,13.0470917 23.113248,11.9382153 24.8924087,11.4233284 C26.3336206,10.8084076 27.829735,10.7390748 29.0926685,11.1077142 Z" id="Hair" fill="#191847"></path>
                        </g>
                        <g id="Bottom/Standing/Baggy-Pants" transform="translate(0.828313, 68.000000)">
                            <polygon id="Leg" fill="#997659" points="49.58 0 67.7402066 46.2602298 79.9203323 85.3693548 84.73 85.3693548 66.1092645 1.89558046e-13"></polygon>
                            <path d="M45.9231524,0 C45.7297721,16.2561624 42.9095781,38.1424464 42.4590062,39.1557729 C42.1586249,39.8313238 31.7889782,48.4221314 11.3500662,64.9281955 L14.6627564,68.4960148 C38.7787791,54.3441357 51.3947759,46.3244401 52.5107468,44.4369283 C54.1847031,41.6056604 59.634528,15.5519631 64.01,0 L45.9231524,0 Z" id="Leg" fill="#B28B67"></path>
                            <g id="Accessories/Shoe/Flat-Sneaker" transform="translate(19.055000, 70.380753) rotate(50.000000) translate(-19.055000, -70.380753) translate(7.770000, 62.933054)" fill="#E4E4E4">
                                <path d="M0.500618498,11.0192503 C0.413539499,11.3902918 0.37,11.7024311 0.37,11.9556682 C0.37,12.6271848 0.481153256,13.6070946 0.703459767,14.8953975 C1.47747703,14.8953975 8.43370054,14.8953975 21.5721303,14.8953975 C22.114433,13.091009 21.8013844,12.1168777 20.6329845,11.9730036 C19.4645845,11.8291295 18.4939748,11.6992227 17.7211553,11.5832833 L8.65737655,7.51656022 C8.13187273,7.28077793 7.5147284,7.51564363 7.27894611,8.04114745 C7.27425028,8.05161337 7.26972745,8.06215604 7.26537946,8.07277118 L6.90538884,8.95164794 L6.90538884,8.95164794 C5.82375605,9.45956503 4.94481711,9.71352357 4.26857202,9.71352357 C3.96387467,9.71352357 3.59479639,9.6448401 3.16133719,9.50747317 L3.16133086,9.50749314 C2.06321522,9.15949088 0.890905023,9.76757792 0.542902758,10.8656936 C0.526858134,10.9163221 0.512753099,10.967545 0.500618498,11.0192503 Z" id="shoe"></path>
                            </g>
                            <g id="Accessories/Shoe/Flat-Sneaker" transform="translate(76.960000, 74.104603)" fill="#E4E4E4">
                                <path d="M0.500618498,11.0192503 C0.413539499,11.3902918 0.37,11.7024311 0.37,11.9556682 C0.37,12.6271848 0.481153256,13.6070946 0.703459767,14.8953975 C1.47747703,14.8953975 8.43370054,14.8953975 21.5721303,14.8953975 C22.114433,13.091009 21.8013844,12.1168777 20.6329845,11.9730036 C19.4645845,11.8291295 18.4939748,11.6992227 17.7211553,11.5832833 L8.65737655,7.51656022 C8.13187273,7.28077793 7.5147284,7.51564363 7.27894611,8.04114745 C7.27425028,8.05161337 7.26972745,8.06215604 7.26537946,8.07277118 L6.90538884,8.95164794 L6.90538884,8.95164794 C5.82375605,9.45956503 4.94481711,9.71352357 4.26857202,9.71352357 C3.96387467,9.71352357 3.59479639,9.6448401 3.16133719,9.50747317 L3.16133086,9.50749314 C2.06321522,9.15949088 0.890905023,9.76757792 0.542902758,10.8656936 C0.526858134,10.9163221 0.512753099,10.967545 0.500618498,11.0192503 Z" id="shoe"></path>
                            </g>
                            <polygon id="Pant" fill="#084D9F" points="61.79 81.3411177 84.6576519 78.8433226 67.71 1.05838165e-14 47.228307 1.05838165e-14"></polygon>
                            <path d="M16.0801845,59.172145 L31.08,77.0412154 C46.8789825,59.6746717 56.0898306,48.3429988 58.7125442,43.0461967 C61.3352578,37.7493946 63.6929438,23.4006624 65.7856023,0 L42.726914,0 C41.5837977,20.586882 40.8132578,31.3593272 40.4152942,32.3173356 C40.0173306,33.2753439 31.9056274,42.2269471 16.0801845,59.172145 Z" id="Pant" fill="#0065DB"></path>
                        </g>
                        <g id="Body/Jacket-2" transform="translate(8.828313, 30.000000)">
                            <path d="M19.1144018,30.2566845 L26.71875,31.7569159 C19.0712806,45.9278238 14.9700801,53.4384133 14.4151485,54.2886842 C13.1665526,56.2017939 14.3315179,59.7079649 14.7618512,61.5543388 C12.0621813,62.1791912 13.1268482,58.1389591 9.71046813,58.9825228 C6.59215484,59.7524887 3.94820118,61.7284954 1.04050175,59.063535 C0.683017192,58.7358938 0.421321593,57.7117801 1.64016754,57.1865171 C4.67675728,55.8778954 9.16306287,53.4275276 9.8905177,52.476196 C10.8825323,51.1788854 13.9571604,43.7723816 19.1144018,30.2566845 Z M94.3276403,18.9123348 C93.1320011,20.6487622 91.9529082,22.5286897 92.4306542,23.1372484 C92.9084003,23.7458071 94.2923263,23.074124 94.8390732,24.0637598 C95.2035711,24.723517 92.8707703,25.5127244 87.8406707,26.431382 L77.770095,34.1086138 L73.4765625,28.6394601 L86.9229838,22.7678503 C89.2784834,20.4339707 91.5530538,18.6601143 93.7466952,17.4462811 C94.4026358,17.2386388 95.5232795,17.1759075 94.3276403,18.9123348 Z" id="Skin" fill="#B28B67"></path>
                            <path d="M45.7578136,3.6539283 L48.9067988,2.82907207 C56.4570292,8.9356382 60.7099422,24.8214185 65.536916,26.5511118 C70.1006245,28.1864668 76.1486519,25.6884516 83.3100662,22.4034087 L86.0138957,27.2346112 C79.9294552,35.04738 66.1546619,42.4033737 60.0498083,39.4260727 C50.2894165,34.6659872 46.4077337,14.9539442 45.7578136,3.6539283 Z" id="Coat-Back" fill="#D7380B" transform="translate(65.885855, 21.465804) rotate(5.000000) translate(-65.885855, -21.465804) "></path>
                            <path d="M33.3984375,42.0641711 C46.2649094,42.0641711 55.7292165,42.0641711 61.7913587,42.0641711 C63.0887704,42.0641711 62.8442979,40.2014062 62.6567491,39.2614448 C60.4922103,28.4131544 52.0426715,16.7192223 52.0426715,1.27695396 L43.8528164,0 C37.0787542,10.8327811 34.736166,24.170128 33.3984375,42.0641711 Z" id="Shirt" fill="#DDE3E9"></path>
                            <path d="M46.567218,-3.51953194e-14 C53.9195221,24.9200502 55.9464222,41.5243283 52.6479183,49.8128342 L52.6479183,49.8128342 L27.0898437,49.8128342 C27.4942583,43.7471062 28.7911004,37.3323253 30.5673255,31.0778879 C24.7789375,41.4611665 19.9134418,48.9356901 15.9709269,53.5026738 L10.0195313,52.3436288 C13.8531496,28.7035101 24.9547969,11.2556338 43.324473,-7.07224562e-14 Z" id="Coat-Front" fill="#FF6236"></path>
                        </g>
                    </g>
                </g>
            </g>
        </g>
    </g>
</svg>