<svg width="1016" height="716" xmlns="http://www.w3.org/2000/svg" xmlns:xlink="http://www.w3.org/1999/xlink"><defs><linearGradient x1="100%" y1="28.7%" x2="-40.6%" y2="113.8%" id="b"><stop stop-color="#FDFFDE" offset="0%"/><stop stop-color="#B8E994" offset="100%"/></linearGradient><path d="M.4 0C139 63 230.5 139.5 274.8 229.4c66.5 135 17.3 223.5 0 322.6-17.3 99 76.2 240.3 245.9 182.6 169.7-57.8 407.7-54.5 558.9-54.5V0H.4z" id="a"/><filter x="-3.3%" y="-4.8%" width="106.7%" height="109.6%" filterUnits="objectBoundingBox" id="c"><feGaussianBlur stdDeviation="36" in="SourceAlpha" result="shadowBlurInner1"/><feOffset in="shadowBlurInner1" result="shadowOffsetInner1"/><feComposite in="shadowOffsetInner1" in2="SourceAlpha" operator="arithmetic" k2="-1" k3="1" result="shadowInnerInner1"/><feColorMatrix values="0 0 0 0 0.733333333 0 0 0 0 0.847058824 0 0 0 0 0.725490196 0 0 0 0.71 0" in="shadowInnerInner1"/></filter><linearGradient x1="53.5%" y1="42.5%" x2="47%" y2="10.6%" id="f"><stop stop-color="#FFF" offset="0%"/><stop stop-color="#ECECEC" offset="100%"/></linearGradient><path d="M48.4.6l-46 17.9a2.3 2.3 0 0 0 .2 4.4l10.7 2.9 4 13.4a1.2 1.2 0 0 0 2.3-.3l.7-9.6 19.1 14a2.3 2.3 0 0 0 3.7-1.5l8.5-38.6A2.3 2.3 0 0 0 48.4.6z" id="e"/><linearGradient x1="16.9%" y1="100%" x2="-78.7%" y2="16.9%" id="g"><stop stop-color="#FFF" offset="0%"/><stop stop-color="#B9B9B9" offset="100%"/></linearGradient><linearGradient x1="75.4%" y1="100%" x2="60.7%" y2="15.2%" id="j"><stop stop-color="#FF7566" offset="0%"/><stop stop-color="#EB6F62" offset="100%"/></linearGradient><path d="M0 0h139.4l-15.9 90.8a4.5 4.5 0 0 1-4.4 3.7H20.6c-2.2 0-4-1.6-4.4-3.7L0 0z" id="i"/><linearGradient x1="50%" y1="0%" x2="50%" y2="100%" id="l"><stop stop-color="#FFAD9F" offset="0%"/><stop stop-color="#FF7566" offset="100%"/></linearGradient><path d="M7.4 0c-3 6.8-4.6 11-4.9 12.7-.4 2.6-1 6.1-1.6 6.8-.7.7-1.2 4.4-.6 5C.9 25 2 21 2.5 20.6c.6-.3.6.8 1.2.8.5 0 .3-1 .3-2s-.7-2.6-.3-3.5C4 15 6 9.6 7.4 7.2l3-5.6-3-1.6z" id="m"/><path d="M0 0l4.3 28.8c-1.7 1.5-2.8 2.3-3.4 2.3h5.7V1.4L0 0z" id="o"/><path id="q" d="M6.7 0l7.8 29.5 6.2 3.5h-9.2v-3.5L0 0z"/><path d="M10.3.8c.7 1 1.6 1.5 2.6 1.5s2-.7 2.9-2c2.3.5 4 1.5 5 2.8 1 1.2 2 2.7 3 4.7l-.1.9-2 3L19 9.4c-.6 1.8-1 3-1 3.5 0 .7 0 5.9 1 7.7.5 1 2.7 3.6 4.1 7.7 1.2 3.5 1.6 8.2 2.5 12.6.7 3.7 3.4 11 3.4 12s-5.2 7.5-17.3 4.8c-4.4-1-5.2-1-9.6-1-4.4 0 .2-6.8-1.5-12.7-1.7-5.9 7.5-16.1 7.5-19.5V11l-1 2.2a.9.9 0 0 1-1.2.4l-2.2-1a.9.9 0 0 1-.5-1C4.5 6.9 5.4 4 6.1 3 7 2 8.3 1.3 10.3.8z" id="s"/><linearGradient x1="56.6%" y1="118.1%" x2="50%" y2="66.3%" id="w"><stop stop-color="#D8E1D4" offset="0%"/><stop stop-color="#FFF" offset="100%"/></linearGradient><path d="M529 220H410.7c-22.4-4-36.2-15.7-41.3-35.3-7.7-29.3 17.7-57.7 41.3-57.7 23.7 0 49.2 15 49.2 46.5 7.1-10.6 28.8-19.7 43 0 5.6 7.9 6 21.2 10 28.4A73.2 73.2 0 0 0 529 220z" id="v"/><filter x="-25.2%" y="-43.5%" width="150.3%" height="187%" filterUnits="objectBoundingBox" id="u"><feOffset in="SourceAlpha" result="shadowOffsetOuter1"/><feGaussianBlur stdDeviation="13.5" in="shadowOffsetOuter1" result="shadowBlurOuter1"/><feColorMatrix values="0 0 0 0 0.780392157 0 0 0 0 0.811764706 0 0 0 0 0.670588235 0 0 0 0.3 0" in="shadowBlurOuter1"/></filter><path d="M791 250h-76.4c-14.5-2.5-23.4-10-26.7-22.7-5-19 11.4-37.3 26.7-37.3 15.2 0 31.7 9.7 31.7 30 4.6-6.8 17-16.8 27.8 0 3.3 5.2 3.9 13.7 6.5 18.3 2 3.7 5.5 7.6 10.4 11.8z" id="y"/><filter x="-39%" y="-67.4%" width="177.9%" height="234.8%" filterUnits="objectBoundingBox" id="x"><feOffset in="SourceAlpha" result="shadowOffsetOuter1"/><feGaussianBlur stdDeviation="13.5" in="shadowOffsetOuter1" result="shadowBlurOuter1"/><feColorMatrix values="0 0 0 0 0.780392157 0 0 0 0 0.811764706 0 0 0 0 0.670588235 0 0 0 0.3 0" in="shadowBlurOuter1"/></filter><path d="M933 207.2h-53.6c-10.2-1.8-16.5-7.2-18.8-16-3.4-13.3 8-26.2 18.8-26.2 10.7 0 22.2 6.8 22.2 21 3.3-4.7 12-11.8 19.6 0 2.3 3.7 2.7 9.7 4.5 13 1.5 2.5 4 5.3 7.3 8.2z" id="A"/><filter x="-55.5%" y="-96%" width="211%" height="292%" filterUnits="objectBoundingBox" id="z"><feOffset in="SourceAlpha" result="shadowOffsetOuter1"/><feGaussianBlur stdDeviation="13.5" in="shadowOffsetOuter1" result="shadowBlurOuter1"/><feColorMatrix values="0 0 0 0 0.780392157 0 0 0 0 0.811764706 0 0 0 0 0.670588235 0 0 0 0.3 0" in="shadowBlurOuter1"/></filter><path d="M49 .5l-46.7 18a2.3 2.3 0 0 0 .3 4.5l10.8 2.8 4.2 13.5a1.2 1.2 0 0 0 2.2-.3l.7-9.7 19.4 14a2.3 2.3 0 0 0 3.7-1.4L52 3.2a2.3 2.3 0 0 0-3-2.7z" id="B"/><path d="M.5.4l11 94.3h8.9v-60c0-6.6 1.5-16.9 4.5-30.7L.5.4z" id="D"/><path d="M8.5.9c-5.3 14-8 21.8-8 23.5v78c3 1.1 5.2 1.7 6.3 1.7 1.1 0 3-.6 5.9-1.6 1.2-41.6 2.2-63.9 3-66.9 1.1-4.5 19-25.1 20.5-27C37.2 7.3 28 4.8 8.5.9z" id="F"/><path id="H" d="M22.9 20.1L4.1.1 0 3.3l20.9 29z"/><path d="M26 .5a70 70 0 0 0 11.6 8.9c2.6 1.3 6.5 1.9 11.7 1.7l9.3 37.4L61 58.8h-4V103A498 498 0 0 0 .8 90a1425 1425 0 0 0 10.2-35.1H7V38c0-.5.2-1 .7-1.4 5-4 8.5-8.8 10.8-14.2 2-5 3.5-11.9 4.3-20.8a1.8 1.8 0 0 1 3-1.1z" id="J"/><path d="M0 9.7C4.4 3.5 8.1.3 11 .3c4.3 0 11.5 1.8 17 6.8 5.4 5 6.9 21.1 5.4 23-1.8 2.4-1.4 8.4 0 11.8 1.4 3.4 4 14.4-3.1 13.2-7.1-1.1-9.7 6.3-11.5 3.2-1.7-3 2.8-6.7 2.8-12 0-5.1-6.8-6.7-6.8-11.4s-8.2-9.7-6-9.7c2.2 0 .5-8.3-1.5-5.9-1.4 1.6-3.8-.8-7.3-7.1V9.7z" id="L"/><path d="M16.9 6.5c-.1 2 1.1 3 3.7 3 3.8 0 15.4 0 21.6-1.7a102 102 0 0 0 18-7.4C62.3-1 63.9 3.9 62.4 5c-1.6 1.2-17 9.8-22 12-4.8 2-10.3 4.3-11.7 8.3-1 2.6-2.4 11-4.2 25L.3 46s3.2-19 6-26A34 34 0 0 1 16.8 6.5z" id="N"/><linearGradient x1="-12.5%" y1="208.7%" x2="50%" y2="100%" id="P"><stop offset="0%"/><stop stop-color="#FFF" offset="100%"/></linearGradient><path d="M.4.8C1.5 21 2.1 32.6 2.1 35.4l-.8 23.8H7c2-12.3 3-19.2 3-20.7V23.6c0-3.6 2.4-6 3.6-3.6 1.3 2.3 2.6 9 2.6 13.8v25.4h5c2-10.3 3-17.2 3-20.7 0-3.6-.1-14.5-.6-32.9L.5.8z" id="Q"/><linearGradient x1="80.7%" y1="9.2%" x2="74.9%" y2="88.1%" id="S"><stop stop-color="#828282" offset="0%"/><stop stop-color="#FFF" offset="100%"/></linearGradient><path d="M.1 6.3c.7-1.7 1.5-3 2.3-3.8 1.2-1 1.5-.6 1.5-.3S6 .1 6.5.1c.4 0 1 1.3.4 1.3-.4 0 0 .5 0 1.1 0 .7-.2 4.2-1.7 5.6l-3.3 2.5L.1 6.3z" id="T"/><linearGradient x1="23.6%" y1="104.6%" x2="64.5%" y2="65.8%" id="V"><stop stop-color="#8F8F8F" offset="0%"/><stop stop-color="#FFF" offset="100%"/></linearGradient></defs><g transform="translate(-64 -32)" fill="none" fill-rule="evenodd"><mask id="d" fill="#fff"><use xlink:href="#a"/></mask><use fill="url(#b)" xlink:href="#a"/><use fill="#000" filter="url(#c)" xlink:href="#a"/><g mask="url(#d)"><path fill="#CDCDCD" d="M335 421l8-7.1-8-5.9z"/><g transform="translate(316 380)"><mask id="h" fill="#fff"><use xlink:href="#e"/></mask><use fill="url(#f)" xlink:href="#e"/><path d="M13.3 25.8L40 9.5a.6.6 0 0 1 .7 1L20.3 29.1l-.7 12c-.2.4-.6.5-1 .5-1.2-.2-3-5.4-5.3-15.9z" fill="url(#g)" mask="url(#h)"/></g></g><path d="M224.9 592.6c16 0 66.6-41.5 96.4-87.7 29.7-46.2 51.8-57.5 70-35 18.1 22.6 34 67.8 97.2 54.3 63.1-13.4 149-104.4 296-104.4S940.5 555 985 569.2c29.7 9.5 64 17.3 103.1 23.4V604A4640.8 4640.8 0 0 1 638 619.5c-272.4-3.6-420.4-27-413-27z" fill="#4A4A4A" opacity=".1" mask="url(#d)"/><ellipse fill="#7A9578" opacity=".3" mask="url(#d)" cx="549.4" cy="642.9" rx="25" ry="2.4"/><rect fill="#4A4A4A" opacity=".3" mask="url(#d)" x="518.8" y="286.4" width="414.3" height="257.2" rx="8.1"/><ellipse fill="#FFF" opacity=".4" mask="url(#d)" cx="524.5" cy="226.1" rx="89.5" ry="89.5"/><ellipse fill="#4A4A4A" opacity=".1" mask="url(#d)" cx="892.6" cy="258.1" rx="67.8" ry="67.8"/><g mask="url(#d)"><rect fill="#FFF" width="419" height="261.9" rx="8.8" transform="translate(509.4 277)"/><g transform="translate(559.5 362.6)"><rect fill="#BABABA" opacity=".4" x="7.5" y="7.9" width="318.9" height="44.8" rx="2"/><rect fill="#BABABA" opacity=".4" x="7.5" y="88.3" width="318.9" height="44.8" rx="2"/><rect fill="#F8F8F8" width="318.9" height="44.8" rx="3.8"/><rect fill="#F8F8F8" y="80.4" width="318.9" height="44.8" rx="3.8"/><path stroke="#78E08F" stroke-width="6.3" stroke-linecap="round" stroke-linejoin="round" d="M279 21.6l7.1 7 13.3-13.7M278.9 101.5l7.2 7 13.4-13.8"/></g></g><g mask="url(#d)"><g transform="translate(396.3 356)"><ellipse fill="#7A9578" opacity=".3" cx="75.9" cy="282.7" rx="74.9" ry="3.8"/><g transform="translate(6.6 187.5)"><mask id="k" fill="#fff"><use xlink:href="#i"/></mask><use fill="url(#j)" xlink:href="#i"/><path d="M137.3 16c-1.2 0-14 16.3-19.2 25.2C113 50 97.3 89.5 99.7 94.4c1.6 3.2 10.3 3.2 25.9 0 8.6-52.3 12.6-78.5 11.7-78.5z" fill-opacity=".1" fill="#4A4A4A" mask="url(#k)"/></g><path d="M88.9 182.3c5.9 0 16.8 5.4 33.5-19 8.2-12 0-21.8 0-28.5 0-6.6-.2-15 11.3-25.6C145 98.7 137 87.7 137 82c0-5.8 3.5-18.1 5.7-29.2 2.2-11.2-3.4-16.8-9-16.8S118.2 39.6 111 55c-7 15.6-13 18.4-17.6 22.6-4.6 4.2-9.2 10.8-4.6 22.7 4.6 12-7 15.8-13.8 21.3-6.7 5.6-18.9 33 0 53.6 3.9 4.1 8 7 13.8 7z" fill="#78E08F"/><path d="M108.8 68.8a202 202 0 0 1 16-21c2.1-1.3 10.2-6.7 6.5 1.6-3.8 8.2-14.5 25.7-17.5 36-3 10.2-9.7 36.7-10.2 47.5-.6 10.8-12.5 35.3-21.1 34.9-8.6-.5-13-26.6-9.8-33 3.2-6.3 19-19.5 21.7-22.8 2.7-3.2-.6-15.8-.4-19.4.2-3.5 1.8-9 5.3-11.3 3.4-2.3 6.2-7.6 9.5-12.5z" fill="#5AB572" opacity=".4"/><path d="M126.2 69.8a160.7 160.7 0 0 0-15.1 38.5c-2 8.7-2 22.2-4.6 32.8-2.5 9.7-7.1 21.1-10.4 24.8M128.1 102.7c-4.6 3-8.7 5.5-12.2 7.6M117.8 146c-2.1 6.4-6.2 10.8-12.3 13.3M95.2 95.2c3.4 2.3 6.6 5.8 9.4 10.4M95.8 151.7c1-10.8-.7-18-5.4-21.7-4.7-3.6-6.4-5.1-5.2-4.5M124.9 86.8c3-2.4 5-3.1 6.4-2" stroke="#FFF" stroke-width="1.8" opacity=".6" stroke-linecap="round"/><path d="M68.8 90.8a118.5 118.5 0 0 1 22.3 15c7 6.6 23.6 30.9 15 63.9-3 11.4-11.6 5.2-17.5 5.8-3.7.4-9.2.4-16.4 0l-3.4-84.7z" fill-opacity=".1" fill="#4A4A4A"/><g><path d="M70 186.2c-7.3 0-21 6.8-42-24-10.2-15.2 0-27.6 0-35.9 0-8.3.2-19-14.2-32.3C-.5 80.7 9.7 66.8 9.7 59.5c0-7.3-4.4-22.9-7.2-37C-.2 8.6 6.8 1.5 13.8 1.5c7 0 19.4 4.6 28.3 24.3C51 45.4 58.5 49 64.3 54.2 70 59.5 75.9 67.8 70 82.9c-5.8 15 8.8 19.8 17.2 26.8 8.4 7 23.8 41.7 0 67.6-4.8 5.3-9.9 8.9-17.2 8.9z" fill="#78E08F"/><path d="M45.3 42.7C41 36.6 27.7 17.7 25 16c-2.5-1.5-12.7-8.4-8 2C21.8 28.6 35.3 50.8 39 63.7c3.7 13 12.2 46.6 12.9 60.2.7 13.7 15.6 44.7 26.4 44.2 10.9-.6 16.3-33.6 12.3-41.7-4-8.1-23.8-24.8-27.2-29-3.4-4 .7-20 .4-24.5-.2-4.5-2.2-11.4-6.5-14.3-4.3-3-7.8-9.7-12-15.8z" fill="#5AB572" opacity=".4"/><path d="M23 44.2C32.8 62.5 39 78.7 42.3 93c2.5 11 2.5 28 6 41.4 3 12.4 8.9 26.7 13 31.3M20.8 84.8c5.8 3.9 11 7.1 15.3 9.8M34.5 140.1c2.6 8 7.9 13.6 15.7 16.7M63.1 76.4c-4.5 3-8.6 7.3-12.2 13.1M62.4 147c-1.4-13.7.8-22.8 6.5-27.5 5.7-4.6 7.8-6.5 6.4-5.8M25 65.6c-3.8-3-6.5-4-8.2-2.6" stroke="#FFF" stroke-width="1.8" opacity=".6" stroke-linecap="round"/></g><rect fill="url(#l)" x="1" y="168.7" width="149.7" height="19.8" rx="4.5"/></g></g><path d="M765 511.5h36.7v-21.7H765v21.7zm0 2.8v24.4h-2.8V401.1c0-.4.6-.7 1.4-.7.8 0 1.4.3 1.4.7v12.4h36.7v-12.4c0-.4.6-.7 1.4-.7.8 0 1.4.3 1.4.7v13.5a1.4 1.4 0 0 1 0 .7v23.8a1.4 1.4 0 0 1 0 .7v23.8a1.4 1.4 0 0 1 0 .7v23.8a1.4 1.4 0 0 1 0 .7v23.8a1.4 1.4 0 0 1 0 .7v25.4h-2.8v-24.4H765zm0-27.3h36.7v-21.6H765V487zm0-24.5h36.7V441H765v21.6zm0-24.5h36.7v-21.6H765V438z" fill="#4A4A4A" opacity=".3" mask="url(#d)"/><g mask="url(#d)" stroke="#4A4A4A" stroke-width="2.7"><path d="M764.2 402l33.3 236.6M802.6 402l34.8 236" stroke-linecap="round"/><path d="M766.6 421.2h39M770 445.4h39.2M773.5 470.7h39.3M781.2 519.3h39.3M784.3 544.1h39.8M788 568.6h39.7M791.3 593.2h40.2M794.9 616.8h39.4"/></g><g mask="url(#d)"><path d="M543 561.5c1.1-.9.5-3 2.2-5.4 1.6-2.5-1.6-7-1.6-9 0-1.8-4-4-5.5-3.5-1.6.6-4.5 3.2-4.5 3.6 0 .3-.6.8-2 1.7-.2 4.8.3 8 1.5 9.6 1.7 2.4-.6 7.3 1.4 8 2 .5-.5-8.6 2.1-7.4 2.6 1.2 5 3.2 6.3 2.4z" fill="#FDECC3"/><path d="M535.5 556.7c.5-.3 1.9-2.4 1.7-3.2-.2-.7.7 0 1.2 0 .4 0 .8-.2 1.4-.5.5 1.9 1 3 1.5 3.2.8.3-2.4 2.1-3 2.1-.7 0-3.2-1.3-2.8-1.6z" fill="#EEB9AC"/><path d="M548.5 563.3s4.5 7.1 3 8.1c-1.6 1-2.3-.4-2.5-1.1l-2-4.1 1.5-2.9z" fill="#F8AD9A"/><g transform="translate(521.6 567)"><mask id="n" fill="#fff"><use xlink:href="#m"/></mask><use fill="#FFCCBD" xlink:href="#m"/><path d="M9.7.3A48.5 48.5 0 0 0 4.4 13c-1 3.8-.8 5.4.5 4.6C7.9 11 10 5.8 11 2.3c1-3.6.6-4.2-1.3-2z" fill="#F8AD9A" mask="url(#n)"/></g><g transform="translate(533 611.4)"><mask id="p" fill="#fff"><use xlink:href="#o"/></mask><use fill="#FFCCBC" xlink:href="#o"/><path fill="#FFF" opacity=".3" mask="url(#p)" d="M3.6-2.7l2.8 32.4L9-1.3z"/></g><g transform="translate(546.1 610.4)"><mask id="r" fill="#fff"><use xlink:href="#q"/></mask><use fill="#FFCCBC" xlink:href="#q"/><path d="M7.7 0c-.3 0-2 .1-5.2.6l10 31.7 3.3-1.2C10.8 10.3 8-.1 7.8-.1z" fill="#FFF" opacity=".3" mask="url(#r)"/></g><g transform="translate(525.4 555.8)"><mask id="t" fill="#fff"><use xlink:href="#s"/></mask><use fill="#4A69BD" xlink:href="#s"/><path d="M10.7 17.2a20.4 20.4 0 0 0 7.6-.6l1 3.5c-1.7 1-4 1.5-7 1.5-1.1 0-2.2 0-3.3-.4.5 2.2 1.8 4.4 0 8-2.2 4 5.4 9.3 0 12.4-5.6 3-4.4 6.7-3.7 8.8.8 2 4.7 4.4 7.6 4.8 3.7.6 10.2 1.6 14.6 1 2.9-.3-.5 2-10.2 7l-37-14.8-1-17.5c0-2 .6-2.9 1.9-2.9 2 0 7.7-.8 9.1-.8 1 0 6.6-3.8 17-11.5 1.4 1 2.4 1.4 3.2 1.4h.2zm-2.6-6.3c6.2 1 9.6 1.1 10.2.5.5-.7.5 0 0 2-1.9 1.2-4.3 1.4-7.3.5-1.3-.3-3-1.4-3-2v-1z" fill="#6A89CC" opacity=".5" mask="url(#t)"/></g><path d="M536.6 561.1l.4 4.9h3.7v-5c0-.5-.4-.9-.9-.9h-2.3a.9.9 0 0 0-.9 1z" fill="#4A4A4A"/><path d="M540.9 562.4c.4.3.7.8.7 1.3 0 .9.1 2.2.6 2.2l5.8 1.2c1.1.3 4.6 1.6 3.6 4-1 2.2-6.6-1.3-7.3-1.8-.8-.4-2.7-2.2-3.4-2.2l-2.7.3c-.5 0-1.3-1.8-1.3-1.8h-.6a.3.3 0 0 1-.3-.3c0-.2-.1-.3-.3-.3h-.3a.4.4 0 1 1 0-.8c3.7 0 5.5-.1 5.5-.5v-1.3z" fill="#FFCDBE"/><path d="M538.6 554.8c-.8 0-2.5-1.5-2.8-2.1-.3-.6-.3-2-.7-2-.3 0-1.5-1.8-1.2-2.7.3-.6.5-.7.8-.3v-1.3c0-1.6 1.8-2 3.9-2 2 0 3.7.4 3.7 2v1.3c.3-.5.6-.4.9.3.5 1.1-1 2.6-1.3 2.6-.3 0-.7 1.5-1 2-.2.7-1.6 2.2-2.3 2.2z" fill="#FFCEBD"/><path d="M535.2 551.9c.3-.8.4-1.7.4-2.7 0-1.6.6-3.5 3-3.5 1.8 0 2.8.7 3.3 2 .7 5.4 1 7.7 1.2 7 .4-2.5 1.7-2.7 1.8-4.9a14 14 0 0 0-.9-5.1c-.6-1.7-3-2.4-5.3-2.4s-3.2.7-4.8 2.4c-3 3.5-2.9 6.5-2.9 8.7 0 2.3 5.4 10.9 4.6 7.6-.8-3.3-2.4-4.7-.7-4.7 1 0 1.2-1.5.3-4.4z" fill="#FDECC3"/><path d="M537.2 640c-5.4 1.3-7.2 2-5.5 2.3 1.7.2 4.5.3 8.2.2l-.3-3c-.1 1-.5 1.3-1 1.3-.7 0-1.1-.2-1.4-.7zM562.1 640.5c6.2 1.6 8.2 2.6 6 2.9-2.1.3-5.7.3-10.7 0l.3-3.4c.2 1 .6 1.4 1.4 1.4.7 0 1.7-.3 3-1z" fill="#4A69BD"/></g><g mask="url(#d)"><use fill="#000" filter="url(#u)" xlink:href="#v"/><use fill="url(#w)" xlink:href="#v"/></g><g mask="url(#d)"><use fill="#000" filter="url(#x)" xlink:href="#y"/><use fill="url(#w)" xlink:href="#y"/></g><g mask="url(#d)"><use fill="#000" filter="url(#z)" xlink:href="#A"/><use fill="url(#w)" xlink:href="#A"/></g><g mask="url(#d)"><path fill="#CDCDCD" d="M619.2 187.4l9.5-4.6-6.2-7.6z"/><g transform="rotate(15 -237.8 2392)"><mask id="C" fill="#fff"><use xlink:href="#B"/></mask><use fill="url(#f)" xlink:href="#B"/><path d="M13.5 25.9L40.4 9.5a.6.6 0 0 1 .7 1L20.5 29.3l-.7 12c-.2.4-.6.5-1 .4-1.2 0-3-5.4-5.3-15.8z" fill="url(#g)" mask="url(#C)"/></g></g><g opacity=".4"><path d="M989.8 554.5c-3.5 0-14.8-15-16.3-21.1-1.5-6.1 1.5-5.3 4.7-5.3s-4.7-7.5-4.7-12.2c0-4.7 3.4-7 6.6-12.7 3.2-5.8 4.6-12.4 9.1-12.4s8 8.3 10.2 12.4c2.1 4.1 5.4 3 5.4 7.8 0 4.9-6.4 15.3-3.2 17.1 3.2 1.8 5.8 4.9 3.2 8.9-2.7 4-11.4 17.5-15 17.5z" fill="#9FA788"/><path fill="#888F72" d="M988.7 533h2.9v46.7h-2.9z"/><path d="M990.7 562.3l2.8-2a.9.9 0 0 1 1.4 1.2l-4.2 8.3v-7.5z" fill="#888F72"/><path d="M984.6 514l2.2 4.7M996.7 511l-2.2 4.8M989.3 502.1l1.3 7.6" stroke="#FFF" stroke-width="1.3" stroke-linecap="round"/></g><g opacity=".3"><path d="M1017.7 561c2.5 0 10.4-11 11.5-15.3 1-4.4-1.1-3.8-3.3-3.8-2.2 0 3.3-5.4 3.3-8.8 0-3.4-2.4-5-4.7-9.1-2.2-4.2-3.2-9-6.4-9-3.1 0-5.6 6-7.1 9s-3.8 2-3.8 5.6c0 3.5 4.5 11 2.3 12.3-2.3 1.3-4.2 3.5-2.3 6.4 1.9 2.9 8 12.6 10.5 12.6z" fill="#9FA788"/><path fill="#888F72" d="M1018.5 545.5h-2.1V579h2.1z"/><path d="M1017.7 570.1l2-1.4a.6.6 0 0 1 1 .8l-3 6V570z" fill="#888F72"/><path d="M1021.4 536.2l-1.5 3.4M1012.8 532l1.5 3.4M1019.6 524.8l-1 5.4" stroke="#FFF" stroke-width="1.3" stroke-linecap="round"/></g><ellipse fill-opacity=".1" fill="#000" cx="935.1" cy="725" rx="57.6" ry="5"/><g transform="translate(894.5 489.6)"><g transform="translate(50.5 126.1)"><mask id="E" fill="#fff"><use xlink:href="#D"/></mask><use fill="#BDDEE8" xlink:href="#D"/><path d="M9.6-1.7l4 97.5c6 1.2 9 1.2 9 0L26.8 3 9.6-1.7z" fill="#A3BEC5" opacity=".3" mask="url(#E)"/></g><path d="M60.4 155h9.3M61.3 157.6h6.6" stroke="#000" stroke-width=".9" opacity=".1"/><g transform="translate(23.5 121.6)"><mask id="G" fill="#fff"><use xlink:href="#F"/></mask><use fill="#BDDEE8" xlink:href="#F"/><path d="M18.6.6C8.8 18 4 28.4 4 32.4v72.5h12.3L21 38.3 41.4-1 18.6.6z" fill="#A3BEC5" mask="url(#G)"/></g><path d="M29.8 150.4c3 1.7 5.8 2.3 8.6 1.7M28 154c3 1.7 5.8 2.3 8.6 1.7" stroke="#000" stroke-width=".9" opacity=".1" stroke-linecap="round"/><g transform="translate(11.8 54.1)"><mask id="I" fill="#fff"><use xlink:href="#H"/></mask><use fill="#FFF" xlink:href="#H"/><path d="M.7 2.9l20 21.6-.7 8L-3.7 4 .7 2.9z" fill="#F0F0F0" mask="url(#I)"/></g><path d="M52.5 33.4c1 2.2 1 3.5 0 4.2-1 .6 2.5 1.3 10.7 2.3v-6.5H52.5z" fill="#EDC0B0"/><g transform="translate(24.4 32.5)"><mask id="K" fill="#fff"><use xlink:href="#J"/></mask><use fill="#079992" xlink:href="#J"/><path d="M23 93.8a26 26 0 0 0 23.4-23.2c2.1-14.1 3.2-34.7 3.2-61.9 13.5 37.5 17.6 68.1 12.3 92-5.3 23.8-18.3 22.2-39-4.8" fill="#3D6C47" opacity=".2" mask="url(#K)"/><path fill="#000" opacity=".4" mask="url(#K)" d="M53.8 29.4L59.4 52l1.8 6.6h-4.7z"/></g><path d="M46 14.5a13 13 0 0 0-1.8 5.8c0 2.3 1.9 2.6 1.9 4 0 1.5 4.1 9.6 8.7 9.6 3 0 4.7-4.5 5-13.6l-13.7-5.8z" fill="#FFCEBD"/><g transform="translate(41.5 1)"><mask id="M" fill="#fff"><use xlink:href="#L"/></mask><use fill="#000" xlink:href="#L"/><path d="M3.7-6.7C0-2 14.1-2 23.7 6.7c9.8 8.6 6.1 23.5 8.3 25.2 2.3 1.7 4.5-9.4 4.5-10 0-.6-3-20-4.5-21-1.4-1-24.5-12.5-28.3-7.6z" fill-opacity=".3" fill="#FFF" opacity=".7" mask="url(#M)"/></g><path d="M12 57c-2-.8-3.4-1.5-4.1-2.3-1.2-1.2-5-3.7-4-5a5 5 0 0 1 4-1.9c1 0 3.6 2 7.9 5.9L12 57z" fill="#FFCEBD"/><path d="M14 55c.8 0 4.5-3.3 4.3-3.7a128 128 0 0 0-12.6-6.5c-1-.2-6 2.3-4.3 3.3C3 49 13.2 55 14 55z" stroke="#303030" stroke-width=".9" fill="#33373B"/><path d="M3.7 50.2c1.1-1.4 2-2 2.5-1.8.8.3.3 2.5-.3 3M8.3 45.5c.6-1 1.2-1.4 1.8-.9.7.7.3 1.9.3 1.9s.2-1.6 1.2-1c1 .5.8 1.5.5 1.9" fill="#FFCEBD"/><path d="M31.6 87c.4 0 7.9-5.6 12.5-11.8 4.7-6.3 6.2-11.1 7.4-17.2.5-2.3 1.5-4.3 2.4-3.8 3 1.3 6.5 10.3-7.7 27.2-5.8 6.8-7.6 5.6-9 5.6h-5.6z" fill="#025F5B"/><path d="M24 223.8c-.8 1.4-1.7 2.7-2.5 3.8-1 1-4.6 3.4-11.2 7-2.8 1.5-2.8 2.3 0 2.3 4.3 0 13.6 1.6 15.7 0 2.1-1.6 2.5-6.2 3.7-6.2.8 0 1.2 2 1.2 6.2h2.7l.9-6.8c1.2-2.5 1.8-4.4 1.8-5.7 0-1.2-4-1.4-12.3-.6zM61.8 219.9l-3.6 5.1-9.2 5.5c-2.8 2-2.8 3 0 3 4.3 0 10.7.6 12.8-1 2.1-1.6 1.8-5.1 3-5.1.8 0 1.2 2 1.2 6.1h2.7l.9-6.7c1.2-2.6 1.8-4.5 1.8-5.7 0-1.2-3.2-1.6-9.6-1.2z" fill="#4A4A4A"/><ellipse fill="#FFF" transform="rotate(12 37.4 92)" cx="37.4" cy="92.1" rx="1" ry="1.8"/><ellipse fill="#FFF" transform="rotate(12 34.7 100.2)" cx="34.7" cy="100.2" rx="1" ry="1.8"/><ellipse fill="#FFF" transform="rotate(12 32 109.2)" cx="32" cy="109.2" rx="1" ry="1.8"/></g><path d="M945.9 569.8c3.6-1.3 5.4-3.4 5.4-6.3M948.6 570.7c2.4-1 3.6-2.4 3.6-4.5" stroke-opacity=".2" stroke="#4A4A4A" stroke-width=".9" stroke-linecap="round"/><g><path d="M796.4 396.3c-3.3-.2-5.8.8-7.5 2.9-1.6 2-3 6.3-3.9 12.7l8.4-11.5 3-4.1z" fill="#C7732D"/><g transform="translate(779.4 389.8)"><mask id="O" fill="#fff"><use xlink:href="#N"/></mask><use fill="#FF943A" xlink:href="#N"/><path d="M32.2 18.4c4.9 0 14.7-5.3 15.4-5.3.5 0 2.6-1 6.3-3.1a238 238 0 0 0-21.7 13C30 25 28 34.8 26.6 41c-1.3 6.4-1.4 10-1.4 10H22a246 246 0 0 1 3.2-22.5c1-3.4 2.2-10.2 7-10.2z" fill="#000" opacity=".2" mask="url(#O)"/></g><path d="M806.5 378c1.2.3 4.5.8 5 2.6s.3 4.6 0 5.5c-.3.8-.6 5-1.4 5.8-.7.8-2 4-3 4-.8 0-1.3-.2-1.7-.7l-1.2 4.3c-3.1.2-5 .2-5.5 0-.8-.3-2.4-.3-2.2-2 .2-1.8 1.4-1.3 1.6-1.7.2-.4 1-2.6 1-3.4 0-.8-.8-4 .4-6.5 1.2-2.5 1.5-4.5 2.7-6 1.2-1.4 3-2 4.3-1.8z" fill="#FFCEBD"/><path d="M27.2 19.5l1.6-1.6 2.1 1.6c.6.3 2.5.6 5.5.7l-.4 2.7c-2.9.5-5 .6-6.2.4-2-.4-2.3-1-2.6-1.5-.3-.4-.3-1.2 0-2.3z" fill="url(#P)" transform="translate(768.6 377.2)"/><g transform="translate(779.4 433.9)"><mask id="R" fill="#fff"><use xlink:href="#Q"/></mask><use fill="#4A4A4A" xlink:href="#Q"/><path fill="#000" opacity=".2" mask="url(#R)" d="M9.3 3.3L4 26.8 1.4 58.9.1 24.8l-1-21.5z"/></g><path d="M11.2 57.6l-.4 3.7H19l9.6 2.6s2-1 2.7-1L36 62l-24.8-4.5z" fill="url(#S)" transform="translate(768.6 377.2)"/><g transform="translate(840.6 383.5)"><mask id="U" fill="#fff"><use xlink:href="#T"/></mask><use fill="#FFCEBD" xlink:href="#T"/><path d="M7 2.2C6.6 4 6.3 4.8 5.8 4.8c-.8 0-1.8 4-2.3 4.4-.5.4 4-.7 4-1 0-.5-.4-1.5 0-2.5.3-.6 0-1.8-.7-3.5z" fill-opacity=".5" fill="#000" opacity=".4" mask="url(#U)"/></g><path d="M71.1 13l1-1.3 3.5 4.7-2 1.6-2.5-5z" fill="url(#V)" transform="translate(768.6 377.2)"/><path d="M802.4 378c0-2-3.8 6.8-3.8 9.3 0 2.4-1.4 4.3 2 5.4l4.9 1.6c1.5-2.5 2.3-4.3 2.3-5.4 0-1.6-.6-1.9.7-2.6 1.2-.7 4.1-1.9 4.1-2.5 0-.7 1-5.8-4.1-6.5-5-.8-6.1 2.7-6.1.7z" fill="#4A4A4A"/><path d="M780.4 492.4s-3 .6-1.5 1.8c1.5 1.3 4 3.1 5.3 5.6l2.5 4.3h1.7v-5a20 20 0 0 0-2.5-6.7h-5.5zM794.8 492.4s-3 .6-1.5 1.8c1.5 1.3 4 3.1 5.3 5.6l2.5 4.3h1.7v-5a20 20 0 0 0-2.5-6.7h-5.5z" fill="#000"/></g><path d="M777.6 496h39.6" stroke="#4A4A4A" stroke-width="2.7"/><path d="M582.4 384.3c1.2.1 1.9 1.2 1.9 2.1 0 1.6-1.3 2.6-3.3 2.6h-3.3c-.5 0-.7-.2-.7-.6v-7.9c0-.4.2-.6.7-.6h3c1.8 0 3.1 1 3.1 2.5 0 .8-.4 1.5-1.4 1.9zm-2-2.8h-1.3v2.2h1c1.2 0 1.7-.5 1.7-1.1 0-.7-.5-1-1.3-1zm.5 5.8c.9 0 1.3-.4 1.3-1s-.5-1.2-1.7-1.2h-1.4v2.2h1.8zm8.5 1.8c-2 0-3.8-1.2-3.8-3.5v-5c0-.5.2-.7.6-.7h.8c.5 0 .7.2.7.6v5c0 1.2.8 1.8 1.7 1.8.9 0 1.7-.6 1.7-1.7v-5c0-.5.2-.7.6-.7h.8c.4 0 .7.2.7.6v5c0 2.4-1.8 3.6-3.8 3.6zm6.3-.1c-.4 0-.6-.2-.6-.6v-7.9c0-.4.2-.6.6-.6h.8c.4 0 .6.2.6.6v6.8h3.5c.4 0 .7.2.7.6v.5c0 .4-.3.6-.7.6h-4.9zm7.4 0c-.4 0-.6-.2-.6-.6v-7.9c0-.4.2-.6.6-.6h.8c.4 0 .6.2.6.6v6.8h3.5c.4 0 .7.2.7.6v.5c0 .4-.3.6-.7.6h-4.9zm12.3-7.4H612v2.1h2.9c.4 0 .6.2.6.6v.4c0 .4-.2.6-.6.6h-3v2h3.5c.4 0 .7.2.7.6v.5c0 .4-.3.6-.7.6h-4.9c-.4 0-.6-.2-.6-.6v-7.9c0-.4.2-.6.6-.6h5c.3 0 .6.2.6.6v.5c0 .4-.3.6-.7.6zm8.4-1.7c.4 0 .6.2.6.6v.5c0 .4-.2.6-.6.6h-2.1v6.8c0 .4-.2.6-.6.6h-.8c-.4 0-.6-.2-.6-.6v-6.8h-2.1c-.4 0-.6-.2-.6-.6v-.5c0-.4.2-.6.6-.6h6.2zm2.5 9.1c-.4 0-.6-.2-.6-.6v-7.9c0-.4.2-.6.6-.6h.8c.4 0 .7.2.7.6v7.9c0 .4-.3.6-.7.6h-.8zm4.1 0c-.4 0-.6-.2-.6-.6v-7.9c0-.4.2-.6.6-.6h.5c.3 0 .6.1.8.4l3.6 5v-4.8c0-.4.2-.6.6-.6h.8c.5 0 .7.2.7.6v7.9c0 .4-.2.6-.7.6h-.4a.8.8 0 0 1-.8-.4l-3.7-5v4.8c0 .4-.2.6-.6.6h-.8zm12.8 0c-.4 0-.6-.2-.6-.6v-7.9c0-.4.2-.6.6-.6h3c2.8 0 4.7 2 4.7 4.6 0 2.5-2 4.5-4.7 4.5h-3zm1.4-1.7h1.4c1.7 0 2.8-1.2 2.8-2.9 0-1.6-1-2.8-2.8-2.8h-1.4v5.7zm13.3-5.7h-3.5v2.1h3c.3 0 .6.2.6.6v.4c0 .4-.3.6-.7.6h-3v2h3.6c.4 0 .6.2.6.6v.5c0 .4-.2.6-.6.6h-5c-.3 0-.6-.2-.6-.6v-7.9c0-.4.3-.6.7-.6h4.9c.4 0 .6.2.6.6v.5c0 .4-.2.6-.6.6zm8.3 7.5c-1.7 0-3-.7-3.4-2-.2-.3 0-.6.4-.7l.6-.1c.4-.1.5 0 .8.4.3.5.8.8 1.6.8.9 0 1.5-.4 1.5-1 0-.5-.4-.8-1-1l-1.3-.5c-1-.3-2.4-1.1-2.4-2.5 0-1.7 1.5-2.7 3.2-2.7 1.5 0 2.5.6 3 1.6.2.4 0 .7-.4.8l-.5.2c-.4 0-.6 0-.8-.4-.3-.4-.7-.6-1.2-.6-.7 0-1.2.3-1.2 1 0 .3.1.6 1 1l1.1.3c1.8.6 2.4 1.6 2.5 2.7 0 1.8-1.6 2.7-3.5 2.7zm4.7-.1c-.4 0-.6-.3-.5-.7l3-8c.2-.2.5-.4.8-.4h1c.3 0 .5.2.7.5l3 7.9c.2.4 0 .7-.4.7h-.9c-.3 0-.6-.2-.7-.5l-.5-1.2H673l-.4 1.2c-.2.3-.4.5-.7.5h-.9zm2.4-3.3h2.7l-1.3-3.7-1.4 3.7zm7.6 3.3c-.4 0-.6-.2-.6-.6v-7.9c0-.4.2-.6.6-.6h.8c.4 0 .6.2.6.6v6.8h3.5c.4 0 .7.2.7.6v.5c0 .4-.3.6-.7.6H681zm6.6 0c-.5 0-.7-.3-.5-.7l3-8c.2-.2.4-.4.8-.4h.9c.4 0 .6.2.7.5l3.1 7.9c.2.4 0 .7-.5.7h-.8c-.4 0-.6-.2-.8-.5l-.4-1.2h-3.5l-.5 1.2c-.1.3-.3.5-.7.5h-.8zm2.4-3.3h2.7l-1.4-3.7-1.3 3.7zm7.6 3.3c-.4 0-.7-.2-.7-.6v-7.9c0-.4.3-.6.7-.6h.8c.4 0 .6.2.6.6v7.9c0 .4-.2.6-.6.6h-.8zm9.6.1c-2.3 0-2.8-2.3-3-3.4H703v2.7c0 .4-.3.6-.7.6h-.8c-.4 0-.6-.2-.6-.6v-7.9c0-.4.2-.6.6-.6h3.5c2 0 3 1.4 3 3 0 1.4-.7 2.4-2 2.7.1 1 .7 1.9 1.4 1.9l.6-.1c.4-.1.5 0 .7.3l.1.2c.2.4.2.7-.2.9-.4.2-1 .3-1.5.3zm-4.1-4.8h1.8c.7 0 1.2-.6 1.2-1.3 0-.8-.5-1.4-1.2-1.4H703v2.7zm12.6-2.7H712v2.1h3c.4 0 .6.2.6.6v.4c0 .4-.2.6-.7.6h-2.9v2h3.5c.4 0 .6.2.6.6v.5c0 .4-.2.6-.6.6h-5c-.3 0-.6-.2-.6-.6v-7.9c0-.4.3-.6.7-.6h4.9c.4 0 .6.2.6.6v.5c0 .4-.2.6-.6.6zM576.8 469c-.4 0-.6-.3-.5-.7l3-8c.2-.2.4-.4.8-.4h1c.3 0 .5.2.6.5l3.1 7.9c.2.4 0 .7-.5.7h-.8c-.4 0-.6-.2-.7-.5l-.5-1.2h-3.5l-.4 1.2c-.2.3-.4.5-.8.5h-.8zm2.4-3.3h2.7l-1.3-3.7-1.4 3.7zm13-5.8c.4 0 .7.2.7.6v.5c0 .4-.3.6-.7.6h-2v6.8c0 .4-.3.6-.7.6h-.8c-.4 0-.6-.2-.6-.6v-6.8h-2c-.5 0-.7-.2-.7-.6v-.5c0-.4.2-.6.6-.6h6.2zm8 0c.4 0 .6.2.6.6v.5c0 .4-.2.6-.6.6H598v6.8c0 .4-.2.6-.6.6h-.8c-.4 0-.6-.2-.6-.6v-6.8H594c-.4 0-.6-.2-.6-.6v-.5c0-.4.2-.6.6-.6h6.2zm7.4 1.7h-3.4v2.1h2.9c.4 0 .6.2.6.6v.4c0 .4-.2.6-.6.6h-3v2h3.5c.4 0 .7.2.7.6v.5c0 .4-.3.6-.7.6h-4.9c-.4 0-.6-.2-.6-.6v-7.9c0-.4.2-.6.6-.6h5c.3 0 .6.2.6.6v.5c0 .4-.3.6-.7.6zm5.2 7.5c-1.7 0-3-.7-3.4-2-.2-.3 0-.6.5-.7l.5-.1c.4-.1.6 0 .8.4.3.5.8.8 1.6.8.9 0 1.5-.4 1.5-1 0-.5-.4-.8-1-1l-1.2-.5c-1.1-.3-2.4-1.1-2.5-2.5 0-1.7 1.5-2.7 3.3-2.7 1.4 0 2.4.6 2.9 1.6.2.4 0 .7-.4.8l-.5.2c-.4 0-.6 0-.8-.4-.3-.4-.7-.6-1.2-.6-.7 0-1.2.3-1.2 1 0 .3.1.6 1 1l1.1.3c1.8.6 2.5 1.6 2.5 2.7 0 1.8-1.5 2.7-3.5 2.7zm11-9.2c.4 0 .7.2.7.6v.5c0 .4-.3.6-.7.6h-2v6.8c0 .4-.3.6-.7.6h-.8c-.4 0-.6-.2-.6-.6v-6.8h-2c-.5 0-.7-.2-.7-.6v-.5c0-.4.2-.6.6-.6h6.2zm1.7 9.1c-.4 0-.6-.3-.5-.7l3-8c.2-.2.4-.4.8-.4h1c.3 0 .5.2.7.5l3 7.9c.2.4 0 .7-.5.7h-.8c-.4 0-.6-.2-.7-.5l-.5-1.2h-3.5l-.4 1.2c-.2.3-.4.5-.8.5h-.8zm2.4-3.3h2.7l-1.3-3.7-1.4 3.7zm13-5.8c.4 0 .7.2.7.6v.5c0 .4-.3.6-.7.6h-2v6.8c0 .4-.3.6-.7.6h-.8c-.4 0-.6-.2-.6-.6v-6.8h-2c-.5 0-.7-.2-.7-.6v-.5c0-.4.2-.6.6-.6h6.2zm2.6 9.1c-.4 0-.7-.2-.7-.6v-7.9c0-.4.3-.6.7-.6h.8c.4 0 .6.2.6.6v7.9c0 .4-.2.6-.6.6h-.8zm7.7.1a4.7 4.7 0 0 1-4.8-4.7c0-2.5 2-4.6 4.8-4.6s4.8 2 4.8 4.6c0 2.6-2 4.7-4.8 4.7zm0-1.8c1.6 0 2.7-1.2 2.7-2.9 0-1.6-1.1-2.8-2.7-2.8s-2.8 1.2-2.8 2.8c0 1.7 1.2 3 2.8 3zm7 1.7c-.5 0-.7-.2-.7-.6v-7.9c0-.4.2-.6.6-.6h.5c.3 0 .6.1.8.4l3.6 5v-4.8c0-.4.3-.6.7-.6h.8c.4 0 .6.2.6.6v7.9c0 .4-.2.6-.6.6h-.5a.8.8 0 0 1-.8-.4l-3.6-5v4.8c0 .4-.3.6-.7.6h-.8zm17.6-7.4h-3.5v2.1h3c.4 0 .6.2.6.6v.4c0 .4-.2.6-.6.6h-3v2h3.5c.4 0 .6.2.6.6v.5c0 .4-.2.6-.6.6H671c-.4 0-.6-.2-.6-.6v-7.9c0-.4.2-.6.6-.6h5c.3 0 .5.2.5.6v.5c0 .4-.2.6-.6.6zm2.6 7.4c-.4 0-.7-.2-.6-.7l.7-7.8c0-.4.3-.6.7-.6h.9c.4 0 .6.2.7.5l2.3 5.6 2.4-5.6c.1-.3.3-.5.7-.5h1c.3 0 .5.2.6.6l.7 7.8c0 .5-.2.7-.6.7h-.8c-.4 0-.6-.2-.6-.6l-.5-5-2 5c0 .3-.3.5-.7.5h-.3c-.4 0-.6-.2-.7-.5l-2-5-.5 5c0 .4-.2.6-.6.6h-.8zm15.9-9.1c2 0 3 1.4 3 3 0 1.7-1 3-3 3h-2v2.5c0 .4-.2.6-.6.6h-.8c-.4 0-.7-.2-.7-.6v-7.9c0-.4.3-.6.7-.6h3.4zm-.3 4.4c.7 0 1.2-.6 1.2-1.3 0-.8-.5-1.4-1.2-1.4h-1.7v2.7h1.7zm5.3 4.7c-.4 0-.6-.2-.6-.6v-7.9c0-.4.2-.6.6-.6h.8c.4 0 .6.2.6.6v6.8h3.5c.4 0 .6.2.6.6v.5c0 .4-.2.6-.6.6h-5zm11 .1a4.7 4.7 0 0 1-4.8-4.7c0-2.5 2-4.6 4.8-4.6 2.9 0 4.9 2 4.9 4.6 0 2.6-2 4.7-4.9 4.7zm0-1.8c1.6 0 2.8-1.2 2.8-2.9 0-1.6-1.2-2.8-2.8-2.8-1.6 0-2.7 1.2-2.7 2.8 0 1.7 1.1 3 2.7 3zm9.6 1.7c-.4 0-.6-.2-.6-.6v-3.1l-3.1-4.6c-.3-.5-.1-.8.4-.8h1c.3 0 .6.1.8.4l2 3.3 2-3.3c.1-.3.4-.4.7-.4h1c.5 0 .7.3.4.8l-3.1 4.6v3c0 .5-.2.7-.6.7h-.9zm11.7-7.4h-3.4v2.1h2.9c.4 0 .6.2.6.6v.4c0 .4-.2.6-.6.6h-3v2h3.5c.4 0 .6.2.6.6v.5c0 .4-.2.6-.6.6h-4.9c-.4 0-.6-.2-.6-.6v-7.9c0-.4.2-.6.6-.6h5c.3 0 .5.2.5.6v.5c0 .4-.2.6-.6.6zm6 7.5c-2 0-3.8-1.2-3.8-3.5v-5c0-.5.2-.7.6-.7h.8c.4 0 .7.2.7.6v5c0 1.2.7 1.8 1.7 1.8.9 0 1.7-.6 1.7-1.7v-5c0-.5.2-.7.6-.7h.8c.4 0 .6.2.6.6v5c0 2.4-1.7 3.6-3.7 3.6zm11.8 0c-2.2 0-2.8-2.3-2.9-3.4h-1.2v2.7c0 .4-.2.6-.6.6h-.8c-.4 0-.7-.2-.7-.6v-7.9c0-.4.3-.6.7-.6h3.5c2 0 3 1.4 3 3 0 1.4-.7 2.4-2 2.7 0 1 .6 1.9 1.4 1.9l.6-.1c.3-.1.5 0 .7.3v.2c.2.4.2.7-.1.9-.5.2-1 .3-1.6.3zm-4-4.8h1.7c.7 0 1.2-.6 1.2-1.3 0-.8-.5-1.4-1.2-1.4h-1.8v2.7z" fill="#1D1D1D" opacity=".6"/><circle fill="#78E08F" cx="593" cy="337" r="8"/><circle fill="#78E08F" cx="717" cy="337" r="8"/><circle fill="#E6E6E6" cx="841" cy="337" r="8"/><rect fill="#D8D8D8" x="611" y="336" width="88" height="2" rx="1"/><rect fill="#D8D8D8" opacity=".7" x="642" y="293" width="151" height="6" rx="3"/><rect fill="#D8D8D8" opacity=".7" x="678" y="305" width="80" height="6" rx="3"/><rect fill="#D8D8D8" x="735" y="336" width="88" height="2" rx="1"/></g></svg>