<?xml version="1.0" encoding="UTF-8"?>
<svg width="354px" height="293px" viewBox="0 0 354 293" version="1.1" xmlns="http://www.w3.org/2000/svg" xmlns:xlink="http://www.w3.org/1999/xlink">
    <!-- Generator: sketchtool 50.2 (55047) - http://www.bohemiancoding.com/sketch -->
    <title>8CCC1524-3041-4087-BE19-B7C72164ACCD@1x</title>
    <desc>Created with sketchtool.</desc>
    <defs>
        <linearGradient x1="122.050554%" y1="34.9582905%" x2="-34.1090097%" y2="100%" id="linearGradient-1">
            <stop stop-color="#FDFFDE" offset="0%"></stop>
            <stop stop-color="#FBD1A6" offset="100%"></stop>
        </linearGradient>
        <path d="M301.791708,125.724812 C290.919068,100.536885 301.565517,19.1176799 218.389142,2.96129199 C135.212767,-13.1950959 110.74208,43.773224 70.719626,51.949112 C30.6971718,60.125 -1.46618567e-13,124.951637 0,181.4449 C1.44196124e-13,237.938162 38.6586277,288.775017 90.7751537,273.519467 C142.89168,258.263917 227.230394,270.497371 255.74027,281.562814 C284.250146,292.628256 334.86909,307.750828 350.98384,244.597864 C367.09859,181.4449 312.664349,150.912739 301.791708,125.724812 Z" id="path-2"></path>
        <path d="M0.514994816,22.6234845 C0.89128647,28.2451972 1.0794323,31.577972 1.0794323,32.6218088 C1.0794323,34.187564 4.51985081,43.9453979 16.1274068,43.9453979 C27.7349627,43.9453979 32.9264427,37.7499039 34.6379501,34.7107988 C36.3494574,31.6716936 38.1725074,23.5112065 38.1725074,18.7262743 C38.1725074,15.5363196 38.1725074,9.33499566 38.1725074,0.122302548 L0.514994816,22.6234845 Z" id="path-4"></path>
        <path d="M0.139438537,0.0958615022 L0.139438537,29.7299933 C0.139438537,41.533844 4.69027342,48.8816083 13.7919432,51.7732864 C27.4444478,56.1108034 30.5961212,50.7133905 33.2494124,47.4357693 C35.0182733,45.2506885 37.8904307,40.3829602 41.8658848,32.8325845 L0.139438537,0.0958615022 Z" id="path-6"></path>
        <linearGradient x1="50%" y1="-91.5205033%" x2="50%" y2="50%" id="linearGradient-8">
            <stop stop-color="#F6D5E0" offset="0%"></stop>
            <stop stop-color="#E9AABE" offset="100%"></stop>
        </linearGradient>
        <linearGradient x1="34.7407678%" y1="2.71979595%" x2="58.093661%" y2="47.5442014%" id="linearGradient-9">
            <stop stop-color="#FCDCE7" offset="0%"></stop>
            <stop stop-color="#F7B7CB" offset="100%"></stop>
        </linearGradient>
        <path d="M114.181708,162.942794 C118.227304,160.424949 145.760146,157.21367 155.743609,147.202314 C165.727072,137.190958 184.31435,124.938183 188.78555,85.6193648 C193.256749,46.3005464 146.166762,6.6958248 111.544238,1.70436305 C76.9217141,-3.2870987 24.6960187,4.11953552 5.24013158,54.6912568 C-2.75382632,75.4699656 0.785351196,97.2513344 9.80467856,113.46098 C22.7368072,136.70276 45.523848,150.655363 49.7685927,152.132172 C56.9737736,154.63896 61.8626645,154.773224 65.3497569,164.985186 C68.8368493,175.197148 67.6533896,191.616846 78.1921929,191.616846 C88.7309961,191.616846 84.3800415,191.616846 91.1042441,191.616846 C97.8284468,191.616846 103.316978,191.661074 107.430608,183.085553 C111.544238,174.510032 110.136111,165.460639 114.181708,162.942794 Z" id="path-10"></path>
        <linearGradient x1="56.4818049%" y1="0%" x2="50%" y2="23.1116906%" id="linearGradient-12">
            <stop stop-color="#E6AABC" offset="0%"></stop>
            <stop stop-color="#E9AABE" offset="100%"></stop>
        </linearGradient>
        <linearGradient x1="50%" y1="0%" x2="39.1207995%" y2="50%" id="linearGradient-13">
            <stop stop-color="#FDE7EE" offset="0%"></stop>
            <stop stop-color="#FBCBD9" offset="100%"></stop>
        </linearGradient>
        <linearGradient x1="-8.32113647%" y1="17.560511%" x2="50%" y2="50%" id="linearGradient-14">
            <stop stop-color="#FDE7EE" offset="0%"></stop>
            <stop stop-color="#FBCBD9" offset="100%"></stop>
        </linearGradient>
        <linearGradient x1="47.8037576%" y1="21.3714917%" x2="43.0267369%" y2="79.849922%" id="linearGradient-15">
            <stop stop-color="#818181" offset="0%"></stop>
            <stop stop-color="#000000" offset="100%"></stop>
        </linearGradient>
        <linearGradient x1="10.6251357%" y1="0%" x2="57.2288732%" y2="7.64674833%" id="linearGradient-16">
            <stop stop-color="#6D4D58" stop-opacity="0" offset="0%"></stop>
            <stop stop-color="#E9AABE" offset="100%"></stop>
        </linearGradient>
        <linearGradient x1="-32.7889412%" y1="58.5879832%" x2="54.5094706%" y2="69.7411769%" id="linearGradient-17">
            <stop stop-color="#FDE7EE" offset="0%"></stop>
            <stop stop-color="#FBCBD9" offset="100%"></stop>
        </linearGradient>
        <path d="M1.18114367,23.3704264 C1.18114367,23.3704264 5.99488169,3.29440394 27.4605143,0.148282444 C37.0207828,-1.25292324 40.9894305,7.53264671 41.0457769,15.6826276 C41.1159449,25.8317661 35.5060427,36.2577081 31.5780996,39.4982974 C24.495932,45.3411509 16.831132,49.3505109 6.54033319,45.0410313 C-3.75046567,40.7315517 1.18114367,23.3704264 1.18114367,23.3704264 Z" id="path-18"></path>
    </defs>
    <g id="UI" stroke="none" stroke-width="1" fill="none" fill-rule="evenodd">
        <g id="welcome" transform="translate(-308.000000, -1577.000000)">
            <g id="Group-39" transform="translate(308.000000, 1577.000000)">
                <g id="Group-38">
                    <g id="Path-111">
                        <mask id="mask-3" fill="white">
                            <use xlink:href="#path-2"></use>
                        </mask>
                        <use id="Mask" fill="url(#linearGradient-1)" xlink:href="#path-2"></use>
                        <ellipse id="Oval-12" fill="#FFFFFF" opacity="0.349999994" mask="url(#mask-3)" cx="211.832952" cy="87.7486339" rx="87.0823799" ry="86.9398907"></ellipse>
                        <ellipse id="Oval-12-Copy" fill="#FFFFFF" opacity="0.554910714" mask="url(#mask-3)" cx="32.402746" cy="241.814208" rx="21.0617849" ry="21.0273224"></ellipse>
                        <g mask="url(#mask-3)">
                            <g transform="translate(197.817431, 232.128996)">
                                <mask id="mask-5" fill="white">
                                    <use xlink:href="#path-4"></use>
                                </mask>
                                <use id="Mask" stroke="none" fill="#E9AABE" fill-rule="evenodd" xlink:href="#path-4"></use>
                                <path d="M2.18881975,0 C3.76043731,14.5819166 7.1518087,24.4600791 12.3629339,29.6344874 C17.5740591,34.8088957 25.0537457,37.8843366 34.8019937,38.86081 C22.466378,47.4076322 12.3763823,48.3847489 4.5320066,41.7921599 C-7.23455697,31.9032763 -5.59226935,18.3465067 -5.59226935,15.5206519 C-5.59226935,13.6367487 -2.99857299,8.46319809 2.18881975,0 Z" id="Path-111" stroke="none" fill-opacity="0.0399999991" fill="#000000" fill-rule="evenodd" opacity="0.629129464" mask="url(#mask-5)"></path>
                            </g>
                        </g>
                        <g mask="url(#mask-3)">
                            <g transform="translate(84.551930, 218.188018)">
                                <mask id="mask-7" fill="white">
                                    <use xlink:href="#path-6"></use>
                                </mask>
                                <use id="Mask" stroke="none" fill="#E9AABE" fill-rule="evenodd" xlink:href="#path-6"></use>
                                <path d="M2.6469626,1.58589481 C4.21858016,19.4893414 7.60995155,31.6175931 12.8210768,37.9706498 C18.032202,44.3237065 25.5118886,48.0996841 35.2601366,49.2985827 C22.9245209,59.7922359 12.8345252,60.9919242 4.99014946,52.8976477 C-6.77641412,40.7562329 -5.1341265,24.1114455 -5.1341265,20.6419057 C-5.1341265,18.3288792 -2.54043013,11.9768756 2.6469626,1.58589481 Z" id="Path-111" stroke="none" fill-opacity="0.0399999991" fill="#000000" fill-rule="evenodd" opacity="0.629129464" mask="url(#mask-7)"></path>
                            </g>
                        </g>
                    </g>
                </g>
                <path d="M90.9412811,273.279372 C114.271364,267.33016 134.354579,264.766244 151.190928,265.587624 C176.445451,266.819693 220.863952,271.608969 234.63591,275.331241 C248.407868,279.053513 241.177372,282.643101 234.63591,283.821465 C228.094447,284.999829 210.748378,280.359033 201.545713,283.821465 C192.343048,287.283897 163.353033,294.7316 143.519008,291.333931 C123.684984,287.936262 105.21083,279.38882 103.037726,279.38882 C101.58899,279.38882 97.5568417,277.352337 90.9412811,273.279372 Z" id="Path-110" fill="#D8D8D8" opacity="0.604575893"></path>
                <g id="Group-36" transform="translate(165.214276, 179.059272) rotate(-2.000000) translate(-165.214276, -179.059272) translate(68.714276, 65.559272)">
                    <path d="" id="Path-100" stroke="#979797" stroke-width="0.809999957"></path>
                    <g id="Group-32" transform="translate(127.180778, 169.027322)"></g>
                    <g id="Group-31" transform="translate(13.771167, 151.234973)"></g>
                    <path d="M33.3393879,57.0242913 C28.204734,50.4974812 21.1366741,47.2340762 12.1352081,47.2340762 C-1.36699085,47.2340762 7.53427131,54.5364583 9.8347397,54.5364583 C12.1352081,54.5364583 21.97153,59.587944 24.8194276,69.4918887 C26.718026,76.0945184 29.5580127,71.9386527 33.3393879,57.0242913 Z" id="Path-106" fill="url(#linearGradient-8)"></path>
                    <g id="Group-33" transform="translate(0.000000, 34.775956)">
                        <g id="Path-107">
                            <mask id="mask-11" fill="white">
                                <use xlink:href="#path-10"></use>
                            </mask>
                            <use id="Mask" fill="url(#linearGradient-9)" xlink:href="#path-10"></use>
                            <path d="M22.0648777,23.4298583 C20.0175558,29.0420936 12.9199621,73.4234546 22.0648777,89.4482582 C31.2097933,105.473062 63.8625215,152.283811 128.280383,157.679645 C192.698244,163.075478 118.830109,201.171704 101.609822,201.171704 C84.3895345,201.171704 11.0039599,194.817068 11.0039599,192.687799 C11.0039599,190.55853 -34.6731532,77.8478484 -16.1507437,59.6353313 C2.37166583,41.4228142 24.1121997,17.817623 22.0648777,23.4298583 Z" fill="#000000" opacity="0.0159040179" mask="url(#mask-11)"></path>
                            <path d="M55.6708604,154.567089 C56.1199553,154.560313 56.4599197,154.574968 56.6907536,154.611053 C60.2743787,155.171271 64.5313957,159.959845 69.4618046,168.976776 C77.5719841,183.808999 77.4960401,182.891265 92.0440503,183.350132 C101.742724,183.656044 108.277594,179.742116 111.648661,171.60835 L111.648661,193.096909 L69.4618046,197.538678 L55.6708604,176.047032 L55.6708604,156.025038 L55.6708604,154.567089 Z" id="Path-101" fill-opacity="0.0500000007" fill="#000000" mask="url(#mask-11)"></path>
                        </g>
                    </g>
                    <ellipse id="Oval-9" fill="#4A4A4A" transform="translate(163.983779, 92.797619) rotate(-27.000000) translate(-163.983779, -92.797619) " cx="163.983779" cy="92.7976189" rx="4.8604119" ry="7.27868852"></ellipse>
                    <ellipse id="Oval-9-Copy" fill="#4A4A4A" transform="translate(122.583953, 109.340644) rotate(-27.000000) translate(-122.583953, -109.340644) " cx="122.583953" cy="109.340644" rx="5.67268794" ry="7.27868852"></ellipse>
                    <path d="M141.641769,55.5537056 C158.660594,43.6131603 171.320026,39.1366405 179.620066,42.1241462 C192.070125,46.6054047 193.147579,63.1056609 180.199138,84.2403945 C179.897256,83.991964 178.492875,85.1096952 177.77091,84.2403945 C175.648874,81.685301 175.648874,76.4278091 164.694314,71.0169698 C161.575793,69.476624 155.334679,67.6605059 145.970969,65.5686155 L141.641769,55.5537056 Z" id="Path-103" fill="url(#linearGradient-12)"></path>
                    <path d="M145.548135,65.4939805 C159.991723,46.8033783 171.833439,40.7067395 181.073285,47.2040642 C190.31313,53.7013889 189.214844,66.0699994 177.778425,84.3098958 C174.784228,78.3559455 170.666722,74.1405823 165.425906,71.6638064 C160.185089,69.1870304 153.559166,67.1304218 145.548135,65.4939805 Z" id="Path-102" fill="url(#linearGradient-13)"></path>
                    <path d="M105.603207,70.0557975 C85.2855674,66.1284438 73.0912918,68.7165799 69.0203804,77.8202058 C62.9140133,91.4756446 62.9140133,107.268251 80.7647937,125.122204 C81.5526688,125.910219 82.0162432,124.55152 82.155517,121.046107 C73.8874007,111.335228 71.451789,99.1723578 74.848682,84.5574945 C76.4326932,77.7424116 88.9515764,74.5661465 112.405332,75.0286992 L105.603207,70.0557975 Z" id="Path-105" fill="url(#linearGradient-12)"></path>
                    <path d="M112.571063,74.7913678 C89.0975311,69.0406563 75.7495933,72.4904514 72.5272499,85.1407531 C69.3049065,97.7910548 72.4331111,109.594703 81.9118636,120.551699 C81.2114917,111.194288 83.0141054,102.596126 87.3197047,94.7572148 C91.6253039,86.9183032 100.042423,80.2630208 112.571063,74.7913678 Z" id="Path-104" fill="url(#linearGradient-14)"></path>
                    <path d="M72.0533914,47.499445 L76.3772515,44.487785 C82.0808256,45.1552877 86.7811092,46.1591744 90.4781022,47.499445 C94.1750952,48.8397157 98.5269069,50.5748805 103.533537,52.7049394 L98.7876345,55.8790984 C91.9627007,53.2875398 87.3443601,51.6375406 84.9326127,50.9291005 C82.5208654,50.2206604 78.2277916,49.0774419 72.0533914,47.499445 Z" id="Path-108" fill="url(#linearGradient-15)"></path>
                    <path d="M149.423707,154.38682 C149.423707,154.38682 154.237445,134.310797 175.703077,131.164676 C185.263346,129.76347 189.231993,138.54904 189.28834,146.699021 C189.358508,156.848159 183.748606,167.274102 179.820662,170.514691 C172.738495,176.357544 165.073695,180.366904 154.782896,176.057425 C144.492097,171.747945 149.423707,154.38682 149.423707,154.38682 Z" id="Path-110-Copy" fill="url(#linearGradient-16)"></path>
                    <g id="Group-37" transform="translate(151.482838, 133.442623)">
                        <g id="Path-109">
                            <mask id="mask-19" fill="white">
                                <use xlink:href="#path-18"></use>
                            </mask>
                            <use id="Mask" fill="url(#linearGradient-17)" xlink:href="#path-18"></use>
                            <path d="M2.32261871,45.239071 C4.25206933,45.239071 22.5709411,40.9410434 27.3073825,28.3455003 C30.4650102,19.9484717 33.6063995,8.65792207 36.7315503,-5.52614839 L53.9415537,5.02700222 C53.9415537,13.6241106 53.9415537,19.6783641 53.9415537,23.1897626 C53.9415537,28.4568605 59.1824764,46.8478697 50.9362307,53.083248 C42.689985,59.3186262 57.6960321,69.3276127 35.4863862,63.6537739 C13.2767404,57.9799351 6.40144093,56.872652 5.15548573,55.731408 C3.90953053,54.5901639 0.393168085,45.239071 2.32261871,45.239071 Z" fill="#000000" opacity="0.0199999996" mask="url(#mask-19)"></path>
                        </g>
                    </g>
                    <g id="Group-34" transform="translate(174.569794, 158.109290) rotate(4.000000) translate(-174.569794, -158.109290) translate(166.874142, 152.043716)" fill="#000000">
                        <ellipse id="Oval-10" cx="2.43020595" cy="8.08743169" rx="2.43020595" ry="4.04371585"></ellipse>
                        <ellipse id="Oval-10-Copy" cx="12.9610984" cy="4.04371585" rx="2.43020595" ry="4.04371585"></ellipse>
                    </g>
                    <g id="Group-35" transform="translate(77.766590, 0.000000)">
                        <ellipse id="Oval-11-Copy" fill="#E6BB73" cx="15.7963387" cy="19.0054645" rx="11.7459954" ry="19.0054645"></ellipse>
                        <ellipse id="Oval-11" fill="#FFEFA2" cx="11.7459954" cy="19.8142077" rx="11.7459954" ry="19.0054645"></ellipse>
                    </g>
                </g>
            </g>
        </g>
    </g>
</svg>