<svg width="354" height="293" xmlns="http://www.w3.org/2000/svg" xmlns:xlink="http://www.w3.org/1999/xlink"><defs><linearGradient x1="122.1%" y1="35%" x2="-34.1%" y2="100%" id="b"><stop stop-color="#FDFFDE" offset="0%"/><stop stop-color="#FBD1A6" offset="100%"/></linearGradient><path d="M301.8 125.7c-10.9-25.2-.2-106.6-83.4-122.7-83.2-16.2-107.7 40.8-147.7 49C30.7 60 0 125 0 181.3c0 56.5 38.7 107.4 90.8 92.1 52-15.2 136.4-3 165 8 28.5 11.1 79 26.3 95.2-36.9 16.1-63.2-38.3-93.7-49.2-118.9z" id="a"/><path d="M.5 22.6l.6 10C1 34.2 4.5 44 16 44s16.8-6.2 18.5-9.2c1.7-3 3.6-11.2 3.6-16V.1L.5 22.6z" id="d"/><path d="M.1.1v29.6c0 11.8 4.6 19.2 13.7 22 13.6 4.4 16.8-1 19.4-4.3 1.8-2.1 4.7-7 8.7-14.6L0 .1z" id="f"/><linearGradient x1="50%" y1="-91.5%" x2="50%" y2="50%" id="h"><stop stop-color="#F6D5E0" offset="0%"/><stop stop-color="#E9AABE" offset="100%"/></linearGradient><linearGradient x1="34.7%" y1="2.7%" x2="58.1%" y2="47.5%" id="j"><stop stop-color="#FCDCE7" offset="0%"/><stop stop-color="#F7B7CB" offset="100%"/></linearGradient><path d="M114.2 163c4-2.6 31.6-5.8 41.5-15.8 10-10 28.6-22.3 33-61.6 4.6-39.3-42.5-78.9-77.2-83.9-34.6-5-86.8 2.4-106.3 53a70 70 0 0 0 4.6 58.8c13 23.2 35.7 37.2 40 38.6 7.2 2.5 12 2.7 15.5 12.9s2.4 26.6 12.9 26.6H91c6.7 0 12.2 0 16.3-8.5 4.1-8.6 2.7-17.6 6.8-20.2z" id="i"/><linearGradient x1="56.5%" y1="0%" x2="50%" y2="23.1%" id="l"><stop stop-color="#E6AABC" offset="0%"/><stop stop-color="#E9AABE" offset="100%"/></linearGradient><linearGradient x1="50%" y1="0%" x2="39.1%" y2="50%" id="m"><stop stop-color="#FDE7EE" offset="0%"/><stop stop-color="#FBCBD9" offset="100%"/></linearGradient><linearGradient x1="-8.3%" y1="17.6%" x2="50%" y2="50%" id="n"><stop stop-color="#FDE7EE" offset="0%"/><stop stop-color="#FBCBD9" offset="100%"/></linearGradient><linearGradient x1="47.8%" y1="21.4%" x2="43%" y2="79.8%" id="o"><stop stop-color="#818181" offset="0%"/><stop offset="100%"/></linearGradient><linearGradient x1="10.6%" y1="0%" x2="57.2%" y2="7.6%" id="p"><stop stop-color="#6D4D58" stop-opacity="0" offset="0%"/><stop stop-color="#E9AABE" offset="100%"/></linearGradient><linearGradient x1="-32.8%" y1="58.6%" x2="54.5%" y2="69.7%" id="r"><stop stop-color="#FDE7EE" offset="0%"/><stop stop-color="#FBCBD9" offset="100%"/></linearGradient><path d="M1.2 23.4S6 3.3 27.5 0C37-1.3 41 7.5 41 15.7c.1 10.1-5.5 20.6-9.4 23.8-7.1 5.8-14.8 9.9-25 5.5-10.4-4.3-5.4-21.6-5.4-21.6z" id="q"/></defs><g fill="none" fill-rule="evenodd"><g><mask id="c" fill="#fff"><use xlink:href="#a"/></mask><use fill="url(#b)" xlink:href="#a"/><ellipse fill="#FFF" opacity=".3" mask="url(#c)" cx="211.8" cy="87.7" rx="87.1" ry="86.9"/><ellipse fill="#FFF" opacity=".6" mask="url(#c)" cx="32.4" cy="241.8" rx="21.1" ry="21"/><g mask="url(#c)"><g transform="translate(197.8 232.1)"><mask id="e" fill="#fff"><use xlink:href="#d"/></mask><use fill="#E9AABE" xlink:href="#d"/><path d="M2.2 0c1.6 14.6 5 24.5 10.2 29.6A35.8 35.8 0 0 0 34.8 39c-12.3 8.5-22.4 9.5-30.3 2.9-11.7-9.9-10-23.5-10-26.3 0-1.9 2.5-7 7.7-15.5z" fill="none" opacity=".6" mask="url(#e)"/></g></g><g mask="url(#c)"><g transform="translate(84.6 218.2)"><mask id="g" fill="#fff"><use xlink:href="#f"/></mask><use fill="#E9AABE" xlink:href="#f"/><path d="M2.6 1.6c1.6 17.9 5 30 10.2 36.4a32.9 32.9 0 0 0 22.5 11.3C22.9 59.8 12.8 61 5 52.9-6.8 40.8-5.1 24.1-5.1 20.6c0-2.3 2.6-8.6 7.7-19z" fill="none" opacity=".6" mask="url(#g)"/></g></g></g><path d="M91 273.3a208 208 0 0 1 60.2-7.7c25.2 1.2 69.7 6 83.4 9.7 13.8 3.8 6.6 7.3 0 8.5-6.5 1.2-23.9-3.4-33 0-9.3 3.5-38.2 11-58 7.5-20-3.4-38.4-12-40.6-12-1.4 0-5.4-2-12-6z" fill="#D8D8D8" opacity=".6"/><g transform="rotate(-2 2008.8 -1822)"><path d="M33.3 57a25.5 25.5 0 0 0-21.2-9.8c-13.5 0-4.6 7.3-2.3 7.3s12.2 5 15 15c2 6.6 4.8 2.4 8.5-12.5z" fill="url(#h)"/><g transform="translate(0 34.8)"><mask id="k" fill="#fff"><use xlink:href="#i"/></mask><use fill="url(#j)" xlink:href="#i"/><path d="M55.7 154.6h1c3.6.6 7.8 5.4 12.8 14.4 8 14.8 8 13.9 22.5 14.4 9.7.3 16.3-3.7 19.6-11.8v21.5l-42.1 4.4L55.7 176v-21.4z" fill-opacity=".1" fill="#000" mask="url(#k)"/></g><ellipse fill="#4A4A4A" transform="rotate(-27 164 92.8)" cx="164" cy="92.8" rx="4.9" ry="7.3"/><ellipse fill="#4A4A4A" transform="rotate(-27 122.6 109.3)" cx="122.6" cy="109.3" rx="5.7" ry="7.3"/><path d="M141.6 55.6c17-12 29.7-16.5 38-13.5 12.5 4.5 13.5 21 .6 42.1-.3-.2-1.7 1-2.4 0-2.2-2.5-2.2-7.8-13.1-13.2a98.7 98.7 0 0 0-18.7-5.4l-4.4-10z" fill="url(#l)"/><path d="M145.5 65.5c14.5-18.7 26.3-24.8 35.6-18.3 9.2 6.5 8.1 18.9-3.3 37.1-3-6-7.1-10.2-12.4-12.6a88.6 88.6 0 0 0-19.9-6.2z" fill="url(#m)"/><path d="M105.6 70c-20.3-3.9-32.5-1.3-36.6 7.8-6 13.7-6 29.5 11.8 47.3.8.8 1.2-.5 1.4-4-8.3-9.8-10.7-22-7.4-36.5 1.6-6.9 14.2-10 37.6-9.6l-6.8-5z" fill="url(#l)"/><path d="M112.6 74.8C89 69 75.7 72.5 72.6 85a37.5 37.5 0 0 0 9.3 35.5c-.7-9.4 1.1-18 5.4-25.8a50.3 50.3 0 0 1 25.3-20z" fill="url(#n)"/><path d="M72 47.5l4.4-3a64 64 0 0 1 14 3c3.8 1.3 8.1 3 13.1 5.2l-4.7 3.2c-6.8-2.6-11.5-4.3-13.9-5a441 441 0 0 0-12.8-3.4z" fill="url(#o)"/><path d="M149.4 154.4s4.8-20 26.3-23.2c9.6-1.4 13.5 7.3 13.6 15.5 0 10.1-5.6 20.6-9.5 23.8-7 5.9-14.7 9.9-25 5.6-10.3-4.4-5.4-21.7-5.4-21.7z" fill="url(#p)"/><g transform="translate(151.5 133.4)"><mask id="s" fill="#fff"><use xlink:href="#q"/></mask><use fill="url(#r)" xlink:href="#q"/></g><g transform="rotate(4 -2085.8 2471.4)" fill="#000"><ellipse cx="2.4" cy="8.1" rx="2.4" ry="4"/><ellipse cx="13" cy="4" rx="2.4" ry="4"/></g><g transform="translate(77.8)"><ellipse fill="#E6BB73" cx="15.8" cy="19" rx="11.7" ry="19"/><ellipse fill="#FFEFA2" cx="11.7" cy="19.8" rx="11.7" ry="19"/></g></g></g></svg>