<svg width="344" height="270" xmlns="http://www.w3.org/2000/svg" xmlns:xlink="http://www.w3.org/1999/xlink"><defs><linearGradient x1="157.2%" y1="126%" x2="-15.7%" y2="55.9%" id="a"><stop stop-color="#C4FFDC" offset="0%"/><stop stop-color="#FFF8C4" offset="100%"/></linearGradient><linearGradient x1="53.5%" y1="42.5%" x2="47%" y2="10.6%" id="c"><stop stop-color="#FFF" offset="0%"/><stop stop-color="#ECECEC" offset="100%"/></linearGradient><path d="M194.5 1.2L5.3 73.8a7.8 7.8 0 0 0 .9 14.8l46.5 12.2 17.2 56a3.9 3.9 0 0 0 7.6-.8l2.8-41.5 77.8 55.8a7.8 7.8 0 0 0 12.1-4.7L205 10.2a7.8 7.8 0 0 0-10.4-9z" id="b"/><linearGradient x1="16.9%" y1="100%" x2="-78.7%" y2="16.9%" id="d"><stop stop-color="#FFF" offset="0%"/><stop stop-color="#B9B9B9" offset="100%"/></linearGradient><linearGradient x1="53.5%" y1="42.5%" x2="19.6%" y2="16%" id="g"><stop stop-color="#FFF" offset="0%"/><stop stop-color="#ECECEC" offset="100%"/></linearGradient><path d="M84 .5L2.4 31.7a3.4 3.4 0 0 0 .3 6.4l20 5.3 7.5 24.1a1.7 1.7 0 0 0 3.3-.4l1.2-17.8 33.6 24a3.4 3.4 0 0 0 5.2-2l15-66.9A3.4 3.4 0 0 0 84 .5z" id="f"/><path d="M58.5.4l-57 22a2.3 2.3 0 0 0 .3 4.4l14 3.7 5.2 17a1.2 1.2 0 0 0 2.3-.3l.9-12.6 23.4 16.9a2.3 2.3 0 0 0 3.6-1.4L61.7 3A2.3 2.3 0 0 0 58.5.4z" id="i"/></defs><g fill="none" fill-rule="evenodd"><path d="M314 113C278.3 74 288.1 16.3 210.5 2c-77.5-14.3-70.3 52-124.3 65.2-54 13-79.3 43.3-79.3 93.5s22.2 108.7 83.3 108.7c61.1 0 63.2-24.8 91.7-26.6 28.5-1.8 35.4 4 62 13.8 26.5 9.8 75-2.6 90.3-39.7 15.4-37.1 15.2-65-20.4-104z" fill="url(#a)"/><path d="M228.8 128.9l-86.6 45.5a7.8 7.8 0 0 0 1.8 14.5l29.4 6.8 28.6 20.2a7.8 7.8 0 0 0 11.9-3.8l26-73.7a7.8 7.8 0 0 0-11-9.5zM60.9 172.4L34.4 181a7.7 7.7 0 0 0 1.2 15l16.7 7.2c4.4 2 9.5.2 11.9-4l7.6-13.4a9.3 9.3 0 0 0-11-13.4zM118.5 247.1l-26 5.3a4 4 0 0 0 .4 8l15.7 4.3c2.8.8 5.9-.1 7.9-2.3l6.6-7.3a4.8 4.8 0 0 0-4.6-8z" fill="#4A4A4A" opacity=".1"/><path fill="#CDCDCD" d="M174 170l31.2-27-31.1-22.4z"/><g transform="translate(98 11)"><mask id="e" fill="#fff"><use xlink:href="#b"/></mask><use fill="url(#c)" xlink:href="#b"/><path d="M52.8 101l108.4-65.8a2 2 0 0 1 2.4 3.2l-83.1 75.9-2.9 46.7c-.8 1.5-2.2 2.1-4.3 1.9-4.3-.6-11.1-21.2-20.5-62z" fill="url(#d)" mask="url(#e)"/></g><path fill="#CDCDCD" d="M32.9 177.4l13.4-11.6L33 156z"/><g transform="translate(0 109)"><mask id="h" fill="#fff"><use xlink:href="#f"/></mask><use fill="url(#g)" xlink:href="#f"/><path d="M22.8 43.4l46.8-28.2a.9.9 0 0 1 1 1.3L34.9 49.2l-1.3 20c-.3.7-1 1-1.8.9-1.9-.3-4.8-9.1-8.9-26.7z" fill="url(#d)" mask="url(#h)"/></g><g><path fill="#CDCDCD" d="M95.9 253l9.4-8.1-9.4-6.8z"/><g transform="translate(73 205)"><mask id="j" fill="#fff"><use xlink:href="#i"/></mask><use fill="url(#c)" xlink:href="#i"/><path d="M15.9 30.5l32.6-19.9a.6.6 0 0 1 .8 1l-25 23-1 14c-.2.5-.6.7-1.2.6-1.3-.1-3.4-6.4-6.2-18.7z" fill="url(#d)" mask="url(#j)"/></g></g></g></svg>