<svg width="350" height="256" xmlns="http://www.w3.org/2000/svg" xmlns:xlink="http://www.w3.org/1999/xlink"><defs><linearGradient x1="0%" y1="138.9%" x2="105%" y2="-20.7%" id="b"><stop stop-color="#C4FFDC" offset="0%"/><stop stop-color="#94C5E9" offset="100%"/></linearGradient><path d="M301.4 73.6c0-31-24-59.7-75.2-71.6C175-10 177 45.5 112.2 45.5 47.6 45.5.6 78.8.6 134.7c0 55.9 19.6 142.2 83.7 116.6 64.1-25.6 140.5-28.5 168.6-17.6 28.1 11 78 26 94-36.5 15.9-62.5-45.4-92.6-45.4-123.6z" id="a"/><path d="M38.6 94c18.4-4.5 22.5-5 29.5-11.3 7-6.3 13-35.6 0-62.7A31.8 31.8 0 0 0 20.2 6.1C11.5 12.8 3 20.7 3 33.8c0 4.4 2 9.9 2 15.6-.1 11.2-6 23.2-4.2 26 .5 1 5.8 4.1 7.6 7.3 3 5 2.8 10.8 4.2 15.2 2.4 7.2 16.8-1.7 26-4z" id="d"/><path d="M53.6 11.4a51 51 0 0 1-5.4 23.4c-4.6 7.6-10 12.6-21.2 12.6-7.4 0-16.2 11.7-26.5 35h127.7c0-11-2.4-18.8-7-23.4-7-6.8-24.3-11.6-31.5-11.6-7.1 0-11.9-34.5-6-44 4-6.4-6-3.7-30.1 8z" id="f"/><path d="M38.8.2C31 .2 9.2 6 4.2 17c-5.1 11.2-6 34.5 5 43.8-3-9.7 9-11.4 13.7-16 4.6-4.7 5.3 4.7 14.6 4.7 9.4 0 9.4-10.2 16.6-4.8 4 3.1-3.3 18.3-2.8 30.8a55 55 0 0 0 8.6 28c8.4 13 11.3 25.1 8.5 36 3.8-7.8 6-13.1 6.7-16 .9-4.2-2.9-18.3 0-28.5 2.8-10.2 3.4-21.4 5.8-34.2 1.6-8.2 8.7-28.6-2.7-43.8C71.9 8.7 60.7.2 38.8.2z" id="h"/><path d="M38.6 97.9C57 93.3 61 92.7 68 86.2c7-6.6 13-37.2 0-65.3A31.1 31.1 0 0 0 20.2 6.3C11.5 13.3 3 21.6 3 35.2c0 4.6 2 10.3 2 16.3C4.8 63.1-.6 71.2.7 74.6c.8 2.4 4 3.5 7.7 8.4 3.7 5 7.3 17.6 11.7 17.6 5.8 0 9.2-.4 18.4-2.7z" id="j"/><path d="M53.6 11.8c-.5 11-2.3 19-5.4 24.3-4.7 7.8-10 13-21.2 13-7.4 0-16.3 12.1-26.6 36.3 20.9 5 36.8 7.5 47.8 7.5s37.6-2.5 80-7.5c0-11.5-2.3-19.6-7-24.3-6.9-7-24.3-12-31.4-12-7.2 0-12-35.7-6-45.6 4-6.6-6.1-3.8-30.2 8.3z" id="l"/><path d="M38.6.2C31 .2 9.1 6.1 4.1 17.7s-6 35.8 5 45.6c-3-10.1 9-11.9 13.7-16.7 4.6-5 5.2 5 14.6 5 9.3 0 13.2 14 13.7 27 .4 10-3 10.8-5.7 19.4-2.8 8.6 32.4-6.9 35.2-34.7.8-8.8 8.6-29.8-2.8-45.6C71.6 9 60.5.2 38.6.2z" id="n"/><path d="M9.2 11.4C-1.2 24.6-.2 45.5 2.9 58 6 70.4 18.4 96.8 26.2 103.8c7.8 7 13.8 10.6 17.6 10.6 3.9 0 13.3-5.5 17.7-10.6 4.3-5.2 18.2-28.5 18.2-42.2 0-13.7 2.1-41.2-3.5-50.2C70.7 2.4 51.5.2 43.2.2c-8.4 0-25.3 0-34 11.2z" id="p"/></defs><g fill="none" fill-rule="evenodd"><g><mask id="c" fill="#fff"><use xlink:href="#a"/></mask><use fill="url(#b)" transform="matrix(-1 0 0 1 350 0)" xlink:href="#a"/><ellipse fill="#FFF" opacity=".1" mask="url(#c)" cx="240.9" cy="78.8" rx="70.7" ry="70.8"/><ellipse fill="#FFF" opacity=".1" mask="url(#c)" cx="34" cy="214" rx="33.2" ry="33.2"/><g mask="url(#c)"><g transform="translate(56 92)"><mask id="e" fill="#fff"><use xlink:href="#d"/></mask><use fill="#FFCEBD" xlink:href="#d"/><path d="M2 76.7c5.4 2.2 8 3.4 8 3.6 0 .4.6.8-3.7.8C3.4 81 2 79.6 2 76.7z" fill="#F0C1B1" mask="url(#e)"/></g><g transform="translate(41.6 164)"><mask id="g" fill="#fff"><use xlink:href="#f"/></mask><use fill="#FFCEBD" xlink:href="#f"/><path d="M30 46.9c9.8 5.6 27.4 14.6 29.7 12.8 2.3-1.8 3.3-43.8 1.6-43.8-1.1 0-4.7 2-10.5 6.1C30.4 34.9 23.5 43.1 30 46.9z" fill="#000" opacity=".1" mask="url(#g)"/><path d="M31.6 46.4c3.2 0 17.8 11.5 30 11.5a28 28 0 0 0 21.3-10l7.3-5.5c37 8 56 12.7 57 13.8 1.3 1.7 1.6 26.5 1.6 28 0 1-52 1-155.8 0L4.4 64.9l15.3-18.5h11.9z" fill="#437EC4" mask="url(#g)"/></g><path d="M147.2 189.8a30.1 30.1 0 0 1-20.4-19.9c-5.3-15-11 3.8-6.5 10.4 2.9 4.5 11.9 7.6 26.9 9.5z" fill="#000"/><g transform="translate(57.5 88)"><mask id="i" fill="#fff"><use xlink:href="#h"/></mask><use fill="#A65342" xlink:href="#h"/><path d="M32-11.7c25.5 11 36.8 24.4 34 39.9-2.6 15.5.2 38.9 8.5 70a1533 1533 0 0 0 20.3-57.4c0-1.9-5.7-19.3-17.2-52.5H32z" fill="#000" opacity=".1" mask="url(#i)"/></g></g><g mask="url(#c)"><g transform="matrix(-1 0 0 1 308.2 94)"><mask id="k" fill="#fff"><use xlink:href="#j"/></mask><use fill="#FFCEBD" xlink:href="#j"/><path d="M2 76.9c6 2 8.9 3 8.9 3.3 0 .4-.3.8-4.6.8C3.5 81 2 79.6 2 76.9z" fill="#F0C1B1" mask="url(#k)"/></g><g transform="matrix(-1 0 0 1 322.8 169.9)"><mask id="m" fill="#fff"><use xlink:href="#l"/></mask><use fill="#FFCEBD" xlink:href="#l"/><path d="M28.3 50C26.6 53.1 44.7 78.2 47 76.3c2.3-1.8 16.1-60 14.4-60-1.2 0-4.7 2.2-10.5 6.4a341 341 0 0 0-22.5 27.1z" fill="#000" opacity=".1" mask="url(#m)"/><path d="M28.6 48c3.2 0 18.5 28.4 30.7 28.4 8.1 0 21.9-8.8 41.2-26.5 30.3 4.4 45.8 7.1 46.7 8.3 1.3 1.8-14.9 32-14.9 33.4 0 .8-15.4 10.7-73 10.4-13.2-.1-35.3-5-66.4-14.8l11.5-20 10.5-15.6a58 58 0 0 1 13.7-3.5z" fill="#E57AA3" mask="url(#m)"/><path d="M87.1 47.4c-9 17.8-18.2 27-27.4 27.6-9.3.5-17.2-8.7-23.7-27.6" stroke="#FFF" stroke-width=".8" stroke-linecap="round" mask="url(#m)"/></g><g transform="matrix(-1 0 0 1 307.1 90.4)"><mask id="o" fill="#fff"><use xlink:href="#n"/></mask><use fill="#F4E884" xlink:href="#n"/></g></g><g mask="url(#c)"><path d="M150.6 207.2c-21.6 2.2-35 5-40.2 8.7-5.1 3.6-9.7 11-13.7 22.5l156.4 8.4c-2.3-16.8-7.3-27-15-31-7.6-3.8-20.8-5.7-39.4-5.7l-48.1-2.9z" fill="#4A4A4A"/><path d="M168.2 195.2h-18.8s5.4 12.3 12.1 16.1a35.4 35.4 0 0 0 17.9 5.5c3.7 0 9.9-1.8 18.5-5.5l6.7-16.1h-36.4z" fill="#FFF"/><path d="M165.3 186.4c-1.6 11-4.2 18.5-7.8 22.4-5.3 5.8 13.7 10.4 19.1 10.4 5.5 0 18.4-3.4 18.4-7 0-3.4-9.1-19-9.1-25.8h-20.6z" fill="#FFCEBD"/><g transform="translate(132.7 81.4)"><mask id="q" fill="#fff"><use xlink:href="#p"/></mask><use fill="#FFCEBD" xlink:href="#p"/><path d="M74.9 46.3C73.7 53 73.2 58.8 73.2 63c0 6.5-9.5 16.6-15.2 18.4a68.9 68.9 0 0 1-30 0C21.2 78.9 6.2 60 6.2 53.7c0-4.3-2.2-6-6.4-5.3l-2.3 52.8 40.8 23.4s-.4 2.6 24.7-5.6c25.1-8.2 29.2.6 31.8-17.8 2.5-18.5-6.9-14-2.2-27.4 4.8-13.3-3-21-6-22.9-1.9-1.2-5.8-2.7-11.7-4.6z" fill="#4A4A4A" mask="url(#q)"/></g><path d="M193.3 100.6c-8.8 7.7-16 11.5-21.5 11.5-8.4 0-11.6-6.6-21.4 5.4-9.7 12-7.6 31.6-12.5 26-5-5.5-9.2-30.4-9.2-38 0-7.6 7.5-29.9 24.1-36.4s20-5.9 25.9-5.9c5.9 0 30.9 2 35.7 23.7 4.8 21.6 3.8 44-3.2 49.3-7 5.4-5-2.1-6-5.2s-12-4-12-15.5v-14.9z" fill="#5E5E5E"/><path d="M180.7 152l-4.5 2.8a.8.8 0 0 0 .4 1.5h6.3a.8.8 0 0 0 .7-1.2l-1.8-2.9a.8.8 0 0 0-1.1-.2z" fill="#000" opacity=".2"/><path d="M166 216.3l-16.6-21.1 3 14c.2.8.7 1.5 1.4 2l6 3.6c4.7 2.3 7 2.3 6.3 1.5zM188 218l16.6-22.8-3 14.7c-.2.9-.7 1.6-1.4 2l-4.6 3c-5.8 3.2-8.4 4-7.7 3.1z" fill="#EFEFEF"/></g></g></g></svg>