<?xml version="1.0" encoding="UTF-8"?>
<svg width="366px" height="273px" viewBox="0 0 366 273" version="1.1" xmlns="http://www.w3.org/2000/svg" xmlns:xlink="http://www.w3.org/1999/xlink">
    <!-- Generator: Sketch 53.2 (72643) - https://sketchapp.com -->
    <title>Group 46</title>
    <desc>Created with Sketch.</desc>
    <defs>
        <linearGradient x1="0%" y1="97.4813681%" x2="104.975665%" y2="12.2572063%" id="linearGradient-1">
            <stop stop-color="#C4FFDC" offset="0%"></stop>
            <stop stop-color="#94C5E9" offset="100%"></stop>
        </linearGradient>
        <path d="M315.187404,76.7820557 C315.187404,44.5054321 290.055292,14.4581543 236.515422,2.07290039 C182.975551,-10.3123535 185.157139,47.4583374 117.413966,47.4583374 C49.6707935,47.4583374 0.572029085,82.186781 0.572029085,140.470508 C0.572029085,198.754234 21.0343481,288.848513 88.0712894,262.128162 C155.108231,235.407812 234.968771,232.345356 264.377786,243.7615 C293.786801,255.177644 346.002155,270.779502 362.625129,205.625005 C379.248103,140.470508 315.187404,109.058679 315.187404,76.7820557 Z" id="path-2"></path>
        <path d="M40.5541746,98.4370489 C59.8745425,93.7982394 64.1949802,93.264634 71.5554609,86.6443698 C78.9159417,80.0241056 85.2159839,49.3026647 71.5554609,21.0002349 C57.894938,-7.30219494 30.4075838,-0.621455469 21.2338067,6.39011934 C12.0600297,13.4016941 3.18042153,21.7373754 3.18042153,35.406691 C3.18042153,40.0633199 5.20676144,45.7594699 5.17880279,51.8017166 C5.12469013,63.4962015 -1.11816332,76.0704188 0.82081163,79.0867388 C1.39447774,79.9791488 6.92872637,83.3181712 8.87320023,86.6443698 C11.8908605,91.806351 11.7342509,97.9339627 13.2545878,102.538696 C15.7545762,110.110556 30.8516188,100.766627 40.5541746,98.4370489 Z" id="path-4"></path>
        <path d="M51.0373973,11.9343071 C50.4920389,23.034513 48.5999551,31.218826 45.3611457,36.4872463 C40.5029317,44.3898768 34.7981025,49.6964913 23.141961,49.6964913 C15.3712001,49.6964913 7.88072914,60.3629644 0.670548241,81.6959105 C8.4504066,96.3591866 14.6332118,105.801406 19.2189639,110.022569 C22.9066252,113.417043 38.2395109,121.478936 55.1734272,119.828543 C78.7792538,117.527901 86.2656958,113.773781 101.948975,107.825918 C106.291085,106.179178 116.660008,104.798194 133.055746,103.682964 C130.566926,80.5634468 126.89698,66.6117728 122.045911,61.8279422 C114.769306,54.6521962 96.5188538,49.6964913 88.9993387,49.6964913 C81.4798237,49.6964913 76.5108709,13.549208 82.7551048,3.53395771 C86.9179274,-3.14287581 76.3453583,-0.342759353 51.0373973,11.9343071 Z" id="path-6"></path>
        <path d="M40.746262,0.231480344 C32.709883,0.231480344 9.68152882,6.13511943 4.3684798,17.8133028 C-0.944569222,29.4914862 -1.89508938,53.9001982 9.68152882,63.7167454 C6.5143239,53.5458552 19.1876272,51.7750305 24.0568012,46.8729891 C28.9259752,41.9709477 29.5949262,51.8658421 39.4355001,51.8658421 C49.2760739,51.8658421 49.2760739,41.1750114 56.7905635,46.8729891 C61.0268805,50.0852419 53.4066726,66.0246491 53.897754,79.1395685 C54.2777656,89.2882349 57.1082806,99.3144118 62.9025875,108.339924 C71.7573703,122.132591 74.7503132,134.737289 71.8814161,146.154018 C75.8646337,137.986917 78.1847398,132.41477 78.8417345,129.437576 C79.8272267,124.971786 75.8615063,110.206869 78.8417345,99.5413265 C81.8219628,88.8757844 82.4330867,77.0963093 84.9797633,63.7167454 C86.6266138,55.0646297 94.0719138,33.7003226 82.089644,17.8133028 C75.5426257,9.1327598 63.7881491,0.231480344 40.746262,0.231480344 Z" id="path-8"></path>
        <path d="M48.154294,122.431572 C71.095426,116.661761 76.2255421,115.998056 84.9654254,107.763687 C93.7053088,99.5293172 101.18602,61.3175949 84.9654254,26.1146697 C68.7448305,-9.08825546 36.1061652,-0.778666029 25.2131619,7.94242064 C14.3201587,16.6635073 3.77645347,27.0315345 3.77645347,44.0336047 C3.77645347,49.8255794 6.18254282,56.9105238 6.14934453,64.4259478 C6.0850908,78.971698 -0.624484262,89.0086827 0.974637134,93.3599667 C2.05230929,96.292363 5.96805341,97.6478418 10.608719,103.841012 C15.2493845,110.034183 19.7682182,125.886938 25.2131619,125.886938 C32.4549823,125.886938 36.6334153,125.329131 48.154294,122.431572 Z" id="path-10"></path>
        <path d="M47.2987723,14.782222 C46.6504298,28.4987966 44.4010494,38.6121894 40.5506311,45.1224002 C34.7750036,54.8877164 25.5048143,61.4451241 14.135629,61.4451241 C6.55617218,61.4451241 2.10355922,64.0645704 0.777790145,69.303463 C10.1281268,91.8520903 17.0957892,105.428184 21.6807774,110.031744 C31.9965873,120.389338 42.5117028,125.188919 55.3741071,125.188919 C69.0676098,125.188919 97.3672591,117.697412 140.273055,102.714399 C140.335727,91.106876 137.483496,82.347414 131.716362,76.4360128 C123.065662,67.568911 101.368838,61.4451241 92.4293554,61.4451241 C83.4898732,61.4451241 77.5825954,16.7777623 85.0059754,4.40187222 C89.9548954,-3.84872119 77.3858277,-0.388604613 47.2987723,14.782222 Z" id="path-12"></path>
        <path d="M48.1794922,0.283262333 C38.6645707,0.283262333 11.3994324,7.61831126 5.10888223,22.1280137 C-1.1816679,36.6377161 -2.3070659,66.9646202 11.3994324,79.16131 C7.6495213,66.5243624 22.654474,64.3241796 28.4194845,58.233578 C34.184495,52.1429764 34.9765204,64.4370095 46.6275748,64.4370095 C58.2786291,64.4370095 63.1691804,82.0287933 63.7506115,98.323586 C64.200538,110.932921 60.0633405,111.855429 56.6383085,122.629578 C53.2132765,133.403726 97.1292791,114.009153 100.551126,79.16131 C101.624097,68.2342483 111.316061,41.8670366 97.1292791,22.1280137 C89.3777326,11.3427664 75.4606533,0.283262333 48.1794922,0.283262333 Z" id="path-14"></path>
        <path d="M10.5977512,14.2719114 C-2.35563028,30.8245256 -1.12101089,56.9518471 2.78524312,72.5081922 C6.69149714,88.0645373 22.1924166,121.106054 31.9141282,129.850069 C41.6358399,138.594084 49.18544,143.118116 53.9701619,143.118116 C58.7548838,143.118116 70.5661556,136.286435 76.0261956,129.850069 C81.4862357,123.413703 98.793002,94.1939201 98.793002,77.0502221 C98.793002,59.906524 101.460616,25.5591199 94.5207197,14.2719114 C87.5808231,2.9847029 63.5547256,0.25862773 53.0951009,0.25862773 C42.6354762,0.25862773 21.563959,0.25862773 10.5977512,14.2719114 Z" id="path-16"></path>
    </defs>
    <g id="LAST-UI" stroke="none" stroke-width="1" fill="none" fill-rule="evenodd">
        <g id="HP_v2" transform="translate(-1115.000000, -770.000000)">
            <g id="Group-46" transform="translate(1115.000000, 770.000000)">
                <g id="Group-28-Copy" transform="translate(0.000000, 6.000000)">
                    <g id="Group-25-+-Group-27-+-Path-82-+-Path-94-+-Group-24-Mask">
                        <mask id="mask-3" fill="white">
                            <use xlink:href="#path-2"></use>
                        </mask>
                        <use id="Mask" fill="url(#linearGradient-1)" transform="translate(182.975551, 133.647706) scale(-1, 1) translate(-182.975551, -133.647706) " xlink:href="#path-2"></use>
                        <ellipse id="Oval-8" fill="#FFFFFF" opacity="0.0946986607" mask="url(#mask-3)" cx="251.938356" cy="82.1859375" rx="73.9520548" ry="73.8421875"></ellipse>
                        <ellipse id="Oval-8-Copy" fill="#FFFFFF" opacity="0.100892857" mask="url(#mask-3)" cx="35.5136986" cy="223.195312" rx="34.6780822" ry="34.6265625"></ellipse>
                    </g>
                </g>
                <g id="Group-25-Copy-2" transform="translate(5.000000, 61.000000)">
                    <g id="Group-26" transform="translate(9.855666, 4.190456)">
                        <g id="Path-96">
                            <mask id="mask-5" fill="white">
                                <use xlink:href="#path-4"></use>
                            </mask>
                            <use id="Mask" fill="#FFCEBD" xlink:href="#path-4"></use>
                            <path d="M2.14658336,80.3176114 C7.77190489,82.6285371 10.5845657,83.9040889 10.5845657,84.1442667 C10.5845657,84.5045334 11.0975735,84.9455276 6.58687176,84.9455276 C3.5797373,84.9455276 2.09964116,83.4028889 2.14658336,80.3176114 Z" fill="#F0C1B1" mask="url(#mask-5)"></path>
                        </g>
                    </g>
                    <g id="Path-81" transform="translate(0.000000, 79.618656)">
                        <mask id="mask-7" fill="white">
                            <use xlink:href="#path-6"></use>
                        </mask>
                        <use id="Mask" fill="#FFCEBD" xlink:href="#path-6"></use>
                        <path d="M26.2721155,49.1029884 C36.5708147,54.9574518 55.0873974,64.4257484 57.47721,62.5360279 C59.8670226,60.6463073 60.9502972,16.6554753 59.1356114,16.6554753 C57.9258208,16.6554753 54.244652,18.787789 48.092105,23.0524165 C26.6796458,36.5164888 19.4063159,45.2000128 26.2721155,49.1029884 Z" fill="#000000" opacity="0.0600000024" mask="url(#mask-7)"></path>
                        <path d="M27.9214767,48.6249634 C31.2678598,48.6249634 46.6362553,60.6704772 59.4521132,60.6704772 C67.9960185,60.6704772 75.4378962,57.2007676 81.7777461,50.2613486 L89.4431105,44.390772 C128.400073,52.8543806 148.344247,57.6835669 149.275634,58.878331 C150.672714,60.6704772 151.016584,141.893496 151.016584,143.416193 C151.016584,144.431325 96.4596146,144.431325 -12.6543244,143.416193 L-0.597273005,67.9688625 L15.4203318,48.6249634 C21.5235063,48.6249634 25.6905546,48.6249634 27.9214767,48.6249634 Z" id="Path-85" fill="#437EC4" mask="url(#mask-7)"></path>
                    </g>
                    <path d="M79.4994961,77.1244811 C81.5242029,88.0095336 87.5587417,95.9152209 97.6031124,100.841543 C112.669669,108.231026 92.2898559,111.724216 85.8966018,106.281412 C81.6344324,102.652875 79.5020638,92.9338984 79.4994961,77.1244811 Z" id="Path-84" fill="#000000" transform="translate(91.267425, 93.028451) scale(-1, 1) rotate(-97.000000) translate(-91.267425, -93.028451) "></path>
                    <g id="Path-83" transform="translate(11.534247, 0.000000)">
                        <mask id="mask-9" fill="white">
                            <use xlink:href="#path-8"></use>
                        </mask>
                        <use id="Mask" fill="#A65342" xlink:href="#path-8"></use>
                        <path d="M33.6821629,-12.2257234 C60.3660736,-0.646957885 72.278064,13.2745074 69.4181342,29.5386726 C66.5582043,45.8028377 69.4991174,70.2686969 78.2408733,102.93625 C92.4706191,63.7598785 99.585492,43.6814621 99.585492,42.7010011 C99.585492,40.7969268 93.5511835,22.4880187 81.4825665,-12.2257234 L33.6821629,-12.2257234 Z" id="Path-80" fill="#000000" opacity="0.124553571" mask="url(#mask-9)"></path>
                    </g>
                </g>
                <g id="Group-27-Copy" transform="translate(215.000000, 47.000000)">
                    <g id="Group-25-Copy" transform="translate(71.500000, 113.000000) scale(-1, 1) translate(-71.500000, -113.000000) ">
                        <g id="Group-26" transform="translate(0.170967, 4.530894)">
                            <g id="Path-96">
                                <mask id="mask-11" fill="white">
                                    <use xlink:href="#path-10"></use>
                                </mask>
                                <use id="Mask" fill="#FFCEBD" xlink:href="#path-10"></use>
                                <path d="M2.53521772,96.1496867 C9.88086044,98.6370466 13.5536818,100.030095 13.5536818,100.328831 C13.5536818,100.776935 13.2401484,101.285915 7.88411151,101.285915 C4.31342025,101.285915 2.53045565,99.5738391 2.53521772,96.1496867 Z" fill="#F0C1B1" mask="url(#mask-11)"></path>
                            </g>
                        </g>
                        <g id="Path-81" transform="translate(1.438427, 99.401707)">
                            <mask id="mask-13" fill="white">
                                <use xlink:href="#path-12"></use>
                            </mask>
                            <use id="Mask" fill="#FFCEBD" xlink:href="#path-12"></use>
                            <path d="M15.7844433,62.4251955 C13.667421,66.4866562 36.1583938,97.9278942 38.9994929,95.592758 C41.840592,93.2576217 59.0836004,20.6161909 56.9262336,20.6161909 C55.4879892,20.6161909 51.1116773,23.2511006 43.7972981,28.5209201 C26.5334097,48.4161299 17.1957914,59.717555 15.7844433,62.4251955 Z" fill="#000000" opacity="0.0600000024" mask="url(#mask-13)"></path>
                            <path d="M16.0785331,60.1210321 C20.0568392,60.1210321 39.191027,95.6005012 54.4270007,95.6005012 C64.5843165,95.6005012 81.7399119,84.5601335 105.893787,62.479398 C143.582716,67.8775339 162.980814,71.3147895 164.088081,72.7911649 C165.748982,75.005728 145.546156,112.750631 145.546156,114.632235 C145.546156,115.565812 126.277305,127.995584 54.4270007,127.539551 C37.9659598,127.435073 10.3501793,121.263571 -28.4203407,109.025046 L-14.0864648,84.0243759 L-1.0158378,64.547946 C7.72820543,61.5966701 13.4263291,60.1210321 16.0785331,60.1210321 Z" id="Path-85" fill="#E57AA3" mask="url(#mask-13)"></path>
                            <path d="M89.1184557,59.3395192 C77.874031,81.604986 66.466282,93.0795275 54.8952088,93.7631439 C43.3241355,94.4467603 33.4622162,82.9722187 25.3094509,59.3395192" id="Path-79" stroke="#FFFFFF" stroke-width="0.600000024" stroke-linecap="round" mask="url(#mask-13)"></path>
                        </g>
                        <g id="Path-83" transform="translate(1.445003, 0.000000)">
                            <mask id="mask-15" fill="white">
                                <use xlink:href="#path-14"></use>
                            </mask>
                            <use id="Mask" fill="#F4E884" xlink:href="#path-14"></use>
                            <path d="M69.3770147,-21.7719592 C86.1118741,7.00715599 92.7517164,31.9270761 89.2965415,52.987801 C85.8413666,74.048526 70.4201057,93.3836158 43.0327589,110.99307 C104.323686,87.9642208 134.973587,75.2177058 134.982462,72.7535255 C134.991337,70.2893452 127.946371,46.6205263 113.847566,1.74706871 L69.3770147,-21.7719592 Z" id="Path-80" fill="#000000" opacity="0.0431919643" mask="url(#mask-15)" transform="translate(89.007615, 44.610556) rotate(-22.000000) translate(-89.007615, -44.610556) "></path>
                        </g>
                    </g>
                </g>
                <g id="Group-24-Copy" transform="translate(81.000000, 0.000000)">
                    <path d="M69.1570196,180.163216 C42.8634269,185.175914 26.4792733,189.929829 20.0045591,194.42496 C13.5298448,198.920092 7.00555425,219.21032 0.431687495,255.295646 C34.6040727,247.278166 61.1187282,243.269425 79.9756539,243.269425 C98.8325796,243.269425 135.506949,251.289035 189.998762,267.328253 C191.496317,222.915241 186.930675,198.614143 176.301833,194.42496 C165.672992,190.235777 150.005112,186.678254 129.298193,183.752391 L69.1570196,180.163216 Z" id="Path-93" fill="#4A4A4A"></path>
                    <path d="M91.2265278,165.149615 C75.5609729,165.149615 67.7281954,165.149615 67.7281954,165.149615 C67.7281954,165.149615 74.4605511,180.593552 82.8435395,185.335534 C91.2265278,190.077516 98.1026184,192.174097 105.157218,192.174097 C109.860285,192.174097 117.587966,189.894576 128.340261,185.335534 L136.695553,165.149615 L91.2265278,165.149615 Z" id="Path-92" fill="#FFFFFF"></path>
                    <path d="M87.6057228,154.139641 C85.5481693,167.952921 82.3080187,177.279108 77.8852709,182.118201 C71.2511493,189.37684 94.9047452,195.176818 101.727421,195.176818 C108.550096,195.176818 124.70123,190.864834 124.70123,186.491517 C124.70123,182.118201 113.335893,162.664941 113.335893,154.139641 C107.88933,154.139641 99.3126071,154.139641 87.6057228,154.139641 Z" id="Path-91" fill="#FFCEBD"></path>
                    <g id="Group-23" transform="translate(41.740495, 0.000000)">
                        <g id="Path-88" transform="translate(5.895746, 22.793377)">
                            <mask id="mask-17" fill="white">
                                <use xlink:href="#path-16"></use>
                            </mask>
                            <use id="Mask" fill="#FFCEBD" xlink:href="#path-16"></use>
                            <path d="M92.8035887,57.8861178 C91.3896035,66.4962519 90.682611,73.5241591 90.682611,78.9698394 C90.682611,87.1383597 78.8259846,99.6682836 71.7431997,101.937495 C64.6604147,104.206707 42.7381733,105.181514 34.2074764,101.937495 C25.6767794,98.6934759 6.8498193,75.1795434 6.8498193,67.1471918 C6.8498193,61.7922907 4.18382259,59.5997075 -1.14817082,60.5694423 L-3.96683852,126.574419 C30.0355636,146.151741 47.0367647,155.940402 47.0367647,155.940402 C47.0367647,155.940402 46.5180116,159.085098 77.9485368,148.833997 C109.379062,138.582897 114.530477,149.675039 117.674186,126.574419 C120.817895,103.473798 109.095061,109.115989 115.036097,92.3880638 C120.977133,75.6601388 111.170073,66.0193945 107.542085,63.7349642 C105.123426,62.2120107 100.210594,60.2623952 92.8035887,57.8861178 Z" fill="#4A4A4A" mask="url(#mask-17)"></path>
                            <path d="" id="Path-86" stroke="#979797" stroke-width="0.600000024" mask="url(#mask-17)"></path>
                        </g>
                        <path d="M80.833311,46.8530519 C69.9033732,56.4012663 60.9352911,61.1753734 53.9290645,61.1753734 C43.4197246,61.1753734 39.418843,52.8932275 27.2644395,67.9502304 C15.1100359,83.0072334 17.7103677,107.468453 11.5062728,100.534437 C5.30217798,93.600421 9.24973275e-16,62.4101629 0,52.8932275 C0,43.3762921 9.46345306,15.5564806 30.2185581,7.37550113 C50.9736631,-0.805478359 55.2525459,0.0235424996 62.5905775,0.0235424996 C69.9286091,0.0235424996 101.207074,2.48539836 107.224428,29.596621 C113.241782,56.7078437 112.010832,84.6148179 103.197904,91.3450109 C94.3849758,98.0752039 97.0151148,88.6730991 95.7000453,84.7856634 C94.3849758,80.8982278 80.833311,79.8148753 80.833311,65.4045001 C80.833311,55.7975833 80.833311,49.6137672 80.833311,46.8530519 Z" id="Path-87" fill="#5E5E5E"></path>
                        <path d="M65.590011,110.724119 L57.6761135,115.792106 C57.4975186,115.906476 57.4454544,116.143972 57.559825,116.322567 C57.6304174,116.4328 57.7523003,116.49948 57.8831998,116.49948 L68.9484215,116.49948 C69.1604989,116.49948 69.3324215,116.327558 69.3324215,116.11548 C69.3324215,116.043811 69.3123645,115.973572 69.2745195,115.91271 L66.1231953,110.844723 C66.011208,110.664624 65.7744253,110.609408 65.5943263,110.721396 C65.5928819,110.722294 65.5914434,110.723202 65.590011,110.724119 Z" id="Path-90" fill="#000000" opacity="0.169698661"></path>
                    </g>
                    <path d="M88.572212,191.578948 C87.3754798,190.122913 80.4274742,181.313136 67.7281954,165.149615 L71.6587284,183.635635 C71.7448287,184.04058 71.9907488,184.393624 72.3407488,184.614744 C76.9539282,187.529229 79.709655,189.202873 80.6079292,189.635677 C86.5600155,192.503494 89.419001,192.609215 88.572212,191.578948 Z" id="Path-95" fill="#EFEFEF"></path>
                    <path d="M136.538969,193.716147 C135.333376,192.187629 128.388882,182.665451 115.705488,165.149615 L119.672189,184.590512 C119.754435,184.993602 119.994943,185.346852 120.339832,185.571122 C124.107818,188.021327 126.302814,189.421223 126.92482,189.770807 C134.194905,193.856799 137.476576,194.904898 136.538969,193.716147 Z" id="Path-95-Copy" fill="#EFEFEF" transform="translate(126.200520, 179.662763) scale(-1, 1) translate(-126.200520, -179.662763) "></path>
                </g>
            </g>
        </g>
    </g>
</svg>