<?xml version="1.0" encoding="UTF-8"?>
<svg width="350px" height="256px" viewBox="0 0 350 256" version="1.1" xmlns="http://www.w3.org/2000/svg" xmlns:xlink="http://www.w3.org/1999/xlink">
    <!-- Generator: sketchtool 50.2 (55047) - http://www.bohemiancoding.com/sketch -->
    <title>1BD197FD-714E-49A3-9587-4197E725CC38@1x</title>
    <desc>Created with sketchtool.</desc>
    <defs>
        <linearGradient x1="0%" y1="138.885134%" x2="104.975665%" y2="-20.6545199%" id="linearGradient-1">
            <stop stop-color="#C4FFDC" offset="0%"></stop>
            <stop stop-color="#94C5E9" offset="100%"></stop>
        </linearGradient>
        <path d="M301.408719,73.61875 C301.408719,42.671875 277.375279,13.8625 226.17595,1.9875 C174.97662,-9.8875 177.062838,45.503125 112.281115,45.503125 C47.4993927,45.503125 0.547022349,78.8008087 0.547022349,134.683333 C0.547022349,190.565858 20.1148138,276.948387 84.2211783,251.328875 C148.327543,225.709362 224.696912,222.773075 252.820287,233.718891 C280.943662,244.664708 330.876378,259.623792 346.772664,197.153562 C362.668951,134.683333 301.408719,104.565625 301.408719,73.61875 Z" id="path-2"></path>
        <path d="M38.6115543,93.9630992 C57.0064407,89.5351229 61.1199214,89.0257698 68.1278215,82.7063957 C75.1357215,76.3870215 81.13398,47.0618657 68.1278215,20.0457772 C55.1216629,-6.97031123 28.951004,-0.593210408 20.216668,6.09968933 C11.4823319,12.7925891 3.02807344,20.7494148 3.02807344,33.797462 C3.02807344,38.2424478 4.9573479,43.6797086 4.93072852,49.447336 C4.87920796,60.6103083 -1.06460122,72.6130292 0.781493229,75.4922579 C1.32767967,76.344108 6.5968275,79.5313723 8.44815746,82.7063957 C11.3212662,87.6337656 11.1721585,93.4828782 12.6196684,97.8783267 C14.9999027,105.106047 29.373769,96.1867984 38.6115543,93.9630992 Z" id="path-4"></path>
        <path d="M53.5926112,11.3918945 C53.0733765,21.9875977 51.271927,29.7999349 48.1882626,34.8289062 C43.5627661,42.3723633 38.1312087,47.437793 27.0334181,47.437793 C19.634891,47.437793 10.7863615,59.1067383 0.487829476,82.4446289 L128.205953,82.4446289 C128.153802,71.3931966 125.818379,63.5842773 121.199685,59.0178711 C114.271643,52.1682617 96.8954215,47.437793 89.7361051,47.437793 C82.5767888,47.437793 77.8458581,12.9333984 83.7909816,3.37333984 C87.7543973,-3.00003255 77.6882738,-0.32718099 53.5926112,11.3918945 Z" id="path-6"></path>
        <path d="M38.7944403,0.220959596 C31.1430189,0.220959596 9.21776561,5.85627914 4.1592215,17.0036908 C-0.899322602,28.1511024 -1.80431108,51.4504419 9.21776561,60.8208285 C6.20227569,51.1122038 18.2685042,49.4218629 22.9044357,44.7426185 C27.5403673,40.0633741 28.1772743,49.508547 37.5464664,49.508547 C46.9156584,49.508547 46.9156584,39.3036131 54.07019,44.7426185 C58.1035796,47.8088748 50.8483938,63.0238383 51.3159515,75.5426865 C51.6777598,85.2300975 54.3726879,94.800586 59.8894367,103.41589 C68.320059,116.581682 71.1696343,128.613499 68.4381628,139.511339 C72.2305768,131.715432 74.4395455,126.396537 75.065069,123.554657 C76.0033542,119.291837 72.2275992,105.197982 75.065069,95.0171875 C77.9025388,84.8363928 78.4843887,73.5922931 80.9090748,60.8208285 C82.4770381,52.5619502 89.5656945,32.1686478 78.1573976,17.0036908 C71.9239937,8.71767719 60.7325783,0.220959596 38.7944403,0.220959596 Z" id="path-8"></path>
        <path d="M38.5924869,97.8778863 C56.9782894,93.2652127 61.0897387,92.7346137 68.0941781,86.1516493 C75.0986175,79.5686849 81.0939138,49.0203342 68.0941781,20.8773655 C55.0944423,-7.2656033 28.9367073,-0.62250434 20.2066844,6.34956597 C11.4766616,13.3216363 3.02657809,21.6103528 3.02657809,35.202653 C3.02657809,39.8330456 4.95489983,45.4971024 4.92829359,51.505306 C4.87679847,63.133902 -0.5004829,71.1579666 0.781107306,74.6365994 C1.64479038,76.9809028 4.78300073,78.0645399 8.50218773,83.0156684 C12.2213747,87.9667969 15.8429216,100.640278 20.2066844,100.640278 C26.0105252,100.640278 29.3592634,100.194339 38.5924869,97.8778863 Z" id="path-10"></path>
        <path d="M53.5849822,11.8176432 C53.0653785,22.783355 51.2626487,30.8685041 48.1767927,36.0730903 C43.5480086,43.8799696 38.1125909,49.1222873 27.0069127,49.1222873 C19.6031273,49.1222873 10.7483088,61.1987196 0.442457297,85.3515842 C21.2909093,90.3977503 37.2023544,92.9208333 48.1767927,92.9208333 C59.1512309,92.9208333 85.842751,90.3977503 128.251353,85.3515842 C128.199166,73.9142289 125.862084,65.8326172 121.240107,61.1067491 C114.307141,54.017947 96.9185693,49.1222873 89.7541646,49.1222873 C82.5897599,49.1222873 77.8554668,13.4129774 83.8048157,3.51907552 C87.7710483,-3.07685909 77.6977704,-0.31066985 53.5849822,11.8176432 Z" id="path-12"></path>
        <path d="M38.6126816,0.226453993 C30.9871003,0.226453993 9.13589231,6.09045681 4.09443176,17.6902344 C-0.947028792,29.2900119 -1.84896098,53.534847 9.13589231,63.2854872 C6.13058621,53.182883 18.156065,51.4239475 22.7763403,46.5548177 C27.3966155,41.6856879 28.0313716,51.5141493 37.3689223,51.5141493 C46.706473,51.5141493 50.6259269,65.5778959 51.0919055,78.6047635 C51.452492,88.6852931 48.1368013,89.4227919 45.3918643,98.0361816 C42.6469273,106.649571 77.8427036,91.1445855 80.5850879,63.2854872 C81.4450035,54.5498508 89.2124727,33.4705907 77.8427036,17.6902344 C71.6303509,9.06797142 60.4767308,0.226453993 38.6126816,0.226453993 Z" id="path-14"></path>
        <path d="M9.15421741,11.4071856 C-1.20155724,24.6372805 -0.214522288,45.5202019 2.90839095,57.9540036 C6.03130418,70.3878052 18.4237462,96.7970719 26.1959141,103.785946 C33.968082,110.774821 40.0037228,114.390768 43.8289403,114.390768 C47.6541579,114.390768 57.0968558,108.930374 61.4619666,103.785946 C65.8270773,98.6415184 79.6632307,75.2868692 79.6632307,61.5843356 C79.6632307,47.881802 81.7958948,20.428772 76.2476906,11.4071856 C70.6994865,2.38559916 51.4914632,0.206714744 43.1293597,0.206714744 C34.7672562,0.206714744 17.9213164,0.206714744 9.15421741,11.4071856 Z" id="path-16"></path>
    </defs>
    <g id="UI" stroke="none" stroke-width="1" fill="none" fill-rule="evenodd">
        <g id="welcome" transform="translate(-308.000000, -945.000000)">
            <g id="Group-41" transform="translate(360.000000, -32.000000)"></g>
            <g id="Group-28" transform="translate(308.000000, 945.000000)">
                <g id="Group-25-+-Group-27-+-Path-82-+-Path-94-+-Group-24-Mask">
                    <mask id="mask-3" fill="white">
                        <use xlink:href="#path-2"></use>
                    </mask>
                    <use id="Mask" fill="url(#linearGradient-1)" transform="translate(174.976620, 128.141621) scale(-1, 1) translate(-174.976620, -128.141621) " xlink:href="#path-2"></use>
                    <ellipse id="Oval-8" fill="#FFFFFF" opacity="0.0946986607" mask="url(#mask-3)" cx="240.924658" cy="78.8" rx="70.7191781" ry="70.8"></ellipse>
                    <ellipse id="Oval-8-Copy" fill="#FFFFFF" opacity="0.100892857" mask="url(#mask-3)" cx="33.9611872" cy="214" rx="33.1621005" ry="33.2"></ellipse>
                    <g id="Group-25" mask="url(#mask-3)">
                        <g transform="translate(41.552511, 88.000000)">
                            <g id="Group-26" stroke-width="1" fill="none" transform="translate(14.383562, 4.000000)">
                                <g id="Path-96">
                                    <mask id="mask-5" fill="white">
                                        <use xlink:href="#path-4"></use>
                                    </mask>
                                    <use id="Mask" fill="#FFCEBD" xlink:href="#path-4"></use>
                                    <path d="M2.04375803,76.6671875 C7.39961621,78.873082 10.0775453,80.0906601 10.0775453,80.3199219 C10.0775453,80.6638145 10.5659791,81.0847656 6.27134837,81.0847656 C3.40826123,81.0847656 1.99906445,79.6122396 2.04375803,76.6671875 Z" fill="#F0C1B1" mask="url(#mask-5)"></path>
                                </g>
                            </g>
                            <g id="Path-81" stroke-width="1" fill="none" transform="translate(0.000000, 76.000000)">
                                <mask id="mask-7" fill="white">
                                    <use xlink:href="#path-6"></use>
                                </mask>
                                <use id="Mask" fill="#FFCEBD" xlink:href="#path-6"></use>
                                <path d="M30.0136323,46.8712646 C39.8190048,52.4596436 57.4486087,61.4976074 59.7239449,59.6937744 C61.9992811,57.8899414 63.0306648,15.8984863 61.3029058,15.8984863 C60.1510664,15.8984863 56.6462325,17.9338867 50.7884039,22.0046875 C30.4016412,34.8568197 23.4767174,43.1456787 30.0136323,46.8712646 Z" fill="#000000" opacity="0.0600000024" mask="url(#mask-7)"></path>
                                <path d="M31.5839861,46.4149658 C34.7700713,46.4149658 49.402292,57.9130127 61.6042466,57.9130127 C69.7388829,57.9130127 76.8242808,54.601001 82.8604402,47.9769775 L90.1586194,42.3732178 C127.249471,50.4521566 146.238282,55.0618571 147.125054,56.2023193 C148.455211,57.9130127 148.782609,82.7385742 148.782609,84.1920654 C148.782609,85.1610596 96.8390199,85.1610596 -7.04815874,84.1920654 L4.43133748,64.8796875 L19.6816693,46.4149658 C25.4924904,46.4149658 29.4599293,46.4149658 31.5839861,46.4149658 Z" id="Path-85" fill="#437EC4" mask="url(#mask-7)"></path>
                            </g>
                            <path d="M80.7077626,73.6 C82.6312545,84.0037589 88.3679168,91.5591806 97.9177495,96.2662651 C112.242499,103.326892 92.86401,106.668888 86.7858863,101.467576 C82.7338038,98.0000356 80.7077626,88.7108434 80.7077626,73.6 Z" id="Path-84" fill="#000000" transform="translate(91.894977, 88.800000) scale(-1, 1) rotate(-97.000000) translate(-91.894977, -88.800000) "></path>
                            <g id="Path-83" stroke-width="1" fill="none" transform="translate(15.981735, 0.000000)">
                                <mask id="mask-9" fill="white">
                                    <use xlink:href="#path-8"></use>
                                </mask>
                                <use id="Mask" fill="#A65342" xlink:href="#path-8"></use>
                                <path d="M32.0687248,-11.670066 C57.4744266,-0.617553743 68.8158105,12.671183 66.0928766,28.1961441 C63.3699427,43.7211053 66.1699806,67.0749947 74.4929902,98.2578125 C88.0411047,60.8620012 94.815162,41.6961459 94.815162,40.7602467 C94.815162,38.9427124 89.0699081,21.4659415 77.5794002,-11.670066 L32.0687248,-11.670066 Z" id="Path-80" fill="#000000" opacity="0.124553571" mask="url(#mask-9)"></path>
                            </g>
                        </g>
                    </g>
                    <g id="Group-27" mask="url(#mask-3)">
                        <g transform="translate(194.178082, 90.400000)" id="Group-25-Copy">
                            <g transform="translate(64.326484, 86.800000) scale(-1, 1) translate(-64.326484, -86.800000) ">
                                <g id="Group-26" transform="translate(14.662354, 3.622222)">
                                    <g id="Path-96">
                                        <mask id="mask-11" fill="white">
                                            <use xlink:href="#path-10"></use>
                                        </mask>
                                        <use id="Mask" fill="#FFCEBD" xlink:href="#path-10"></use>
                                        <path d="M2.03181724,76.8668403 C7.91885974,78.8553594 10.862381,79.9690313 10.862381,80.2078559 C10.862381,80.5660928 10.6111047,80.9729968 6.31859477,80.9729968 C3.4569215,80.9729968 2.02799566,79.604278 2.03181724,76.8668403 Z" fill="#F0C1B1" mask="url(#mask-11)"></path>
                                    </g>
                                </g>
                                <g id="Path-81" transform="translate(0.000000, 79.466667)">
                                    <mask id="mask-13" fill="white">
                                        <use xlink:href="#path-12"></use>
                                    </mask>
                                    <use id="Mask" fill="#FFCEBD" xlink:href="#path-12"></use>
                                    <path d="M28.3283285,49.9058051 C26.6316749,53.1527388 44.6567045,78.2884277 46.9336578,76.4216037 C49.2106112,74.5547797 63.0297438,16.4816081 61.3007568,16.4816081 C60.1480988,16.4816081 56.6407739,18.5880859 50.7787819,22.8010417 C36.9429153,38.7062615 29.4594308,47.7411827 28.3283285,49.9058051 Z" fill="#000000" opacity="0.0600000024" mask="url(#mask-13)"></path>
                                    <path d="M28.5640221,48.0637424 C31.7523717,48.0637424 47.0871598,76.4277941 59.2977867,76.4277941 C67.4382046,76.4277941 81.1872815,67.6015752 100.545017,49.9491374 C130.750205,54.2646756 146.2965,57.0125886 147.183901,58.1928765 C148.515004,59.9633084 132.323773,90.1384603 132.323773,91.6427083 C132.323773,92.3890559 116.881061,102.326034 59.2977867,101.961458 C46.1053493,101.877933 23.9731248,96.944128 -7.09888699,87.1600423 L4.38876808,67.1732639 L14.8640126,51.6028375 C21.8717858,49.2434408 26.4384557,48.0637424 28.5640221,48.0637424 Z" id="Path-85" fill="#E57AA3" mask="url(#mask-13)"></path>
                                    <path d="M87.1006971,47.4389621 C78.0890332,65.2390833 68.9464756,74.4124023 59.6730245,74.9589193 C50.3995733,75.5054362 42.4958962,66.3321172 35.9619932,47.4389621" id="Path-79" stroke="#FFFFFF" stroke-width="0.799999952" stroke-linecap="round" mask="url(#mask-13)"></path>
                                </g>
                                <g id="Path-83" transform="translate(15.683409, 0.000000)">
                                    <mask id="mask-15" fill="white">
                                        <use xlink:href="#path-14"></use>
                                    </mask>
                                    <use id="Mask" fill="#F4E884" xlink:href="#path-14"></use>
                                    <path d="M55.3872971,-17.5850242 C68.8626402,5.50482638 74.2481261,25.475588 71.5437549,42.3272607 C68.8393836,59.1789335 56.5539451,74.6142598 34.6874394,88.6332397 C83.6703275,70.3738577 108.161772,60.2577393 108.161772,58.2848845 C108.161772,56.3120298 102.455684,37.3417521 91.0435085,1.37405154 L55.3872971,-17.5850242 Z" id="Path-80" fill="#000000" opacity="0.0431919643" mask="url(#mask-15)" transform="translate(71.424605, 35.524108) rotate(-22.000000) translate(-71.424605, -35.524108) "></path>
                                </g>
                            </g>
                        </g>
                    </g>
                    <path d="" id="Path-82" stroke="#979797" stroke-width="0.799999952" mask="url(#mask-3)"></path>
                    <path d="" id="Path-94" stroke="#979797" stroke-width="0.799999952" mask="url(#mask-3)"></path>
                    <g id="Group-24" mask="url(#mask-3)">
                        <g transform="translate(96.689498, 63.200000)">
                            <path d="M53.8820209,144 C32.302513,146.184198 18.9246054,149.07272 13.7482982,152.665568 C8.57199096,156.258415 3.9892249,163.769892 0,175.2 L156.411869,183.575 C154.088947,166.833265 149.105788,156.53012 141.462391,152.665568 C133.818994,148.801015 120.652458,146.868738 101.962782,146.868738 L53.8820209,144 Z" id="Path-93" fill="#4A4A4A"></path>
                            <path d="M71.5258196,132 C59.0017572,132 52.739726,132 52.739726,132 C52.739726,132 58.1220086,144.343957 64.8239141,148.134105 C71.5258196,151.924254 77.0230131,153.6 82.6629186,153.6 C86.4228557,153.6 92.6008659,151.778035 101.196949,148.134105 L107.876712,132 L71.5258196,132 Z" id="Path-92" fill="#FFFFFF"></path>
                            <path d="M68.6311129,123.2 C66.9861709,134.240613 64.395784,141.694804 60.8599521,145.562571 C55.5562043,151.364221 74.4664255,156 79.9209156,156 C85.3754056,156 98.2876712,152.553538 98.2876712,149.058054 C98.2876712,145.562571 89.2014825,130.014062 89.2014825,123.2 C84.8471465,123.2 77.9903567,123.2 68.6311129,123.2 Z" id="Path-91" fill="#FFCEBD"></path>
                            <g id="Group-23" stroke-width="1" fill="none" transform="translate(31.963470, 0.000000)">
                                <g id="Path-88" transform="translate(4.031756, 18.218182)">
                                    <mask id="mask-17" fill="white">
                                        <use xlink:href="#path-16"></use>
                                    </mask>
                                    <use id="Mask" fill="#FFCEBD" xlink:href="#path-16"></use>
                                    <path d="M74.8749045,46.2669413 C73.744473,53.1488085 73.1792572,58.7660408 73.1792572,63.1186382 C73.1792572,69.6475344 63.7002998,79.6623925 58.0378614,81.476117 C52.3754229,83.2898415 34.849359,84.0689812 28.0293656,81.476117 C21.2093722,78.8832528 6.1578772,60.0891485 6.1578772,53.6690886 C6.1578772,49.3890486 4.02650623,47.6365712 -0.236235698,48.4116562 L-2.48966177,101.1678 C24.6940675,116.815469 38.2859321,124.639304 38.2859321,124.639304 C38.2859321,124.639304 37.8712073,127.152782 62.998811,118.959331 C88.1264148,110.76588 92.2447905,119.631555 94.7580758,101.1678 C97.2713611,82.7040463 87.899366,87.2137094 92.649016,73.8434929 C97.3986659,60.4732765 89.5582656,52.7676681 86.6578162,50.9417795 C84.7241833,49.7245205 80.796546,48.1662411 74.8749045,46.2669413 Z" fill="#4A4A4A" mask="url(#mask-17)"></path>
                                    <path d="" id="Path-86" stroke="#979797" stroke-width="0.799999952" mask="url(#mask-17)"></path>
                                </g>
                                <path d="M64.6234003,37.4484848 C55.8852979,45.0801363 48.7156304,48.895962 43.1143977,48.895962 C34.7125487,48.895962 31.513984,42.2762477 21.7969642,54.3109375 C12.0799443,66.3456273 14.1588185,85.896875 9.19886201,80.3546875 C4.23890554,74.8125 7.39483728e-16,49.8828986 0,42.2762477 C0,34.6695967 7.56569918,12.43391 24.1586785,5.89505552 C40.7516579,-0.643798918 44.1724748,0.0188169373 50.038974,0.0188169373 C55.9054731,0.0188169373 80.91151,1.9865174 85.7221738,23.6558467 C90.5328376,45.325176 89.5487363,67.6305299 82.5031089,73.0098065 C75.4574815,78.3890832 77.5601855,70.8742136 76.5088335,67.7670824 C75.4574815,64.6599513 64.6234003,63.7940545 64.6234003,52.2761983 C64.6234003,44.5976274 64.6234003,39.6550563 64.6234003,37.4484848 Z" id="Path-87" fill="#5E5E5E"></path>
                                <path d="M52.0162905,88.7683487 L47.5288104,91.6414075 C47.1567118,91.8796395 47.0481915,92.3744101 47.2864234,92.7465086 C47.4334827,92.9762031 47.6874295,93.1151515 47.9601674,93.1151515 L54.234568,93.1151515 C54.6763957,93.1151515 55.0345679,92.7569793 55.0345679,92.3151516 C55.0345679,92.1658115 54.9927663,92.0194529 54.9138939,91.8926397 L53.1269734,89.0195809 C52.8936266,88.6443996 52.400317,88.52942 52.0251357,88.7627668 C52.0221752,88.7646082 52.0192267,88.7664688 52.0162905,88.7683487 Z" id="Path-90" fill="#000000" opacity="0.169698661"></path>
                            </g>
                            <path d="M69.4037871,153.124311 C68.4470416,151.960539 62.8923545,144.919102 52.739726,132 L55.7089024,145.961321 C55.8886672,146.806587 56.402658,147.543215 57.133957,148.003642 C60.3980391,150.058714 62.3655941,151.247867 63.036622,151.571103 C67.7951064,153.863279 70.0807652,153.947778 69.4037871,153.124311 Z" id="Path-95" fill="#EFEFEF"></path>
                            <path d="M107.751529,154.832522 C106.787699,153.610815 101.23582,145.999974 91.0958904,132 L94.1018775,146.728995 C94.2734708,147.569779 94.7755608,148.306418 95.4954124,148.773512 C98.0842959,150.453373 99.6076096,151.421906 100.065353,151.67911 C105.877532,154.944942 108.501113,155.782661 107.751529,154.832522 Z" id="Path-95-Copy" fill="#EFEFEF" transform="translate(99.486301, 143.600000) scale(-1, 1) translate(-99.486301, -143.600000) "></path>
                        </g>
                    </g>
                </g>
            </g>
        </g>
    </g>
</svg>