<svg width="304" height="261" xmlns="http://www.w3.org/2000/svg" xmlns:xlink="http://www.w3.org/1999/xlink"><defs><linearGradient x1="53.55%" y1="44.76%" x2="47%" y2="22.52%" id="b"><stop stop-color="#FFF" offset="0%"/><stop stop-color="#ECECEC" offset="100%"/></linearGradient><path d="M194.49 1.22L5.34 73.78a7.8 7.8 0 0 0 .82 14.83l46.53 12.16 17.19 56.11a3.9 3.9 0 0 0 7.62-.88l2.78-41.5 77.78 55.76a7.8 7.8 0 0 0 12.16-4.64L204.89 10.2a7.8 7.8 0 0 0-10.4-8.98z" id="a"/><linearGradient x1="24.89%" y1="100%" x2="-47.6%" y2="16.9%" id="c"><stop stop-color="#FFF" offset="0%"/><stop stop-color="#B9B9B9" offset="100%"/></linearGradient><linearGradient x1="53.55%" y1="44.8%" x2="19.64%" y2="26.46%" id="f"><stop stop-color="#FFF" offset="0%"/><stop stop-color="#ECECEC" offset="100%"/></linearGradient><path d="M84.03.52L2.35 31.72a3.37 3.37 0 0 0 .36 6.42l20.05 5.21L30.2 67.5a1.68 1.68 0 0 0 3.3-.38l1.2-17.86 33.6 24a3.37 3.37 0 0 0 5.25-2L88.52 4.4a3.37 3.37 0 0 0-4.5-3.89z" id="e"/><linearGradient x1="24.68%" y1="100%" x2="-48.42%" y2="16.9%" id="g"><stop stop-color="#FFF" offset="0%"/><stop stop-color="#B9B9B9" offset="100%"/></linearGradient><linearGradient x1="53.55%" y1="44.71%" x2="47%" y2="22.27%" id="j"><stop stop-color="#FFF" offset="0%"/><stop stop-color="#ECECEC" offset="100%"/></linearGradient><path d="M58.55.36l-57 21.97a2.34 2.34 0 0 0 .25 4.45l14.06 3.69 5.18 16.98a1.17 1.17 0 0 0 2.28-.27l.84-12.56 23.41 16.86a2.34 2.34 0 0 0 3.66-1.4L61.67 3.06A2.34 2.34 0 0 0 58.55.36z" id="i"/><linearGradient x1="25.11%" y1="100%" x2="-46.72%" y2="16.9%" id="k"><stop stop-color="#FFF" offset="0%"/><stop stop-color="#B9B9B9" offset="100%"/></linearGradient></defs><g fill="none" fill-rule="evenodd"><circle fill="#F2F2F2" fill-rule="nonzero" cx="170" cy="135" r="126"/><path d="M228.84 117.9l-86.66 45.47a7.8 7.8 0 0 0 1.86 14.5l29.33 6.8 28.68 20.23a7.8 7.8 0 0 0 11.85-3.78l25.92-73.73a7.8 7.8 0 0 0-10.98-9.5z" fill="#4A4A4A" opacity=".08"/><path d="M228.84 117.9l-86.66 45.47a7.8 7.8 0 0 0 1.86 14.5l29.33 6.8 28.68 20.23a7.8 7.8 0 0 0 11.85-3.78l25.92-73.73a7.8 7.8 0 0 0-10.98-9.5zM60.86 161.42l-26.5 8.62a7.68 7.68 0 0 0 1.28 14.91l16.63 7.28a9.36 9.36 0 0 0 11.9-3.96l7.63-13.45a9.28 9.28 0 0 0-10.94-13.4z" fill="#4A4A4A" opacity=".08"/><path d="M60.86 161.42l-26.5 8.62a7.68 7.68 0 0 0 1.28 14.91l16.63 7.28a9.36 9.36 0 0 0 11.9-3.96l7.63-13.45a9.28 9.28 0 0 0-10.94-13.4zM119.21 236.1l-25.99 5.33a4.03 4.03 0 0 0 .45 7.96l15.64 4.31a7.8 7.8 0 0 0 7.87-2.3l6.6-7.33a4.83 4.83 0 0 0-4.57-7.97z" fill="#4A4A4A" opacity=".08"/><path d="M119.21 236.1l-25.99 5.33a4.03 4.03 0 0 0 .45 7.96l15.64 4.31a7.8 7.8 0 0 0 7.87-2.3l6.6-7.33a4.83 4.83 0 0 0-4.57-7.97z" fill="#4A4A4A" opacity=".08"/><path fill="#CDCDCD" d="M174.06 159.02l31.19-27.08-31.19-22.38z"/><g transform="translate(98)"><mask id="d" fill="#fff"><use xlink:href="#a"/></mask><use fill="url(#b)" xlink:href="#a"/><path d="M52.8 100.96l108.39-65.74a2 2 0 0 1 2.38 3.18L80.5 114.3l-2.89 46.74c-.8 1.45-2.23 2.06-4.29 1.81-4.3-.5-11.14-21.14-20.52-61.9z" fill="url(#c)" mask="url(#d)"/></g><path fill="#CDCDCD" d="M32.86 166.42l13.48-11.65-13.48-9.63z"/><g transform="translate(0 98)"><mask id="h" fill="#fff"><use xlink:href="#e"/></mask><use fill="url(#f)" xlink:href="#e"/><path d="M22.8 43.44l46.82-28.28a.86.86 0 0 1 1.03 1.38L34.78 49.17l-1.25 20.11c-.35.63-.97.89-1.86.78-1.85-.21-4.8-9.09-8.86-26.62z" fill="url(#g)" mask="url(#h)"/></g><g><path fill="#CDCDCD" d="M95.9 242.08l9.38-8.19-9.39-6.77z"/><g transform="translate(73 194)"><mask id="l" fill="#fff"><use xlink:href="#i"/></mask><use fill="url(#j)" xlink:href="#i"/><path d="M15.89 30.52l32.65-19.9a.6.6 0 0 1 .72.96L24.23 34.56l-.87 14.13c-.25.43-.68.62-1.3.54-1.29-.15-3.35-6.39-6.17-18.7z" fill="url(#k)" mask="url(#l)"/></g></g></g></svg>