<svg xmlns="http://www.w3.org/2000/svg" xmlns:xlink="http://www.w3.org/1999/xlink" width="118" height="118"><g fill="none" fill-rule="evenodd"><circle fill="#f3f4f5" cx="59" cy="59" r="59"/><g fill-rule="nonzero"><use xlink:href="#B" fill="#ffdf7b"/><use xlink:href="#B" x="-7.848" y="-2.943" fill="#0065db"/><path d="M54.676 51.92c2.027 0 3.11.744 4.46 2.096.27.27.676.472 1.082.472s.8-.135 1.082-.406.472-.676.472-1.082-.135-.8-.472-1.082c-1.35-1.35-3.378-2.972-6.622-2.972-3.92 0-7.298 2.434-8.58 6.08h-1.014a1.5 1.5 0 0 0-1.486 1.486 1.5 1.5 0 0 0 1.486 1.486h.472v.54h-.54a1.5 1.5 0 0 0-1.486 1.486 1.5 1.5 0 0 0 1.486 1.486h1.217c1.42 3.378 4.73 5.54 8.446 5.54 3.244 0 5.27-1.62 6.622-2.972a1.51 1.51 0 0 0 0-2.162c-.27-.27-.676-.406-1.082-.406s-.8.135-1.082.472c-1.35 1.35-2.5 2.096-4.46 2.096-2.027 0-3.85-.945-4.933-2.568h5.474a1.5 1.5 0 0 0 1.486-1.486 1.5 1.5 0 0 0-1.486-1.486l-6.622.003V58h6.554a1.5 1.5 0 0 0 1.486-1.486 1.5 1.5 0 0 0-1.486-1.486h-5.743c1.082-1.892 3.11-3.11 5.27-3.11z" fill="#fff"/></g></g><defs ><path id="B" d="M84.89 53.983c.54-2.837-.8-5.743-3.3-7.026-.945-.472-1.62-1.35-1.892-2.434-.676-2.77-3.175-4.798-6.012-4.864-1.082 0-2.027-.54-2.703-1.35-1.824-2.23-4.933-2.906-7.5-1.758h-.07c-.945.406-2.027.406-3.04 0-2.568-1.148-5.675-.472-7.5 1.758-.676.8-1.69 1.283-2.703 1.35-2.837.07-5.337 2.096-6.012 4.864-.27 1.082-.945 1.958-1.892 2.434-2.5 1.35-3.92 4.19-3.3 7.026.203 1.082-.07 2.162-.676 3.04a6.7 6.7 0 0 0 0 7.839c.607.88.88 1.958.676 3.04-.54 2.837.8 5.743 3.3 7.026.945.472 1.62 1.35 1.892 2.434.676 2.77 3.175 4.798 6.012 4.864 1.082 0 2.027.54 2.703 1.35a6.35 6.35 0 0 0 7.567 1.758c.945-.406 2.027-.406 3.04 0 .8.406 1.758.54 2.634.54 1.824 0 3.648-.8 4.933-2.296.676-.8 1.69-1.283 2.703-1.35 2.837-.07 5.337-2.096 6.012-4.864.27-1.014.945-1.892 1.892-2.434 2.5-1.35 3.85-4.19 3.3-7.026-.203-1.082.07-2.162.676-3.04a6.7 6.7 0 0 0 0-7.839c-.74-.882-.942-1.96-.74-3.043z"/></defs></svg>