<svg xmlns="http://www.w3.org/2000/svg" width="118" height="118" fill="none" fill-rule="evenodd"><circle fill="#f3f4f5" cx="59" cy="59" r="59"/><g fill-rule="nonzero"><path d="M70.34 55.373a1.13 1.13 0 0 0-.107-1.517c-.418-.403-1.074-.424-1.52-.046L48.402 71.092l-10.727-4.15c-.952-.363-1.605-1.25-1.67-2.27a2.6 2.6 0 0 1 1.367-2.463l44.53-24.945c.71-.385 1.578-.345 2.252.1s1.05 1.233.974 2.04l-3.906 40.72a2.7 2.7 0 0 1-1.279 2.048c-.726.443-1.62.52-2.408.2l-13.055-5.054-8.197 7.678a2.12 2.12 0 0 1-3.561-1.562v-6.03l17.617-22.03z" fill="#ffdf7b"/><path d="M62.805 51.095a1.13 1.13 0 0 0-.107-1.517c-.418-.403-1.074-.424-1.52-.046L40.866 66.814l-10.727-4.15c-.952-.363-1.605-1.25-1.67-2.27a2.6 2.6 0 0 1 1.367-2.463l44.53-24.945c.71-.385 1.578-.345 2.252.1s1.05 1.233.974 2.04l-3.906 40.72a2.7 2.7 0 0 1-1.279 2.048c-.726.443-1.62.52-2.408.2L56.946 73.04l-8.197 7.678a2.12 2.12 0 0 1-3.561-1.562v-6.03l17.617-22.03z" fill="#0065db"/></g></svg>