<svg xmlns="http://www.w3.org/2000/svg" width="118" height="118" fill-rule="evenodd"><circle fill="#f3f4f5" cx="59" cy="59" r="59"/><path fill="#ffdf7b" d="M46 36h37v53H46z"/><path d="M41 31v53h37V43.927H66.517c-.668 0-1.276-.616-1.276-1.293V31H41zm26 1v9h9l-9-9zm-19.667 8h9.333c.737 0 1.333.67 1.333 1.5s-.596 1.5-1.333 1.5h-9.333C46.596 43 46 42.33 46 41.5s.596-1.5 1.333-1.5zM47.3 51h23.4c.72 0 1.3.67 1.3 1.5s-.58 1.5-1.3 1.5H47.3c-.72 0-1.3-.67-1.3-1.5s.58-1.5 1.3-1.5zm0 10h23.4c.72 0 1.3.67 1.3 1.5s-.58 1.5-1.3 1.5H47.3c-.72 0-1.3-.67-1.3-1.5s.58-1.5 1.3-1.5zm0 11h23.4c.72 0 1.3.67 1.3 1.5s-.58 1.5-1.3 1.5H47.3c-.72 0-1.3-.67-1.3-1.5s.58-1.5 1.3-1.5z" fill="#0065db" fill-rule="nonzero"/></svg>