<?xml version="1.0" encoding="UTF-8"?>
<svg width="277px" height="208px" viewBox="0 0 277 208" version="1.1" xmlns="http://www.w3.org/2000/svg" xmlns:xlink="http://www.w3.org/1999/xlink">
    <title>PERSO</title>
    <defs>
        <path d="M66.5942545,1.5235 C61.781503,2.53575 44.3714424,2.73525 42.6594909,2.73925 C34.9594182,2.75775 27.2605818,2.776 19.5617455,2.7945 C15.7125333,2.80375 11.8633212,2.813 8.01410909,2.82225 C6.25311515,2.82625 1.48363636,3.22775 0.485890909,2.595 C-1.47704242,1.3505 10.5218667,1.06325 12.1785939,0.98925 C23.3392485,0.49075 34.5761455,0.23 45.7883152,0.208 C51.3626667,0.197 56.9238303,0.25825 62.4796364,0.337 C63.6665455,0.354 66.2666182,0.18 67.1633939,0.507" id="path-1"></path>
        <linearGradient x1="-0.00973026138%" y1="50.0369949%" x2="100.004696%" y2="49.9668547%" id="linearGradient-3">
            <stop stop-color="#000000" offset="0%"></stop>
            <stop stop-color="#000000" offset="100%"></stop>
        </linearGradient>
        <path d="M66.5612848,1.38875 C61.7481212,2.401 44.3384727,2.60025 42.6261091,2.6045 C34.9264485,2.62275 27.2276121,2.64125 19.5283636,2.65975 C15.6791515,2.669 11.8299394,2.678 7.98072727,2.68725 C6.22014545,2.6915 1.45025455,3.09275 0.452509091,2.46025 C-1.51042424,1.2155 10.4884848,0.92825 12.1452121,0.85425 C23.3058667,0.356 34.5431758,0.095 45.7549333,0.073 C51.3292848,0.06225 56.8904485,0.1235 62.4466667,0.20225 C63.6335758,0.219 66.2332364,0.045 67.1304242,0.37225" id="path-4"></path>
        <linearGradient x1="-0.00961467839%" y1="50.0369993%" x2="100.00451%" y2="49.9668578%" id="linearGradient-6">
            <stop stop-color="#000000" offset="0%"></stop>
            <stop stop-color="#000000" offset="100%"></stop>
        </linearGradient>
        <path d="M53.7820229,1.47433333 C49.8963359,2.544 35.840687,2.75466667 34.4585496,2.759 C28.2422901,2.77833333 22.0268702,2.798 15.8114504,2.81733333 C12.7037405,2.827 9.59603053,2.837 6.48874046,2.84666667 C5.0671374,2.851 1.21629771,3.275 0.411030534,2.60666667 C-1.17389313,1.29166667 8.51324427,0.988 9.85045802,0.91 C18.8612214,0.383333333 27.9328626,0.107666667 36.9843511,0.0843333333 C41.4851145,0.073 45.974542,0.137666667 50.4601908,0.220666667 C51.4182824,0.238666667 53.5170992,0.0546666667 54.2413359,0.400333333" id="path-7"></path>
        <linearGradient x1="-0.00991975024%" y1="50.0633726%" x2="100.004462%" y2="49.9432263%" id="linearGradient-9">
            <stop stop-color="#000000" offset="0%"></stop>
            <stop stop-color="#000000" offset="100%"></stop>
        </linearGradient>
        <polygon id="path-10" points="0.227864113 0.101454545 2.83832074 0.101454545 2.83832074 2.98485403 0.227864113 2.98485403"></polygon>
        <path d="M53.6758015,1.486 C49.7901145,2.55566667 35.7348855,2.766 34.3527481,2.77033333 C28.1364885,2.79 21.9206489,2.80933333 15.705229,2.829 C12.5979389,2.83866667 9.49022901,2.84833333 6.38251908,2.858 C4.96091603,2.86266667 1.11049618,3.28666667 0.30480916,2.618 C-1.27969466,1.303 8.4070229,0.999333333 9.74465649,0.921333333 C18.755,0.394666667 27.8270611,0.119 36.8785496,0.096 C41.3788931,0.0843333333 45.8683206,0.149 50.3539695,0.232333333 C51.3120611,0.25 53.4112977,0.0663333333 54.1351145,0.412" id="path-12"></path>
        <linearGradient x1="-0.00962681721%" y1="50.0633598%" x2="100.004513%" y2="49.9432146%" id="linearGradient-14">
            <stop stop-color="#000000" offset="0%"></stop>
            <stop stop-color="#000000" offset="100%"></stop>
        </linearGradient>
    </defs>
    <g id="Page-1" stroke="none" stroke-width="1" fill="none" fill-rule="evenodd">
        <g id="200507_D_Justificatif_4-Copy" transform="translate(-683.000000, -158.000000)">
            <g id="PERSO" transform="translate(683.000000, 158.000000)">
                <g id="Group-3" transform="translate(208.360000, 202.000000)">
                    <mask id="mask-2" fill="white">
                        <use xlink:href="#path-1"></use>
                    </mask>
                    <g id="Clip-2"></g>
                    <path d="M66.5942545,1.5235 C67.9006788,1.24875 68.2790061,0.914 67.1633939,0.507 C66.2666182,0.18 63.6665455,0.354 62.4796364,0.337 C56.9238303,0.25825 51.3626667,0.197 45.7883152,0.208 C34.5761455,0.23 23.3392485,0.49075 12.1785939,0.98925 C10.5218667,1.06325 -1.47704242,1.3505 0.485890909,2.595 C1.48363636,3.22775 6.25311515,2.82625 8.01410909,2.82225 C11.8633212,2.813 15.7125333,2.80375 19.5617455,2.7945 C27.2605818,2.776 34.9594182,2.75775 42.6594909,2.73925 C44.3714424,2.73525 61.781503,2.53575 66.5942545,1.5235" id="Fill-1" fill="url(#linearGradient-3)" mask="url(#mask-2)"></path>
                </g>
                <g id="Group-6" transform="translate(120.360000, 202.000000)">
                    <mask id="mask-5" fill="white">
                        <use xlink:href="#path-4"></use>
                    </mask>
                    <g id="Clip-5"></g>
                    <path d="M66.5612848,1.38875 C67.8677091,1.11375 68.2456242,0.77925 67.1304242,0.37225 C66.2332364,0.045 63.6335758,0.219 62.4466667,0.20225 C56.8904485,0.1235 51.3292848,0.06225 45.7549333,0.073 C34.5431758,0.095 23.3058667,0.356 12.1452121,0.85425 C10.4884848,0.92825 -1.51042424,1.2155 0.452509091,2.46025 C1.45025455,3.09275 6.22014545,2.6915 7.98072727,2.68725 C11.8299394,2.678 15.6791515,2.669 19.5283636,2.65975 C27.2276121,2.64125 34.9264485,2.62275 42.6261091,2.6045 C44.3384727,2.60025 61.7481212,2.401 66.5612848,1.38875" id="Fill-4" fill="url(#linearGradient-6)" mask="url(#mask-5)"></path>
                </g>
                <g id="Group-9" transform="translate(62.360000, 205.000000)">
                    <mask id="mask-8" fill="white">
                        <use xlink:href="#path-7"></use>
                    </mask>
                    <g id="Clip-8"></g>
                    <path d="M53.7820229,1.47433333 C54.8366794,1.184 55.1419084,0.830333333 54.2413359,0.400333333 C53.5170992,0.0546666667 51.4182824,0.238666667 50.4601908,0.220666667 C45.974542,0.137666667 41.4851145,0.073 36.9843511,0.0843333333 C27.9328626,0.107666667 18.8612214,0.383333333 9.85045802,0.91 C8.51324427,0.988 -1.17389313,1.29166667 0.411030534,2.60666667 C1.21629771,3.275 5.0671374,2.851 6.48874046,2.84666667 C9.59603053,2.837 12.7037405,2.827 15.8114504,2.81733333 C22.0268702,2.798 28.2422901,2.77833333 34.4585496,2.759 C35.840687,2.75466667 49.8963359,2.544 53.7820229,1.47433333" id="Fill-7" fill="url(#linearGradient-9)" mask="url(#mask-8)"></path>
                </g>
                <g id="Group-27" transform="translate(58.360000, 23.000000)">
                    <path d="M38.8012333,134.335174 C38.1170217,121.904365 39.5540302,109.226141 39.4287694,96.7181674 C39.878887,92.382266 39.1490887,87.9663423 37.294818,83.8905133 C37.1798244,83.6373815 37.0549743,83.3785339 36.8258086,83.1846024 C36.1144914,82.5832104 34.8980241,82.9028913 33.9546664,83.2225721 C24.9054965,86.2870991 14.2176687,85.5656737 5.96770392,81.2387543 C4.33808124,83.2785061 3.87030396,85.7804274 3.46823728,88.197427 C2.81811311,92.1054542 2.10597457,96.0053158 1.93143081,99.9304906 C1.93102012,99.9378396 1.92978805,99.9455969 1.92937735,99.9529459 L1.93019874,99.9525376 C1.89323653,100.79563 1.87270197,101.63913 1.89200445,102.484671 C2.00576592,107.377463 3.15529059,112.197989 4.05347224,117.020148 C4.63952858,120.165922 5.15494604,123.333335 5.20381829,126.520345 C5.24406603,129.128826 4.79887677,131.513164 5.50896185,134.066936 C7.25809567,140.355627 7.26261328,147.207331 8.00226813,153.632794 C8.79449145,160.513894 9.5764475,167.39581 10.2241075,174.287117 C10.2499811,174.56148 10.2754439,174.835842 10.3009068,175.110612 C10.7230973,175.203291 17.1746454,176.423223 17.1746454,175.050595 C17.6921163,161.675034 18.2095872,148.299063 18.7266474,134.923093 C18.9443138,129.294587 18.4490202,110.278679 20.1858333,104.915961 C20.901668,104.974753 21.6175028,105.033544 22.3333375,105.092745 C26.2669379,122.792776 30.9274616,153.798146 34.8614726,171.498586 C35.2076853,173.056979 35.6278224,174.738672 36.8783771,175.743033 C38.1285211,176.747394 40.4637113,176.465683 40.8333333,174.912598 C39.6784697,161.387607 39.5462271,147.867106 38.8012333,134.335174" id="Fill-10" fill="#1F375A"></path>
                    <path d="M27.0128205,13.4024949 C27.0128205,8.78307218 23.0754138,5.03806228 18.2177472,5.03806228 C13.3604836,5.03806228 9.42307692,8.78307218 9.42307692,13.4024949 C9.42307692,14.1738416 9.54158609,14.9175666 9.74716322,15.6266614 C9.75482198,15.8080577 9.7588529,15.993989 9.75562816,16.1881655 C9.73023334,17.8545383 9.80440234,19.5324544 10.1232484,21.1761526 C10.7436077,24.3749122 12.3620237,27.3502244 15.4247198,29.1695472 C16.4449467,29.7759882 17.6163333,30.2373121 18.8356878,30.2283737 C20.4750647,30.2162866 21.9794056,29.3542417 23.1189478,28.2840033 C26.8822186,24.7484237 27.206708,19.4355723 26.9410701,14.4212003 C26.9837979,14.0868538 27.0128205,13.7479725 27.0128205,13.4024949" id="Fill-12" fill="#E8DBCE"></path>
                    <path d="M38.8004412,91.2249389 C38.7705406,82.6570044 38.740236,74.0886613 38.7099313,65.5207268 C38.6848795,58.3013011 37.0585295,50.6413626 35.9994828,43.5110202 C35.4168252,39.5872683 34.7299197,38.2232312 32.9694211,34.7240552 C32.7189026,34.2259242 32.6764761,33.8896143 30.3454419,33.1307716 C29.839152,32.9660901 28.6362592,32.2746729 28.0156198,32.380919 C24.97182,32.9007079 21.8734719,31.7344521 18.8296721,32.2546496 C15.6088931,32.8046777 10.2069869,31.1566365 7.69654913,33.3837192 C4.30404376,36.3933456 4.06847556,43.5437113 3.52905266,48.2214022 C2.80133682,54.5316061 1.07437542,60.9321192 0.769712597,67.2807351 C0.501819427,72.8521196 0.356761134,78.4296337 0.254937486,84.0071477 C0.202005351,86.9150231 -0.846939853,97.0251612 1.73582507,98.9698743 C3.24620919,100.107525 7.28925453,100.571739 11.4494779,100.711494 C11.5993849,100.716398 11.7488879,100.72171 11.8987949,100.725796 C11.9387971,100.727022 11.9783952,100.727839 12.0183973,100.728657 C13.7130338,100.774016 15.4060539,100.768295 16.9402777,100.734378 C19.2054498,100.684524 21.1219164,100.5746 22.1611641,100.47857 C27.0143539,100.030701 31.8077426,99.0307616 36.5619372,97.925393 C37.406427,97.7292463 38.3385983,97.4664914 38.8008453,96.6851735 C39.1325803,96.1237035 38.8028656,91.8889773 38.8004412,91.2249389" id="Fill-14" fill="#B7BCC2"></path>
                    <path d="M13.1253439,181.035774 C12.5220011,181.530184 13.3424175,181.922385 13.7363959,181.959228 C14.4529415,182.026179 15.1974836,181.986959 15.8982052,181.822156 C16.0840364,181.778182 16.2735193,181.723115 16.4228335,181.606644 C16.5400938,181.51513 16.625706,181.391131 16.7092895,181.26951 C16.9405641,180.932376 17.4883198,180.399538 17.5747435,180.008525 C17.6461546,179.686446 17.4477453,179.373081 17.2927508,179.078733 C16.9640973,178.453985 16.4009233,177.812202 16.4293254,177.069398 C14.8749163,177.236579 13.3842092,176.712853 12.0963746,177.122484 C11.9880407,177.651361 11.5827014,178.083574 11.7713729,178.497167 C11.6468091,178.224211 7.89285645,179.146477 7.4477542,179.231651 C6.73202002,179.368724 6.0122284,179.484403 5.28513337,179.547393 C4.71871336,179.596517 3.63415699,179.341388 3.31564716,179.892846 C3.20244431,180.088946 3.16511577,180.317532 3.14848023,180.54176 C3.13549639,180.712506 3.13387341,180.888005 3.19067771,181.050036 C3.28846225,181.32933 3.55057352,181.529788 3.83418927,181.631602 C6.91866272,182.739271 9.99299255,180.9918 13.1253439,181.035774" id="Fill-16" fill="#1A1A1A"></path>
                    <path d="M39.0191021,180.252231 C39.6243129,180.82693 38.8053504,181.287288 38.4117957,181.331825 C37.6955179,181.412334 36.9511589,181.368654 36.2495503,181.178515 C36.0638797,181.128411 35.874437,181.065031 35.7243917,180.929279 C35.6070378,180.823076 35.521118,180.678759 35.4368746,180.536583 C35.2046816,180.144315 34.6552139,179.524223 34.5667794,179.068575 C34.4942714,178.69258 34.6912583,178.326434 34.8454949,177.982557 C35.1719901,177.252836 35.7315167,175.938995 35.7005018,175.072664 C37.2550217,175.262375 39.5061207,175.266229 40.795337,175.739863 C40.4550107,176.413485 40.5505703,176.802755 40.3636424,177.286239 C40.4868639,176.966771 44.2434458,178.030949 44.6885523,178.128587 C45.4048301,178.28618 46.1248801,178.418934 46.8520551,178.490022 C47.4182876,178.545265 48.5017154,178.244212 48.822343,178.886573 C48.936344,179.114825 48.9740648,179.381619 48.9920871,179.643274 C49.0054989,179.842405 49.0075945,180.047104 48.9514323,180.236386 C48.8546154,180.562277 48.5935029,180.796953 48.3101771,180.91686 C45.2304758,182.219139 42.1507744,180.190565 39.0191021,180.252231" id="Fill-18" fill="#1A1A1A"></path>
                    <path d="M31.0801727,7.77289716 C30.9445497,7.41718955 30.670065,7.02727136 30.3676461,6.62375138 C30.0980196,5.0154419 29.4223339,3.5039937 28.4515164,2.5551653 C27.8717789,1.98883592 27.1956884,1.82355347 26.5750615,1.94019919 C25.8459363,1.62199957 25.028555,1.43033788 24.1383016,1.39860035 C23.2759826,0.849582356 22.3278364,0.451420655 21.3732128,0.256873737 C16.3191323,-0.771092395 10.8023144,1.33718618 7.9226545,5.66832816 C7.49351918,3.84403863 4.11468583,3.5649957 3.82846067,5.72685711 C3.54385489,7.8738802 4.26852679,9.76082043 6.35833481,10.6383424 C8.17487271,11.4008674 9.35054154,10.7718874 10.3926116,9.710535 C10.4363349,9.68745316 10.4804629,9.67220266 10.5237813,9.64582342 C12.3075268,8.56798403 14.2969333,7.30178036 16.3936237,6.76471546 C17.9575385,7.32857178 19.470443,8.62033034 20.7137208,9.80739628 C21.4286765,10.4899592 22.2881616,11.1247097 23.1735569,11.4449702 C23.3107992,11.761109 23.4646402,12.0533415 23.6342701,12.3212557 C23.6095745,13.4431979 24.3030734,14.6496361 25.7111231,14.7778227 C26.2685941,14.8285203 26.8114908,14.7856541 27.3296919,14.6669475 C27.2936608,14.8062629 27.2560102,14.9476391 27.2264565,15.0750014 C27.0867851,15.681724 26.9434701,17.7619746 26.2880267,18.0793499 C24.8257278,18.7878799 25.0111467,21.0198111 26.2880267,21.7798631 C27.5442596,22.5275498 29.6454033,21.5993301 29.4551263,19.9296065 C29.4069498,19.5100117 29.7672615,18.6914308 29.9008602,18.2940934 C30.0964002,17.7125135 30.3579298,17.2059496 30.5218919,16.5963418 C30.6979993,15.9426312 30.8222866,15.3964984 30.873297,14.715172 C30.8923247,14.4600353 30.7368644,13.1344783 30.8376707,13.0009334 C31.2101278,12.5087957 31.2198441,11.9540072 31.0170169,11.4672277 C31.0631692,11.3534672 31.1089166,11.2392946 31.1481866,11.1214123 C31.5182146,10.0163694 31.4971626,8.86722357 31.0801727,7.77289716" id="Fill-20" fill="#564A47"></path>
                </g>
                <path d="M220.343125,204.425777 C219.800044,204.720091 220.538433,204.953796 220.892767,204.975495 C221.537748,205.015402 222.207431,204.992206 222.838131,204.893935 C223.005262,204.867996 223.175481,204.835073 223.309804,204.765734 C223.415564,204.711361 223.492375,204.637533 223.567642,204.564953 C223.775688,204.36442 224.26859,204.046911 224.346559,203.814203 C224.410633,203.622151 224.232308,203.435586 224.092967,203.260495 C223.796917,202.888612 223.290505,202.506254 223.31598,202.064035 C221.917557,202.163553 220.57626,201.85178 219.417147,202.095462 C219.319879,202.410477 218.955124,202.667877 219.124957,202.914302 C219.012635,202.751681 215.635268,203.3009 215.235002,203.351532 C214.590794,203.433092 213.943111,203.502181 213.288867,203.539594 C212.779367,203.568776 211.803598,203.41688 211.516811,203.745364 C211.414911,203.862092 211.381716,203.998274 211.366663,204.131713 C211.355083,204.233476 211.353539,204.337982 211.404489,204.434257 C211.492494,204.600619 211.72833,204.720091 211.983852,204.780699 C214.759083,205.440162 217.524664,204.399588 220.343125,204.425777" id="Fill-57" fill="#1A1A1A"></path>
                <path d="M221.390848,137.455248 C218.057897,137.366979 214.72535,137.278711 211.392399,137.190443 C211.184216,136.758819 212.047671,137.130923 212.040799,137.610325 C211.824935,152.723633 213.173072,167.858807 216.057318,182.695163 C217.299949,189.088539 218.834036,195.486369 218.859099,202 C220.226639,201.997571 221.59418,201.995141 222.962125,201.993117 C223.426596,181.617319 223.891066,161.241926 224.355537,140.866128 C224.378983,139.835657 224.337346,138.653348 223.543017,137.997814 C222.960912,137.517197 222.145158,137.475088 221.390848,137.455248" id="Fill-59" fill="#4D4D4D"></path>
                <path d="M248.274224,198 C250.109963,197.979429 251.93247,197.319153 253.36,196.157517 C250.134023,190.434849 246.908045,184.711777 243.682068,178.989109 C242.661945,177.179297 241.63661,175.358191 240.939686,173.399545 C240.083168,170.991571 239.535414,168.452913 239.4087,165.898525 C238.015254,137.858338 238.015254,137.858338 240.10001,131.82106 C240.37108,131.035343 245.438812,128.149001 240.10001,131.82106 C238.139562,133.169445 230.709989,132.061051 228.36058,132.409945 C227.845305,132.486177 227.28512,132.586207 226.941069,132.979469 C226.547697,133.428392 227.134347,134.997407 226.621479,134.694091 C222.430716,132.215532 225.228835,135.587098 225.855585,143.38377 C226.07613,146.124907 228.948433,163.593405 229.76806,166.217168 C231.216843,170.854837 233.173281,175.649407 236.116158,179.505795 C240.646962,185.443043 243.676454,190.91241 248.274224,198" id="Fill-61" fill="#4D4D4D"></path>
                <path d="M245.679755,96.7134731 C244.901467,85.7961689 242.979598,74.5155436 236.894359,65.2109902 C232.52388,58.5277735 226.51121,50.7587037 218.076431,57.7472909 C217.31282,58.3794037 212.077215,56.0013771 211.562297,56.7999436 C210.279692,56.4505964 208.842571,56.8130955 207.988453,58.3259742 C205.129295,63.389453 204.102722,68.9781856 203.644474,74.7243299 C203.119364,81.3150723 202.960771,87.9526683 202.763447,94.5598506 C202.672124,97.6234197 202.602408,100.686989 202.548185,103.750969 C201.374434,111.942954 200.792247,120.18056 202.124591,128.418166 C202.19186,128.832451 202.328846,129.189196 202.515569,129.493745 C202.546554,131.561469 202.582431,133.628782 202.628908,135.696506 C202.65867,137.019094 203.639989,138.758842 205.093418,138.959409 C217.941892,140.730804 230.783027,140.260213 243.447223,137.39721 C244.93286,137.061426 245.841202,135.575673 245.911733,134.134308 C246.523681,121.682753 246.566489,109.15352 245.679755,96.7134731" id="Fill-63" fill="#0065DB"></path>
                <path d="M182.058659,20.6216719 C182.196534,18.9794308 182.575289,17.2511025 182.195998,15.7288188 C182.07368,15.7862102 181.951631,15.844072 181.829313,15.9019339 C181.766545,16.2284063 181.704045,16.5553492 181.641545,16.8818217 C181.596749,16.0402378 181.474163,15.2118256 181.279689,14.4365711 C181.090848,13.6834265 180.716117,12.8799467 180.24321,13.0149576 C179.776472,13.1480869 179.568049,14.0879889 179.488918,14.8877053 C179.122502,18.5842768 179.605335,22.348589 180.085484,26 C180.8497,25.9482536 181.609088,25.6834064 182.325289,25.21863 C182.021373,23.755149 181.929367,22.1623021 182.058659,20.6216719" id="Fill-65" fill="#E8DBCE"></path>
                <path d="M206.932032,74.8202338 C212.500893,76.813136 218.095009,61.6281362 211.080265,59.3032861 C204.727217,57.1970358 194.513851,57.8593124 188.636872,54.2329834 C185.816662,52.4926855 183.913232,49.7925723 183.270055,46.3909153 C181.989175,39.6135096 180.879612,32.8130294 179.94305,26 C178.415507,26.0825822 176.887543,26.1647595 175.36,26.2469369 C175.391149,34.8079557 175.422297,43.3685697 175.453867,51.9295884 C175.45976,53.5788031 175.477859,55.2907639 176.115984,56.8436327 C176.735168,58.3499477 177.873775,59.5465796 179.031323,60.6213623 C186.716183,67.7554097 198.0972,71.6586319 206.932032,74.8202338" id="Fill-67" fill="#0065DB"></path>
                <path d="M185.023678,42.0010462 C181.891638,41.9672415 178.728691,42.7568235 175.691093,43.7629168 C175.117573,43.9520623 175.35053,45.1835205 175.921761,44.9766678 C178.927305,43.8884772 181.932277,43.4144061 185.013375,42.9741397 C185.456966,42.9105546 185.490164,42.0058755 185.023678,42.0010462" id="Fill-69" fill="#CACACA"></path>
                <path d="M193.696335,67.3964932 C192.866539,64.062552 192.59109,58.0755678 195.271439,55.4652259 C195.532663,55.2104113 195.1585,54.849772 194.892103,55.0665269 C191.75569,57.6230281 192.174683,64.082046 192.799293,67.6466664 C192.906628,68.2602638 193.848931,68.0086982 193.696335,67.3964932" id="Fill-71" fill="#CACACA"></path>
                <path d="M185.073693,46.1021224 C183.809278,45.8288916 182.514423,46.1647128 181.259592,46.3994265 C179.435971,46.7400623 177.627571,47.1806018 175.8327,47.6596585 C175.015312,47.877521 175.344522,49.190714 176.161346,48.9764626 C177.50919,48.6231883 178.857599,48.2753306 180.211644,47.9491387 C181.745515,47.5796151 183.381982,46.963943 184.959259,46.9230186 C185.398957,46.9115838 185.533121,46.2014244 185.073693,46.1021224" id="Fill-73" fill="#CACACA"></path>
                <path d="M197.61119,67.2097759 C196.635586,63.1797098 196.01236,59.4322177 198.297061,55.6829201 C198.562381,55.2468713 197.925797,54.7530437 197.560061,55.139439 C194.318641,58.5637313 195.350902,63.4771799 196.319136,67.5374896 C196.510756,68.340975 197.805113,68.0110043 197.61119,67.2097759" id="Fill-75" fill="#CACACA"></path>
                <path d="M223.244131,51.7274336 C223.968506,50.3392033 224.382606,48.5564094 224.359046,46.4714248 C224.315919,42.6238802 223.882252,38.6822035 222.294536,35.3268737 C220.466028,31.4621743 216.227193,27.8719538 212.166857,29.3332026 C207.411297,31.0447375 208.20236,38.2220993 208.849266,42.9792953 C209.363197,46.7599796 210.798371,50.5015154 213.404365,52.8266692 C217.296586,56.2990045 221.341348,55.3739575 223.244131,51.7274336" id="Fill-77" fill="#E8DBCE"></path>
                <path d="M252.731377,200.603 C252.387277,201.322952 253.292263,201.35897 253.664742,201.2323 C254.3423,201.000815 255.001332,200.656824 255.569313,200.21085 C255.719882,200.09268 255.868873,199.962368 255.956377,199.789968 C256.025354,199.65399 256.052157,199.500611 256.077777,199.350065 C256.14912,198.933634 256.427001,198.199517 256.345016,197.79118 C256.277221,197.454474 255.968595,197.237153 255.707269,197.020237 C255.152294,196.560099 254.179119,195.719952 253.899661,195 C252.558735,195.799272 250.520545,196.735736 249.520566,197.656821 C250.067657,198.065563 250.119292,198.422504 250.460633,198.739785 C250.235569,198.530153 247.209619,200.955894 246.841081,201.220159 C246.247873,201.645898 245.642841,202.052617 245.009035,202.41239 C244.515549,202.692034 243.427279,202.895596 243.364608,203.55282 C243.342535,203.786329 243.402842,204.019433 243.479702,204.240397 C243.538038,204.40875 243.608592,204.576698 243.726839,204.707819 C243.930225,204.933639 244.250281,205.017006 244.549447,204.997176 C247.802038,204.783497 249.872549,201.851079 252.731377,200.603" id="Fill-79" fill="#1A1A1A"></path>
                <path d="M234.36,66.8701358 C234.155343,66.2456952 233.946,65.6223166 233.733532,65 C225.361352,67.2147463 217.000108,69.167185 208.517008,70.1272093 C208.466234,70.7516499 208.407649,71.3755594 208.36,72 C217.138369,71.1865281 225.871822,69.2654176 234.36,66.8701358" id="Fill-81" fill="#CACACA"></path>
                <path d="M204.36,96.5874031 C204.372149,97.0581306 204.391992,97.5292725 204.40738,98 C216.553705,97.1546795 228.627948,95.3198366 240.36,92.8041792 C240.251876,92.2020955 240.142942,91.6004262 240.027529,91 C228.282113,93.5231161 216.439507,95.5527141 204.36,96.5874031" id="Fill-83" fill="#CACACA"></path>
                <path d="M204.36,125.746276 C204.417592,126.164352 204.472129,126.582429 204.531466,127 C207.315061,126.613229 210.074223,126.173441 212.777103,125.745771 C223.14534,124.106286 233.411483,121.763444 243.36,118.799546 C243.33644,118.199697 243.314188,117.599344 243.287574,117 C235.425009,119.346377 227.442461,121.378187 219.233473,123.02979 C214.543246,123.973492 209.50267,124.991416 204.36,125.746276" id="Fill-85" fill="#CACACA"></path>
                <path d="M204.36,100.191886 C204.370821,100.461423 204.389433,100.730463 204.40112,101 C217.565454,99.9632028 230.675683,97.7491103 243.36,95.0148754 C243.313686,94.6760854 243.260447,94.3382918 243.212402,94 C233.183114,96.0088256 223.174168,97.9942349 212.912013,99.2916014 C210.070431,99.6508185 207.217596,99.9427758 204.36,100.191886" id="Fill-87" fill="#CACACA"></path>
                <path d="M208.422188,70.5515029 C208.400773,70.7010019 208.380592,70.850501 208.36,71 C218.13306,70.4876956 227.855874,69.6117947 237.36,68.5418351 C237.245096,68.3612234 237.136369,68.1800844 237.018993,68 C229.137121,68.8656179 221.237952,69.6814027 213.174045,70.2482862 C211.593388,70.3595535 210.008612,70.4597469 208.422188,70.5515029" id="Fill-89" fill="#CACACA"></path>
                <path d="M207.509266,133 C219.909761,131.978156 232.178166,128.89911 243.36,124.018466 C243.35223,123.678978 243.342006,123.339489 243.333827,123 C231.748772,127.882333 219.704879,130.826258 207.36,131.876816 C207.409074,132.25121 207.459374,132.625605 207.509266,133" id="Fill-91" fill="#CACACA"></path>
                <path d="M190.767205,96.9635868 C190.19641,97.1688019 189.614364,97.3805805 189.140505,97.7612568 C188.666213,98.1423706 188.31136,98.7304499 188.365453,99.3399695 C188.41998,99.9499267 188.990774,100.513503 189.587967,100.411551 C189.543394,100.581324 189.579744,100.771225 189.683604,100.912556 C190.917801,101.263916 192.151134,100.483311 193.280173,99.8689782 C194.152593,99.3942268 195.069154,99.002174 196.01341,98.6989456 C196.810965,98.4429736 197.711514,98.1887519 198.132145,97.4571533 C198.438531,96.9237689 198.404776,96.2494906 198.214367,95.6635991 C198.024391,95.0772701 197.694204,94.5504492 197.418111,94 C195.934217,94.2782875 194.450324,94.556575 192.966431,94.8348625 C192.724958,94.8803686 192.472665,94.9302503 192.27966,95.0842711 C192.086654,95.2378543 191.978034,95.5305812 192.106128,95.7423598 C192.428092,95.7764894 192.735776,95.9344481 192.952583,96.1777309 C192.224268,96.4398287 191.49552,96.701489 190.767205,96.9635868" id="Fill-93" fill="#E8DBCE"></path>
                <path d="M236.730532,69.0664923 C235.583128,64.1326757 228.99638,63.0901645 227.709691,69.3079849 C226.544451,74.9392649 226.156321,80.6880166 223.518394,86.1183256 C222.252088,88.7248084 219.98021,90.6845823 216.898524,91.6759298 C210.758509,93.6496202 204.576028,95.4825081 198.36,97.1709097 C198.627105,98.4471367 198.89421,99.723773 199.161315,101 C207.114586,99.8437007 215.067858,98.6874014 223.021129,97.5311021 C224.553267,97.3080284 226.141883,97.0669451 227.506283,96.3240484 C228.829068,95.6036637 229.799394,94.4866581 230.65379,93.3692432 C236.32669,85.9517367 238.570541,76.9780354 236.730532,69.0664923" id="Fill-95" fill="#0065DB"></path>
                <path d="M214.363579,91.2771683 C214.724818,93.5152791 215.602194,95.7128426 216.598852,97.803852 C216.787103,98.1984799 217.524845,97.9382235 217.326418,97.5468959 C216.282273,95.4841753 215.620284,93.3757213 214.970167,91.2102183 C214.876889,90.8985707 214.309874,90.9438327 214.363579,91.2771683" id="Fill-97" fill="#CACACA"></path>
                <path d="M233.846604,78.0534641 C231.431754,79.8044558 226.957225,81.3081853 224.689805,78.1811266 C224.468661,77.8760805 224.239238,78.4498897 224.432789,78.768374 C226.710852,82.5216507 231.52439,80.735048 234.136339,79.2178803 C234.585723,78.9571801 234.290076,77.7316203 233.846604,78.0534641" id="Fill-99" fill="#CACACA"></path>
                <path d="M217.366369,88.2459413 C217.306677,89.1808518 217.678677,90.0756215 217.974749,90.9526544 C218.405009,92.2264293 218.904511,93.4792001 219.428845,94.7189018 C219.667612,95.2832088 220.556783,94.9140055 220.320403,94.3492317 C219.930734,93.4180552 219.544886,92.4859451 219.173841,91.5473005 C218.75361,90.484499 218.149527,89.3722215 217.955648,88.2450077 C217.901686,87.9304148 217.387858,87.9061435 217.366369,88.2459413" id="Fill-101" fill="#CACACA"></path>
                <path d="M236.681075,78.0458626 C233.71593,79.4699207 230.929104,80.5409301 227.83836,79.0157975 C227.479007,78.8383241 227.169661,79.474666 227.501491,79.747994 C230.44454,82.1714078 234.07567,80.5760451 237.064849,79.1543597 C237.656405,78.8729647 237.270692,77.7625695 236.681075,78.0458626" id="Fill-103" fill="#CACACA"></path>
                <path d="M236.692529,35.2280284 C235.969605,33.9927177 234.915256,33.4533991 233.847422,33.4090657 C233.856412,33.3470849 233.869081,33.2855346 233.877663,33.2231234 C235.286322,31.9710263 235.820035,29.6837647 234.145336,27.6857465 C233.672514,27.1218939 233.205822,26.7573266 232.704393,26.5025169 C231.077099,25.2301899 229.379107,24.1463877 227.470244,23.2928612 C227.317405,23.2244241 227.162522,23.1710518 227.00723,23.1245663 C226.496811,20.0186423 224.295755,17.3203278 220.738757,16.74098 C219.915302,16.6071188 219.025644,16.6127143 218.142116,16.7396887 C214.619855,14.8974833 210.553255,16.697077 208.490736,19.9222278 C208.329723,20.0065905 208.16871,20.0991312 208.007697,20.2075975 C206.849956,20.9888131 206.076767,22.294713 205.821761,23.7047749 C205.77313,23.7163963 205.7245,23.7219918 205.675869,23.7353349 C202.610083,24.5656186 200.64033,27.9203264 201.608043,31.1101826 C202.085769,32.6838049 203.50015,34.0168213 205.147468,33.9483842 C205.928831,33.9156722 206.710193,33.8833905 207.491556,33.8506785 C208.339939,33.8153839 209.10046,33.4469428 209.708958,32.8895465 C209.869971,32.9713267 210.033845,33.0483722 210.204666,33.1150876 C210.771072,33.3371852 211.354233,33.473629 211.937803,33.5153799 C212.470699,34.3469549 213.241436,35.0171217 214.113522,35.450126 C216.205873,36.4883035 218.101658,36.4289053 219.973332,35.9356419 C220.125355,36.0914546 220.28555,36.2429631 220.463319,36.383711 C220.739574,36.6023653 221.020325,36.7766861 221.304754,36.9195862 C220.992128,37.4098367 220.733444,37.9556116 220.521757,38.5328072 C219.777174,40.5643983 221.361967,42.6687307 223.085297,43.2885381 C223.431842,43.4133605 223.781249,43.4869626 224.130655,43.5209659 C223.397923,45.5417965 224.342751,48.3184477 226.531547,48.8048244 C229.332928,49.4272144 232.049307,48.5650794 233.853551,46.1607431 C235.106102,44.492428 235.324328,42.8124916 235.479619,40.9728686 C237.151457,39.6088618 238.065635,37.5738274 236.692529,35.2280284" id="Fill-105" fill="#8A6239"></path>
                <path d="M203.093098,3.24049517 C202.580071,4.04325739 202.070289,4.83839937 201.424647,5.59192316 C201.157387,5.90347344 201.786401,6.15875124 202.080834,5.88119892 C202.822593,5.18306836 203.587468,4.49021335 204.251361,3.75134386 C204.738026,3.2088419 203.452824,2.67747721 203.093098,3.24049517" id="Fill-107" fill="#666666"></path>
                <path d="M192.507793,4.23989516 C192.83602,4.64356514 193.247482,4.90040366 193.637377,5.17542131 C194.047829,5.46535517 194.494001,5.89512852 194.953315,5.99488068 C195.181119,6.04429063 195.483398,5.7282534 195.307153,5.38284988 C195.046661,4.87196963 194.638906,4.53821939 194.279676,4.16904316 C193.883715,3.76211026 193.491461,3.30203836 193.032484,3.04566597 C192.550591,2.77577577 192.125649,3.77050063 192.507793,4.23989516" id="Fill-109" fill="#666666"></path>
                <g id="Group-113" transform="translate(195.360000, 0.000000)">
                    <mask id="mask-11" fill="white">
                        <use xlink:href="#path-10"></use>
                    </mask>
                    <g id="Clip-112"></g>
                    <path d="M0.23052,0.508227273 C0.29592,0.956318182 0.58872,1.38340909 0.86112,1.81322727 C1.10292,2.19531818 1.29372,2.58886364 1.83132,2.90713636 C2.08152,3.05522727 2.66172,2.97531818 2.75232,2.80486364 C2.93172,2.46640909 2.79132,2.12304545 2.68452,1.78159091 C2.54232,1.32504545 2.46312,0.843409091 2.11032,0.408954545 C1.76532,-0.0148636364 0.15372,-0.0181363636 0.23052,0.508227273" id="Fill-111" fill="#666666" mask="url(#mask-11)"></path>
                </g>
                <path d="M129.029411,155.719381 C129.591588,142.908605 128.411096,129.842607 128.513817,116.952639 C128.143942,112.484193 128.743545,107.933272 130.267236,103.732768 C130.361596,103.471801 130.464317,103.20509 130.65224,103.005261 C131.236713,102.38567 132.23605,102.715161 133.011632,103.044242 C140.446145,106.202518 149.227177,105.459008 156.005552,101 C157.344505,103.102098 157.728712,105.680174 158.05917,108.171261 C158.593079,112.198606 159.178349,116.218156 159.32168,120.263146 C159.322078,120.270942 159.322874,120.278328 159.323273,120.286124 L159.322476,120.286124 C159.352735,121.154783 159.369855,122.024263 159.35393,122.895384 C159.260366,127.937465 158.315972,132.905688 157.578214,137.875141 C157.096462,141.117124 156.673237,144.381264 156.633024,147.66551 C156.599978,150.353963 156.965871,152.810993 156.382194,155.442821 C154.945298,161.923914 154.941317,168.985207 154.333752,175.607042 C153.683187,182.698289 153.040187,189.790767 152.508269,196.892682 C152.487167,197.175397 152.466065,197.458111 152.445362,197.740825 C152.098182,197.836431 146.797712,199.093669 146.797712,197.679687 C146.372496,183.894798 145.947678,170.10991 145.522461,156.325432 C145.343696,150.524659 145.153383,144.639358 143.726441,139.112683 C143.138385,139.173411 142.550328,139.234139 141.962272,139.294457 C138.730152,157.535892 135.498429,175.777327 132.266309,194.018762 C131.981637,195.625187 131.636448,197.357992 130.60924,198.392833 C129.582033,199.427674 127.663385,199.137984 127.36,197.536893 C128.308773,183.598543 128.417466,169.665117 129.029411,155.719381" id="Fill-114" fill="#0065DB"></path>
                <path d="M150.138679,198.094578 C152.053202,197.901967 153.986912,198.003909 155.881495,198.397118 C157.342311,199.75479 158.942701,200.878041 160.631122,201.730697 C161.121321,201.978273 161.637479,202.217862 161.999391,202.699389 C162.361303,203.180917 162.507648,203.990822 162.169437,204.498658 C161.874114,204.942133 161.351185,204.990051 160.889201,204.996158 C157.350588,205.042666 153.808213,204.66684 150.326783,203.874786 C150.117988,203.827338 149.896025,203.770024 149.745166,203.583521 C149.624779,203.43413 149.568348,203.224137 149.524332,203.019311 C149.168815,201.367555 149.397549,199.533053 150.138679,198.094578" id="Fill-116" fill="#736357"></path>
                <path d="M132.403174,198.005504 C130.46389,197.961152 128.520047,198.185044 126.629388,198.670356 C125.223075,200.000486 123.66443,201.127194 122.003977,202.014658 C121.521911,202.27224 121.013252,202.524705 120.672121,202.985708 C120.330609,203.446712 120.222343,204.190459 120.587787,204.627581 C120.907266,205.009263 121.436438,205.016939 121.90255,204.991351 C125.471516,204.792621 129.023767,204.210503 132.494345,203.256084 C132.702519,203.198938 132.923229,203.131558 133.066063,202.952444 C133.180407,202.809154 133.227132,202.614688 133.261701,202.426192 C133.539773,200.905008 133.219914,199.258871 132.403174,198.005504" id="Fill-118" fill="#736357"></path>
                <path d="M156.14946,26.4798001 C156.101831,25.733746 156.04125,24.9479559 155.645593,24.3313785 C155.036441,23.3817333 153.845293,23.1308162 152.774472,23 C148.200399,23 143.686489,23.2218964 139.07732,23.4598658 C138.69002,23.4795106 138.275562,23.5103171 137.970568,23.7656989 C137.645102,24.0384931 137.52394,24.5019307 137.454168,24.937687 C137.130791,26.9593107 137.74621,29.0746934 137.719471,31.1427502 C137.691896,33.2617047 137.771696,35.3958392 138.116381,37.4871125 C138.786532,41.5549158 140.534606,45.3392097 143.842746,47.6537188 C144.944902,48.4243288 146.210418,49.0114391 147.527323,49 C149.298377,48.9846508 150.923201,47.8881164 152.154039,46.5268243 C156.736887,41.457585 156.600266,33.5121753 156.14946,26.4798001" id="Fill-120" fill="#F0E5D4"></path>
                <path d="M149.278693,46 C148.347496,47.7066976 146.038111,48.2074401 143.648858,47.6433461 C142.354622,47.337969 140.699162,46.3300349 139.36,46.2241961 C140.387856,47.3888019 141.803256,48.6076549 143.49865,48.9020308 C145.194045,49.1964067 147.078673,48.8257813 148.314823,47.8117777 C148.907031,47.3258298 149.599529,46.6399642 149.278693,46" id="Fill-122" fill="#333333"></path>
                <path d="M153.688329,18.7090345 C152.240933,17.5101896 150.418181,17.2386865 148.647823,17.1492139 C146.712505,17.0509262 144.89753,16.5599287 142.934377,16.8953409 C141.918826,17.0689971 140.922923,17.3845753 139.897548,17.474048 C138.872582,17.5639613 137.776393,17.4004424 136.967145,16.7163956 C136.618395,16.4215327 136.288473,16.0182448 135.845577,16.0006147 C135.225849,15.9759326 134.837394,16.6992063 134.621676,17.3255146 C133.518938,20.5293394 133.087503,24.124111 133.533674,27.5178998 C133.895113,30.2686317 135.753477,33.0652018 136.739557,35.6621114 C136.776396,35.758636 136.815283,35.8586867 136.889372,35.9261217 C137.064975,36.0852331 137.354782,35.9679931 137.476353,35.7581953 C137.597515,35.5483974 137.599152,35.2861501 137.60038,35.0388884 C137.61266,33.0938507 137.795222,31.0214358 138.34127,29.1579372 C139.015439,26.8572129 139.684695,27.7832324 141.577853,27.6452771 C144.422296,27.4381237 147.499239,24.9558096 150.326081,26.514308 C151.262222,27.0308691 151.944987,27.945429 152.59787,28.8335439 C153.550793,30.1293542 154.553655,31.5816313 154.490618,33.2331283 C155.834043,32.5041248 156.141042,30.6199109 156.259748,29.0049963 C156.531953,25.3035628 156.421434,20.9727357 153.688329,18.7090345" id="Fill-124" fill="#333333"></path>
                <path d="M163.159318,96.4474138 C162.95559,94.4785472 162.751862,92.5092601 162.548134,90.5403935 C161.276604,78.2500072 159.976364,65.8204592 156.081148,54.2145306 C155.115997,51.3396405 152.659856,48.0371747 150.056228,50.992787 C149.738837,51.3530942 149.386836,51.742411 148.905047,52.0972526 C146.310859,54.0110432 142.827819,53.8147031 139.98428,52.6778644 C137.499428,51.6839714 135.999786,47.8904451 132.93836,49.316959 C130.053132,50.6614893 128.747778,56.0442354 128.356448,59.1200902 C127.640647,64.7483665 127.328762,70.554484 126.775786,76.23153 C125.790577,86.3508235 124.804581,96.4785255 124.415216,106.646589 C124.253965,110.862225 124.19143,115.114019 123.36,119.232957 C125.459814,119.819875 127.663065,119.655908 129.829739,119.64792 C134.909959,119.62858 139.956356,120.487936 145.02635,120.846982 C149.075738,121.133714 153.206145,121.096716 157.169795,120.037657 C157.814802,119.865281 165.403078,118.1369 165.36,117.719414 C164.626316,110.628467 163.892817,103.53794 163.159318,96.4474138" id="Fill-126" fill="#1F375A"></path>
                <path d="M165.839804,113.078766 C165.964667,113.05522 166.008516,112.989951 165.936688,112.866023 C165.468137,112.055122 164.742761,110.56303 163.996504,108.816473 C163.43441,100.13863 162.549926,91.4409575 161.017741,82.8981954 C159.127669,72.3614336 155.053115,62.5843497 152.622247,52.2227393 C151.90731,49.1741133 148.226974,49.4471678 146.857235,51.5774881 C146.751582,51.6014475 146.645093,51.6221021 146.538604,51.6431699 C145.367645,50.6244827 143.942783,49.7755766 142.192608,49.1522194 C140.240731,48.4578101 138.209927,50.2576561 138.210762,52.1525135 C138.211597,54.172538 138.17986,56.1979327 138.131,58.225806 C134.726699,74.7239121 132.682532,91.4781359 132.041928,108.308369 C132.041093,108.327371 132.043599,108.346786 132.043599,108.365376 C131.853589,109.230392 131.66191,110.094583 131.463966,110.955881 C131.03634,112.259603 130.579482,113.744672 130.526447,114.895549 C130.498885,115.008323 130.473411,115.122337 130.445432,115.235111 C130.080029,116.70944 130.921082,117.986723 132.31337,118.489871 C142.967262,122.341962 154.35697,121.719844 164.568202,116.903181 C164.70977,116.836673 164.835051,116.761903 164.952397,116.683415 C165.041347,116.645824 165.130714,116.608645 165.220081,116.571467 C165.378353,116.450431 165.536624,116.329395 165.694896,116.208771 C166.061969,115.845663 166.272023,115.378868 166.340093,114.87572 C166.423613,114.264343 166.241956,113.579022 165.839804,113.078766" id="Fill-128" fill="#F0F0F0"></path>
                <path d="M174.856973,23.3846327 C175.073596,22.5680582 175.401534,21.792956 175.82477,21.0984148 C176.235994,20.423418 176.927106,19.7684423 177.592591,20.0797226 C178.250069,20.3867127 178.384607,21.3963477 178.356579,22.2181658 C178.226044,26.0169295 176.844621,29.5639994 175.486822,33 C174.381283,32.6620249 173.32099,32.1143051 172.36,31.3849653 C173.066328,30.0492725 173.487161,28.5066952 173.575653,26.9321794 C173.669749,25.2537446 173.428301,23.3998869 174.255153,22.0341625 C174.423326,22.1371281 174.591499,22.2400937 174.759672,22.343536 C174.792106,22.6905682 174.824539,23.0376005 174.856973,23.3846327" id="Fill-130" fill="#E8DBCE"></path>
                <path d="M133.571609,71.6746145 C129.300853,74.4838408 130.764692,58.2349503 130.553468,56.2364017 C130.309004,53.9243472 129.946726,50.0381891 131.961345,48.2722019 C135.521851,45.1507023 145.226775,48.8720952 149.468918,49.336807 C154.066187,49.8401422 158.768226,49.4132318 163.191719,48.0910012 C164.180935,47.7955743 165.175621,47.4454996 165.9898,46.8221858 C168.194604,45.1342669 174.493863,25.881801 174.936086,26.000547 C176.410864,26.3974627 177.885222,26.7943784 179.36,27.1912941 C178.020708,33.1380445 176.726858,39.0967107 175.342124,45.0335999 C174.273804,49.6121005 174.076886,54.9503291 170.69815,58.6096782 C168.555619,60.9299504 165.43944,62.1671276 162.329152,62.899737 C154.063241,64.846514 140.917309,66.8417755 133.571609,71.6746145" id="Fill-132" fill="#1F375A"></path>
                <path d="M120.388775,10.4568197 C120.903453,11.228704 121.410294,11.9938059 121.608849,12.7802983 C121.69071,13.1055905 123.228648,13.0508099 123.253903,12.739865 C123.319218,11.9565029 123.434171,11.1684454 123.292221,10.3853441 C123.187718,9.81066993 120.027369,9.91553558 120.388775,10.4568197" id="Fill-134" fill="#666666"></path>
                <path d="M117.740232,22.9707939 C118.13169,23.0860836 118.527374,22.8353743 118.914607,22.6487148 C119.322364,22.4519903 119.809197,22.4199654 120.179528,21.843517 C120.363335,21.5580378 120.461426,20.5735004 120.202164,20.3063211 C119.819157,19.9128722 119.396611,20.0354819 118.995494,20.0245019 C118.553934,20.0126069 118.094567,19.9101272 117.664476,20.2367813 C117.212955,20.5799054 117.284788,22.8372043 117.740232,22.9707939" id="Fill-136" fill="#666666"></path>
                <path d="M117.485786,13.9069962 C117.846567,14.3823528 118.296519,14.7497764 118.738954,15.1284821 C119.13185,15.4646916 119.510397,15.8328673 119.992464,15.9889377 C120.216927,16.0618959 120.424991,15.7584048 120.340946,15.5353934 C120.173538,15.091627 119.855463,14.7610586 119.55447,14.4199601 C119.152349,13.9637833 118.760478,13.4560844 118.277728,13.1025756 C117.805911,12.7573403 117.062141,13.3489035 117.485786,13.9069962" id="Fill-138" fill="#666666"></path>
                <g id="Group-173" transform="translate(16.360000, 205.000000)">
                    <mask id="mask-13" fill="white">
                        <use xlink:href="#path-12"></use>
                    </mask>
                    <g id="Clip-172"></g>
                    <path d="M53.6758015,1.486 C54.730458,1.19566667 55.0361069,0.842 54.1351145,0.412 C53.4112977,0.0663333333 51.3120611,0.25 50.3539695,0.232333333 C45.8683206,0.149 41.3788931,0.0843333333 36.8785496,0.096 C27.8270611,0.119 18.755,0.394666667 9.74465649,0.921333333 C8.4070229,0.999333333 -1.27969466,1.303 0.30480916,2.618 C1.11049618,3.28666667 4.96091603,2.86266667 6.38251908,2.858 C9.49022901,2.84833333 12.5979389,2.83866667 15.705229,2.829 C21.9206489,2.80933333 28.1364885,2.79 34.3527481,2.77033333 C35.7348855,2.766 49.7901145,2.55566667 53.6758015,1.486" id="Fill-171" fill="url(#linearGradient-14)" mask="url(#mask-13)"></path>
                </g>
                <path d="M51.9994218,205.699678 C51.6371964,205.218082 51.1213487,204.978293 50.63097,204.730932 C48.9427411,203.878295 47.3422386,202.755075 45.8816133,201.397114 C43.9868028,201.003861 42.0531824,200.901888 40.1385626,201.094728 C39.3975368,202.53346 39.1687204,204.367463 39.5244774,206.019228 C39.5681385,206.224184 39.6247362,206.434189 39.7456128,206.583615 C39.896001,206.769893 40.1179449,206.827442 40.3265479,206.874895 C43.8081157,207.666449 47.350324,208.043044 50.8888938,207.996096 C51.351378,207.990038 51.8740983,207.942585 52.1696192,207.49885 C52.5075884,206.991003 52.3612429,206.181275 51.9994218,205.699678" id="Fill-174" fill="#333333"></path>
                <path d="M32.9550293,203.859431 C32.5759961,203.651024 32.0540555,203.557405 31.5575755,203.459317 C29.8476144,203.121773 28.2136241,202.658384 26.7081685,202.084205 C24.8121813,201.961654 22.890323,201.972944 20.9996744,202.117606 C20.32456,202.794342 20.1738502,203.635499 20.5951807,204.376686 C20.6473337,204.468423 20.7122169,204.562277 20.8378769,204.626493 C20.9951572,204.706939 21.2177314,204.726463 21.426754,204.741752 C24.9127914,204.99838 28.4415368,205.064007 31.9493389,204.937458 C32.4076282,204.920757 32.9242303,204.883591 33.1989574,204.672832 C33.5126967,204.431728 33.3340624,204.067604 32.9550293,203.859431" id="Fill-176" fill="#333333"></path>
                <path d="M52.3224103,120.85225 L52.322842,120.85225 C52.322842,120.844301 52.3219786,120.836769 52.3215469,120.82882 C52.1782177,116.664902 51.5932446,112.527761 51.0592139,108.381834 C50.7285206,105.817459 50.3442948,103.163547 49.0055483,101 C42.2271998,105.58985 33.4461281,106.355522 26.0115737,103.104553 C25.2362146,102.76523 24.2367957,102.425908 23.6522543,103.063968 C23.4644585,103.269821 23.3617105,103.544291 23.267165,103.812904 C21.7432131,108.136651 21.1439934,112.821478 21.513541,117.420951 C21.4107929,130.689674 22.5915319,144.139147 22.0294397,157.326283 C21.4177004,171.681592 21.3089083,186.024349 20.36,200.372127 C20.6634953,202.019787 23.6341223,202.497181 24.661171,201.431935 C25.6886513,200.366688 24.9815031,198.403973 25.2664346,196.750455 C28.4982489,177.973075 31.7304949,159.196113 34.9623092,140.419152 C35.5503043,140.35681 36.1382994,140.294468 36.7262944,140.231708 C38.1535424,145.920695 38.3439285,151.979129 38.5226582,157.949699 C38.9474652,172.139322 39.372704,186.328945 39.797511,200.518567 C39.797511,201.9746 45.0981009,200.680488 45.4451993,200.581746 C45.4663533,200.290957 45.4870756,199.999751 45.5082296,199.708544 C46.0405335,192.397839 46.6829246,185.097174 47.3335182,177.797766 C47.9413722,170.981609 47.9452576,163.713161 49.3820033,157.041353 C49.9656812,154.332212 49.6000191,151.802983 49.6328294,149.036103 C49.6729788,145.655011 50.0964907,142.295258 50.578284,138.958098 C51.316084,133.84232 52.2602434,128.728633 52.3539255,123.538379 C52.3698989,122.641329 52.3526303,121.746371 52.3224103,120.85225" id="Fill-178" fill="#F0E5D4"></path>
                <path d="M36.3553139,51.3156424 C36.1793604,48.2508574 34.9946066,45.3853047 33.7845003,42.6295416 C32.8086204,40.4083143 31.7472232,38.1264695 29.9918502,36.6224782 C29.6425919,36.3236299 29.250575,36.0514872 28.8127723,36.0065539 C28.4385399,35.968827 28.0688483,36.1006594 27.7112653,36.2307962 C24.3314438,37.4626447 20.9047014,38.7195033 17.9388437,40.9136011 C17.7224019,41.0734108 17.4965003,41.2552631 17.4056855,41.5274059 C17.3247091,41.7707235 17.3670893,42.0415946 17.4124966,42.2967814 C18.7837991,49.970613 21.7413321,60.1039027 28.6065472,62 C31.9364206,60.1997038 31.3408273,61.582884 34.7944358,60.1039027 C33.8681255,58.0844511 36.4851033,53.581379 36.3553139,51.3156424" id="Fill-180" fill="#E8DBCE"></path>
                <path d="M43.0465163,56.0423258 C42.2283365,55.0221515 41.0185765,54.4629197 40.5167648,53.2118505 C39.9755564,51.863763 39.645658,50.0267714 39.3686867,48.6079326 C38.5767714,44.5479947 37.4259075,40.7401348 35.9391761,36.8979583 C35.8814738,36.7496772 35.8178022,36.6111402 35.750947,36.4789582 C36.5432603,34.5851961 36.205005,32.2563347 34.1909933,30.7548821 C33.6720699,30.3680802 32.9028376,30.0384723 31.9593044,29.7715663 C31.236234,29.3013032 30.1868468,29.0708319 29.2043147,29.1610716 C29.1064196,29.1699685 29.0093205,29.1886095 28.9114254,29.1987774 C21.5191549,28.3442543 10.0224551,30.151166 10.5767958,36.4471836 C10.3515576,36.7280705 10.1911848,37.0322587 10.1390537,37.3644085 C9.98544602,38.3451824 10.2437139,38.9611846 10.7355768,39.3246853 C10.4108518,40.002542 10.2075007,40.748608 10.1390537,41.5001816 C9.78328875,41.9751049 9.478859,42.5169666 9.2587941,43.1977889 C8.39564624,45.8685443 8.85169393,48.8028164 9.62729337,51.4265454 C10.3392212,53.8354786 11.5784294,56.0554593 11.6226015,58.6436008 C11.6715491,61.5028851 9.83820549,61.8803665 7.54005937,62.4946741 C3.0038572,63.7076139 0.440280178,66.4952996 0.361486597,71.6965786 C0.325671333,74.0902601 0.935724665,76.6805199 2.33053023,78.5937704 C3.68832669,80.457029 5.99562559,82.740135 8.03709565,83.6615965 C8.93008957,84.0644975 9.87123512,84.055177 10.7109041,83.7696299 C14.5654224,84.4623147 18.5870786,83.6848978 21.1434926,80.1748711 C21.4785643,79.7143523 21.7583213,79.2279901 21.9891308,78.7242578 C22.9987233,77.7727165 23.7452725,76.4699607 24.0556715,74.7414261 C24.7345697,70.9606805 22.2131751,67.8963446 19.0053213,67.4904779 C18.599415,66.917689 18.0920321,66.4342925 17.5010802,66.0801123 C19.4709197,64.5477326 21.2513363,63.0890697 22.0317111,60.4611041 C23.6473775,55.0170676 20.6822716,48.9714332 16.6852881,45.6694239 C16.2499337,45.3093125 16.3784707,44.9797047 15.914862,44.8983619 C15.8818323,44.7678745 15.8492006,44.6373871 15.8229361,44.5060523 C17.7665111,44.0819682 17.2782297,41.3006375 16.2781879,39.6030302 C16.7871626,38.9446619 17.4135318,38.4871086 18.1143171,38.1418254 C18.8950899,38.1850387 19.6838216,38.2964614 20.2166731,38.3778042 C21.6659975,38.598955 23.0496605,38.7743504 24.5184843,38.8959409 C26.3868473,39.0501533 28.3666355,39.5898967 30.2895172,39.6386177 C30.3320976,39.7013194 30.3826369,39.7686814 30.4200439,39.8275702 C30.5139595,39.976275 30.6261807,40.0707513 30.7427793,40.1381133 C31.6783536,42.3640252 32.393465,44.6416237 33.0114773,46.9971756 C33.4528009,48.6795312 33.6052148,50.3364671 33.8356263,51.997216 C33.0600269,52.3992698 32.4658914,53.2122741 32.3886896,54.5251978 C32.2139907,57.4967521 32.6748138,60.7415673 34.1221484,63.3225066 C34.4854744,63.9711307 35.100701,64.5642553 35.3820498,65.2552455 C35.4532824,65.4306409 35.5527692,65.4653811 35.6287772,65.4573315 C35.5368513,65.5208806 35.3816519,65.6484024 35.1321389,65.8915834 C34.185422,66.8151632 33.399078,67.5010694 33.1479732,68.9330417 C32.0440672,75.2265173 39.5891495,76.7817748 42.8658482,72.7239552 C46.066141,68.7610355 46.2511866,60.0378673 43.0465163,56.0423258" id="Fill-182" fill="#D7C68E"></path>
                <path d="M52.36,138.948349 C52.372114,135.209015 51.8199182,131.445484 51.5165184,127.717633 C51.2114764,123.975427 50.9544693,120.232402 50.5496625,116.50086 C49.7535973,109.152194 48.7506126,101.812551 47.6150188,94.5196597 C45.7010136,82.2230814 42.1365792,69.9379859 33.099453,62 C30.4891474,62.66601 27.730221,62.7755079 24.9478929,62.7882212 C24.8846676,62.9514428 24.828011,63.1228666 24.7853134,63.312745 C20.5118513,82.2620413 18.7903962,101.624723 15.5905342,120.786864 C15.1849064,123.214683 14.6039717,125.7479 14.1404557,128.284397 C13.1830425,130.941875 11.8696786,133.82122 11.5387716,136.728452 C11.3150194,137.10944 11.1516187,137.537589 11.0420007,137.985423 C9.93925122,139.443345 10.1178424,141.85394 11.98915,142.732795 C12.3951884,142.923083 12.8098485,142.982138 13.2101391,142.943589 C13.2721328,142.970245 13.3250944,143.004284 13.3895514,143.02807 C20.0076904,145.472294 27.1714562,147.069242 34.1681264,146.776017 C34.6024931,146.757972 34.9962149,146.675951 35.3554501,146.549229 C37.39139,146.683333 39.4141921,146.758382 41.4772286,146.810055 C44.0497633,146.874852 47.5197701,147.482627 49.8332448,146.113288 C51.2139397,145.295949 51.6598019,143.539061 51.4401553,141.941293 C52.0087733,141.157173 52.3556918,140.159798 52.36,138.948349" id="Fill-184" fill="#8E9DAE"></path>
                <path d="M35.6764929,45.7007589 C35.0775755,48.527363 30.1389087,46.9847604 30.5244418,44.2586956 C30.5256428,44.2511926 30.5232407,44.2461907 30.5240414,44.2386878 C31.2762913,43.4358742 32.0673748,42.8256358 33.1178824,42.7736155 C34.4278141,42.7080899 36.0832443,43.781009 35.6764929,45.7007589 M24.4612034,51.238422 C22.5883854,51.4785158 20.2391558,50.2580391 21.2428229,47.5114662 C21.639966,46.4245416 22.3561848,45.5451981 23.2065194,45.0109894 C23.2653703,45.2200711 23.4835588,45.3521227 23.6653158,45.1590473 C25.0264918,43.714483 27.3661131,44.6798601 27.5026311,47.0422829 C27.6307417,49.269653 26.1466596,51.0218374 24.4612034,51.238422 M34.3745681,42.2093951 C32.7835936,41.5971559 30.658958,42.3464486 29.8090237,44.208676 C29.7934102,44.2431895 29.7858036,44.2772028 29.7805991,44.3107159 C29.031552,44.5663157 28.2728965,44.8699343 27.510638,45.0369996 C26.681922,43.7404932 25.14019,43.2437991 23.9767849,43.9850887 C22.1968471,44.5283009 20.6459072,46.2049558 20.3820792,48.6128964 C20.056598,51.5905596 23.4094948,52.3873708 25.1758208,51.8386565 C27.2135813,51.2054091 28.8101607,48.2697624 27.8461278,45.7002587 C27.8353185,45.6717476 27.818504,45.6487386 27.8072943,45.6207276 C28.5395269,45.3131075 29.3165982,45.1120289 30.0608412,44.8669332 C30.7362247,47.831091 35.3269909,49.4587268 36.2453844,46.082408 C36.7185932,44.344229 35.6544739,42.7020875 34.3745681,42.2093951" id="Fill-186" fill="#414141"></path>
                <path d="M33.1181578,84.3262176 C29.101645,86.4843535 18.6919996,92.0732579 13.9104568,91.5829747 C18.6391952,87.0879034 23.0544867,81.9144452 25.3246529,79.0827768 C27.9340344,75.8287852 27.1428135,70.6282239 26.358774,66.905389 C25.8472051,64.4774356 23.0244938,64.5745214 21.6963579,66.0502251 C20.8734543,66.1376023 20.1181404,66.5930964 19.672049,67.5704265 C15.1283372,77.5294044 6.48151335,86.1336311 4.42045256,97.0505219 C4.13953323,98.538766 4.82979216,100.539946 6.65640148,100.821091 C17.8585351,102.54679 25.6097965,91.3196296 34.8138122,87.2897609 C38.528284,85.6639787 34.5692223,83.5466998 33.1181578,84.3262176" id="Fill-188" fill="#E8DBCE"></path>
                <path d="M52.2086034,82.9744688 C51.6264798,82.0966417 51.2525611,81.1550167 50.5786575,80.3163567 C49.9111275,79.4861761 49.1089018,78.8009541 48.2301927,78.1783187 C47.4381648,77.6170586 46.6155435,78.4948856 46.7166715,79.2313882 C46.8360706,80.1011396 47.0816672,80.9668532 47.4054469,81.8067245 C46.3873681,81.4780441 45.3714138,81.1424994 44.380954,80.7475983 C44.2993717,80.7411378 44.2182143,80.7310431 44.1357822,80.725794 C43.2120329,80.6688604 42.553426,80.2541739 42.1387161,79.6900872 C41.13126,79.6452671 40.2070857,79.8160679 39.5472041,80.4136687 C38.0366573,81.7808824 46.1353978,86.1776897 47.0786929,86.9335739 C47.5554393,87.3159577 48.0385593,87.7193382 48.6304557,87.9058865 C50.6466427,88.5402317 52.6777014,85.8239746 51.9732045,84.071147 C52.3212039,83.8357407 52.5119874,83.4315526 52.2086034,82.9744688" id="Fill-190" fill="#E8DBCE"></path>
                <path d="M39.0237495,77.3941375 C38.9152397,76.4275819 38.6537732,75.5941477 38.1209081,75.083057 C37.8425568,74.8163391 37.4206845,75.2242607 37.4050412,75.8466026 C37.3677953,77.3347083 37.3305494,78.8223385 37.2930551,80.3104442 C37.2217912,80.2291452 37.1507757,80.1468952 37.0792635,80.0660716 C36.6673234,79.5996717 36.2524037,80.610918 36.3852476,81.3416587 C36.6139376,82.6048845 37.0397828,83.3204113 37.4375693,84.3601836 C37.635966,84.8788811 37.880051,84.9078825 38.0781994,84.7058234 C38.2932326,85.0681035 38.6346536,85.1603375 38.8655784,84.6088351 C38.9778128,84.3411662 39.0068647,84.0568572 38.9807925,83.7982216 C39.3361187,81.6235905 39.5983301,79.3396098 39.0237495,77.3941375" id="Fill-192" fill="#E8DBCE"></path>
                <path d="M39.1886891,77.6541212 C39.1522103,76.6743703 38.9591867,75.7853195 38.48158,75.1419151 C38.2320263,74.8055686 37.7971796,75.096565 37.7382337,75.7045397 C37.5973917,77.158577 37.4565496,78.6130867 37.3157076,80.067124 C37.2526548,79.9683931 37.1900852,79.8691898 37.1270325,79.7704589 C36.7627275,79.2026379 36.2918852,80.0883819 36.3682249,80.8427996 C36.4998868,82.1461423 36.8596017,82.962444 37.1695508,84.0905275 C37.324163,84.6526797 37.5572891,84.7462142 37.7626334,84.5992988 C37.9440611,85.012646 38.2665725,85.193574 38.5279637,84.7117293 C38.654794,84.4783653 38.7028687,84.2062647 38.6958628,83.9445569 C39.1918297,81.8986064 39.6054172,79.7199124 39.1886891,77.6541212" id="Fill-194" fill="#E8DBCE"></path>
                <path d="M48.8049695,20.0714351 C48.0595797,20.7541832 47.3203346,21.4280103 46.541282,21.9049823 C46.2190812,22.1018374 46.364686,23.1087123 46.6788719,22.9903614 C47.4699469,22.6912131 48.2690369,22.4235854 49.0475552,21.9864601 C49.6190208,21.6653069 49.3278111,19.5926789 48.8049695,20.0714351" id="Fill-196" fill="#666666"></path>
                <path d="M38.2991719,16.2331938 C37.859878,15.8003679 36.2670188,16.0194143 36.364267,16.4869406 C36.4487724,16.888784 36.7975247,17.2714182 37.096647,17.6490952 C37.4118654,18.0472206 37.6425785,18.5355052 38.2146665,18.8713558 C38.4990338,19.0377319 39.2488513,19.0727422 39.3300033,18.7942093 C39.4500546,18.3827613 39.1817836,17.9651169 39.0188089,17.5604851 C38.839738,17.1146466 38.717004,16.6452613 38.2991719,16.2331938" id="Fill-198" fill="#666666"></path>
                <path d="M44.1651043,16.1725095 C43.7001906,16.5674185 43.3835298,17.024389 43.0525363,17.4764193 C42.7578223,17.8778123 42.4232457,18.2714863 42.3614363,18.7235165 C42.3327711,18.9340935 42.7399065,19.0708759 42.9795297,18.9612647 C43.4560886,18.7429687 43.7624479,18.4088862 44.0858271,18.0880805 C44.5175967,17.6595163 45.0129671,17.2321871 45.3045459,16.7480454 C45.5894063,16.2756367 44.7110868,15.7087462 44.1651043,16.1725095" id="Fill-200" fill="#666666"></path>
            </g>
        </g>
    </g>
</svg>