<svg xmlns="http://www.w3.org/2000/svg" xmlns:xlink="http://www.w3.org/1999/xlink" width="299" height="318"><defs><linearGradient x1="122.050554%" y1="39.7522576%" x2="-34.1090097%" y2="84.0644207%" id="A"><stop stop-color="#fdffde" offset="0%"/><stop stop-color="#fbd1a6" offset="100%"/></linearGradient><path id="B" d="M55.457 48.84L9.87.256.385 8l50.417 70.303z"/><path d="M58.977-2.266C74.25 11.4 84.906 19.748 90.948 22.778c6.395 3.207 15.872 4.595 28.43 4.163l22.552 90.807 5.505 24.906h-9.43l-7.112 88.112C93.043 219.05 49.68 217.1.8 224.887c5.724-18.366 14.234-48.92 25.53-91.665h-9.163V91.045a1.8 1.8 0 0 1 .677-1.406c12.486-9.972 21.54-21.705 27.164-35.197 5.45-13.077 9.108-31.58 10.975-55.506a1.8 1.8 0 0 1 2.995-1.201z" id="C"/><path d="M0 23.6C10.753 8.386 19.622.78 26.607.78c10.477 0 27.988 4.304 41.117 16.556s16.757 51.127 13.13 55.882c-4.39 5.753-3.352 20.12 0 28.475s9.65 34.86-7.543 32.107-23.488 15.168-27.68 7.703 6.773-16.202 6.773-28.9-16.632-16.454-16.632-27.92S16.083 61.21 21.345 61.21s1.288-20.113-3.678-14.303c-3.31 3.874-9.2-1.9-17.667-17.318V23.6z" id="D"/></defs><g transform="translate(.213)" fill="none" fill-rule="evenodd"><path d="M253.99 178.1c-9.15-21.248-.2-89.932-70.192-103.56S93.2 108.957 59.518 115.854 0 177.438 0 225.095s32.535 90.542 76.397 77.672 114.84-2.55 138.835 6.785 66.595 22.092 80.157-31.183-32.25-79.03-41.4-100.28z" fill="url(#A)"/><g transform="translate(19.374)"><g transform="translate(26.155 128.916)"><mask id="E" fill="#fff"><use xlink:href="#B"/></mask><use fill="#fff" xlink:href="#B"/><path d="M1.7 6.988l48.488 52.547L48.353 78.8l-57.36-69.2L1.7 6.988z" fill="#f0f0f0" mask="url(#E)"/></g><path d="M124.697 78.66c2.624 5.222 2.624 8.58 0 10.078s5.998 3.378 25.867 5.645V78.66h-25.867z" fill="#edc0b0"/><g transform="translate(56.67 76.476)"><mask id="F" fill="#fff"><use xlink:href="#C"/></mask><use fill="#079992" xlink:href="#C"/><path d="M55.603 227.708c4.012 0 48.98-5.155 56.706-56.448 5.15-34.195 7.727-84.22 7.727-150.073 32.774 90.95 42.748 165.338 29.923 223.163s-44.277 53.946-94.355-11.636" fill="#3d6c47" opacity=".227" mask="url(#F)"/><path fill="#000" opacity=".38" mask="url(#F)" d="M130.223 71.297l13.637 55.28 4.392 16.035h-11.47z"/></g><path d="M109.17 32.775c-3.032 5.68-4.55 10.372-4.55 14.08 0 5.563 4.55 6.205 4.55 9.754s9.98 23.278 21.096 23.278c7.412 0 11.464-11 12.156-33.03l-33.252-14.08z" fill="#ffcebd"/><g transform="translate(98.082)"><mask id="G" fill="#fff"><use xlink:href="#D"/></mask><use fill="#000" xlink:href="#D"/><path d="M9.02-16.31c-9.046 11.806 25 11.806 48.543 32.594S72.226 73.29 77.588 77.393 88.47 54.643 88.47 53.22 81.02 4.445 77.588 2.025 18.067-28.115 9.02-16.31z" fill-opacity=".28" fill="#fff" opacity=".725" mask="url(#G)"/></g><path d="M26.666 135.93c-4.842-1.862-8.2-3.74-10.074-5.633-2.812-2.84-12.026-8.822-9.672-11.956s6.025-4.72 9.672-4.72c2.43 0 8.808 4.75 19.13 14.247l-9.056 8.06z" fill="#ffcebd"/><path d="M31.53 131.107c1.965 0 10.847-8.056 10.444-9.077s-28.35-15.145-30.673-15.713-14.498 5.53-10.353 7.93 28.617 16.86 30.58 16.86z" stroke="#303030" stroke-width=".9" fill="#33373b"/><path d="M6.507 119.455c2.725-3.466 4.735-4.938 6.03-4.414 1.94.786.796 6.128-.72 7.505m5.788-14.578c1.602-2.54 3.04-3.248 4.317-2.124 1.915 1.687.8 4.505.8 4.505s.533-3.68 2.838-2.368 2.064 3.66 1.405 4.566" fill="#ffcebd"/><path d="M74.145 208.657c.99 0 19.03-13.51 30.275-28.632s14.986-26.87 18-41.583c1.162-5.672 3.4-10.432 5.807-9.378 7.37 3.225 15.53 25.16-18.795 66.016-13.957 16.61-18.456 13.577-21.924 13.577H74.145z" fill="#025f5b"/><g fill="#fff"><ellipse transform="matrix(.978148 .207912 -.207912 .978148 47.882067 -13.474805)" cx="88.043" cy="221.046" rx="2.18" ry="4.37"/><ellipse transform="matrix(.978148 .207912 -.207912 .978148 51.827808 -11.685573)" cx="81.504" cy="240.712" rx="2.18" ry="4.37"/><ellipse transform="matrix(.978148 .207912 -.207912 .978148 56.227841 -9.848593)" cx="74.965" cy="262.562" rx="2.18" ry="4.37"/></g></g></g></svg>