<?xml version="1.0" encoding="UTF-8"?>
<svg width="35px" height="132px" viewBox="0 0 35 132" version="1.1" xmlns="http://www.w3.org/2000/svg" xmlns:xlink="http://www.w3.org/1999/xlink">
    <!-- Generator: Sketch 61.1 (89650) - https://sketch.com -->
    <title>Path 2</title>
    <desc>Created with Sketch.</desc>
    <g id="MAQUETTE-UI" stroke="none" stroke-width="1" fill="none" fill-rule="evenodd">
        <g id="E_Inscription_SM_1" transform="translate(-682.000000, -531.000000)" fill="#0065DB" fill-rule="nonzero">
            <path id="Path-2" d="M676.207061,658.90314 C676.371823,659.124743 676.325744,659.437954 676.104141,659.602716 C675.836061,659.802033 675.566662,660.00109 675.295942,660.199887 C675.073365,660.363331 674.760432,660.315394 674.596988,660.092817 C674.433544,659.87024 674.481481,659.557307 674.704058,659.393863 C674.973186,659.196236 675.240995,658.998355 675.507484,658.800219 C675.729088,658.635457 676.042299,658.681536 676.207061,658.90314 Z M678.589012,657.086797 C678.75781,657.305343 678.717481,657.619346 678.498935,657.788143 C678.235617,657.991522 677.970945,658.194634 677.70492,658.397479 C677.485331,658.564916 677.171585,658.522639 677.004147,658.30305 C676.83671,658.083461 676.878987,657.769714 677.098576,657.602276 C677.362957,657.400685 677.625988,657.198833 677.887666,656.996721 C678.106212,656.827923 678.420215,656.868252 678.589012,657.086797 Z M680.939392,655.222995 C681.112374,655.438243 681.078111,655.752966 680.862863,655.925948 C680.602509,656.135178 680.340746,656.344131 680.077573,656.552805 C679.861197,656.724373 679.546705,656.688049 679.375136,656.471673 C679.203568,656.255297 679.239891,655.940805 679.456268,655.769236 C679.717732,655.561916 679.977789,655.354326 680.236439,655.146465 C680.451687,654.973483 680.76641,655.007746 680.939392,655.222995 Z M683.257799,653.307892 C683.435122,653.519579 683.407265,653.834933 683.195579,654.012257 C682.939157,654.227054 682.681273,654.441562 682.421928,654.655782 C682.209024,654.831641 681.893869,654.80161 681.71801,654.588706 C681.542151,654.375802 681.572182,654.060647 681.785086,653.884788 C682.042661,653.67203 682.298777,653.458992 682.553435,653.245673 C682.765121,653.068349 683.080476,653.096206 683.257799,653.307892 Z M685.532574,651.346949 C685.714379,651.554799 685.693266,651.870677 685.485416,652.052482 C685.23382,652.272552 684.980714,652.492324 684.726099,652.711798 C684.516937,652.892091 684.201221,652.868689 684.020927,652.659527 C683.840633,652.450365 683.864035,652.134649 684.073198,651.954355 C684.325985,651.736457 684.577266,651.518269 684.827041,651.299792 C685.034891,651.117987 685.350768,651.1391 685.532574,651.346949 Z M687.759913,649.339466 C687.946338,649.543183 687.93232,649.859455 687.728603,650.045879 C687.482695,650.270914 687.235234,650.495641 686.986221,650.720061 C686.781092,650.904931 686.464936,650.888508 686.280066,650.683379 C686.095196,650.47825 686.111619,650.162094 686.316748,649.977224 C686.563881,649.754499 686.809465,649.531476 687.0535,649.308155 C687.257217,649.121731 687.573489,649.135749 687.759913,649.339466 Z M689.948481,647.272623 C690.139684,647.471861 690.133171,647.788377 689.933933,647.97958 C689.692627,648.211155 689.449704,648.442409 689.205163,648.673344 C689.004396,648.862941 688.687943,648.853886 688.498346,648.653118 C688.308749,648.452351 688.317804,648.135898 688.518571,647.946301 C688.761168,647.717202 689.002152,647.487793 689.241524,647.258075 C689.440762,647.066871 689.757277,647.073385 689.948481,647.272623 Z M692.080555,645.157883 C692.276661,645.352297 692.278032,645.668877 692.083618,645.864983 C691.84795,646.1027 691.610607,646.340086 691.371588,646.57714 C691.175521,646.771595 690.858941,646.770288 690.664487,646.574221 C690.470033,646.378155 690.471339,646.061575 690.667406,645.86712 C690.904426,645.632049 691.139776,645.396658 691.373455,645.160945 C691.567869,644.964839 691.884449,644.963468 692.080555,645.157883 Z M694.146113,643.001032 C694.347219,643.190269 694.356841,643.506706 694.167603,643.707812 C693.938517,643.951266 693.707703,644.194377 693.47516,644.437146 C693.284143,644.636562 692.967634,644.643372 692.768217,644.452355 C692.5688,644.261337 692.561991,643.944828 692.753008,643.745411 C692.983505,643.504779 693.21228,643.263816 693.439332,643.022522 C693.62857,642.821416 693.945006,642.811794 694.146113,643.001032 Z M696.165086,640.775319 C696.371336,640.958936 696.389684,641.274986 696.206067,641.481237 C695.984645,641.729951 695.76145,641.978314 695.536481,642.226326 C695.350951,642.430858 695.034744,642.446263 694.830212,642.260733 C694.625679,642.075203 694.610275,641.758996 694.795804,641.554464 C695.018692,641.308748 695.239813,641.062693 695.459167,640.8163 C695.642785,640.610049 695.958835,640.591701 696.165086,640.775319 Z M698.118837,638.493985 C698.330325,638.671545 698.35783,638.98693 698.18027,639.198419 C697.965922,639.453724 697.749737,639.708666 697.531714,639.963243 C697.352091,640.172982 697.036452,640.197396 696.826713,640.017773 C696.616974,639.838151 696.59256,639.522511 696.772183,639.312772 C696.988085,639.060671 697.202159,638.80822 697.414404,638.555418 C697.591964,638.34393 697.907349,638.316426 698.118837,638.493985 Z M700.007379,636.149944 C700.22419,636.320963 700.261311,636.635362 700.090291,636.852173 C699.882763,637.115267 699.673316,637.377981 699.461952,637.640315 C699.2887,637.855346 698.973934,637.889215 698.758903,637.715963 C698.543872,637.542711 698.510004,637.227945 698.683256,637.012914 C698.892461,636.75326 699.099759,636.493241 699.30515,636.232856 C699.47617,636.016045 699.790568,635.978924 700.007379,636.149944 Z M701.817083,633.752966 C702.03925,633.916967 702.086402,634.230019 701.922401,634.452186 C701.724208,634.720671 701.524052,634.988768 701.321932,635.256475 C701.155542,635.476858 700.842,635.520629 700.621616,635.354239 C700.401233,635.187848 700.357462,634.874306 700.523852,634.653923 C700.723806,634.389084 700.92181,634.123871 701.117863,633.858285 C701.281864,633.636118 701.594915,633.588965 701.817083,633.752966 Z M703.550729,631.291734 C703.778277,631.448184 703.835913,631.759476 703.679463,631.987024 C703.490429,632.261964 703.299372,632.536502 703.106291,632.81064 C702.94728,633.036406 702.635357,633.090521 702.409591,632.93151 C702.183826,632.772499 702.129711,632.460576 702.288722,632.23481 C702.479636,631.963748 702.668542,631.692301 702.85544,631.420468 C703.01189,631.192921 703.323181,631.135284 703.550729,631.291734 Z M705.180708,628.79979 C705.41355,628.948246 705.481959,629.257349 705.333503,629.490191 C705.153451,629.772591 704.9713,630.054576 704.787051,630.336145 C704.635849,630.567212 704.325957,630.631956 704.094889,630.480754 C703.863821,630.329551 703.799078,630.019659 703.95028,629.788591 C704.13237,629.510322 704.312379,629.231653 704.490307,628.952585 C704.638763,628.719743 704.947866,628.651335 705.180708,628.79979 Z M706.734531,626.227281 C706.972643,626.367129 707.052301,626.673525 706.912454,626.911637 C706.742741,627.200598 706.570871,627.489131 706.396842,627.777237 C706.254066,628.013605 705.946709,628.089475 705.710342,627.946699 C705.473974,627.803923 705.398104,627.496566 705.54088,627.260199 C705.712784,626.975611 705.882548,626.690612 706.050175,626.405204 C706.190022,626.167092 706.496419,626.087433 706.734531,626.227281 Z M708.189512,623.600569 C708.432763,623.731273 708.524,624.034424 708.393295,624.277675 C708.234977,624.572318 708.074453,624.866525 707.911725,625.160295 C707.777919,625.401854 707.473626,625.489204 707.232067,625.355398 C706.990509,625.221592 706.903158,624.917299 707.036965,624.67574 C707.197628,624.385697 707.356109,624.095234 707.512406,623.804352 C707.64311,623.561101 707.946261,623.469864 708.189512,623.600569 Z M709.540177,620.921343 C709.788381,621.042379 709.891471,621.341706 709.770436,621.58991 C709.623671,621.890877 709.474645,622.191398 709.323359,622.491473 C709.199044,622.73805 708.898376,622.837164 708.651799,622.712849 C708.405221,622.588534 708.306108,622.287866 708.430423,622.041289 C708.579722,621.745157 708.726784,621.448594 708.871611,621.151602 C708.992646,620.903398 709.291974,620.800308 709.540177,620.921343 Z M710.786417,618.179849 C711.039348,618.290666 711.154555,618.585542 711.043738,618.838474 C710.909574,619.144693 710.773111,619.450459 710.634349,619.755771 C710.520092,620.007167 710.223672,620.11834 709.972276,620.004083 C709.72088,619.889826 709.609707,619.593405 709.723964,619.34201 C709.860846,619.040834 709.995455,618.739221 710.127793,618.43717 C710.238609,618.184239 710.533486,618.069032 710.786417,618.179849 Z M711.916462,615.392185 C712.173811,615.492317 712.301261,615.782111 712.201129,616.03946 C712.079783,616.351333 711.956094,616.662745 711.830063,616.973695 C711.726335,617.229615 711.434783,617.352992 711.178863,617.249265 C710.922942,617.145537 710.799566,616.853985 710.903293,616.598065 C711.027571,616.29144 711.149536,615.98437 711.269187,615.676853 C711.369318,615.419504 711.659113,615.292054 711.916462,615.392185 Z M712.927133,612.558407 C713.188535,612.647421 713.328283,612.93149 713.239269,613.192892 C713.131067,613.510642 713.020476,613.827922 712.907495,614.144732 C712.814739,614.40483 712.528694,614.540487 712.268596,614.447731 C712.008498,614.354975 711.872841,614.06893 711.965597,613.808832 C712.076972,613.496525 712.185989,613.183762 712.292648,612.870543 C712.381662,612.609141 712.665731,612.469393 712.927133,612.558407 Z M713.816238,609.675444 C714.081283,609.752943 714.233319,610.030629 714.15582,610.295673 C714.06159,610.617939 713.964945,610.939732 713.865884,611.261051 C713.78453,611.524938 713.504657,611.672909 713.24077,611.591555 C712.976884,611.510201 712.828912,611.230328 712.910267,610.966441 C713.007896,610.649764 713.103143,610.332626 713.196009,610.015026 C713.273508,609.749981 713.551194,609.597946 713.816238,609.675444 Z M714.4861,606.75102 L714.57531,606.764587 C714.843517,606.830313 715.00766,607.101019 714.941934,607.369225 C714.862179,607.694679 714.780004,608.01966 714.695408,608.344167 C714.625748,608.611378 714.35266,608.771526 714.085448,608.701867 C713.818236,608.632207 713.658089,608.359119 713.727748,608.091907 C713.811109,607.772138 713.892083,607.451906 713.970672,607.131211 C714.021792,606.922606 714.196913,606.776953 714.398413,606.753444 L714.4861,606.75102 Z M715.115729,603.808679 L715.205454,603.818265 C715.476319,603.871995 715.652341,604.135131 715.598612,604.405996 C715.533189,604.735806 715.465323,605.06514 715.395015,605.393997 C715.337281,605.664037 715.071568,605.836145 714.801528,605.778411 C714.531489,605.720677 714.359381,605.454964 714.417114,605.184925 C714.486391,604.860893 714.553261,604.536392 714.617724,604.211422 C714.659513,604.00075 714.827981,603.847451 715.028236,603.815002 L715.115729,603.808679 Z M715.61513,600.83165 L715.705194,600.83722 C715.978188,600.878803 716.165783,601.133818 716.1242,601.406812 C716.07355,601.73933 716.020459,602.071374 715.964927,602.402942 C715.919313,602.675291 715.661553,602.859097 715.389204,602.813483 C715.116855,602.76787 714.93305,602.51011 714.978664,602.237761 C715.033381,601.911052 715.085695,601.583874 715.135603,601.256226 C715.167945,601.043897 715.329401,600.88323 715.528007,600.841873 L715.61513,600.83165 Z M715.971164,597.938475 L716.061384,597.940178 C716.33591,597.970016 716.534268,598.216751 716.504431,598.491277 C716.468115,598.825398 716.429376,599.159049 716.388213,599.492229 C716.354353,599.766287 716.104737,599.961008 715.830678,599.927148 C715.556619,599.893289 715.361899,599.643672 715.395758,599.369614 C715.436322,599.041285 715.474498,598.712489 715.510285,598.383224 C715.533493,598.169705 715.687909,598.002261 715.884559,597.952425 L715.971164,597.938475 Z M716.298736,594.946542 C716.574302,594.964372 716.783239,595.202216 716.765409,595.477782 C716.743744,595.812625 716.719685,596.147004 716.693231,596.480919 C716.671423,596.756199 716.430586,596.961679 716.155306,596.939871 C715.880026,596.918062 715.674546,596.677225 715.696355,596.401945 C715.722428,596.072831 715.746141,595.743255 715.767496,595.413215 C715.785326,595.137649 716.02317,594.928712 716.298736,594.946542 Z M716.406658,591.942578 C716.682736,591.948554 716.901697,592.177204 716.895721,592.453281 C716.888448,592.789265 716.878804,593.124792 716.86679,593.45986 C716.856894,593.735825 716.625159,593.951517 716.349194,593.941622 C716.073229,593.931726 715.857537,593.699991 715.867432,593.424026 C715.879277,593.09369 715.888785,592.762895 715.895955,592.43164 C715.901931,592.155562 716.130581,591.936602 716.406658,591.942578 Z M716.387359,588.940251 C716.663444,588.934633 716.891809,589.153891 716.897427,589.429976 C716.904268,589.766211 716.908773,590.101995 716.910943,590.437329 C716.912729,590.713466 716.690324,590.938767 716.414187,590.940553 C716.138051,590.942339 715.91275,590.719934 715.910963,590.443798 C715.908824,590.113092 715.904381,589.781933 715.897634,589.450319 C715.892016,589.174234 716.111274,588.945868 716.387359,588.940251 Z M716.243671,585.932969 C716.519294,585.916044 716.756451,586.12576 716.773377,586.401383 C716.793971,586.736747 716.812278,587.07167 716.828298,587.406154 C716.841508,587.68198 716.628616,587.91629 716.35279,587.929501 C716.076964,587.942712 715.842653,587.72982 715.829443,587.453993 C715.813638,587.124 715.795576,586.79356 715.775257,586.462675 C715.758332,586.187052 715.968047,585.949895 716.243671,585.932969 Z M716.528094,583.389083 C716.56195,583.723322 716.593568,584.057132 716.622951,584.390512 C716.647195,584.665588 716.443855,584.908235 716.168779,584.932479 C715.893703,584.956723 715.651056,584.753383 715.626812,584.478307 C715.597812,584.14926 715.566603,583.819777 715.533185,583.489857 C715.505357,583.215121 715.705516,582.969843 715.980253,582.942015 C716.254989,582.914187 716.500266,583.114346 716.528094,583.389083 Z M716.165535,580.387252 C716.212122,580.719731 716.25653,581.051791 716.298759,581.383434 C716.333639,581.657364 716.139851,581.907705 715.86592,581.942586 C715.59199,581.977466 715.341649,581.783677 715.306768,581.509747 C715.265069,581.182263 715.221216,580.854352 715.17521,580.526016 C715.136891,580.252545 715.327519,579.99979 715.60099,579.961471 C715.874461,579.923152 716.127216,580.113781 716.165535,580.387252 Z M715.689502,577.395321 C715.74832,577.725855 715.805017,578.055983 715.859593,578.385704 C715.904687,578.65814 715.72039,578.915548 715.447955,578.960642 C715.175519,579.005736 714.918111,578.821439 714.873017,578.549004 C714.819099,578.223257 714.763082,577.897095 714.704968,577.570518 C714.656589,577.298646 714.837765,577.039032 715.109636,576.990653 C715.381508,576.942273 715.641122,577.123449 715.689502,577.395321 Z M715.107075,574.429127 C715.177637,574.757897 715.246132,575.086272 715.312559,575.414249 C715.367374,575.684896 715.192408,575.948736 714.921761,576.003551 C714.651114,576.058367 714.387274,575.8834 714.332459,575.612753 C714.2668,575.288566 714.199094,574.963973 714.129341,574.638974 C714.071393,574.36898 714.24329,574.103131 714.513284,574.045183 C714.783278,573.987236 715.049127,574.159133 715.107075,574.429127 Z M714.420785,571.477873 C714.502322,571.803591 714.581858,572.128926 714.659393,572.453877 C714.723484,572.722479 714.557694,572.992179 714.289092,573.056269 C714.02049,573.12036 713.75079,572.95457 713.686699,572.685968 C713.610021,572.364608 713.53136,572.042855 713.450718,571.72071 C713.38366,571.452833 713.546456,571.181315 713.814333,571.114258 C714.08221,571.047201 714.353728,571.209997 714.420785,571.477873 Z M713.64035,568.562052 C713.732356,568.885036 713.822421,569.207649 713.910547,569.52989 C713.983392,569.796252 713.826515,570.071232 713.560154,570.144076 C713.293792,570.21692 713.018812,570.060043 712.945968,569.793682 C712.858771,569.47484 712.769652,569.155617 712.67861,568.836013 C712.602957,568.570436 712.756922,568.293814 713.022499,568.218162 C713.288077,568.14251 713.564698,568.296475 713.64035,568.562052 Z M712.767213,565.667997 C712.869117,565.98802 712.969142,566.307684 713.06729,566.626988 C713.148424,566.890942 713.000219,567.170691 712.736265,567.251826 C712.47231,567.33296 712.192561,567.184755 712.111427,566.920801 C712.014266,566.604707 711.915242,566.288244 711.814354,565.971412 C711.730568,565.708287 711.875951,565.427061 712.139076,565.343275 C712.402201,565.259489 712.683427,565.404872 712.767213,565.667997 Z M711.805982,562.796891 C711.917168,563.113612 712.026539,563.429985 712.134095,563.74601 C712.223066,564.007427 712.083271,564.291472 711.821854,564.380443 C711.560437,564.469414 711.276392,564.329619 711.187421,564.068202 C711.080894,563.7552 710.972565,563.441842 710.862434,563.128127 C710.770966,562.867573 710.908036,562.582203 711.16859,562.490735 C711.429143,562.399266 711.714514,562.536337 711.805982,562.796891 Z M710.766831,559.964507 C710.886843,560.278175 711.005097,560.591506 711.121595,560.904499 C711.21792,561.163297 711.086211,561.451181 710.827413,561.547506 C710.568616,561.643831 710.280732,561.512122 710.184407,561.253325 C710.06897,560.94318 709.951787,560.632689 709.832858,560.321852 C709.73418,560.063943 709.863263,559.774871 710.121172,559.676193 C710.379082,559.577515 710.668153,559.706598 710.766831,559.964507 Z M709.649518,557.157137 C709.777716,557.467335 709.904219,557.777207 710.029024,558.086754 C710.132285,558.342863 710.008376,558.63419 709.752267,558.73745 C709.496158,558.84071 709.204831,558.716802 709.101571,558.460693 C708.977845,558.153824 708.852432,557.846621 708.725333,557.539084 C708.619862,557.283878 708.741246,556.99149 708.996452,556.886018 C709.251658,556.780547 709.544046,556.901931 709.649518,557.157137 Z M708.457813,554.374359 C708.593722,554.681074 708.727993,554.987474 708.860626,555.29356 C708.97042,555.546937 708.854022,555.841345 708.600645,555.951138 C708.347267,556.060932 708.052859,555.944534 707.943066,555.691157 C707.811523,555.387587 707.678351,555.083695 707.54355,554.77948 C707.431679,554.527013 707.545655,554.231659 707.798121,554.119788 C708.050588,554.007917 708.345942,554.121892 708.457813,554.374359 Z M707.203484,551.633127 C707.346724,551.936629 707.48838,552.239826 707.628451,552.54272 C707.744358,552.793359 707.635136,553.090504 707.384496,553.206411 C707.133856,553.322318 706.836712,553.213095 706.720805,552.962456 C706.581828,552.661928 706.441274,552.361089 706.299143,552.059937 C706.181283,551.81021 706.288182,551.512222 706.537909,551.394361 C706.787636,551.276501 707.085624,551.3834 707.203484,551.633127 Z M705.880127,548.91054 C706.030144,549.21052 706.178631,549.510205 706.32559,549.809596 C706.447268,550.057485 706.344953,550.357079 706.097064,550.478757 C705.849175,550.600435 705.549581,550.498121 705.427903,550.250231 C705.282036,549.953062 705.134645,549.655591 704.985732,549.357819 C704.86222,549.110839 704.96231,548.810495 705.20929,548.686983 C705.45627,548.56347 705.756614,548.66356 705.880127,548.91054 Z M704.503654,546.231177 C704.660138,546.527945 704.815142,546.824429 704.968667,547.120629 C705.09574,547.365796 705.000007,547.667557 704.75484,547.794631 C704.509673,547.921704 704.207912,547.825971 704.080838,547.580804 C703.928397,547.286693 703.774481,546.992292 703.619092,546.697599 C703.490293,546.453334 703.583897,546.150906 703.828162,546.022107 C704.072427,545.893308 704.374855,545.986912 704.503654,546.231177 Z M703.065795,543.571422 C703.228298,543.86484 703.389371,544.157982 703.549015,544.450849 C703.681181,544.693309 703.59177,544.997003 703.34931,545.129169 C703.106851,545.261336 702.803156,545.171925 702.67099,544.929465 C702.512417,544.638562 702.35242,544.347377 702.190997,544.055911 C702.057209,543.814342 702.144583,543.510055 702.386152,543.376268 C702.62772,543.24248 702.932007,543.329853 703.065795,543.571422 Z M701.579472,540.948788 C701.747595,541.238876 701.914335,541.528698 702.079693,541.818254 C702.216634,542.058049 702.133254,542.363454 701.893459,542.500395 C701.653664,542.637336 701.348259,542.553956 701.211318,542.314161 C701.047014,542.026452 700.881333,541.738471 700.714275,541.450219 C700.575808,541.211301 700.65724,540.905371 700.896158,540.766904 C701.135076,540.628438 701.441006,540.70987 701.579472,540.948788 Z M694.455949,530.516349 L695.240426,530.934343 L703.341033,535.250612 C703.584738,535.380466 703.677033,535.683296 703.547179,535.927002 C703.431753,536.143629 703.179654,536.240623 702.953895,536.168302 L702.870788,536.133148 L695.603015,532.260985 C695.595822,532.266135 695.588455,532.271124 695.580916,532.275944 L695.557,532.287 L696.022374,540.511561 C696.036222,540.75663 695.871147,540.970432 695.640658,541.025861 L695.55138,541.038974 C695.306311,541.052823 695.092509,540.887748 695.03708,540.657259 L695.023967,540.567981 L694.5061,531.403822 L694.455949,530.516349 Z M700.038411,538.346282 C700.211882,538.63317 700.384016,538.9198 700.554812,539.206172 C700.696261,539.443336 700.618668,539.750263 700.381503,539.891711 C700.144339,540.03316 699.837412,539.955566 699.695964,539.718402 C699.526204,539.433768 699.355111,539.148871 699.182684,538.863711 C699.0398,538.627408 699.115531,538.320017 699.351833,538.177133 C699.588136,538.034249 699.895527,538.10998 700.038411,538.346282 Z M698.370925,535.726604 L698.426124,535.797987 L698.964779,536.640514 C699.113524,536.873171 699.0455,537.182359 698.812843,537.331104 C698.606036,537.463323 698.338761,537.424266 698.177451,537.250552 L698.122252,537.179168 L697.583598,536.336642 C697.434852,536.103984 697.502876,535.794796 697.735534,535.646051 C697.94234,535.513833 698.209615,535.55289 698.370925,535.726604 Z M696.754962,533.199024 L696.810161,533.270407 L697.348815,534.112934 C697.497561,534.345591 697.429537,534.654779 697.196879,534.803524 C696.990073,534.935742 696.722798,534.896686 696.561488,534.722972 L696.506289,534.651588 L695.967634,533.809062 C695.818889,533.576404 695.886913,533.267216 696.11957,533.118471 C696.326377,532.986253 696.593652,533.025309 696.754962,533.199024 Z"></path>
        </g>
    </g>
</svg>