<svg id="Calque_1" data-name="Calque 1" xmlns="http://www.w3.org/2000/svg" viewBox="0 0 54 50"><defs><style>.cls-1{fill:#1b2e57}</style></defs><path class="cls-1" d="M27.1 36.7c-2.7-2.8-4-6.6-4-11.4a19 19 0 0 1 1-6.3 13.8 13.8 0 0 1 2.9-5 12.6 12.6 0 0 1 4.7-3.1A17.1 17.1 0 0 1 38 9.8a16 16 0 0 1 5.9 1 23.4 23.4 0 1 0-.3 29.4 18.4 18.4 0 0 1-5 .6c-5 0-8.8-1.4-11.5-4.1z"/><path class="cls-1" d="M31.1 23.3h13.3a.9.9 0 0 0 .9-.8 9.8 9.8 0 0 0-2.3-6 7 7 0 0 0-5.3-2.2 6.7 6.7 0 0 0-5.1 2.2 10.3 10.3 0 0 0-2.4 5.9c0 .5.4.9 1 .9zM46 26.8H31a.8.8 0 0 0-.8.9 10.7 10.7 0 0 0 1.1 4.5 7.7 7.7 0 0 0 7 4.3 10 10 0 0 0 2.7-.3 8.9 8.9 0 0 0 2.4-1 17.5 17.5 0 0 0 2-1.6l2.3-2a1.9 1.9 0 0 1 .4-.4 23.4 23.4 0 0 0 .7-4.7 14 14 0 0 1-2.8.3zM44.2 40c3-1 6.2-4 6.8-6.8.4-1.8-.8-2.2-1.4-2.2h-.3a2.5 2.5 0 0 0-1.2.2 23.4 23.4 0 0 1-4.5 9zM48.9 26.5a6.7 6.7 0 0 0 1.6-.5c1-.5 1.5-1.5 1.5-3.4a12.7 12.7 0 0 0-1.6-6 12.9 12.9 0 0 0-6.5-5.8 23.4 23.4 0 0 1 5 14.5v1.2z"/><path d="M45.5 33.6a17.5 17.5 0 0 1-2 1.5 8.9 8.9 0 0 1-2.5 1.1 10 10 0 0 1-2.7.3 7.7 7.7 0 0 1-7-4.3 10.7 10.7 0 0 1-1.1-4.5.8.8 0 0 1 .9-.9H46a14 14 0 0 0 2.9-.3v-1.2a23.4 23.4 0 0 0-5-14.5 16 16 0 0 0-5.9-1 17.1 17.1 0 0 0-6.3 1.1A12.6 12.6 0 0 0 27 14a13.8 13.8 0 0 0-3 5 19 19 0 0 0-1 6.3c0 4.8 1.4 8.6 4.1 11.4s6.5 4.1 11.5 4.1a18.4 18.4 0 0 0 5-.6 23.4 23.4 0 0 0 4.6-9 1.9 1.9 0 0 0-.5.3l-2.2 2zM30.2 22.4a10.3 10.3 0 0 1 2.4-5.9 6.7 6.7 0 0 1 5.1-2.2 7 7 0 0 1 5.3 2.2 9.8 9.8 0 0 1 2.3 6 .9.9 0 0 1-1 .8H31.2c-.5 0-1-.4-.9-1z" fill="#fff"/></svg>